<svg xmlns="http://www.w3.org/2000/svg" width="124.373" height="108" viewBox="0 0 124.373 108">
  <g id="_4" data-name="4" transform="translate(7.288)">
    <g id="Grupo_1021439" data-name="Grupo 1021439" transform="translate(0)">
      <g id="Grupo_1021344" data-name="Grupo 1021344" transform="translate(86.189 44.232)">
        <g id="Grupo_1021343" data-name="Grupo 1021343" transform="translate(0)">
          <path id="Trazado_738265" data-name="Trazado 738265" d="M169.006,107.694a3.377,3.377,0,0,1-2.709-2.647c0-.061-.122-.061-.122,0a3.377,3.377,0,0,1-2.709,2.647c-.061,0-.061.092,0,.122a3.377,3.377,0,0,1,2.709,2.647c0,.061.122.061.122,0a3.376,3.376,0,0,1,2.709-2.647C169.068,107.785,169.068,107.694,169.006,107.694Z" transform="translate(-163.422 -105.001)" fill="#826be9"/>
        </g>
      </g>
      <g id="Grupo_1021346" data-name="Grupo 1021346" transform="translate(69.563)">
        <g id="Grupo_1021345" data-name="Grupo 1021345" transform="translate(0)">
          <path id="Trazado_738266" data-name="Trazado 738266" d="M126.563,0a1.475,1.475,0,1,0,1.475,1.475A1.475,1.475,0,0,0,126.563,0Z" transform="translate(-125.088)" fill="#826be9"/>
        </g>
      </g>
      <g id="Grupo_1021348" data-name="Grupo 1021348" transform="translate(75.657 6.743)">
        <g id="Grupo_1021347" data-name="Grupo 1021347" transform="translate(0)">
          <path id="Trazado_738267" data-name="Trazado 738267" d="M147.1,19.385a4.813,4.813,0,0,1-3.86-3.773c0-.087-.174-.087-.174,0a4.813,4.813,0,0,1-3.86,3.773c-.087,0-.087.13,0,.173a4.813,4.813,0,0,1,3.86,3.773c0,.087.174.087.174,0a4.813,4.813,0,0,1,3.86-3.773c.087-.043.087-.173,0-.173Z" transform="translate(-139.138 -15.547)" fill="#362b9e"/>
        </g>
      </g>
      <g id="Grupo_1021363" data-name="Grupo 1021363" transform="translate(75.409 65.99)">
        <g id="Grupo_1021362" data-name="Grupo 1021362" transform="translate(0)">
          <path id="Trazado_738273" data-name="Trazado 738273" d="M147.664,165.543a6.177,6.177,0,0,0-4.659-5.647l-2.994-.756a1.9,1.9,0,0,1,.473,1.249v32.252a1.918,1.918,0,0,1-1.918,1.918h2.869a1.354,1.354,0,0,1,1.354,1.354,4.152,4.152,0,0,1-4.152,4.152h8.5a1.717,1.717,0,0,0,1.714-1.812Z" transform="translate(-138.566 -159.14)" fill="#3a70bf"/>
        </g>
      </g>
      <g id="Grupo_1021365" data-name="Grupo 1021365" transform="translate(20.792 65.99)">
        <g id="Grupo_1021364" data-name="Grupo 1021364" transform="translate(0)">
          <path id="Trazado_738274" data-name="Trazado 738274" d="M20.061,194.56H22.93a1.918,1.918,0,0,1-1.918-1.918V160.39a1.9,1.9,0,0,1,.473-1.249l-2.994.756a6.177,6.177,0,0,0-4.659,5.647l-1.19,32.71a1.717,1.717,0,0,0,1.714,1.813h8.5C20.565,200.066,19.313,194.56,20.061,194.56Z" transform="translate(-12.639 -159.141)" fill="#3a70bf"/>
        </g>
      </g>
      <g id="Grupo_1021367" data-name="Grupo 1021367" transform="translate(29.165 65.321)">
        <g id="Grupo_1021366" data-name="Grupo 1021366">
          <path id="Trazado_738275" data-name="Trazado 738275" d="M78.187,157.6H33.862a1.918,1.918,0,0,0-1.918,1.918v32.252a1.918,1.918,0,0,0,1.918,1.918H78.187a1.918,1.918,0,0,0,1.918-1.918V159.516A1.918,1.918,0,0,0,78.187,157.6Z" transform="translate(-31.944 -157.598)" fill="#71cc98"/>
        </g>
      </g>
      <g id="Grupo_1021369" data-name="Grupo 1021369" transform="translate(26.86 101.41)">
        <g id="Grupo_1021368" data-name="Grupo 1021368">
          <path id="Trazado_738276" data-name="Trazado 738276" d="M78.046,240.807H27.982a1.354,1.354,0,0,0-1.354,1.354,4.152,4.152,0,0,0,4.152,4.151H75.249a4.152,4.152,0,0,0,4.152-4.151A1.353,1.353,0,0,0,78.046,240.807Z" transform="translate(-26.628 -240.807)" fill="#46928d"/>
        </g>
      </g>
      <g id="Grupo_1021371" data-name="Grupo 1021371" transform="translate(68.271 30.26)">
        <g id="Grupo_1021370" data-name="Grupo 1021370" transform="translate(0)">
          <path id="Trazado_738277" data-name="Trazado 738277" d="M123.114,71.985a6.285,6.285,0,0,0-.967.077v11.4c0,.34-.016.676-.038,1.01a6.286,6.286,0,1,0,1-12.491Z" transform="translate(-122.109 -71.985)" fill="#f9d0b4"/>
        </g>
      </g>
      <g id="Grupo_1021373" data-name="Grupo 1021373" transform="translate(38.182 24.962)">
        <g id="Grupo_1021372" data-name="Grupo 1021372">
          <path id="Trazado_738278" data-name="Trazado 738278" d="M81.935,63.273a12.48,12.48,0,0,1-5.5-3.164A1,1,0,0,0,75,60.19c-2.294,2.678-10.43,10.8-22.269,7.43V76.59a15.064,15.064,0,0,0,30.128,0V64.42a1.183,1.183,0,0,0-.927-1.148Z" transform="translate(-52.734 -59.844)" fill="#f9d0b4"/>
        </g>
      </g>
      <g id="Grupo_1021375" data-name="Grupo 1021375" transform="translate(30.926 31.425)">
        <g id="Grupo_1021374" data-name="Grupo 1021374" transform="translate(0)">
          <path id="Trazado_738279" data-name="Trazado 738279" d="M43.26,85.019V76.048a24.489,24.489,0,0,1-3.186-1.157,1.916,1.916,0,0,0-2.083.358A6.27,6.27,0,0,0,43.3,86.029C43.276,85.7,43.26,85.359,43.26,85.019Z" transform="translate(-36.004 -74.729)" fill="#f9d0b4"/>
        </g>
      </g>
      <g id="Grupo_1021377" data-name="Grupo 1021377" transform="translate(32.762 8.902)">
        <g id="Grupo_1021376" data-name="Grupo 1021376">
          <path id="Trazado_738280" data-name="Trazado 738280" d="M60.721,20.526A20.544,20.544,0,0,0,40.237,41.01v3.7c.051-.052.1-.107.151-.157a1.916,1.916,0,0,1,2.083-.358,24.552,24.552,0,0,0,3.186,1.157C57.5,48.727,65.632,40.6,67.926,37.925a1,1,0,0,1,1.435-.081,12.478,12.478,0,0,0,5.5,3.164,1.182,1.182,0,0,1,.926,1.148v.766a6.262,6.262,0,0,1,5.42,1.772V41.01A20.543,20.543,0,0,0,60.721,20.526Z" transform="translate(-40.237 -20.526)" fill="#826be9"/>
        </g>
      </g>
      <g id="Grupo_1021379" data-name="Grupo 1021379" transform="translate(60.411 39.398)">
        <g id="Grupo_1021378" data-name="Grupo 1021378">
          <path id="Trazado_738281" data-name="Trazado 738281" d="M117.92,105.589a11.135,11.135,0,0,0,.249-11.387,6.213,6.213,0,0,1-6.323,2.856,15.117,15.117,0,0,1-7.861,12.228v4.568a4.181,4.181,0,0,0,2,3.558c.493.3-.133-.053,4.063,2.035a14.49,14.49,0,0,0,1.885.753c.114.036.229.067.344.1a10.432,10.432,0,0,0,5.44-4.106,8.621,8.621,0,0,0,.112-8.837A1.748,1.748,0,0,1,117.92,105.589Z" transform="translate(-103.985 -94.202)" fill="#826be9"/>
        </g>
      </g>
      <g id="Grupo_1021381" data-name="Grupo 1021381" transform="translate(30.441 39.398)">
        <g id="Grupo_1021380" data-name="Grupo 1021380">
          <path id="Trazado_738282" data-name="Trazado 738282" d="M42.664,97.057A6.212,6.212,0,0,1,36.342,94.2a11.136,11.136,0,0,0,.249,11.387,1.747,1.747,0,0,1,.093,1.768,8.621,8.621,0,0,0,.112,8.837,10.432,10.432,0,0,0,5.44,4.106c.115-.033.23-.064.344-.1a14.454,14.454,0,0,0,1.885-.753c4.469-2.223,3.608-1.754,4.063-2.035a4.182,4.182,0,0,0,2-3.558v-4.568A15.114,15.114,0,0,1,42.664,97.057Z" transform="translate(-34.884 -94.201)" fill="#826be9"/>
        </g>
      </g>
      <g id="Grupo_1021383" data-name="Grupo 1021383" transform="translate(20.792 84.984)">
        <g id="Grupo_1021382" data-name="Grupo 1021382">
          <path id="Trazado_738283" data-name="Trazado 738283" d="M18.706,220.714a1.354,1.354,0,0,1,1.354-1.354h2.869a1.918,1.918,0,0,1-1.918-1.918V204.8l-7.639-1.869-.732,20.118a1.717,1.717,0,0,0,1.714,1.813h8.5A4.151,4.151,0,0,1,18.706,220.714Z" transform="translate(-12.638 -202.934)" fill="#f9d0b4"/>
        </g>
      </g>
      <g id="Grupo_1021385" data-name="Grupo 1021385" transform="translate(75.409 84.984)">
        <g id="Grupo_1021384" data-name="Grupo 1021384" transform="translate(0)">
          <path id="Trazado_738284" data-name="Trazado 738284" d="M148.122,202.935l-7.639,1.869v12.639a1.918,1.918,0,0,1-1.918,1.918h2.869a1.354,1.354,0,0,1,1.354,1.354,4.152,4.152,0,0,1-4.152,4.152h8.5a1.717,1.717,0,0,0,1.714-1.812Z" transform="translate(-138.565 -202.935)" fill="#f9d0b4"/>
        </g>
      </g>
      <g id="Grupo_1021387" data-name="Grupo 1021387" transform="translate(33.624 61.628)">
        <g id="Grupo_1021386" data-name="Grupo 1021386">
          <path id="Trazado_738285" data-name="Trazado 738285" d="M53.47,146.273a4.163,4.163,0,0,1-1.125.824l-3.724,1.836a13.142,13.142,0,0,1-2.332.881l-4.064,1.37h14.8Z" transform="translate(-42.225 -146.273)" fill="#3a70bf"/>
        </g>
      </g>
      <g id="Grupo_1021389" data-name="Grupo 1021389" transform="translate(58.066 61.628)">
        <g id="Grupo_1021388" data-name="Grupo 1021388" transform="translate(0)">
          <path id="Trazado_738286" data-name="Trazado 738286" d="M109.316,149.814a13.167,13.167,0,0,1-2.332-.881L103.26,147.1a4.163,4.163,0,0,1-1.125-.824l-3.557,4.912h14.8Z" transform="translate(-98.578 -146.273)" fill="#3a70bf"/>
        </g>
      </g>
      <g id="Grupo_1021391" data-name="Grupo 1021391" transform="translate(44.87 54.221)">
        <g id="Grupo_1021390" data-name="Grupo 1021390" transform="translate(0)">
          <path id="Trazado_738287" data-name="Trazado 738287" d="M83.694,133.547v-4.568a14.977,14.977,0,0,1-14.33,0v4.568a4.179,4.179,0,0,1-1.211,2.932l3.557,4.912h9.639l3.557-4.912A4.179,4.179,0,0,1,83.694,133.547Z" transform="translate(-68.153 -128.979)" fill="#f9d0b4"/>
        </g>
      </g>
      <g id="Grupo_1021393" data-name="Grupo 1021393" transform="translate(74.397 64.948)">
        <g id="Grupo_1021392" data-name="Grupo 1021392" transform="translate(0)">
          <path id="Trazado_738288" data-name="Trazado 738288" d="M148.617,196.854l-1.191-32.731a7.229,7.229,0,0,0-5.477-6.637l-2.827-.713a1.084,1.084,0,0,0-.531,2.1l2.827.714a5.064,5.064,0,0,1,3.841,4.634l1.191,32.731a.633.633,0,0,1-.632.668h-8.5a1.084,1.084,0,0,0,0,2.169h8.5a2.8,2.8,0,0,0,2.8-2.937Z" transform="translate(-136.232 -156.739)"/>
        </g>
      </g>
      <g id="Grupo_1021395" data-name="Grupo 1021395" transform="translate(19.707 64.935)">
        <g id="Grupo_1021394" data-name="Grupo 1021394">
          <path id="Trazado_738289" data-name="Trazado 738289" d="M21.441,197.6h-8.5a.627.627,0,0,1-.46-.2.644.644,0,0,1-.171-.491L13.5,164.226a5.071,5.071,0,0,1,3.842-4.656l2.876-.726a1.084,1.084,0,0,0-.531-2.1l-2.875.726a7.235,7.235,0,0,0-5.478,6.658l-1.189,32.689a2.8,2.8,0,0,0,2.8,2.957h8.5a1.084,1.084,0,1,0,0-2.168Z" transform="translate(-10.137 -156.709)"/>
        </g>
      </g>
      <g id="Grupo_1021403" data-name="Grupo 1021403" transform="translate(49.078 84.327)">
        <g id="Grupo_1021402" data-name="Grupo 1021402" transform="translate(0)">
          <path id="Trazado_738291" data-name="Trazado 738291" d="M84.993,200H78.94a1.084,1.084,0,1,0,0,2.169h6.053a1.084,1.084,0,1,0,0-2.169Z" transform="translate(-77.856 -200)"/>
        </g>
      </g>
      <g id="Grupo_1021406" data-name="Grupo 1021406" transform="translate(28.081 64.237)">
        <g id="Grupo_1021405" data-name="Grupo 1021405">
          <g id="Grupo_1021404" data-name="Grupo 1021404">
            <path id="Trazado_738292" data-name="Trazado 738292" d="M76.772,155.1H32.447a3.006,3.006,0,0,0-3,3v32.252a3.006,3.006,0,0,0,3,3H76.772a3.006,3.006,0,0,0,3-3V158.1A3.006,3.006,0,0,0,76.772,155.1Zm.834,35.255a.835.835,0,0,1-.834.834H32.447a.835.835,0,0,1-.834-.834V158.1a.835.835,0,0,1,.834-.834H76.772a.835.835,0,0,1,.834.834Z" transform="translate(-29.444 -155.098)"/>
          </g>
        </g>
      </g>
      <g id="Grupo_1021409" data-name="Grupo 1021409" transform="translate(25.775 100.326)">
        <g id="Grupo_1021408" data-name="Grupo 1021408">
          <g id="Grupo_1021407" data-name="Grupo 1021407">
            <path id="Trazado_738293" data-name="Trazado 738293" d="M76.631,238.307H26.566a2.441,2.441,0,0,0-2.438,2.438,5.242,5.242,0,0,0,5.236,5.236H73.833a5.242,5.242,0,0,0,5.236-5.236A2.44,2.44,0,0,0,76.631,238.307Zm-2.8,5.505H29.364a3.071,3.071,0,0,1-3.067-3.067.27.27,0,0,1,.27-.27H76.631a.27.27,0,0,1,.27.27A3.071,3.071,0,0,1,73.833,243.812Z" transform="translate(-24.128 -238.307)"/>
          </g>
        </g>
      </g>
      <g id="Grupo_1021411" data-name="Grupo 1021411" transform="translate(24.307 8.903)">
        <g id="Grupo_1021410" data-name="Grupo 1021410">
          <path id="Trazado_738294" data-name="Trazado 738294" d="M10.2,114.338h-1v-1a1.4,1.4,0,0,0-1.388-1.388,1.37,1.37,0,0,0-1.388,1.388v1h-1a1.4,1.4,0,0,0-1.388,1.388,1.37,1.37,0,0,0,1.388,1.388h1v1A1.4,1.4,0,0,0,7.819,119.5a1.37,1.37,0,0,0,1.388-1.388v-1h1a1.4,1.4,0,0,0,1.388-1.388A1.37,1.37,0,0,0,10.2,114.338Z" transform="translate(-4.046 -111.953)" fill="#362b9e"/>
        </g>
      </g>
      <g id="Grupo_1021413" data-name="Grupo 1021413" transform="translate(15.756 23.793)">
        <g id="Grupo_1021412" data-name="Grupo 1021412" transform="translate(0)">
          <path id="Trazado_738295" data-name="Trazado 738295" d="M20.563,140.353a1.475,1.475,0,1,0,1.475,1.475A1.474,1.474,0,0,0,20.563,140.353Z" transform="translate(-19.088 -140.353)" fill="#362b9e"/>
        </g>
      </g>
      <g id="Grupo_1021415" data-name="Grupo 1021415" transform="translate(67.586 29.188)">
        <g id="Grupo_1021414" data-name="Grupo 1021414" transform="translate(0)">
          <path id="Trazado_738296" data-name="Trazado 738296" d="M122.219,69.485c-.225,0-.455.011-.683.033a1.084,1.084,0,0,0,.206,2.159q.236-.023.477-.023a5.2,5.2,0,0,1,0,10.41,4.569,4.569,0,0,1-.491-.028,1.084,1.084,0,1,0-.231,2.156,6.739,6.739,0,0,0,.723.04,7.373,7.373,0,1,0,0-14.746Z" transform="translate(-120.529 -69.485)"/>
        </g>
      </g>
      <g id="Grupo_1021418" data-name="Grupo 1021418" transform="translate(37.097 23.892)">
        <g id="Grupo_1021417" data-name="Grupo 1021417">
          <g id="Grupo_1021416" data-name="Grupo 1021416">
            <path id="Trazado_738297" data-name="Trazado 738297" d="M80.763,60.8a11.61,11.61,0,0,1-5.012-2.91,2.114,2.114,0,0,0-1.542-.543,2.058,2.058,0,0,0-1.446.721c-2.119,2.473-9.908,10.295-21.148,7.092A1.084,1.084,0,0,0,50.233,66.2v8.971a16.148,16.148,0,1,0,32.3,0V63A2.259,2.259,0,0,0,80.763,60.8Zm-.4,14.374a13.979,13.979,0,1,1-27.959,0v-7.58c11.632,2.55,19.625-5.358,21.949-8.046a13.65,13.65,0,0,0,5.923,3.365.1.1,0,0,1,.087.091Z" transform="translate(-50.233 -57.343)"/>
          </g>
        </g>
      </g>
      <g id="Grupo_1021420" data-name="Grupo 1021420" transform="translate(29.842 30.352)">
        <g id="Grupo_1021419" data-name="Grupo 1021419" transform="translate(0)">
          <path id="Trazado_738298" data-name="Trazado 738298" d="M42.141,73.589A23.563,23.563,0,0,1,39.1,72.483a3,3,0,0,0-3.263.559,7.368,7.368,0,0,0,5.044,12.743c.205,0,.407-.01.608-.029a1.084,1.084,0,0,0-.2-2.159c-.134.012-.271.02-.408.02a5.211,5.211,0,0,1-5.205-5.205,5.142,5.142,0,0,1,1.644-3.788.827.827,0,0,1,.9-.157,25.752,25.752,0,0,0,3.327,1.208,1.085,1.085,0,0,0,.594-2.087Z" transform="translate(-33.504 -72.228)"/>
        </g>
      </g>
      <g id="Grupo_1021422" data-name="Grupo 1021422" transform="translate(31.678 7.818)">
        <g id="Grupo_1021421" data-name="Grupo 1021421">
          <path id="Trazado_738299" data-name="Trazado 738299" d="M59.305,18.026A21.593,21.593,0,0,0,37.737,39.594v3.612a1.084,1.084,0,1,0,2.169,0V39.594a19.4,19.4,0,0,1,38.8,0v3.468a1.084,1.084,0,1,0,2.169,0V39.594A21.593,21.593,0,0,0,59.305,18.026Z" transform="translate(-37.737 -18.026)"/>
        </g>
      </g>
      <g id="Grupo_1021424" data-name="Grupo 1021424" transform="translate(67.784 38.478)">
        <g id="Grupo_1021423" data-name="Grupo 1021423" transform="translate(0)">
          <path id="Trazado_738300" data-name="Trazado 738300" d="M128.461,104.97a12.237,12.237,0,0,0,.389-12.287,1.084,1.084,0,0,0-1.943.963,9.973,9.973,0,0,1-.275,10.158,2.841,2.841,0,0,0-.135,2.864,7.514,7.514,0,0,1-.073,7.745,9.279,9.279,0,0,1-4.739,3.608,1.084,1.084,0,1,0,.769,2.028,11.383,11.383,0,0,0,5.8-4.478,9.764,9.764,0,0,0,.151-9.927.662.662,0,0,1,.052-.673Z" transform="translate(-120.985 -92.08)"/>
        </g>
      </g>
      <g id="Grupo_1021426" data-name="Grupo 1021426" transform="translate(29.364 38.497)">
        <g id="Grupo_1021425" data-name="Grupo 1021425">
          <path id="Trazado_738301" data-name="Trazado 738301" d="M40.888,117.985a9.2,9.2,0,0,1-4.581-3.547,7.515,7.515,0,0,1-.073-7.745,2.84,2.84,0,0,0-.135-2.863,9.97,9.97,0,0,1-.284-10.14,1.084,1.084,0,0,0-1.944-.961,12.234,12.234,0,0,0,.4,12.266.662.662,0,0,1,.052.673,9.764,9.764,0,0,0,.151,9.928A11.3,11.3,0,0,0,40.094,120a1.084,1.084,0,0,0,.793-2.019Z" transform="translate(-32.401 -92.124)"/>
        </g>
      </g>
      <g id="Grupo_1021428" data-name="Grupo 1021428" transform="translate(20.691 84.53)">
        <g id="Grupo_1021427" data-name="Grupo 1021427">
          <path id="Trazado_738302" data-name="Trazado 738302" d="M20.857,202.345l-7.109-1.739a1.084,1.084,0,0,0-.515,2.106l7.109,1.739a1.084,1.084,0,0,0,.515-2.106Z" transform="translate(-12.406 -200.574)"/>
        </g>
      </g>
      <g id="Grupo_1021430" data-name="Grupo 1021430" transform="translate(76.509 84.554)">
        <g id="Grupo_1021429" data-name="Grupo 1021429" transform="translate(0)">
          <path id="Trazado_738303" data-name="Trazado 738303" d="M150.269,201.455a1.084,1.084,0,0,0-1.311-.8l-7.028,1.719a1.084,1.084,0,1,0,.515,2.106l7.028-1.719A1.084,1.084,0,0,0,150.269,201.455Z" transform="translate(-141.103 -200.628)"/>
        </g>
      </g>
      <g id="Grupo_1021432" data-name="Grupo 1021432" transform="translate(32.662 60.539)">
        <g id="Grupo_1021431" data-name="Grupo 1021431">
          <path id="Trazado_738304" data-name="Trazado 738304" d="M56.44,148.844l-3.348-4.623a1.084,1.084,0,0,0-1.651-.124,3.091,3.091,0,0,1-.831.612l-3.724,1.836a12.149,12.149,0,0,1-2.14.808l-.059.018L40.745,148.7a1.085,1.085,0,0,0,.693,2.055l3.913-1.319a14.3,14.3,0,0,0,2.494-.946l3.724-1.836a4.944,4.944,0,0,0,.433-.241l2.682,3.7a1.085,1.085,0,1,0,1.757-1.273Z" transform="translate(-40.007 -143.773)"/>
        </g>
      </g>
      <g id="Grupo_1021434" data-name="Grupo 1021434" transform="translate(57.063 60.538)">
        <g id="Grupo_1021433" data-name="Grupo 1021433" transform="translate(0)">
          <path id="Trazado_738305" data-name="Trazado 738305" d="M112.33,148.712l-3.977-1.341-.059-.018a12.147,12.147,0,0,1-2.14-.808l-3.724-1.837a3.088,3.088,0,0,1-.831-.612,1.084,1.084,0,0,0-1.651.124l-3.475,4.8a1.084,1.084,0,1,0,1.757,1.272l2.81-3.88q.211.132.433.241l3.724,1.836a14.242,14.242,0,0,0,2.494.946l3.948,1.331a1.084,1.084,0,1,0,.692-2.054Z" transform="translate(-96.266 -143.773)"/>
        </g>
      </g>
      <g id="Grupo_1021436" data-name="Grupo 1021436" transform="translate(43.785 53.465)">
        <g id="Grupo_1021435" data-name="Grupo 1021435" transform="translate(0)">
          <path id="Trazado_738306" data-name="Trazado 738306" d="M67.949,127.063a1.084,1.084,0,0,0-1.084,1.084v4.315a3.083,3.083,0,0,1-.9,2.172,1.084,1.084,0,1,0,1.545,1.521,5.238,5.238,0,0,0,1.523-3.693v-4.315A1.084,1.084,0,0,0,67.949,127.063Z" transform="translate(-65.653 -127.063)"/>
        </g>
      </g>
      <g id="Grupo_1021438" data-name="Grupo 1021438" transform="translate(59.327 53.492)">
        <g id="Grupo_1021437" data-name="Grupo 1021437" transform="translate(0)">
          <path id="Trazado_738307" data-name="Trazado 738307" d="M104.554,134.669a3.084,3.084,0,0,1-.9-2.172v-4.288a1.084,1.084,0,0,0-2.169,0V132.5a5.239,5.239,0,0,0,1.523,3.693,1.084,1.084,0,1,0,1.545-1.521Z" transform="translate(-101.486 -127.125)"/>
        </g>
      </g>
      <g id="planificacion" transform="translate(-7.288 38.497)">
        <g id="Grupo_1023408" data-name="Grupo 1023408" transform="translate(7.059 0.548)">
          <path id="Trazado_742691" data-name="Trazado 742691" d="M141.341,45.293h-11.3a1.331,1.331,0,0,1-1.331-1.331V40.574a1.331,1.331,0,0,1,1.331-1.331h11.3a1.331,1.331,0,0,1,1.331,1.331v3.389A1.331,1.331,0,0,1,141.341,45.293Z" transform="translate(-128.709 -39.243)" fill="#a0e4a5"/>
        </g>
        <g id="Grupo_1023409" data-name="Grupo 1023409" transform="translate(7.059 9.412)">
          <path id="Trazado_742692" data-name="Trazado 742692" d="M141.341,206.9h-11.3a1.331,1.331,0,0,1-1.331-1.331v-3.389a1.331,1.331,0,0,1,1.331-1.331h11.3a1.331,1.331,0,0,1,1.331,1.331v3.389A1.331,1.331,0,0,1,141.341,206.9Z" transform="translate(-128.709 -200.846)" fill="#71cc98"/>
        </g>
        <g id="Grupo_1023410" data-name="Grupo 1023410" transform="translate(7.059 18.275)">
          <path id="Trazado_742693" data-name="Trazado 742693" d="M141.341,368.5a1.331,1.331,0,0,0,1.331-1.331V363.78a1.331,1.331,0,0,0-1.331-1.331h-11.3a1.331,1.331,0,0,0-1.331,1.331v3.389a1.331,1.331,0,0,0,1.331,1.331Z" transform="translate(-128.709 -362.449)" fill="#5db39e"/>
        </g>
        <g id="Grupo_1023411" data-name="Grupo 1023411">
          <path id="Trazado_742694" data-name="Trazado 742694" d="M19.691,190.846H8.39a1.881,1.881,0,0,0-1.879,1.879v1.194H2.127A2.129,2.129,0,0,0,0,196.046v5.645a2.129,2.129,0,0,0,2.127,2.127H3.56l-.612.612a.548.548,0,0,0,0,.776.554.554,0,0,0,.776,0l1.548-1.548a.554.554,0,0,0,0-.776l-1.548-1.548a.548.548,0,0,0-.776.776l.612.611H2.127a1.031,1.031,0,0,1-1.03-1.03v-5.645a1.031,1.031,0,0,1,1.03-1.03H6.511v1.1a1.881,1.881,0,0,0,1.879,1.879h11.3a1.881,1.881,0,0,0,1.879-1.879v-3.389A1.881,1.881,0,0,0,19.691,190.846Zm.782,5.268a.783.783,0,0,1-.782.782H8.39a.783.783,0,0,1-.782-.782v-3.389a.783.783,0,0,1,.782-.782h11.3a.783.783,0,0,1,.782.782Z" transform="translate(0 -181.983)"/>
          <path id="Trazado_742695" data-name="Trazado 742695" d="M131.889,352.448h-11.3a1.881,1.881,0,0,0-1.879,1.879v3.389a1.881,1.881,0,0,0,1.879,1.879h3.149a.548.548,0,0,0,0-1.1h-3.149a.783.783,0,0,1-.782-.782v-3.389a.783.783,0,0,1,.782-.782h11.3a.783.783,0,0,1,.782.782v3.389a.783.783,0,0,1-.782.782h-3.327a.548.548,0,0,0,0,1.1h3.327a1.881,1.881,0,0,0,1.879-1.879v-3.389A1.881,1.881,0,0,0,131.889,352.448Z" transform="translate(-112.198 -334.722)"/>
          <path id="Trazado_742696" data-name="Trazado 742696" d="M25.954,32.329H21.57V31.122a1.881,1.881,0,0,0-1.879-1.879H8.39a1.881,1.881,0,0,0-1.879,1.879v1.207H1.947a.851.851,0,0,1-.85-.85V29.791a.548.548,0,0,0-1.1,0v1.687a1.949,1.949,0,0,0,1.947,1.947H6.511v1.085A1.881,1.881,0,0,0,8.39,36.39h11.3a1.881,1.881,0,0,0,1.879-1.879V33.426h4.384a1.031,1.031,0,0,1,1.03,1.03V40.1a1.031,1.031,0,0,1-1.03,1.03H24.521l.612-.611a.548.548,0,1,0-.776-.776l-1.548,1.548a.548.548,0,0,0,0,.776l1.548,1.548a.554.554,0,0,0,.776,0,.549.549,0,0,0,0-.776l-.612-.611h1.433A2.129,2.129,0,0,0,28.081,40.1V34.456A2.129,2.129,0,0,0,25.954,32.329Zm-5.481,2.182a.783.783,0,0,1-.782.782H8.39a.783.783,0,0,1-.782-.782V31.122a.783.783,0,0,1,.782-.782h11.3a.783.783,0,0,1,.782.782Z" transform="translate(0 -29.243)"/>
          <path id="Trazado_742697" data-name="Trazado 742697" d="M246.046,463.231a.548.548,0,1,0-.2.666A.552.552,0,0,0,246.046,463.231Z" transform="translate(-231.554 -439.117)"/>
          <path id="Trazado_742698" data-name="Trazado 742698" d="M182.162,84.4H174.1a.548.548,0,0,0,0,1.1h8.066a.548.548,0,0,0,0-1.1Z" transform="translate(-164.029 -81.372)"/>
          <path id="Trazado_742699" data-name="Trazado 742699" d="M182.162,246.877H174.1a.548.548,0,0,0,0,1.1h8.066a.548.548,0,1,0,0-1.1Z" transform="translate(-164.029 -234.941)"/>
          <path id="Trazado_742700" data-name="Trazado 742700" d="M182.71,409.9a.549.549,0,0,0-.548-.548H174.1a.548.548,0,0,0,0,1.1h8.066A.548.548,0,0,0,182.71,409.9Z" transform="translate(-164.029 -388.509)"/>
        </g>
      </g>
      <g id="planificacion-2" data-name="planificacion" transform="translate(89.004 58.493)">
        <g id="Grupo_1023408-2" data-name="Grupo 1023408" transform="translate(7.059 18.274)">
          <path id="Trazado_742691-2" data-name="Trazado 742691" d="M141.341,39.243h-11.3a1.331,1.331,0,0,0-1.331,1.331v3.389a1.331,1.331,0,0,0,1.331,1.331h11.3a1.331,1.331,0,0,0,1.331-1.331V40.574A1.331,1.331,0,0,0,141.341,39.243Z" transform="translate(-128.709 -39.243)" fill="#a0e4a5"/>
        </g>
        <g id="Grupo_1023409-2" data-name="Grupo 1023409" transform="translate(7.059 9.411)">
          <path id="Trazado_742692-2" data-name="Trazado 742692" d="M141.341,200.846h-11.3a1.331,1.331,0,0,0-1.331,1.331v3.389a1.331,1.331,0,0,0,1.331,1.331h11.3a1.331,1.331,0,0,0,1.331-1.331v-3.389A1.331,1.331,0,0,0,141.341,200.846Z" transform="translate(-128.709 -200.846)" fill="#71cc98"/>
        </g>
        <g id="Grupo_1023410-2" data-name="Grupo 1023410" transform="translate(7.059 0.548)">
          <path id="Trazado_742693-2" data-name="Trazado 742693" d="M141.341,362.449a1.331,1.331,0,0,1,1.331,1.331v3.389a1.331,1.331,0,0,1-1.331,1.331h-11.3a1.331,1.331,0,0,1-1.331-1.331V363.78a1.331,1.331,0,0,1,1.331-1.331Z" transform="translate(-128.709 -362.449)" fill="#5db39e"/>
        </g>
        <g id="Grupo_1023411-2" data-name="Grupo 1023411" transform="translate(0 0)">
          <path id="Trazado_742694-2" data-name="Trazado 742694" d="M19.691,205.363H8.39a1.881,1.881,0,0,1-1.879-1.879V202.29H2.127A2.129,2.129,0,0,1,0,200.164v-5.645a2.129,2.129,0,0,1,2.127-2.127H3.56l-.612-.612a.549.549,0,0,1,0-.776.554.554,0,0,1,.776,0l1.548,1.548a.554.554,0,0,1,0,.776l-1.548,1.548a.548.548,0,0,1-.776-.776l.612-.611H2.127a1.031,1.031,0,0,0-1.03,1.03v5.645a1.031,1.031,0,0,0,1.03,1.03H6.511v-1.1a1.881,1.881,0,0,1,1.879-1.879h11.3A1.881,1.881,0,0,1,21.57,200.1v3.389A1.881,1.881,0,0,1,19.691,205.363Zm.782-5.268a.783.783,0,0,0-.782-.782H8.39a.783.783,0,0,0-.782.782v3.389a.783.783,0,0,0,.782.782h11.3a.783.783,0,0,0,.782-.782Z" transform="translate(0 -189.354)"/>
          <path id="Trazado_742695-2" data-name="Trazado 742695" d="M131.889,359.595h-11.3a1.881,1.881,0,0,1-1.879-1.879v-3.389a1.881,1.881,0,0,1,1.879-1.879h3.149a.548.548,0,1,1,0,1.1h-3.149a.783.783,0,0,0-.782.782v3.389a.783.783,0,0,0,.782.782h11.3a.783.783,0,0,0,.782-.782v-3.389a.783.783,0,0,0-.782-.782h-3.327a.548.548,0,1,1,0-1.1h3.327a1.881,1.881,0,0,1,1.879,1.879v3.389A1.881,1.881,0,0,1,131.889,359.595Z" transform="translate(-112.198 -352.448)"/>
          <path id="Trazado_742696-2" data-name="Trazado 742696" d="M25.954,40.687H21.57v1.207a1.881,1.881,0,0,1-1.879,1.879H8.39a1.881,1.881,0,0,1-1.879-1.879V40.687H1.947a.851.851,0,0,0-.85.85v1.687a.548.548,0,0,1-1.1,0V41.537a1.949,1.949,0,0,1,1.947-1.947H6.511V38.506A1.881,1.881,0,0,1,8.39,36.626h11.3a1.881,1.881,0,0,1,1.879,1.879v1.085h4.384a1.031,1.031,0,0,0,1.03-1.03V32.915a1.031,1.031,0,0,0-1.03-1.03H24.521l.612.611a.548.548,0,0,1-.776.776l-1.548-1.548a.548.548,0,0,1,0-.776L24.357,29.4a.554.554,0,0,1,.776,0,.549.549,0,0,1,0,.776l-.612.611h1.433a2.129,2.129,0,0,1,2.127,2.127v5.645A2.129,2.129,0,0,1,25.954,40.687Zm-5.481-2.182a.783.783,0,0,0-.782-.782H8.39a.783.783,0,0,0-.782.782v3.389a.783.783,0,0,0,.782.782h11.3a.783.783,0,0,0,.782-.782Z" transform="translate(0 -18.901)"/>
          <path id="Trazado_742697-2" data-name="Trazado 742697" d="M246.046,463.657a.548.548,0,1,1-.2-.666A.552.552,0,0,1,246.046,463.657Z" transform="translate(-231.554 -462.898)"/>
          <path id="Trazado_742698-2" data-name="Trazado 742698" d="M182.162,85.494H174.1a.548.548,0,0,1,0-1.1h8.066a.548.548,0,0,1,0,1.1Z" transform="translate(-164.029 -63.646)"/>
          <path id="Trazado_742699-2" data-name="Trazado 742699" d="M182.162,247.974H174.1a.548.548,0,0,1,0-1.1h8.066a.548.548,0,1,1,0,1.1Z" transform="translate(-164.029 -235.037)"/>
          <path id="Trazado_742700-2" data-name="Trazado 742700" d="M182.71,409.9a.549.549,0,0,1-.548.548H174.1a.548.548,0,0,1,0-1.1h8.066A.548.548,0,0,1,182.71,409.9Z" transform="translate(-164.029 -406.427)"/>
        </g>
      </g>
    </g>
  </g>
</svg>
