<svg xmlns="http://www.w3.org/2000/svg" xmlns:xlink="http://www.w3.org/1999/xlink" width="89.572" height="89.569" viewBox="0 0 89.572 89.569">
  <defs>
    <clipPath id="clip-path">
      <path id="Trazado_742609" data-name="Trazado 742609" d="M44.785,0C57.053,0,73.627,1.381,81.911,9.565c8.024,7.925,7.659,22.753,7.659,35.219A44.785,44.785,0,1,1,44.785,0Z" transform="translate(409 1984)" fill="#362b9e"/>
    </clipPath>
  </defs>
  <g id="_6" data-name="6" transform="translate(-409 -1984)">
    <path id="Trazado_734791" data-name="Trazado 734791" d="M44.785,0A44.785,44.785,0,1,1,0,44.785,44.785,44.785,0,0,1,44.785,0Z" transform="translate(409 1984)" fill="#362b9e"/>
    <g id="Enmascarar_grupo_952206" data-name="Enmascarar grupo 952206" clip-path="url(#clip-path)">
      <g id="capacitacion" transform="translate(415 1993.918)">
        <path id="Trazado_742503" data-name="Trazado 742503" d="M71.917,36.465a1.227,1.227,0,0,1-1.223,1.223H24.222A1.227,1.227,0,0,1,23,36.465V2.223A1.227,1.227,0,0,1,24.222,1H70.694a1.227,1.227,0,0,1,1.223,1.223Z" transform="translate(4.904 0)" fill="#e8e8e8"/>
        <g id="Grupo_1023353" data-name="Grupo 1023353" transform="translate(47.468 9.561)">
          <path id="Trazado_742504" data-name="Trazado 742504" d="M40.22,15.333A1.222,1.222,0,0,1,39,14.11V9.223a1.223,1.223,0,0,1,2.446,0V14.11A1.222,1.222,0,0,1,40.22,15.333Z" transform="translate(-38.997 -8)" fill="#656d78"/>
          <path id="Trazado_742505" data-name="Trazado 742505" d="M40.22,25.336A1.222,1.222,0,0,1,39,24.113V19.224a1.223,1.223,0,1,1,2.446,0v4.889A1.222,1.222,0,0,1,40.22,25.336Z" transform="translate(-38.997 -5.77)" fill="#656d78"/>
          <path id="Trazado_742506" data-name="Trazado 742506" d="M50.116,17.447h-4.9a1.223,1.223,0,0,1,0-2.446h4.9a1.223,1.223,0,1,1,0,2.446Z" transform="translate(-37.883 -6.439)" fill="#656d78"/>
          <path id="Trazado_742507" data-name="Trazado 742507" d="M54.223,28.006A1.222,1.222,0,0,1,53,26.783V18.224a1.223,1.223,0,0,1,2.446,0v8.559A1.222,1.222,0,0,1,54.223,28.006Z" transform="translate(-35.875 -5.993)" fill="#656d78"/>
          <path id="Trazado_742508" data-name="Trazado 742508" d="M56.23,26.446H45.219a1.223,1.223,0,1,1,0-2.446H56.23a1.223,1.223,0,1,1,0,2.446Z" transform="translate(-37.883 -4.433)" fill="#656d78"/>
        </g>
        <path id="Trazado_742509" data-name="Trazado 742509" d="M19.892,9.635V11.31C17.788,8.571,16.516,8.069,15,8.387V8.375L17.434,3.41A9.075,9.075,0,0,1,19.892,9.635Z" transform="translate(3.121 0.537)" fill="#fab400"/>
        <path id="Trazado_742510" data-name="Trazado 742510" d="M19.886,3.947,17.452,8.912v.012c-2.287.465-5.124,2.849-12.229,2.018-.391-.049-.807-.11-1.223-.171v-.6A9.156,9.156,0,0,1,19.886,3.947Z" transform="translate(0.669 0)" fill="#fab400"/>
        <path id="Trazado_742511" data-name="Trazado 742511" d="M16.338,18.322v3.265L15.115,22.81l-2.446-1.223L10.223,22.81,9,21.6V18.31a8.5,8.5,0,0,0,7.338,0Z" transform="translate(1.784 3.859)" fill="#f5f7fa"/>
        <path id="Trazado_742512" data-name="Trazado 742512" d="M5,13.011v-3.5c7.105.832,9.943-1.553,12.229-2.017,1.516-.319,2.788.182,4.892,2.923v2.6a8.527,8.527,0,0,1-4.892,7.717,8.5,8.5,0,0,1-7.338,0A8.527,8.527,0,0,1,5,13.023Z" transform="translate(0.892 1.429)" fill="#f0c8a0"/>
        <path id="Trazado_742513" data-name="Trazado 742513" d="M18.335,7.855v5.069a8.527,8.527,0,0,1-4.892,7.717A8.33,8.33,0,0,1,11,21.376a8.292,8.292,0,0,0,4.893-.735,8.526,8.526,0,0,0,4.892-7.717v-2.6a10.285,10.285,0,0,0-2.448-2.464Z" transform="translate(2.229 1.528)" fill="#d2aa82"/>
        <path id="Trazado_742514" data-name="Trazado 742514" d="M5.892,34.344H1V27.006a4.89,4.89,0,0,1,4.892-4.892h4.892l1.223,1.211L14.452,22.1,16.9,23.325,18.121,22.1l9.784.012h1.223A3.664,3.664,0,0,0,32.8,18.446a2.446,2.446,0,0,1,4.892,0,8.554,8.554,0,0,1-8.561,8.561H23.013v7.338Z" transform="translate(0 3.344)" fill="#5faa46"/>
        <path id="Trazado_742515" data-name="Trazado 742515" d="M55.561,52.893A9.714,9.714,0,0,0,64.121,48a8.527,8.527,0,0,1-4.892,7.717,8.5,8.5,0,0,1-7.338,0A8.526,8.526,0,0,1,47,48,9.714,9.714,0,0,0,55.561,52.893Z" transform="translate(10.255 10.478)" fill="#eccba6"/>
        <path id="Trazado_742516" data-name="Trazado 742516" d="M60.452,37V40.67a3.661,3.661,0,0,1,3.669,3.657v6.127a9.936,9.936,0,0,1-17.121,0V44.326A7.325,7.325,0,0,1,54.338,37Z" transform="translate(10.255 8.026)" fill="#965353"/>
        <path id="Trazado_742517" data-name="Trazado 742517" d="M59.648,51.325a8.537,8.537,0,0,1-4.2,4.393A8.268,8.268,0,0,1,53,56.453a8.284,8.284,0,0,0,4.891-.735A8.526,8.526,0,0,0,62.783,48,9.592,9.592,0,0,1,59.648,51.325Z" transform="translate(11.593 10.478)" fill="#f0c8a0"/>
        <path id="Trazado_742518" data-name="Trazado 742518" d="M58.446,40.67V37H56V40.67h0a2.448,2.448,0,0,0,2.447,2.446,1.213,1.213,0,0,1,1.22,1.211v6.127a8.486,8.486,0,0,1-.689,3.324,9.588,9.588,0,0,0,3.137-3.324V44.326A3.661,3.661,0,0,0,58.446,40.67Z" transform="translate(12.261 8.026)" fill="#844747"/>
        <path id="Trazado_742519" data-name="Trazado 742519" d="M54.669,55.143a8.354,8.354,0,0,0,3.669-.833v3.277H51V54.31A8.393,8.393,0,0,0,54.669,55.143Z" transform="translate(11.147 11.885)" fill="#1ea4e9"/>
        <path id="Trazado_742520" data-name="Trazado 742520" d="M67.013,60.659V64.34H45V60.659a3.672,3.672,0,0,1,3.669-3.669V57h3.669V56.99h7.338V57h3.669V56.99A3.672,3.672,0,0,1,67.013,60.659Z" transform="translate(9.809 12.482)" fill="#1ea4e9"/>
        <path id="Trazado_742521" data-name="Trazado 742521" d="M55,56.99h2.448V57H55Z" transform="translate(12.038 12.482)" fill="#4a89dc"/>
        <path id="Trazado_742522" data-name="Trazado 742522" d="M60.425,56.99V57h-2.33a3.665,3.665,0,0,1,3.55,3.657V64.34h2.448V60.659A3.672,3.672,0,0,0,60.425,56.99Z" transform="translate(12.729 12.482)" fill="#4a89dc"/>
        <path id="Trazado_742523" data-name="Trazado 742523" d="M48.022,57V56.99c-.04,0-.077.011-.119.012Z" transform="translate(10.457 12.482)" fill="#4a89dc"/>
        <path id="Trazado_742527" data-name="Trazado 742527" d="M14.338,57.587H7V54.31a8.5,8.5,0,0,0,7.338,0v3.277Z" transform="translate(1.338 11.885)" fill="#f5f7fa"/>
        <path id="Trazado_742528" data-name="Trazado 742528" d="M23.013,60.659V64.34H1V60.659A3.672,3.672,0,0,1,4.669,56.99V57H8.338V56.99h7.338V57h3.669V56.99A3.672,3.672,0,0,1,23.013,60.659Z" transform="translate(0 12.482)" fill="#fff"/>
        <path id="Trazado_742529" data-name="Trazado 742529" d="M4.022,57V56.99c-.04,0-.077.011-.119.012Z" transform="translate(0.647 12.482)" fill="#ccd1d9"/>
        <path id="Trazado_742530" data-name="Trazado 742530" d="M16.425,56.99V57h-2.33a3.665,3.665,0,0,1,3.55,3.657V64.34h2.448V60.659a3.672,3.672,0,0,0-3.669-3.669Z" transform="translate(2.919 12.482)" fill="#ccd1d9"/>
        <path id="Trazado_742531" data-name="Trazado 742531" d="M11.561,56.55a8.393,8.393,0,0,1-3.669-.833A8.526,8.526,0,0,1,3,48a9.714,9.714,0,0,0,8.561,4.892A9.714,9.714,0,0,0,20.121,48a8.527,8.527,0,0,1-4.892,7.717A8.354,8.354,0,0,1,11.561,56.55Z" transform="translate(0.446 10.478)" fill="#f0c8a0"/>
        <path id="Trazado_742532" data-name="Trazado 742532" d="M20.121,50.441v.012a9.714,9.714,0,0,1-8.561,4.892A9.714,9.714,0,0,1,3,50.453v-4.9a8.561,8.561,0,0,1,17.121,0Z" transform="translate(0.446 8.026)" fill="#656d78"/>
        <path id="Trazado_742533" data-name="Trazado 742533" d="M15.648,51.325a8.537,8.537,0,0,1-4.2,4.393A8.268,8.268,0,0,1,9,56.453a8.284,8.284,0,0,0,4.891-.735A8.526,8.526,0,0,0,18.783,48,9.591,9.591,0,0,1,15.648,51.325Z" transform="translate(1.784 10.478)" fill="#d2aa82"/>
        <path id="Trazado_742534" data-name="Trazado 742534" d="M10.223,37A8.51,8.51,0,0,0,9,37.1H9a8.544,8.544,0,0,1,7.335,8.452v4.9a8.486,8.486,0,0,1-.689,3.324,9.588,9.588,0,0,0,3.137-3.324v-4.9A8.552,8.552,0,0,0,10.223,37Z" transform="translate(1.784 8.026)" fill="#545c66"/>
        <path id="Trazado_742535" data-name="Trazado 742535" d="M5.223,26A1.222,1.222,0,0,0,4,27.224v4.891H6.446V27.224A1.222,1.222,0,0,0,5.223,26Z" transform="translate(0.669 5.574)" fill="#4c8d37"/>
        <path id="Trazado_742536" data-name="Trazado 742536" d="M45,4H37.667a3.669,3.669,0,1,0,0,7.338H45A3.669,3.669,0,1,0,45,4Z" transform="translate(7.357 0.669)" fill="#4ce166"/>
        <path id="Trazado_742537" data-name="Trazado 742537" d="M45,22H37.667a3.669,3.669,0,1,0,0,7.338H45A3.669,3.669,0,1,0,45,22Z" transform="translate(7.357 4.682)" fill="#fab400"/>
        <path id="Trazado_742538" data-name="Trazado 742538" d="M48.077,15.844l-6.113-3.669a1.229,1.229,0,0,0-1.258,0l-6.113,3.669a1.223,1.223,0,0,0,0,2.1l6.113,3.669a1.222,1.222,0,0,0,1.26,0l6.113-3.669a1.222,1.222,0,0,0,0-2.1Z" transform="translate(7.357 2.453)" fill="#f44336"/>
        <path id="Trazado_742539" data-name="Trazado 742539" d="M61.452,13H49.223A1.222,1.222,0,0,0,48,14.223v4.893a1.222,1.222,0,0,0,1.223,1.223H61.452a1.222,1.222,0,0,0,1.223-1.223V14.223A1.222,1.222,0,0,0,61.452,13Z" transform="translate(10.478 2.675)" fill="#1ea4e9"/>
        <g id="Grupo_1023356" data-name="Grupo 1023356">
          <path id="Trazado_742524" data-name="Trazado 742524" d="M29,57.433V55h7.338v2.432l-3.669,1.223Z" transform="translate(6.242 15.072)" fill="#eccba6"/>
          <path id="Trazado_742525" data-name="Trazado 742525" d="M26.669,57h3.669V56.99l3.669,1.223,3.669-1.223V57h3.669V56.99a3.672,3.672,0,0,1,3.669,3.669V64.34H23V60.659a3.672,3.672,0,0,1,3.669-3.669Z" transform="translate(4.905 15.516)" fill="#4ce166"/>
          <path id="Trazado_742526" data-name="Trazado 742526" d="M38.425,56.99V57h-2.33a3.665,3.665,0,0,1,3.55,3.657V64.34h2.448V60.659A3.672,3.672,0,0,0,38.425,56.99Z" transform="translate(7.824 15.516)" fill="#31d64e"/>
          <path id="Trazado_742540" data-name="Trazado 742540" d="M34.007,36.041A11.007,11.007,0,0,0,23,47.047V58s0,0,0,.006a1.222,1.222,0,0,0,1.223,1.223H43.79A1.222,1.222,0,0,0,45.013,58V47.047A11.007,11.007,0,0,0,34.007,36.041Z" transform="translate(4.904 10.846)" fill="#fab400"/>
          <path id="Trazado_742541" data-name="Trazado 742541" d="M32.223,36.041A10.932,10.932,0,0,0,31,36.113a11.008,11.008,0,0,1,9.782,10.934V58a1.222,1.222,0,0,1-1.223,1.223h2.448A1.222,1.222,0,0,0,43.23,58V47.047A11.007,11.007,0,0,0,32.223,36.041Z" transform="translate(6.688 10.846)" fill="#dc9600"/>
        </g>
      </g>
    </g>
  </g>
</svg>
