<svg xmlns="http://www.w3.org/2000/svg" width="89.569" height="89.569" viewBox="0 0 89.569 89.569">
  <g id="_7" data-name="7" transform="translate(-755.715 -1983.715)">
    <g id="Grupo_1025457" data-name="Grupo 1025457">
      <path id="Trazado_734791" data-name="Trazado 734791" d="M44.785,0A44.785,44.785,0,1,1,0,44.785,44.785,44.785,0,0,1,44.785,0Z" transform="translate(755.715 1983.715)" fill="#362b9e"/>
      <g id="software_1_" data-name="software (1)" transform="translate(732.948 1952.656)">
        <path id="Trazado_742549" data-name="Trazado 742549" d="M95.472,71.89v39.118a1.708,1.708,0,0,1-1.708,1.708H42.272a1.708,1.708,0,0,1-1.708-1.708V71.89a1.708,1.708,0,0,1,1.708-1.708H93.764A1.708,1.708,0,0,1,95.472,71.89Z" transform="translate(-8.759 -25.026)" fill="#fafafa"/>
        <path id="Trazado_742550" data-name="Trazado 742550" d="M34.382,112.717H31.289A1.289,1.289,0,0,1,30,111.428V71.471a1.289,1.289,0,0,1,1.289-1.289h3.093a1.289,1.289,0,0,0-1.289,1.289v39.957a1.289,1.289,0,0,0,1.289,1.289Z" transform="translate(0 -25.026)" fill="#e4e4e4"/>
        <path id="Trazado_742551" data-name="Trazado 742551" d="M95.472,41.289v5.156H58.609l-1.3-.949H45.728l-1.3.949H41.838a1.274,1.274,0,0,1-1.274-1.274v-3A2.171,2.171,0,0,1,42.735,40H94.184A1.289,1.289,0,0,1,95.472,41.289Z" transform="translate(-8.759 0)" fill="#274c91"/>
        <path id="Trazado_742552" data-name="Trazado 742552" d="M34.382,40a1.289,1.289,0,0,0-1.289,1.289v5.156H30V41.289A1.289,1.289,0,0,1,31.289,40Z" transform="translate(0 0)" fill="#203e76"/>
        <path id="Trazado_742553" data-name="Trazado 742553" d="M61.742,112.407v30.251a.854.854,0,0,1-.854.854h-14.5a.854.854,0,0,1-.854-.854V112.407a.854.854,0,0,1,.854-.854h14.5a.854.854,0,0,1,.854.854Z" transform="translate(-12.88 -59.33)" fill="#a7d0fc"/>
        <path id="Trazado_742554" data-name="Trazado 742554" d="M94.6,144.377a1.281,1.281,0,0,1-1.281,1.281H89.24a1.281,1.281,0,1,1,0-2.562H93.32A1.281,1.281,0,0,1,94.6,144.377ZM93.32,148.22H89.24a1.281,1.281,0,1,0,0,2.562H93.32a1.281,1.281,0,1,0,0-2.562ZM89.24,125.159H93.32a1.281,1.281,0,1,0,0-2.562H89.24a1.281,1.281,0,1,0,0,2.562Zm4.079,7.687H89.24a1.281,1.281,0,1,0,0,2.562H93.32a1.281,1.281,0,1,0,0-2.562Zm0,5.125H89.24a1.281,1.281,0,0,0,0,2.562H93.32a1.281,1.281,0,0,0,0-2.562Zm0-10.249H89.24a1.281,1.281,0,1,0,0,2.562H93.32a1.281,1.281,0,1,0,0-2.562Z" transform="translate(-48.058 -68.488)" fill="#76b6fa"/>
        <path id="Trazado_742555" data-name="Trazado 742555" d="M73.986,58.958H59.808V56.8a1.708,1.708,0,0,1,1.708-1.708H72.278A1.708,1.708,0,0,1,73.986,56.8Zm33.2,36.85V65.59a.854.854,0,0,0-.854-.854H76.114a.854.854,0,0,0-.854.854V95.807a.854.854,0,0,0,.854.854h30.217A.854.854,0,0,0,107.185,95.807ZM60.739,76.872H60.39a1.281,1.281,0,0,0,0,2.562h.349a1.281,1.281,0,0,0,0-2.562Z" transform="translate(-24.137 -12.513)" fill="#f44336"/>
        <path id="Trazado_742556" data-name="Trazado 742556" d="M62.019,149.5a1.281,1.281,0,0,1-1.281,1.281h-.349a1.281,1.281,0,1,1,0-2.562h.349A1.281,1.281,0,0,1,62.019,149.5Zm-1.63-24.342h.349a1.281,1.281,0,1,0,0-2.562h-.349a1.281,1.281,0,1,0,0,2.562Zm.349,17.936h-.349a1.281,1.281,0,1,0,0,2.562h.349a1.281,1.281,0,1,0,0-2.562Zm0-15.374h-.349a1.281,1.281,0,1,0,0,2.562h.349a1.281,1.281,0,1,0,0-2.562Zm0,10.249h-.349a1.281,1.281,0,0,0,0,2.562h.349a1.281,1.281,0,0,0,0-2.562Z" transform="translate(-24.136 -68.488)" fill="#4172cc"/>
        <path id="Trazado_742557" data-name="Trazado 742557" d="M170.472,168.3v39.118a1.708,1.708,0,0,1-1.708,1.708H117.272a1.708,1.708,0,0,1-1.708-1.708V168.3a1.708,1.708,0,0,1,1.708-1.708h51.492A1.708,1.708,0,0,1,170.472,168.3Z" transform="translate(-70.948 -104.966)" fill="#c8e2fd"/>
        <path id="Trazado_742558" data-name="Trazado 742558" d="M109.383,209.125H106.29A1.289,1.289,0,0,1,105,207.836V167.879a1.289,1.289,0,0,1,1.289-1.289h3.093a1.289,1.289,0,0,0-1.289,1.289v39.957A1.289,1.289,0,0,0,109.383,209.125Z" transform="translate(-62.189 -104.966)" fill="#a7d0fc"/>
        <path id="Trazado_742559" data-name="Trazado 742559" d="M170.472,137.7v5.156H133.608l-1.3-.949H120.727l-1.3.949h-2.593a1.274,1.274,0,0,1-1.274-1.274v-3a2.171,2.171,0,0,1,2.171-2.171h51.449A1.289,1.289,0,0,1,170.472,137.7Z" transform="translate(-70.947 -79.941)" fill="#274c91"/>
        <path id="Trazado_742560" data-name="Trazado 742560" d="M109.382,136.409a1.289,1.289,0,0,0-1.289,1.289v5.156H105V137.7a1.289,1.289,0,0,1,1.289-1.289Z" transform="translate(-62.188 -79.94)" fill="#203e76"/>
        <path id="Trazado_742561" data-name="Trazado 742561" d="M134.527,209.232v30.251a.854.854,0,0,1-.854.854h-14.5a.854.854,0,0,1-.854-.854V209.232a.854.854,0,0,1,.854-.854h14.5A.854.854,0,0,1,134.527,209.232Z" transform="translate(-73.232 -139.615)" fill="#a7d0fc"/>
        <path id="Trazado_742562" data-name="Trazado 742562" d="M167.386,246.326a1.281,1.281,0,0,1-1.281,1.281h-4.079a1.281,1.281,0,1,1,0-2.562H166.1A1.281,1.281,0,0,1,167.386,246.326Zm-5.36-24.342H166.1a1.281,1.281,0,0,0,0-2.562h-4.079a1.281,1.281,0,1,0,0,2.562Zm4.079,17.936h-4.079a1.281,1.281,0,1,0,0,2.562H166.1a1.281,1.281,0,1,0,0-2.562Zm0-15.374h-4.079a1.281,1.281,0,0,0,0,2.562H166.1a1.281,1.281,0,0,0,0-2.562Zm0,10.249h-4.079a1.281,1.281,0,1,0,0,2.562H166.1a1.281,1.281,0,1,0,0-2.562Zm0-5.125h-4.079a1.281,1.281,0,1,0,0,2.562H166.1a1.281,1.281,0,1,0,0-2.562Z" transform="translate(-108.41 -148.773)" fill="#76b6fa"/>
        <path id="Trazado_742563" data-name="Trazado 742563" d="M147.149,155.367H132.971v-2.159a1.708,1.708,0,0,1,1.708-1.708h10.762a1.708,1.708,0,0,1,1.708,1.708Zm33.512,36.921V162.07a.854.854,0,0,0-.854-.854H149.59a.854.854,0,0,0-.854.854v30.217a.854.854,0,0,0,.854.854h30.217A.854.854,0,0,0,180.662,192.288Zm-45.857-22.779a1.281,1.281,0,0,1-1.281,1.281h-.349a1.281,1.281,0,1,1,0-2.562h.349A1.281,1.281,0,0,1,134.805,169.508Z" transform="translate(-84.488 -92.453)" fill="#4caf50"/>
        <path id="Trazado_742564" data-name="Trazado 742564" d="M133.524,239.921h-.349a1.281,1.281,0,1,0,0,2.562h.349a1.281,1.281,0,0,0,0-2.562Zm-.349-17.936h.349a1.281,1.281,0,0,0,0-2.562h-.349a1.281,1.281,0,1,0,0,2.562Zm.349,23.061h-.349a1.281,1.281,0,1,0,0,2.562h.349a1.281,1.281,0,0,0,0-2.562Zm0-15.374h-.349a1.281,1.281,0,1,0,0,2.562h.349a1.281,1.281,0,0,0,0-2.562Zm0,5.125h-.349a1.281,1.281,0,1,0,0,2.562h.349a1.281,1.281,0,0,0,0-2.562Z" transform="translate(-84.488 -148.773)" fill="#4172cc"/>
        <path id="Trazado_742565" data-name="Trazado 742565" d="M245.406,264.235a43.812,43.812,0,0,1-.727,5.9c-.12.623-1.537.763-1.684,1.376a43.82,43.82,0,0,1-23.46,29.173c-.649.315-.024,1.092-.691,1.376a43.956,43.956,0,0,1-26.981,2.351c-.22-.051-.439-.754-.658-.808s-.414-.1-.62-.158a1.723,1.723,0,0,1-.022-.272V264.708A1.708,1.708,0,0,1,192.272,263h51.492A1.709,1.709,0,0,1,245.406,264.235Z" transform="translate(-133.136 -184.907)" fill="#fff5f5"/>
        <path id="Trazado_742566" data-name="Trazado 742566" d="M183.093,264.289v39.957a1.309,1.309,0,0,0,.011.169q-1.575-.364-3.1-.839V264.289A1.289,1.289,0,0,1,181.289,263h3.093a1.289,1.289,0,0,0-1.289,1.289Z" transform="translate(-124.377 -184.907)" fill="#e9f3fe"/>
        <path id="Trazado_742567" data-name="Trazado 742567" d="M245.472,236.778q0,1.251-.069,2.485H208.608l-1.3-.949H195.727l-1.3.949h-2.593a1.274,1.274,0,0,1-1.274-1.274v-3a2.171,2.171,0,0,1,2.171-2.171h51.449a1.289,1.289,0,0,1,1.173.755Q245.471,235.16,245.472,236.778Z" transform="translate(-133.135 -159.88)" fill="#274c91"/>
        <path id="Trazado_742568" data-name="Trazado 742568" d="M184.382,232.818a1.289,1.289,0,0,0-1.289,1.289v5.156H180v-5.156a1.289,1.289,0,0,1,1.289-1.289Z" transform="translate(-124.377 -159.88)" fill="#203e76"/>
        <path id="Trazado_742569" data-name="Trazado 742569" d="M278.527,51.318a1.289,1.289,0,1,1-1.289,1.289A1.289,1.289,0,0,1,278.527,51.318Zm-6.445,1.289a1.289,1.289,0,1,0,1.289-1.289A1.289,1.289,0,0,0,272.083,52.607Zm-5.156,0a1.289,1.289,0,1,0,1.289-1.289A1.289,1.289,0,0,0,266.927,52.607ZM290.05,69.076a1.289,1.289,0,1,0,1.289-1.289A1.289,1.289,0,0,0,290.05,69.076Zm-5.156,0a1.289,1.289,0,1,0,1.289-1.289A1.289,1.289,0,0,0,284.894,69.076Zm-5.156,0a1.289,1.289,0,1,0,1.289-1.289A1.289,1.289,0,0,0,279.739,69.076Zm24.412,15.18a1.289,1.289,0,1,0,1.289,1.289A1.289,1.289,0,0,0,304.151,84.256Zm-3.867,1.289A1.289,1.289,0,1,1,299,84.256,1.289,1.289,0,0,1,300.284,85.545Zm-5.156,0a1.289,1.289,0,1,1-1.289-1.289A1.289,1.289,0,0,1,295.128,85.545Z" transform="translate(-196.455 -9.385)" fill="#4172cc"/>
        <path id="Trazado_742570" data-name="Trazado 742570" d="M211.96,336.552h-14.5a.854.854,0,0,1-.854-.854V305.447a.854.854,0,0,1,.854-.854h14.5a.854.854,0,0,1,.854.854V335.7a.854.854,0,0,1-.854.854Z" transform="translate(-138.146 -219.395)" fill="#a7d0fc"/>
        <path id="Trazado_742571" data-name="Trazado 742571" d="M239.032,316.918a1.281,1.281,0,0,1,1.281-1.281h4.079a1.281,1.281,0,0,1,0,2.562h-4.079A1.281,1.281,0,0,1,239.032,316.918Zm5.361,3.844h-4.079a1.281,1.281,0,0,0,0,2.562h4.079a1.281,1.281,0,0,0,0-2.562Zm0,5.125h-4.079a1.281,1.281,0,1,0,0,2.562h4.079a1.281,1.281,0,1,0,0-2.562Zm0,5.125h-4.079a1.281,1.281,0,0,0,0,2.562h4.079a1.281,1.281,0,0,0,0-2.562Zm0,5.125h-4.079a1.281,1.281,0,0,0,0,2.562h4.079a1.281,1.281,0,0,0,0-2.562Zm0,5.125h-4.079a1.281,1.281,0,1,0,0,2.562h4.079a1.281,1.281,0,1,0,0-2.562Z" transform="translate(-173.325 -228.552)" fill="#76b6fa"/>
        <path id="Trazado_742572" data-name="Trazado 742572" d="M211.811,345.637h-.349a1.281,1.281,0,0,0,0,2.562h.349a1.281,1.281,0,1,0,0-2.562Zm0,5.125h-.349a1.281,1.281,0,0,0,0,2.562h.349a1.281,1.281,0,1,0,0-2.562Zm0,5.125h-.349a1.281,1.281,0,1,0,0,2.562h.349a1.281,1.281,0,1,0,0-2.562Zm0,5.125h-.349a1.281,1.281,0,0,0,0,2.562h.349a1.281,1.281,0,1,0,0-2.562Zm0,5.125h-.349a1.281,1.281,0,0,0,0,2.562h.349a1.281,1.281,0,1,0,0-2.562Z" transform="translate(-149.402 -253.427)" fill="#4172cc"/>
        <path id="Trazado_742573" data-name="Trazado 742573" d="M224.875,249.617v2.159H210.7v-2.159a1.708,1.708,0,0,1,1.708-1.708h10.762A1.708,1.708,0,0,1,224.875,249.617Zm36.07,8.008a43.6,43.6,0,0,1-10.407,20.893c-.121.134-.863.062-.986.195q-.852.924-1.755,1.8c-.126.122.369.449.242.569q-1.424,1.346-2.966,2.562c-.234.185-1.009.116-1.248.3q-1.2.906-2.459,1.731c-.146.1.246.442.1.536a43.614,43.614,0,0,1-6.354,3.346h-7.551a.854.854,0,0,1-.854-.854V258.479a.854.854,0,0,1,.854-.854Zm-50.764,3.135a1.281,1.281,0,0,1,1.281-1.281h.349a1.281,1.281,0,1,1,0,2.562h-.349A1.281,1.281,0,0,1,210.181,260.76Z" transform="translate(-149.402 -172.394)" fill="#ffc107"/>
        <path id="Trazado_742574" data-name="Trazado 742574" d="M381.917,432.218h4.493a43.829,43.829,0,0,1-3.608,2.562h-.885a1.281,1.281,0,0,1,0-2.562Zm0-5.125a1.281,1.281,0,1,0,0,2.562h7.459q1.3-1.23,2.5-2.562Z" transform="translate(-290.74 -320.969)" fill="#ffa90b"/>
        <path id="Trazado_742575" data-name="Trazado 742575" d="M330.636,428.374a1.281,1.281,0,0,1,1.281-1.281h2.562a1.281,1.281,0,1,1,0,2.562h-2.562A1.281,1.281,0,0,1,330.636,428.374Zm1.281,6.406h2.562a1.281,1.281,0,1,0,0-2.562h-2.562a1.281,1.281,0,1,0,0,2.562Z" transform="translate(-249.281 -320.969)" fill="#f29500"/>
        <path id="Trazado_742576" data-name="Trazado 742576" d="M342.33,325.94,337.7,337.576a1.281,1.281,0,1,1-2.381-.947l4.628-11.636a1.281,1.281,0,0,1,2.381.947Zm8.545,4.578-3.108-5.155a1.281,1.281,0,1,0-2.194,1.323l2.717,4.506-2.728,4.71a1.281,1.281,0,1,0,2.217,1.284l3.108-5.365A1.28,1.28,0,0,0,350.875,330.517Zm-21.134.675,2.717-4.506a1.281,1.281,0,0,0-2.194-1.323l-3.108,5.155a1.281,1.281,0,0,0-.011,1.3l3.108,5.365a1.281,1.281,0,0,0,2.217-1.284Z" transform="translate(-246.242 -235.64)" fill="#fff"/>
      </g>
    </g>
  </g>
</svg>
