<svg xmlns="http://www.w3.org/2000/svg" xmlns:xlink="http://www.w3.org/1999/xlink" width="90.268" height="89.569" viewBox="0 0 90.268 89.569">
  <defs>
    <clipPath id="clip-path">
      <path id="Trazado_742608" data-name="Trazado 742608" d="M44.785,0A44.785,44.785,0,0,1,89.569,44.785c0,1.459-.07,2.9-.233,4.6A44.787,44.787,0,0,1,0,44.785c0-13.059-3.594-27.2,5.523-35.572C13.3,2.077,33.11,0,44.785,0Z" transform="translate(1103 1983.715)" fill="#362b9e" opacity="0.29"/>
    </clipPath>
  </defs>
  <g id="_8" data-name="8" transform="translate(-1102.302 -1983.715)">
    <path id="Trazado_734791" data-name="Trazado 734791" d="M44.785,0A44.785,44.785,0,1,1,0,44.785,44.785,44.785,0,0,1,44.785,0Z" transform="translate(1103 1983.715)" fill="#362b9e"/>
    <g id="Enmascarar_grupo_952205" data-name="Enmascarar grupo 952205" clip-path="url(#clip-path)">
      <g id="anadir" transform="translate(1111 1991.656)">
        <path id="Trazado_742577" data-name="Trazado 742577" d="M77,77.1H4.571A4.571,4.571,0,0,1,0,72.529V11H81.569V72.529A4.571,4.571,0,0,1,77,77.1Z" transform="translate(0 4.47)" fill="#e7eced"/>
        <path id="Trazado_742578" data-name="Trazado 742578" d="M81.569,16.876H0V4.571A4.571,4.571,0,0,1,4.571,0H77a4.571,4.571,0,0,1,4.571,4.571Z" fill="#425057"/>
        <path id="Trazado_742579" data-name="Trazado 742579" d="M4,4H9.625V9.625H4Z" transform="translate(1.625 1.625)" fill="#dd352e"/>
        <path id="Trazado_742580" data-name="Trazado 742580" d="M12,4h5.625V9.625H12Z" transform="translate(4.876 1.625)" fill="#ebba16"/>
        <path id="Trazado_742581" data-name="Trazado 742581" d="M20,4h5.625V9.625H20Z" transform="translate(8.127 1.625)" fill="#23a24d"/>
        <path id="Trazado_742582" data-name="Trazado 742582" d="M16.813,33.813H15.406a1.406,1.406,0,1,1,0-2.813h1.406a1.406,1.406,0,1,1,0,2.813Z" transform="translate(5.689 12.597)" fill="#dd352e"/>
        <path id="Trazado_742583" data-name="Trazado 742583" d="M14.251,33.813H4.406a1.406,1.406,0,1,1,0-2.813h9.845a1.406,1.406,0,1,1,0,2.813Z" transform="translate(1.219 12.597)" fill="#23a24d"/>
        <path id="Trazado_742584" data-name="Trazado 742584" d="M5.813,37.813H4.406a1.406,1.406,0,1,1,0-2.813H5.813a1.406,1.406,0,1,1,0,2.813Z" transform="translate(1.219 14.223)" fill="#ebba16"/>
        <path id="Trazado_742585" data-name="Trazado 742585" d="M19.251,37.813H9.406a1.406,1.406,0,1,1,0-2.813h9.845a1.406,1.406,0,1,1,0,2.813Z" transform="translate(3.251 14.223)" fill="#57abc1"/>
        <path id="Trazado_742586" data-name="Trazado 742586" d="M35.813,33.813H34.406a1.406,1.406,0,0,1,0-2.813h1.406a1.406,1.406,0,0,1,0,2.813Z" transform="translate(13.41 12.597)" fill="#ebba16"/>
        <path id="Trazado_742587" data-name="Trazado 742587" d="M33.251,33.813H23.406a1.406,1.406,0,1,1,0-2.813h9.845a1.406,1.406,0,1,1,0,2.813Z" transform="translate(8.94 12.597)" fill="#ed8a19"/>
        <path id="Trazado_742588" data-name="Trazado 742588" d="M24.813,37.813H23.406a1.406,1.406,0,1,1,0-2.813h1.406a1.406,1.406,0,1,1,0,2.813Z" transform="translate(8.94 14.223)" fill="#dd352e"/>
        <path id="Trazado_742589" data-name="Trazado 742589" d="M38.251,37.813H28.406a1.406,1.406,0,1,1,0-2.813h9.845a1.406,1.406,0,1,1,0,2.813Z" transform="translate(10.972 14.223)" fill="#23a24d"/>
        <path id="Trazado_742590" data-name="Trazado 742590" d="M54.813,33.813H53.406a1.406,1.406,0,1,1,0-2.813h1.406a1.406,1.406,0,1,1,0,2.813Z" transform="translate(21.131 12.597)" fill="#ed8a19"/>
        <path id="Trazado_742591" data-name="Trazado 742591" d="M52.251,33.813H42.406a1.406,1.406,0,1,1,0-2.813h9.845a1.406,1.406,0,1,1,0,2.813Z" transform="translate(16.661 12.597)" fill="#57abc1"/>
        <path id="Trazado_742592" data-name="Trazado 742592" d="M43.813,37.813H42.406a1.406,1.406,0,1,1,0-2.813h1.406a1.406,1.406,0,0,1,0,2.813Z" transform="translate(16.661 14.223)" fill="#ebba16"/>
        <path id="Trazado_742593" data-name="Trazado 742593" d="M57.251,37.813H47.406a1.406,1.406,0,1,1,0-2.813h9.845a1.406,1.406,0,0,1,0,2.813Z" transform="translate(18.693 14.223)" fill="#dd352e"/>
        <path id="Trazado_742594" data-name="Trazado 742594" d="M29,40H64.159V59.689H29Z" transform="translate(11.785 16.255)" fill="#fff"/>
        <path id="Trazado_742595" data-name="Trazado 742595" d="M4,40H32.127V59.689H4Z" transform="translate(1.625 16.255)" fill="#2196f3"/>
        <path id="Trazado_742596" data-name="Trazado 742596" d="M50.813,46.813H49.406a1.406,1.406,0,0,1,0-2.813h1.406a1.406,1.406,0,0,1,0,2.813Z" transform="translate(19.506 17.88)" fill="#ebba16"/>
        <path id="Trazado_742597" data-name="Trazado 742597" d="M50.283,46.813H33.406a1.406,1.406,0,0,1,0-2.813H50.283a1.406,1.406,0,1,1,0,2.813Z" transform="translate(13.004 17.88)" fill="#dd352e"/>
        <path id="Trazado_742598" data-name="Trazado 742598" d="M34.813,50.813H33.406a1.406,1.406,0,1,1,0-2.813h1.406a1.406,1.406,0,1,1,0,2.813Z" transform="translate(13.004 19.506)" fill="#57abc1"/>
        <path id="Trazado_742599" data-name="Trazado 742599" d="M55.283,50.813H38.406a1.406,1.406,0,1,1,0-2.813H55.283a1.406,1.406,0,1,1,0,2.813Z" transform="translate(15.036 19.506)" fill="#ed8a19"/>
        <path id="Trazado_742600" data-name="Trazado 742600" d="M14.406,54.251A1.407,1.407,0,0,1,13,52.845V44.406a1.406,1.406,0,1,1,2.813,0v8.438A1.407,1.407,0,0,1,14.406,54.251Z" transform="translate(5.283 17.474)" fill="#fff"/>
        <path id="Trazado_742601" data-name="Trazado 742601" d="M19.845,48.813H11.406a1.406,1.406,0,1,1,0-2.813h8.438a1.406,1.406,0,1,1,0,2.813Z" transform="translate(4.064 18.693)" fill="#fff"/>
        <path id="Trazado_742602" data-name="Trazado 742602" d="M4,16H20.876V32.876H4Z" transform="translate(1.625 6.502)" fill="#ffc107"/>
        <path id="Trazado_742603" data-name="Trazado 742603" d="M42,16H58.876V32.876H42Z" transform="translate(17.067 6.502)" fill="#23a24d"/>
        <path id="Trazado_742604" data-name="Trazado 742604" d="M23,16H39.876V32.876H23Z" transform="translate(9.346 6.502)" fill="#57abc1"/>
        <g id="Grupo_1023355" data-name="Grupo 1023355" transform="translate(11.251 29.534)">
          <path id="Trazado_742605" data-name="Trazado 742605" d="M12.219,23.813H9.406a1.406,1.406,0,0,1,0-2.813h2.813a1.406,1.406,0,0,1,0,2.813Z" transform="translate(-8 -21)" fill="#fff"/>
          <path id="Trazado_742606" data-name="Trazado 742606" d="M31.219,23.813H28.406a1.406,1.406,0,0,1,0-2.813h2.813a1.406,1.406,0,0,1,0,2.813Z" transform="translate(-0.279 -21)" fill="#fff"/>
          <path id="Trazado_742607" data-name="Trazado 742607" d="M50.219,23.813H47.406a1.406,1.406,0,0,1,0-2.813h2.813a1.406,1.406,0,0,1,0,2.813Z" transform="translate(7.442 -21)" fill="#fff"/>
        </g>
      </g>
    </g>
  </g>
</svg>
