<svg xmlns="http://www.w3.org/2000/svg" xmlns:xlink="http://www.w3.org/1999/xlink" width="1240" height="475" viewBox="0 0 1240 475">
  <defs>
    <clipPath id="clip-path">
      <rect id="Rectángulo_348553" data-name="Rectángulo 348553" width="1240" height="475" rx="15" transform="translate(0 -0.041)" fill="#37f871" opacity="0.5"/>
    </clipPath>
    <clipPath id="clip-path-2">
      <path id="Rectángulo_374746" data-name="Rectángulo 374746" d="M0,0H284.9a22,22,0,0,1,22,22V206.493a0,0,0,0,1,0,0H14a14,14,0,0,1-14-14V0A0,0,0,0,1,0,0Z" fill="#349ff1" opacity="0.17"/>
    </clipPath>
  </defs>
  <g id="bg-slyde" transform="translate(0 0.041)">
    <rect id="Rectángulo_348552" data-name="Rectángulo 348552" width="1240" height="475" rx="15" transform="translate(0 -0.041)" fill="#e0dbfa"/>
    <g id="Enmascarar_grupo_952092" data-name="Enmascarar grupo 952092" transform="translate(0 0)" clip-path="url(#clip-path)">
      <path id="Trazado_726344" data-name="Trazado 726344" d="M1181.643,642.97,1076.5,297.2,1113.8,135.843,888.291,10.379c-3.133,3.624-6.046,7.5-9.443,10.83-25.441,24.914-49.428,51.9-76.809,74.093-54.288,43.989-113.207,53.256-174,28.157q-31.734-13.1-62.556-28.313C527.464,76.326,487.69,65.727,443.914,69.9c-27.4,2.608-51.835,12.334-73.491,31.732-32.412,29.035-55.524,66.005-81.442,100.639-13.734,18.352-27.74,36.635-43.014,53.582C214.557,290.7,101.623,365.344,56.54,362.671,8.044,359.795-269.2,103.832,1181.643,642.97Z" transform="matrix(0.891, -0.454, 0.454, 0.891, 37.016, 282.119)" fill="none" stroke="#fff" stroke-width="1" opacity="0.81"/>
      <g id="Enmascarar_grupo_952251" data-name="Enmascarar grupo 952251" transform="translate(0 268.466)" opacity="0.45" clip-path="url(#clip-path-2)">
        <g id="Grupo_1024549" data-name="Grupo 1024549" transform="translate(-162.365 -0.014)">
          <path id="Trazado_744126" data-name="Trazado 744126" d="M91.472,370.117l63.279-63.279a36.327,36.327,0,1,1,51.374,51.375l-28.82,28.82a15.949,15.949,0,1,0,22.555,22.555l6.265-6.265a32.783,32.783,0,0,1,46.362,46.363L226.8,475.372A7.089,7.089,0,1,0,236.825,485.4l62.652-62.652a28.353,28.353,0,0,1,40.1,40.1l-16.916,16.915a6.2,6.2,0,0,0,8.771,8.772l1.4-1.4a75.986,75.986,0,0,1,107.462,0l28.97,28.969H0S97.111,375.756,91.472,370.117" transform="translate(0 -296.198)" fill="#bfb3f9"/>
          <g id="Grupo_1024548" data-name="Grupo 1024548" transform="translate(31.332 53.515)">
            <path id="Trazado_744127" data-name="Trazado 744127" d="M369.4,480.38a6.017,6.017,0,1,1-6.017-6.017,6.017,6.017,0,0,1,6.017,6.017" transform="translate(-112.821 -390.34)" fill="#6650cd"/>
            <line id="Línea_1075" data-name="Línea 1075" y1="99.783" x2="99.783" transform="translate(60.693)" fill="none" stroke="#fff" stroke-linecap="round" stroke-miterlimit="10" stroke-width="3"/>
            <line id="Línea_1076" data-name="Línea 1076" y1="89.437" x2="89.437" transform="translate(169.178 132.636)" fill="none" stroke="#fff" stroke-linecap="round" stroke-miterlimit="10" stroke-width="3"/>
            <line id="Línea_1077" data-name="Línea 1077" y1="89.437" x2="89.437" transform="translate(11.691 31.091)" fill="none" stroke="#fff" stroke-linecap="round" stroke-miterlimit="10" stroke-width="3"/>
            <path id="Trazado_744128" data-name="Trazado 744128" d="M162.68,567.181c1.092-.364,42.355-42.076,58.14-58.06a8.572,8.572,0,1,1,12.156,12.089L220,534.183a4.3,4.3,0,0,0,6.082,6.082l5.406-5.406a9.4,9.4,0,1,1,13.29,13.289,3.98,3.98,0,0,0,0,5.631l15.2,15.2H161.328" transform="translate(-55.927 -415.168)" fill="#826ce6"/>
            <line id="Línea_1078" data-name="Línea 1078" y1="64.625" x2="64.983" transform="translate(302.102 111.242)" fill="none" stroke="#9987ee" stroke-linecap="round" stroke-miterlimit="10" stroke-width="3"/>
            <line id="Línea_1079" data-name="Línea 1079" y1="111.689" x2="111.689" transform="translate(0 124.768)" fill="none" stroke="#64b2ff" stroke-linecap="round" stroke-miterlimit="10" stroke-width="3"/>
            <line id="Línea_1080" data-name="Línea 1080" y1="21.778" x2="21.778" transform="translate(372.711 108.256)" fill="none" stroke="#9987ee" stroke-linecap="round" stroke-miterlimit="10" stroke-width="3"/>
          </g>
        </g>
      </g>
    </g>
  </g>
</svg>
