<svg xmlns="http://www.w3.org/2000/svg" xmlns:xlink="http://www.w3.org/1999/xlink" width="732" height="227" viewBox="0 0 732 227">
  <defs>
    <filter id="Rectángulo_344489" x="0" y="0" width="732" height="227" filterUnits="userSpaceOnUse">
      <feOffset dy="3" input="SourceAlpha"/>
      <feGaussianBlur stdDeviation="3" result="blur"/>
      <feFlood flood-opacity="0.161"/>
      <feComposite operator="in" in2="blur"/>
      <feComposite in="SourceGraphic"/>
    </filter>
    <clipPath id="clip-path">
      <rect id="Rectángulo_374102" data-name="Rectángulo 374102" width="53" height="109.833" transform="translate(180 983.239)" fill="#221b6b" opacity="0.17"/>
    </clipPath>
  </defs>
  <g id="card-icon" transform="translate(9 5.774)">
    <g transform="matrix(1, 0, 0, 1, -9, -5.77)" filter="url(#Rectángulo_344489)">
      <rect id="Rectángulo_344489-2" data-name="Rectángulo 344489" width="714" height="209" rx="14" transform="translate(9 6)" fill="#edeafc"/>
    </g>
    <g id="Enmascarar_grupo_952225" data-name="Enmascarar grupo 952225" transform="translate(-180 -933.014)" clip-path="url(#clip-path)">
      <path id="Trazado_151731" data-name="Trazado 151731" d="M45.68,19.234A26.446,26.446,0,1,1,19.234,45.68,26.476,26.476,0,0,1,45.68,19.234M45.68,0A45.68,45.68,0,0,0,0,45.68,46.366,46.366,0,0,0,1.218,56.2,45.684,45.684,0,1,0,45.68,0Z" transform="translate(141.648 1083.735) rotate(-90)" fill="#362b9e"/>
      <g id="Grupo_1023972" data-name="Grupo 1023972" transform="translate(245.441 972.72) rotate(90)">
        <g id="Grupo_1023971" data-name="Grupo 1023971" transform="translate(10.52 17.968)">
          <line id="Línea_943" data-name="Línea 943" y1="33.503" x2="33.503" transform="translate(20.378)" fill="none" stroke="#362b9e" stroke-linecap="round" stroke-miterlimit="10" stroke-width="3"/>
          <line id="Línea_944" data-name="Línea 944" y1="30.029" x2="30.029" transform="translate(75.803 20.534)" fill="none" stroke="#9a87f8" stroke-linecap="round" stroke-miterlimit="10" stroke-width="3"/>
          <line id="Línea_945" data-name="Línea 945" y1="30.029" x2="30.029" transform="translate(3.925 10.439)" fill="none" stroke="#9a87f8" stroke-linecap="round" stroke-miterlimit="10" stroke-width="3"/>
          <path id="Trazado_743552" data-name="Trazado 743552" d="M196.563,454.655a5.3,5.3,0,1,1-5.3-5.3,5.3,5.3,0,0,1,5.3,5.3" transform="translate(-146.232 -426.443)" fill="#221b6b"/>
          <path id="Trazado_743553" data-name="Trazado 743553" d="M161.782,526.924C162.149,526.8,176,512.8,181.3,507.43a2.878,2.878,0,1,1,4.082,4.059l-4.355,4.356a1.444,1.444,0,0,0,2.042,2.042l1.815-1.815a3.155,3.155,0,0,1,4.462,4.462,1.336,1.336,0,0,0,0,1.891l5.1,5.1H161.328" transform="translate(-125.939 -475.884)" fill="#221b6b"/>
          <line id="Línea_946" data-name="Línea 946" y1="37.501" x2="37.501" transform="translate(0 41.892)" fill="none" stroke="#9a87f8" stroke-linecap="round" stroke-miterlimit="10" stroke-width="3"/>
          <path id="Trazado_743554" data-name="Trazado 743554" d="M361.411,476.383a2.02,2.02,0,1,1-2.02-2.02,2.02,2.02,0,0,1,2.02,2.02" transform="translate(-280.26 -446.151)" fill="#221b6b"/>
        </g>
      </g>
    </g>
  </g>
</svg>
