<svg xmlns="http://www.w3.org/2000/svg" xmlns:xlink="http://www.w3.org/1999/xlink" width="189.5" height="180.722" viewBox="0 0 189.5 180.722">
  <defs>
    <clipPath id="clip-path">
      <rect id="html-css-collage-concept-with-person" width="189.5" height="180.722" rx="13" transform="translate(774.75 2590.866)" fill="#37f871" opacity="0.62"/>
    </clipPath>
    <clipPath id="clip-path-2">
      <rect id="Rectángulo_375254" data-name="Rectángulo 375254" width="51.832" height="28.187" fill="#fff" stroke="#707070" stroke-width="1" opacity="0.6"/>
    </clipPath>
    <filter id="Trazado_745871" x="6.152" y="-29.199" width="64.134" height="64.134" filterUnits="userSpaceOnUse">
      <feOffset dy="3" input="SourceAlpha"/>
      <feGaussianBlur stdDeviation="3" result="blur"/>
      <feFlood flood-opacity="0.161"/>
      <feComposite operator="in" in2="blur"/>
      <feComposite in="SourceGraphic"/>
    </filter>
    <clipPath id="clip-path-3">
      <path id="side-view-male-technician-using-digital-tablet" d="M13,0H73.3a13,13,0,0,1,13,13V44.655a0,0,0,0,1,0,0H13a13,13,0,0,1-13-13V13A13,13,0,0,1,13,0Z" fill="#636363" opacity="0.71"/>
    </clipPath>
    <clipPath id="clip-path-4">
      <rect id="Rectángulo_375298" data-name="Rectángulo 375298" width="144.11" height="141.891" fill="#d5cef8"/>
    </clipPath>
  </defs>
  <g id="_11" data-name="11" transform="translate(-774.75 -2590.866)" clip-path="url(#clip-path)">
    <g id="Grupo_1025185" data-name="Grupo 1025185" transform="translate(594.75 2233.465)">
      <rect id="html-css-collage-concept-with-person-2" data-name="html-css-collage-concept-with-person" width="189.5" height="180.722" rx="13" transform="translate(180 357.401)" fill="#291e8b"/>
      <g id="Enmascarar_grupo_952288" data-name="Enmascarar grupo 952288" transform="translate(192.323 357.401)" clip-path="url(#clip-path-2)">
        <g transform="matrix(1, 0, 0, 1, -12.32, 0)" filter="url(#Trazado_745871)">
          <path id="Trazado_745871-2" data-name="Trazado 745871" d="M565.7,549.157a20.567,20.567,0,1,1,20.565-20.565A20.59,20.59,0,0,1,565.7,549.157m0-37.077a16.512,16.512,0,1,0,16.512,16.512A16.513,16.513,0,0,0,565.7,512.08" transform="translate(-527.48 -528.72)" fill="#37f871" stroke="#37f871" stroke-width="5"/>
        </g>
      </g>
    </g>
    <g id="Enmascarar_grupo_952289" data-name="Enmascarar grupo 952289" transform="translate(774.75 2726.933)" clip-path="url(#clip-path-3)">
      <g id="Grupo_1025187" data-name="Grupo 1025187" transform="translate(-19.225 -0.02)">
        <path id="Trazado_745872" data-name="Trazado 745872" d="M20.588,313.3,34.83,298.659a8.021,8.021,0,0,1,11.563,0,8.568,8.568,0,0,1,0,11.883l-6.487,6.666a3.762,3.762,0,0,0,0,5.217,3.522,3.522,0,0,0,5.076,0l1.41-1.449a7.239,7.239,0,0,1,10.435,0,7.732,7.732,0,0,1,0,10.724l-5.782,5.941a1.672,1.672,0,0,0,0,2.319,1.565,1.565,0,0,0,2.256,0l14.1-14.492a6.261,6.261,0,0,1,9.025,0,6.687,6.687,0,0,1,0,9.275l-3.807,3.913a1.463,1.463,0,0,0,0,2.029,1.37,1.37,0,0,0,1.974,0l.316-.324a16.778,16.778,0,0,1,24.187,0l6.52,6.7H0s11.784-21.412,16.931-29.853" transform="translate(0 -296.198)" fill="#221b6b"/>
        <g id="Grupo_1025186" data-name="Grupo 1025186" transform="translate(7.052 12.378)">
          <path id="Trazado_745873" data-name="Trazado 745873" d="M360.079,475.755a1.355,1.355,0,1,1-1.354-1.392,1.373,1.373,0,0,1,1.354,1.392" transform="translate(-302.329 -454.928)" fill="#907af8"/>
          <line id="Línea_1275" data-name="Línea 1275" y1="20.687" x2="20.13" transform="translate(38.077 30.679)" fill="none" stroke="#fff" stroke-linecap="round" stroke-miterlimit="10" stroke-width="3"/>
          <path id="Trazado_745875" data-name="Trazado 745875" d="M161.632,520.594c.246-.084,9.533-9.733,13.086-13.43a1.892,1.892,0,0,1,2.736-.008,2.022,2.022,0,0,1,0,2.8l-2.92,3a1.014,1.014,0,0,0,0,1.407.95.95,0,0,0,1.369,0l1.217-1.25a2.075,2.075,0,0,1,2.991,0,2.217,2.217,0,0,1,0,3.074.939.939,0,0,0,0,1.3l3.422,3.517H161.328" transform="translate(-137.605 -486.03)" fill="#907af8"/>
          <line id="Línea_1277" data-name="Línea 1277" y1="25.834" x2="25.138" transform="translate(67.995 14.845)" fill="none" stroke="#fff" stroke-linecap="round" stroke-miterlimit="10" stroke-width="1" opacity="0.61"/>
          <line id="Línea_1279" data-name="Línea 1279" y1="5.037" x2="4.902" transform="translate(83.887 25.04)" fill="none" stroke="#fff" stroke-linecap="round" stroke-miterlimit="10" stroke-width="3"/>
        </g>
      </g>
    </g>
    <g id="_4085216" data-name="4085216" transform="translate(747.685 2584.486)">
      <g id="Background_Complete" data-name="Background Complete">
        <g id="Grupo_1025133" data-name="Grupo 1025133">
          <rect id="Rectángulo_375234" data-name="Rectángulo 375234" width="17.198" height="0.13" transform="translate(216.417 178.386)" fill="#ebebeb"/>
          <rect id="Rectángulo_375235" data-name="Rectángulo 375235" width="4.512" height="0.13" transform="translate(167.477 179.799)" fill="#ebebeb"/>
          <rect id="Rectángulo_375236" data-name="Rectángulo 375236" width="9.965" height="0.13" transform="translate(205.933 173.568)" fill="#ebebeb"/>
          <rect id="Rectángulo_375238" data-name="Rectángulo 375238" width="3.287" height="0.13" transform="translate(54.294 174.44)" fill="#ebebeb"/>
          <rect id="Rectángulo_375239" data-name="Rectángulo 375239" width="48.644" height="0.13" transform="translate(68.267 176.631)" fill="#ebebeb"/>
        </g>
        <g id="Grupo_1025138" data-name="Grupo 1025138" transform="translate(34.219 14.441)">
          <path id="Trazado_745716" data-name="Trazado 745716" d="M376.16,187.146l5.618,1.039.8-2.84a15.255,15.255,0,0,0,5.587-1.2l1.9,2.274,4.7-3.24-1.444-2.586a15.216,15.216,0,0,0,3.116-4.793l2.944.26,1.039-5.618-2.84-.8a15.254,15.254,0,0,0-1.2-5.587l2.274-1.9-3.24-4.7-2.586,1.444a15.215,15.215,0,0,0-4.793-3.116l.265-2.944-5.618-1.039-.8,2.84a15.254,15.254,0,0,0-5.587,1.2l-1.9-2.274-4.7,3.24,1.444,2.586a15.249,15.249,0,0,0-3.116,4.788l-2.944-.26-1.039,5.618,2.84.8a15.276,15.276,0,0,0,1.2,5.587l-2.274,1.9,3.24,4.7,2.586-1.444a15.215,15.215,0,0,0,4.793,3.116l-.265,2.944Zm-1.532-18.564a7.733,7.733,0,1,1,6.2,9.009A7.732,7.732,0,0,1,374.628,168.583Z" transform="translate(-200.228 -94.412)" fill="#c0bdd7"/>
          <path id="Trazado_745719" data-name="Trazado 745719" d="M330.168,104.635l2.16.4.312-1.09a5.779,5.779,0,0,0,2.15-.462l.732.872,1.807-1.246-.556-1a5.888,5.888,0,0,0,1.2-1.843l1.132.1.4-2.16-1.09-.312a5.778,5.778,0,0,0-.462-2.15l.872-.732-1.246-1.807-1,.556a5.888,5.888,0,0,0-1.843-1.2l.1-1.132-2.16-.4-.312,1.09a5.779,5.779,0,0,0-2.15.462l-.732-.872-1.807,1.246.556,1a5.829,5.829,0,0,0-1.2,1.843l-1.132-.1-.4,2.16,1.09.312a5.778,5.778,0,0,0,.462,2.15l-.872.732,1.246,1.807,1-.556a5.888,5.888,0,0,0,1.843,1.2Zm-.587-7.135a2.973,2.973,0,1,1,2.383,3.463A2.973,2.973,0,0,1,329.581,97.5Z" transform="translate(-165.7 19.006)" fill="#f0f0f0" opacity="0.76"/>
          <path id="Trazado_745720" data-name="Trazado 745720" d="M138.428,54.525l2.16.4.312-1.09a5.778,5.778,0,0,0,2.15-.462l.732.872L145.589,53l-.556-1a5.887,5.887,0,0,0,1.2-1.843l1.132.1.4-2.16-1.09-.312a5.779,5.779,0,0,0-.462-2.15l.872-.732L145.838,43.1l-1,.556a5.888,5.888,0,0,0-1.843-1.2l.1-1.132-2.16-.4-.312,1.09a5.779,5.779,0,0,0-2.15.462l-.732-.872-1.807,1.246.556,1a5.829,5.829,0,0,0-1.2,1.843l-1.132-.1-.4,2.16,1.09.312a5.779,5.779,0,0,0,.462,2.15l-.872.732,1.246,1.807,1-.556a5.887,5.887,0,0,0,1.843,1.2l-.1,1.132Zm-.587-7.135a2.973,2.973,0,1,1,2.383,3.463A2.973,2.973,0,0,1,137.841,47.39Z" transform="translate(-98.523 -34.113)" fill="#f0f0f0"/>
          <path id="Trazado_745721" data-name="Trazado 745721" d="M325.856,277.3a10.145,10.145,0,0,0,.8,3.749l-1.527,1.277,2.171,3.157,1.734-.966a10.321,10.321,0,0,0,3.214,2.093l-.177,1.973,3.77.7.54-1.906a10.146,10.146,0,0,0,3.749-.8l1.277,1.527,3.157-2.17-.966-1.734a10.323,10.323,0,0,0,2.093-3.214l1.973.177.7-3.77-1.906-.54a10.144,10.144,0,0,0-.8-3.749l1.527-1.277-2.171-3.157-1.734.966a10.322,10.322,0,0,0-3.214-2.093l.177-1.973-3.77-.7-.54,1.906a10.144,10.144,0,0,0-3.749.8l-1.277-1.527-3.157,2.17.966,1.734a10.322,10.322,0,0,0-2.093,3.214l-1.973-.177-.7,3.77Zm5.2-1.179a5.188,5.188,0,1,1,4.159,6.044A5.186,5.186,0,0,1,331.053,276.118Z" transform="translate(-189.955 -141.769)" fill="#7f79b7"/>
          <g id="Grupo_1025135" data-name="Grupo 1025135" transform="translate(21.368 132.406)">
            <path id="Trazado_745725" data-name="Trazado 745725" d="M110.057,291.274c.831.254,1.21.779,1.21,2.025v2.9a1.19,1.19,0,0,0,1.319,1.34h.327v2.207h-1.049c-2.264,0-3.422-1.158-3.422-3.24v-3.277a.742.742,0,0,0-.794-.852h-.6v-2.207h.6c.488,0,.794-.27.794-.852V286.04c0-2.082,1.158-3.24,3.422-3.24h1.049v2.207h-.327a1.188,1.188,0,0,0-1.319,1.34v2.9c0,1.246-.379,1.771-1.21,2.025Z" transform="translate(-107.05 -282.8)" fill="#e0e0e0"/>
            <path id="Trazado_745726" data-name="Trazado 745726" d="M135.132,290.183v2.207h-.6c-.488,0-.794.27-.794.852v3.277c0,2.082-1.158,3.24-3.422,3.24H129.27v-2.207h.327a1.188,1.188,0,0,0,1.319-1.34v-2.9c0-1.246.379-1.771,1.21-2.025-.831-.254-1.21-.779-1.21-2.025v-2.9a1.19,1.19,0,0,0-1.319-1.34h-.327V282.82h1.049c2.264,0,3.422,1.158,3.422,3.24v3.277a.742.742,0,0,0,.794.852h.6Z" transform="translate(-117.732 -282.81)" fill="#e0e0e0"/>
          </g>
          <g id="Grupo_1025136" data-name="Grupo 1025136" transform="translate(16.917 29.39)">
            <path id="Trazado_745727" data-name="Trazado 745727" d="M98.485,90.516A6.5,6.5,0,0,1,109.748,86.5l-1.755,1.62a3.8,3.8,0,0,0-2.97-1.381,3.775,3.775,0,0,0,0,7.55,3.767,3.767,0,0,0,2.97-1.4l1.755,1.62a6.491,6.491,0,0,1-11.268-4Z" transform="translate(-98.48 -84.41)" fill="#e0e0e0"/>
            <path id="Trazado_745728" data-name="Trazado 745728" d="M130.878,93.593h-2.934v2.866h-2.176V93.593H122.85V91.536h2.918V88.67h2.176v2.866h2.934Z" transform="translate(-110.196 -86.458)" fill="#e0e0e0"/>
            <path id="Trazado_745729" data-name="Trazado 745729" d="M150.538,93.593H147.6v2.866h-2.176V93.593H142.51V91.536h2.918V88.67H147.6v2.866h2.934Z" transform="translate(-119.647 -86.458)" fill="#e0e0e0"/>
          </g>
          <g id="Grupo_1025292" data-name="Grupo 1025292" transform="translate(-88.31 3.716)" opacity="0.72">
            <g id="Grupo_1025297" data-name="Grupo 1025297" transform="translate(104 11)" clip-path="url(#clip-path-4)">
              <g id="Grupo_1025296" data-name="Grupo 1025296">
                <g id="Grupo_1025295" data-name="Grupo 1025295" clip-path="url(#clip-path-4)">
                  <path id="Trazado_746168" data-name="Trazado 746168" d="M143.657,69.054c-1.593,13.491-7.753,29.178-20.056,36.384-18.589,10.89-17.033,27.64-53.316,34.922A74.6,74.6,0,0,1,54.2,141.879a62.124,62.124,0,0,1-7.9-.644c-23.06-3.369-38.579-19.4-44.272-38.747C-5.464,77.042,9.5,60.381,19.412,50.344S36.591,9.03,72.2,1.591A72.312,72.312,0,0,1,88.738.021c12.671.311,26.492,4.472,36.055,13.156q1.077.979,2.1,2.026c13.292,13.643,18.94,35.459,16.767,53.852" transform="translate(0 0)" fill="#d5cef8"/>
                  <g id="Grupo_1025294" data-name="Grupo 1025294" opacity="0.7">
                    <g id="Grupo_1025293" data-name="Grupo 1025293">
                      <g id="Grupo_1025292-2" data-name="Grupo 1025292" clip-path="url(#clip-path-4)">
                        <path id="Trazado_746169" data-name="Trazado 746169" d="M143.657,69.054c-1.593,13.491-7.753,29.178-20.056,36.384-18.589,10.89-17.033,27.64-53.316,34.922A74.6,74.6,0,0,1,54.2,141.879a62.124,62.124,0,0,1-7.9-.644c-23.06-3.369-38.579-19.4-44.272-38.747C-5.464,77.042,9.5,60.381,19.412,50.344S36.591,9.03,72.2,1.591A72.312,72.312,0,0,1,88.738.021c12.671.311,26.492,4.472,36.055,13.156q1.077.979,2.1,2.026c13.292,13.643,18.94,35.459,16.767,53.852" transform="translate(0 0)" fill="#d5cef8"/>
                      </g>
                    </g>
                  </g>
                </g>
              </g>
            </g>
          </g>
          <path id="Trazado_745717" data-name="Trazado 745717" d="M75.143,225.754l4.279.789.613-2.165a11.563,11.563,0,0,0,4.258-.914l1.449,1.734,3.583-2.466-1.1-1.973a11.54,11.54,0,0,0,2.373-3.65l2.243.2.789-4.279-2.165-.613a11.563,11.563,0,0,0-.914-4.258l1.729-1.449-2.466-3.583-1.973,1.1a11.541,11.541,0,0,0-3.65-2.373l.2-2.243-4.279-.789-.613,2.165a11.562,11.562,0,0,0-4.258.914l-1.449-1.729L70.2,202.637l1.1,1.973a11.54,11.54,0,0,0-2.373,3.65l-2.243-.2-.789,4.279,2.165.613a11.563,11.563,0,0,0,.914,4.258l-1.729,1.449,2.466,3.583,1.973-1.1a11.6,11.6,0,0,0,3.65,2.373l-.2,2.243ZM73.98,211.615a5.057,5.057,0,1,0,.005,0Z" transform="translate(-87.9 -110.021)" fill="#c0bdd7"/>
          <g id="Grupo_1025134" data-name="Grupo 1025134" transform="translate(128.635 90.14)">
            <path id="Trazado_745722" data-name="Trazado 745722" d="M382.753,243.75l-5.8,2.124,5.8,2.108v2.176l-8.292-3.152v-2.264l8.292-3.152Z" transform="translate(-374.46 -237.301)" fill="#f66a2d"/>
            <path id="Trazado_745723" data-name="Trazado 745723" d="M397.128,233.33h2.42L393.8,249.739h-2.42l5.748-16.409Z" transform="translate(-382.594 -233.33)" fill="#f66a2d"/>
            <path id="Trazado_745724" data-name="Trazado 745724" d="M416.023,244.742v2.264l-8.293,3.152v-2.176l5.8-2.108-5.8-2.124v-2.16Z" transform="translate(-390.454 -237.301)" fill="#f66a2d"/>
          </g>
        </g>
      </g>
      <g id="Tabs" transform="translate(93.87 27.311)">
        <g id="Grupo_1025166" data-name="Grupo 1025166">
          <g id="Grupo_1025152" data-name="Grupo 1025152">
            <rect id="Rectángulo_375244" data-name="Rectángulo 375244" width="50.79" height="36.765"/>
            <path id="Trazado_746166" data-name="Trazado 746166" d="M0,0H50.79V36.765H0Z" fill="#fff" opacity="0.9"/>
            <rect id="Rectángulo_375246" data-name="Rectángulo 375246" width="7.073" height="36.765" opacity="0.1"/>
            <rect id="Rectángulo_375247" data-name="Rectángulo 375247" width="50.79" height="3.437" fill="#6f61eb"/>
            <g id="Grupo_1025149" data-name="Grupo 1025149" transform="translate(10.713 7.794)" opacity="0.2">
              <path id="Trazado_745751" data-name="Trazado 745751" d="M185.048,73.829h-9.253a.415.415,0,1,1,0-.829h9.253a.415.415,0,1,1,0,.829Z" transform="translate(-175.38 -73)"/>
              <path id="Trazado_745752" data-name="Trazado 745752" d="M222.014,73.829h-17.96a.415.415,0,0,1,0-.829h17.96a.415.415,0,0,1,0,.829Z" transform="translate(-191.924 -73)"/>
              <path id="Trazado_745753" data-name="Trazado 745753" d="M202.966,80.359H178.8a.415.415,0,1,1,0-.829h24.162a.415.415,0,1,1,0,.829Z" transform="translate(-177.142 -76.823)"/>
              <path id="Trazado_745754" data-name="Trazado 745754" d="M191.372,86.879H175.8a.415.415,0,1,1,0-.829h15.567a.415.415,0,1,1,0,.829Z" transform="translate(-175.386 -80.64)"/>
              <path id="Trazado_745755" data-name="Trazado 745755" d="M231.627,86.879H220.475a.415.415,0,1,1,0-.829h11.152a.415.415,0,1,1,0,.829Z" transform="translate(-201.537 -80.64)"/>
              <path id="Trazado_745756" data-name="Trazado 745756" d="M184.4,93.409H175.8a.415.415,0,1,1,0-.829H184.4a.415.415,0,1,1,0,.829Z" transform="translate(-175.386 -84.463)"/>
              <path id="Trazado_745757" data-name="Trazado 745757" d="M216.8,93.409H203.265a.415.415,0,1,1,0-.829H216.8a.415.415,0,1,1,0,.829Z" transform="translate(-191.462 -84.463)"/>
              <path id="Trazado_745758" data-name="Trazado 745758" d="M190.367,99.939H178.8a.415.415,0,1,1,0-.829h11.563a.415.415,0,1,1,0,.829Z" transform="translate(-177.142 -88.285)"/>
              <path id="Trazado_745759" data-name="Trazado 745759" d="M191.814,106.469H178.8a.415.415,0,1,1,0-.829h13.009a.415.415,0,1,1,0,.829Z" transform="translate(-177.142 -92.108)"/>
              <path id="Trazado_745760" data-name="Trazado 745760" d="M228.618,106.469H215.335a.415.415,0,0,1,0-.829h13.283a.415.415,0,1,1,0,.829Z" transform="translate(-198.528 -92.108)"/>
              <path id="Trazado_745761" data-name="Trazado 745761" d="M183.245,112.989h-7.45a.415.415,0,1,1,0-.829h7.45a.415.415,0,1,1,0,.829Z" transform="translate(-175.38 -95.925)"/>
              <path id="Trazado_745762" data-name="Trazado 745762" d="M219.585,112.989H199.9a.415.415,0,1,1,0-.829h19.68a.415.415,0,1,1,0,.829Z" transform="translate(-189.495 -95.925)"/>
              <path id="Trazado_745763" data-name="Trazado 745763" d="M191.731,119.519H178.8a.415.415,0,0,1,0-.829h12.927a.415.415,0,0,1,0,.829Z" transform="translate(-177.142 -99.748)"/>
              <path id="Trazado_745764" data-name="Trazado 745764" d="M222.7,119.519h-8.366a.415.415,0,0,1,0-.829H222.7a.415.415,0,0,1,0,.829Z" transform="translate(-197.942 -99.748)"/>
              <path id="Trazado_745765" data-name="Trazado 745765" d="M193.684,126.049H178.8a.415.415,0,1,1,0-.829h14.879a.415.415,0,0,1,0,.829Z" transform="translate(-177.142 -103.571)"/>
            </g>
            <g id="Grupo_1025150" data-name="Grupo 1025150" transform="translate(42.917 1.032)">
              <circle id="Elipse_8156" data-name="Elipse 8156" cx="0.709" cy="0.709" r="0.709" transform="translate(4.979)" fill="#fff" opacity="0.4"/>
              <circle id="Elipse_8157" data-name="Elipse 8157" cx="0.709" cy="0.709" r="0.709" transform="translate(2.492)" fill="#fff" opacity="0.4"/>
              <circle id="Elipse_8158" data-name="Elipse 8158" cx="0.709" cy="0.709" r="0.709" fill="#fff" opacity="0.4"/>
            </g>
            <g id="Grupo_1025151" data-name="Grupo 1025151" transform="translate(3.23 7.794)" opacity="0.2">
              <path id="Trazado_745766" data-name="Trazado 745766" d="M157.765,73.829h-.021a.415.415,0,1,1,0-.829.423.423,0,0,1,.423.415.406.406,0,0,1-.406.415Z" transform="translate(-157.33 -73)"/>
              <path id="Trazado_745767" data-name="Trazado 745767" d="M157.765,80.359h-.021a.415.415,0,1,1,0-.829.423.423,0,0,1,.423.415.406.406,0,0,1-.406.415Z" transform="translate(-157.33 -76.823)"/>
              <path id="Trazado_745768" data-name="Trazado 745768" d="M157.765,86.879h-.021a.415.415,0,1,1,0-.829.423.423,0,0,1,.423.415.406.406,0,0,1-.406.415Z" transform="translate(-157.33 -80.64)"/>
              <path id="Trazado_745769" data-name="Trazado 745769" d="M157.765,93.409h-.021a.415.415,0,1,1,0-.829.423.423,0,0,1,.423.415.406.406,0,0,1-.406.415Z" transform="translate(-157.33 -84.463)"/>
              <path id="Trazado_745770" data-name="Trazado 745770" d="M157.765,99.939h-.021a.415.415,0,1,1,0-.829.423.423,0,0,1,.423.415.406.406,0,0,1-.406.415Z" transform="translate(-157.33 -88.285)"/>
              <path id="Trazado_745771" data-name="Trazado 745771" d="M157.765,106.469h-.021a.415.415,0,1,1,0-.829.423.423,0,0,1,.423.415.406.406,0,0,1-.406.415Z" transform="translate(-157.33 -92.108)"/>
              <path id="Trazado_745772" data-name="Trazado 745772" d="M157.765,112.989h-.021a.415.415,0,1,1,0-.829.423.423,0,0,1,.423.415.406.406,0,0,1-.406.415Z" transform="translate(-157.33 -95.925)"/>
              <path id="Trazado_745773" data-name="Trazado 745773" d="M157.765,119.519h-.021a.415.415,0,1,1,0-.829.423.423,0,0,1,.423.415.406.406,0,0,1-.406.415Z" transform="translate(-157.33 -99.748)"/>
              <path id="Trazado_745774" data-name="Trazado 745774" d="M157.765,126.049h-.021a.415.415,0,1,1,0-.829.423.423,0,0,1,.423.415.406.406,0,0,1-.406.415Z" transform="translate(-157.33 -103.571)"/>
            </g>
          </g>
          <g id="Grupo_1025165" data-name="Grupo 1025165" transform="translate(25.395 27.999)">
            <rect id="Rectángulo_375248" data-name="Rectángulo 375248" width="66.552" height="42.615" fill="#263238"/>
            <rect id="Rectángulo_375249" data-name="Rectángulo 375249" width="66.552" height="42.615" fill="#fff" opacity="0.9"/>
            <rect id="Rectángulo_375250" data-name="Rectángulo 375250" width="10.381" height="42.615" opacity="0.1"/>
            <path id="Trazado_746167" data-name="Trazado 746167" d="M0,0H66.552V3.437H0Z" fill="#6f61eb"/>
            <g id="Grupo_1025153" data-name="Grupo 1025153" transform="translate(3.126 5.978)">
              <path id="Trazado_745775" data-name="Trazado 745775" d="M231.6,143.36l-1.1.406,1.1.4v.415l-1.58-.6v-.431l1.58-.6Z" transform="translate(-230.02 -142.133)" fill="#fff"/>
              <path id="Trazado_745776" data-name="Trazado 745776" d="M235.144,140.98h.46L234.51,144.1h-.46Z" transform="translate(-232.379 -140.98)" fill="#fff"/>
              <path id="Trazado_745777" data-name="Trazado 745777" d="M239.53,143.541v.431l-1.58.6v-.415l1.1-.4-1.1-.406v-.41l1.58.6Z" transform="translate(-234.662 -142.127)" fill="#fff"/>
            </g>
            <g id="Grupo_1025154" data-name="Grupo 1025154" transform="translate(2.832 11.115)" opacity="0.2">
              <path id="Trazado_745778" data-name="Trazado 745778" d="M234.235,154.2h-4.511a.415.415,0,1,1,0-.829h4.511a.415.415,0,0,1,0,.829Z" transform="translate(-229.31 -153.37)"/>
              <path id="Trazado_745779" data-name="Trazado 745779" d="M234.235,160.719h-4.511a.415.415,0,1,1,0-.829h4.511a.415.415,0,0,1,0,.829Z" transform="translate(-229.31 -157.187)"/>
              <path id="Trazado_745780" data-name="Trazado 745780" d="M234.235,167.249h-4.511a.415.415,0,1,1,0-.829h4.511a.415.415,0,0,1,0,.829Z" transform="translate(-229.31 -161.01)"/>
              <path id="Trazado_745781" data-name="Trazado 745781" d="M234.235,173.779h-4.511a.415.415,0,1,1,0-.829h4.511a.415.415,0,0,1,0,.829Z" transform="translate(-229.31 -164.833)"/>
              <path id="Trazado_745782" data-name="Trazado 745782" d="M234.235,180.309h-4.511a.415.415,0,1,1,0-.829h4.511a.415.415,0,0,1,0,.829Z" transform="translate(-229.31 -168.655)"/>
              <path id="Trazado_745783" data-name="Trazado 745783" d="M234.235,186.829h-4.511a.415.415,0,1,1,0-.829h4.511a.415.415,0,0,1,0,.829Z" transform="translate(-229.31 -172.472)"/>
              <path id="Trazado_745784" data-name="Trazado 745784" d="M234.235,193.359h-4.511a.415.415,0,1,1,0-.829h4.511a.415.415,0,0,1,0,.829Z" transform="translate(-229.31 -176.295)"/>
              <path id="Trazado_745785" data-name="Trazado 745785" d="M234.235,199.889h-4.511a.415.415,0,1,1,0-.829h4.511a.415.415,0,0,1,0,.829Z" transform="translate(-229.31 -180.118)"/>
              <path id="Trazado_745786" data-name="Trazado 745786" d="M234.235,206.419h-4.511a.415.415,0,1,1,0-.829h4.511a.415.415,0,0,1,0,.829Z" transform="translate(-229.31 -183.941)"/>
            </g>
            <g id="Grupo_1025163" data-name="Grupo 1025163" transform="translate(11.127 11.115)">
              <path id="Trazado_745787" data-name="Trazado 745787" d="M258.988,154.2h-9.253a.415.415,0,1,1,0-.829h9.253a.415.415,0,1,1,0,.829Z" transform="translate(-249.32 -153.37)" fill="#6f61eb"/>
              <path id="Trazado_745788" data-name="Trazado 745788" d="M302.1,154.2H277.995a.415.415,0,1,1,0-.829H302.1a.415.415,0,0,1,0,.829Z" transform="translate(-265.864 -153.37)" fill="#263238"/>
              <g id="Grupo_1025155" data-name="Grupo 1025155" transform="translate(39.841)" opacity="0.2">
                <path id="Trazado_745789" data-name="Trazado 745789" d="M352.82,154.2h-6.986a.415.415,0,1,1,0-.829h6.986a.415.415,0,1,1,0,.829Z" transform="translate(-345.42 -153.37)" fill="#263238"/>
              </g>
              <g id="Grupo_1025156" data-name="Grupo 1025156" transform="translate(1.248 2.703)" opacity="0.2">
                <path id="Trazado_745790" data-name="Trazado 745790" d="M276.906,160.719H252.745a.415.415,0,1,1,0-.829h24.162a.415.415,0,0,1,0,.829Z" transform="translate(-252.33 -159.89)" fill="#263238"/>
              </g>
              <path id="Trazado_745791" data-name="Trazado 745791" d="M338.894,160.719h-22.52a.415.415,0,1,1,0-.829h22.52a.415.415,0,1,1,0,.829Z" transform="translate(-288.332 -157.187)" fill="#6f61eb"/>
              <path id="Trazado_745792" data-name="Trazado 745792" d="M267.068,167.249H252.745a.415.415,0,1,1,0-.829h14.324a.415.415,0,1,1,0,.829Z" transform="translate(-251.082 -161.01)" fill="#263238"/>
              <path id="Trazado_745793" data-name="Trazado 745793" d="M308.519,167.249h-14.1a.415.415,0,1,1,0-.829h14.1a.415.415,0,1,1,0,.829Z" transform="translate(-275.477 -161.01)" fill="#6f61eb"/>
              <path id="Trazado_745794" data-name="Trazado 745794" d="M349.2,167.249H333.975a.415.415,0,1,1,0-.829H349.2a.415.415,0,0,1,0,.829Z" transform="translate(-298.636 -161.01)" fill="#263238"/>
              <path id="Trazado_745795" data-name="Trazado 745795" d="M278.359,173.779h-8.594a.415.415,0,0,1,0-.829h8.594a.415.415,0,1,1,0,.829Z" transform="translate(-261.046 -164.833)" fill="#263238"/>
              <path id="Trazado_745796" data-name="Trazado 745796" d="M306.6,173.779h-9.382a.415.415,0,1,1,0-.829H306.6a.415.415,0,1,1,0,.829Z" transform="translate(-277.116 -164.833)" fill="#263238"/>
              <g id="Grupo_1025157" data-name="Grupo 1025157" transform="translate(31.197 8.117)" opacity="0.2">
                <path id="Trazado_745797" data-name="Trazado 745797" d="M340.2,173.779H324.985a.415.415,0,1,1,0-.829H340.2a.415.415,0,1,1,0,.829Z" transform="translate(-324.57 -172.95)" fill="#263238"/>
              </g>
              <g id="Grupo_1025158" data-name="Grupo 1025158" transform="translate(1.248 10.825)" opacity="0.2">
                <path id="Trazado_745798" data-name="Trazado 745798" d="M264.307,180.309H252.745a.415.415,0,1,1,0-.829h11.563a.415.415,0,1,1,0,.829Z" transform="translate(-252.33 -179.48)" fill="#263238"/>
              </g>
              <path id="Trazado_745799" data-name="Trazado 745799" d="M265.754,186.829H252.745a.415.415,0,1,1,0-.829h13.009a.415.415,0,0,1,0,.829Z" transform="translate(-251.082 -172.472)" fill="#6f61eb"/>
              <path id="Trazado_745800" data-name="Trazado 745800" d="M308.872,186.829h-19.6a.415.415,0,1,1,0-.829h19.6a.415.415,0,1,1,0,.829Z" transform="translate(-272.468 -172.472)" fill="#263238"/>
              <path id="Trazado_745801" data-name="Trazado 745801" d="M354.063,186.829H342.285a.415.415,0,1,1,0-.829h11.778a.415.415,0,0,1,0,.829Z" transform="translate(-303.501 -172.472)" fill="#263238"/>
              <g id="Grupo_1025159" data-name="Grupo 1025159" transform="translate(5.394 16.235)" opacity="0.2">
                <path id="Trazado_745802" data-name="Trazado 745802" d="M270.195,193.359h-7.45a.415.415,0,0,1,0-.829h7.45a.415.415,0,1,1,0,.829Z" transform="translate(-262.33 -192.53)" fill="#263238"/>
              </g>
              <g id="Grupo_1025160" data-name="Grupo 1025160" transform="translate(15.389 16.235)" opacity="0.2">
                <path id="Trazado_745803" data-name="Trazado 745803" d="M301.141,193.359H286.855a.415.415,0,0,1,0-.829h14.286a.415.415,0,0,1,0,.829Z" transform="translate(-286.44 -192.53)" fill="#263238"/>
              </g>
              <path id="Trazado_745804" data-name="Trazado 745804" d="M341.985,193.359H328.035a.415.415,0,1,1,0-.829h13.951a.415.415,0,1,1,0,.829Z" transform="translate(-295.159 -176.295)" fill="#263238"/>
              <path id="Trazado_745805" data-name="Trazado 745805" d="M281.535,199.889h-8.781a.415.415,0,0,1,0-.829h8.781a.415.415,0,0,1,0,.829Z" transform="translate(-262.796 -180.118)" fill="#263238"/>
              <g id="Grupo_1025161" data-name="Grupo 1025161" transform="translate(20.128 18.942)" opacity="0.2">
                <path id="Trazado_745806" data-name="Trazado 745806" d="M306.651,199.889h-8.366a.415.415,0,1,1,0-.829h8.366a.415.415,0,0,1,0,.829Z" transform="translate(-297.87 -199.06)" fill="#263238"/>
              </g>
              <path id="Trazado_745807" data-name="Trazado 745807" d="M340.088,199.889H324.795a.415.415,0,1,1,0-.829h15.294a.415.415,0,1,1,0,.829Z" transform="translate(-293.262 -180.118)" fill="#6f61eb"/>
              <g id="Grupo_1025162" data-name="Grupo 1025162" transform="translate(9.544 21.649)" opacity="0.2">
                <path id="Trazado_745808" data-name="Trazado 745808" d="M283.488,206.419H272.755a.415.415,0,0,1,0-.829h10.733a.415.415,0,1,1,0,.829Z" transform="translate(-272.34 -205.59)" fill="#263238"/>
              </g>
            </g>
            <g id="Grupo_1025164" data-name="Grupo 1025164" transform="translate(58.684 1.036)">
              <path id="Trazado_745809" data-name="Trazado 745809" d="M376.03,129.769a.709.709,0,1,0,.709-.709A.709.709,0,0,0,376.03,129.769Z" transform="translate(-371.055 -129.06)" fill="#fff" opacity="0.4"/>
              <circle id="Elipse_8159" data-name="Elipse 8159" cx="0.709" cy="0.709" r="0.709" transform="translate(2.487)" fill="#fff" opacity="0.4"/>
              <circle id="Elipse_8160" data-name="Elipse 8160" cx="0.709" cy="0.709" r="0.709" fill="#fff" opacity="0.4"/>
            </g>
          </g>
        </g>
      </g>
      <g id="Speech_bubble" data-name="Speech bubble" transform="translate(39.298 68.262)">
        <g id="Grupo_1025170" data-name="Grupo 1025170">
          <g id="Grupo_1025167" data-name="Grupo 1025167">
            <path id="Trazado_745810" data-name="Trazado 745810" d="M95.194,131.46H80.275a4.594,4.594,0,0,0-4.6,4.6v12.982a4.594,4.594,0,0,0,4.6,4.6H90.853l3.116,4.1v-4.1h1.225a4.594,4.594,0,0,0,4.6-4.6V136.055A4.594,4.594,0,0,0,95.194,131.46Z" transform="translate(-75.68 -131.46)" fill="#407bff"/>
            <path id="Trazado_745811" data-name="Trazado 745811" d="M95.194,131.46H80.275a4.594,4.594,0,0,0-4.6,4.6v12.982a4.594,4.594,0,0,0,4.6,4.6H90.853l3.116,4.1v-4.1h1.225a4.594,4.594,0,0,0,4.6-4.6V136.055A4.594,4.594,0,0,0,95.194,131.46Z" transform="translate(-75.68 -131.46)" fill="#fff" opacity="0.7"/>
          </g>
          <g id="Grupo_1025169" data-name="Grupo 1025169" transform="translate(1.585 0.559)">
            <g id="Grupo_1025168" data-name="Grupo 1025168" transform="translate(0 0)">
              <path id="Trazado_746165" data-name="Trazado 746165" d="M7.4,0A7.4,7.4,0,1,1,0,7.4,7.4,7.4,0,0,1,7.4,0Z" transform="translate(0 10.472) rotate(-45)" fill="#f66a2d"/>
            </g>
            <path id="Trazado_745812" data-name="Trazado 745812" d="M94.082,152.944a.691.691,0,0,1-.519-.239l-2.9-3.422A.681.681,0,0,1,91.7,148.4l2.389,2.809,3.941-4.642a.681.681,0,1,1,1.039.883l-4.46,5.255a.683.683,0,0,1-.519.239Z" transform="translate(-84.388 -139.166)" fill="#fff"/>
          </g>
        </g>
      </g>
      <g id="Character" transform="translate(34.756 67.258)">
        <g id="Grupo_1025181" data-name="Grupo 1025181" transform="translate(0 0)">
          <g id="Grupo_1025179" data-name="Grupo 1025179">
            <g id="Grupo_1025171" data-name="Grupo 1025171" transform="translate(87.262 88.4)">
              <path id="Trazado_745813" data-name="Trazado 745813" d="M203.95,308.159l13.88-.679-1.352,12.076s-9.637,1.843-13.938-5.019l1.4-6.377Z" transform="translate(-202.54 -307.474)" fill="#ebb376"/>
              <path id="Trazado_745814" data-name="Trazado 745814" d="M234.4,311.681l-3.163,8.764-7.141-.893,1.352-12.082Z" transform="translate(-210.155 -307.47)" fill="#ebb376"/>
            </g>
            <path id="Trazado_745815" data-name="Trazado 745815" d="M169.678,317.708A56.881,56.881,0,0,0,183.959,307.1l-.944-9c-13.123,1.914-20.691,4.715-20.691,4.715s4.857-17.437.414-23.789l-12.218,2.212s-12.981,26.984-4.249,36.453h23.414Z" transform="translate(-94.336 -209.025)" fill="#407bff"/>
            <path id="Trazado_745816" data-name="Trazado 745816" d="M169.663,317.708a56.838,56.838,0,0,0,14.294-10.6l-.944-9a115.111,115.111,0,0,0-20.671,4.7c.162-.634,4.76-17.534.4-23.776l-12.211,2.218a94.255,94.255,0,0,0-5.957,16.855c-1.746,7.367-2.257,15.3,1.714,19.6h23.381Z" transform="translate(-94.34 -209.025)" fill="#fff" opacity="0.7"/>
            <path id="Trazado_745817" data-name="Trazado 745817" d="M159.611,320.113c4.314-27.34.485-34.273.485-34.273l-15.542,14.669c-1.746,7.367-2.257,15.3,1.714,19.6H159.6Z" transform="translate(-94.333 -211.43)" opacity="0.2"/>
            <path id="Trazado_745818" data-name="Trazado 745818" d="M137.126,309.313c2.911-13.815,6.177-35.451,5.815-38.672-.524-4.676-25.994-24.746-48.1-10.135-4.515,2.982-6.837,35.147-7.626,48.807h49.906Z" transform="translate(-74.545 -200.63)" fill="#f66a2d"/>
            <path id="Trazado_745820" data-name="Trazado 745820" d="M132.5,171.309c-7.664-3.1-25.736,8.02-27.32,27.844s8.466,14.326,8.466,14.326,1.785,7.567,9.107,5.226c0,0,6.047,6.849,11.674,4.062,0,0,7,7.3,10.763,3.447,0,0,4.088,4.67,7.82,1.132s14.391-39.584-2.341-47.921-18.175-8.124-18.175-8.124Z" transform="translate(-80.828 -170.796)" fill="#263238"/>
            <g id="Grupo_1025172" data-name="Grupo 1025172" transform="translate(17.864 45.724)">
              <path id="Trazado_745821" data-name="Trazado 745821" d="M146.432,289.246l-.737-.065c.847-9.547-1.248-13.77-1.274-13.815l.66-.336C145.17,275.2,147.3,279.454,146.432,289.246Z" transform="translate(-112.613 -253.337)" fill="#c55524"/>
              <path id="Trazado_745822" data-name="Trazado 745822" d="M151.747,289.067c-5.071-11.966.634-14.747.88-14.857l.31.673-.155-.336.155.336c-.052.026-5.278,2.645-.5,13.9l-.679.291Z" transform="translate(-114.462 -253.047)" fill="#c55524"/>
              <path id="Trazado_745823" data-name="Trazado 745823" d="M127.568,265.486a79.386,79.386,0,0,0-25.011-12.134l-4.877,2.29s-8.188-10.135,5.459-13.453,32.21,5.8,36.873,13.647-8.1,10.336-8.1,10.336-1.19-1.572-4.353-.686Z" transform="translate(-95.243 -241.49)" fill="#c55524"/>
              <path id="Trazado_745824" data-name="Trazado 745824" d="M127.568,265.486a79.386,79.386,0,0,0-25.011-12.134l-4.877,2.29s-8.188-10.135,5.459-13.453,32.21,5.8,36.873,13.647-8.1,10.336-8.1,10.336-1.19-1.572-4.353-.686Z" transform="translate(-95.243 -241.49)" fill="#c55524" opacity="0.6"/>
              <path id="Trazado_745825" data-name="Trazado 745825" d="M153.654,296.607a.647.647,0,1,1-.647-.647A.649.649,0,0,1,153.654,296.607Z" transform="translate(-115.418 -260.729)" fill="#c55524"/>
              <path id="Trazado_745826" data-name="Trazado 745826" d="M147.164,296.607a.647.647,0,1,1-.647-.647A.649.649,0,0,1,147.164,296.607Z" transform="translate(-113.125 -260.729)" fill="#c55524"/>
            </g>
            <g id="Grupo_1025173" data-name="Grupo 1025173" transform="translate(36.612 33.118)">
              <path id="Trazado_745827" data-name="Trazado 745827" d="M132.6,222.006c-.6,6.947-2.723,19.294-8.369,22.01,0,0,6.313,1.287,16.157,13.783,5.608-3.939,3.486-6.617,3.486-6.617-6.558-4.3-4.857-9.6-2.206-14.2L132.6,222Z" transform="translate(-124.23 -222)" fill="#ebb376"/>
              <path id="Trazado_745828" data-name="Trazado 745828" d="M142.223,231.46l5.368,8.861a20.56,20.56,0,0,0-1.617,3.363c-2.581-1.384-5.42-5.769-4.89-8.77A10.029,10.029,0,0,1,142.223,231.46Z" transform="translate(-130.161 -225.341)" opacity="0.2"/>
            </g>
            <g id="Grupo_1025176" data-name="Grupo 1025176" transform="translate(37.026 0.217)">
              <path id="Trazado_745829" data-name="Trazado 745829" d="M135.121,192.678c-1.8,10.9-2.8,15.471,1.242,22.5,6.073,10.562,19.533,11.06,24.481,1.074,4.456-8.99,6.662-25.315-2.626-32.521-9.152-7.1-21.286-1.947-23.09,8.958Z" transform="translate(-127.935 -174.426)" fill="#ebb376"/>
              <path id="Trazado_745830" data-name="Trazado 745830" d="M154.4,174.351c7.063,3.926,13.8,16.176,3.738,13.11-1.513,2.943-6.934.246-10.077-3.286-.53,2.451-6.332,4.909-10.594,1.113,2.063,2.975-1.449,10.484-5.1,9.191s-11.856-2.995-4.586-14.572,19.074-9.747,26.628-5.556Z" transform="translate(-124.87 -171.131)" fill="#263238"/>
              <path id="Trazado_745831" data-name="Trazado 745831" d="M165.812,215.27a27.4,27.4,0,0,0,1.876,6.681c-1.384.8-3.227-.272-3.227-.272l1.345-6.41Z" transform="translate(-138.853 -186.721)" fill="#d58745"/>
              <path id="Trazado_745832" data-name="Trazado 745832" d="M153.473,225.676a8.42,8.42,0,0,0,1.429.543.246.246,0,0,0,.31-.194.281.281,0,0,0-.2-.336,7.723,7.723,0,0,1-5.019-4.4.27.27,0,0,0-.336-.181.273.273,0,0,0-.155.349,8.115,8.115,0,0,0,3.965,4.224Z" transform="translate(-133.565 -188.777)" fill="#263238"/>
              <path id="Trazado_745833" data-name="Trazado 745833" d="M127.384,208.33a8.86,8.86,0,0,0,4.126,5.381c2.632,1.442,4.56-1.028,4.333-4.107-.2-2.768-1.817-6.856-4.709-7.018C128.29,202.425,126.6,205.458,127.384,208.33Z" transform="translate(-125.689 -182.239)" fill="#ebb376"/>
              <path id="Trazado_745834" data-name="Trazado 745834" d="M154.3,198.919a.5.5,0,0,0,.407-.019,3.96,3.96,0,0,1,3.764-.065.5.5,0,0,0,.705-.194.582.582,0,0,0-.22-.757,4.953,4.953,0,0,0-4.76.026.574.574,0,0,0,.1,1.015Z" transform="translate(-135.133 -180.37)" fill="#263238"/>
              <path id="Trazado_745835" data-name="Trazado 745835" d="M179.563,203.992a.478.478,0,0,0,.388.039.533.533,0,0,0,.323-.686,5.651,5.651,0,0,0-3.37-3.738.494.494,0,0,0-.634.369.589.589,0,0,0,.375.692,4.543,4.543,0,0,1,2.639,2.995.558.558,0,0,0,.278.336Z" transform="translate(-143.02 -181.18)" fill="#263238"/>
              <g id="Grupo_1025174" data-name="Grupo 1025174" transform="translate(20.413 23.659)">
                <path id="Trazado_745836" data-name="Trazado 745836" d="M158.662,209.765c-.317.86-1.041,1.391-1.617,1.177s-.783-1.08-.466-1.94,1.041-1.391,1.611-1.177.783,1.08.466,1.94Z" transform="translate(-156.431 -207.734)" fill="#263238"/>
                <path id="Trazado_745837" data-name="Trazado 745837" d="M158.76,207.755l2.147-.045S159.394,208.945,158.76,207.755Z" transform="translate(-157.253 -207.71)" fill="#263238"/>
              </g>
              <g id="Grupo_1025175" data-name="Grupo 1025175" transform="translate(31.273 27.1)">
                <path id="Trazado_745838" data-name="Trazado 745838" d="M175.452,215.085c-.317.86-1.041,1.391-1.617,1.177s-.783-1.08-.466-1.94,1.041-1.391,1.611-1.177.783,1.08.466,1.94Z" transform="translate(-173.221 -213.054)" fill="#263238"/>
                <path id="Trazado_745839" data-name="Trazado 745839" d="M175.56,213.075l2.147-.045S176.194,214.265,175.56,213.075Z" transform="translate(-174.047 -213.03)" fill="#263238"/>
              </g>
              <path id="Trazado_745840" data-name="Trazado 745840" d="M155.64,213.909a4.753,4.753,0,0,1-1.927-.407,4.938,4.938,0,0,1-2.684-3.13,6.558,6.558,0,0,1,3.421-7.664,4.823,4.823,0,0,1,6.811,3.04,6.368,6.368,0,0,1-.323,4.45h0a6.391,6.391,0,0,1-3.1,3.215A5.28,5.28,0,0,1,155.64,213.909Zm1.015-10.97a4.441,4.441,0,0,0-1.889.433,5.818,5.818,0,0,0-3.027,6.778,4.083,4.083,0,0,0,5.789,2.587,5.622,5.622,0,0,0,2.736-2.846l.336.149-.336-.149a5.582,5.582,0,0,0,.291-3.932,4.185,4.185,0,0,0-2.277-2.671,3.914,3.914,0,0,0-1.623-.343Z" transform="translate(-134.017 -182.107)" fill="#263238"/>
              <path id="Trazado_745841" data-name="Trazado 745841" d="M172.287,219.009a4.612,4.612,0,0,1-1.914-.407,4.937,4.937,0,0,1-2.684-3.13,6.558,6.558,0,0,1,3.421-7.664,4.823,4.823,0,0,1,6.811,3.04,6.365,6.365,0,0,1-.323,4.45h0a6.006,6.006,0,0,1-5.31,3.706Zm1.028-10.963a4.44,4.44,0,0,0-1.889.433,5.818,5.818,0,0,0-3.027,6.778,4.185,4.185,0,0,0,2.277,2.671c2.27,1.015,5.071-.3,6.248-2.93h0a5.582,5.582,0,0,0,.291-3.932,4.2,4.2,0,0,0-2.277-2.671,3.892,3.892,0,0,0-1.623-.343Z" transform="translate(-139.902 -183.909)" fill="#263238"/>
              <path id="Trazado_745842" data-name="Trazado 745842" d="M167.062,214.435a.321.321,0,0,0-.194-.207,1.312,1.312,0,0,0-.834.123l-.323-.666a2.031,2.031,0,0,1,1.423-.149,1.052,1.052,0,0,1,.614.627Z" transform="translate(-139.295 -186.081)" fill="#263238"/>
              <rect id="Rectángulo_375252" data-name="Rectángulo 375252" width="0.737" height="9.12" transform="matrix(0.296, -0.955, 0.955, 0.296, 8.69, 21.974)" fill="#263238"/>
            </g>
            <path id="Trazado_745843" data-name="Trazado 745843" d="M119.831,298.586s-17.017,13.039-31.951,12.257c.608-8.887,1.623-20.671,3.1-29.539,1.52-1.688,2.529-2.7,2.529-2.7l9.081,6.772-2.206,2.762s13.705-.692,18.479,0l.964,10.452Z" transform="translate(-74.778 -208.873)" opacity="0.2"/>
            <g id="Grupo_1025178" data-name="Grupo 1025178" transform="translate(0 57.58)">
              <g id="Grupo_1025177" data-name="Grupo 1025177" transform="translate(46.392 18.912)">
                <path id="Trazado_745844" data-name="Trazado 745844" d="M139.77,291.835l13.621-2.775.492,12.14s-9.249,3.279-14.533-2.852l.42-6.52Z" transform="translate(-139.35 -289.06)" fill="#ebb376"/>
                <path id="Trazado_745845" data-name="Trazado 745845" d="M170.542,291.867l-1.8,9.139-7.2.194-.485-12.14Z" transform="translate(-147.018 -289.06)" fill="#ebb376"/>
              </g>
              <path id="Trazado_745846" data-name="Trazado 745846" d="M137.722,293.35l.666,9.366L135,304.236,133.55,293.35Z" transform="translate(-90.91 -271.663)" fill="#407bff"/>
              <path id="Trazado_745847" data-name="Trazado 745847" d="M137.722,293.35l.666,9.366L135,304.236,133.55,293.35Z" transform="translate(-90.91 -271.663)" fill="#fff" opacity="0.6"/>
              <path id="Trazado_745848" data-name="Trazado 745848" d="M92.8,259.826a15.754,15.754,0,0,0-9.346,5.407c-4.107,4.825-18.589,19.158-15.368,30.852s34.17,2.995,43.626-3.693L110.264,281.5l-21.441,1.572,6.61-4.346C99.967,266.107,92.8,259.82,92.8,259.82Z" transform="translate(-67.624 -259.82)" fill="#f66a2d"/>
            </g>
            <path id="Trazado_745850" data-name="Trazado 745850" d="M202.55,308.49l3.907-.66v10.459l-3.092.5Z" transform="translate(-115.281 -219.198)" fill="#407bff"/>
            <path id="Trazado_745851" data-name="Trazado 745851" d="M202.55,308.49l3.907-.66v10.459l-3.092.5Z" transform="translate(-115.281 -219.198)" fill="#fff" opacity="0.6"/>
          </g>
          <g id="Grupo_1025180" data-name="Grupo 1025180" transform="translate(70.193 79.771)">
            <path id="Trazado_745852" data-name="Trazado 745852" d="M185.347,321.1a12.522,12.522,0,0,1,.084-1.714l.116-.86-.834.492-.5.291c-.175.058-.336.155-.5.194a1.5,1.5,0,0,1-.906.019,1.773,1.773,0,0,1-.724-.524,3.184,3.184,0,0,1-.511-.88l-.731-2.037-.517,2.154c-.052.213-.084.433-.129.647s-.123.4-.181.6a1.984,1.984,0,0,1-.6.822,1.278,1.278,0,0,1-.977.084,3.84,3.84,0,0,1-1.158-.511l-1.125-.7.459,1.145a11.243,11.243,0,0,1,.466,1.5,4.565,4.565,0,0,1,.1.776,1.276,1.276,0,0,1-.168.763,1.242,1.242,0,0,0,.44-.724,3.478,3.478,0,0,0,.116-.854,5.95,5.95,0,0,0-.026-.679,4.872,4.872,0,0,0,.582.284,2.291,2.291,0,0,0,1.843-.039,2.761,2.761,0,0,0,1.21-1.371.447.447,0,0,1,.032-.084,2.562,2.562,0,0,0,1.3.776,2.5,2.5,0,0,0,1.578-.162,4.078,4.078,0,0,0,.55-.3.263.263,0,0,0,.007.071,6.249,6.249,0,0,0,.188.906,4.3,4.3,0,0,0,.323.873,2.019,2.019,0,0,0,.563.731,2.264,2.264,0,0,1-.285-.821,6.344,6.344,0,0,1-.078-.86Z" transform="translate(-176.15 -301.883)" fill="#6f61eb"/>
            <path id="Trazado_745853" data-name="Trazado 745853" d="M218.941,298.755a3.691,3.691,0,0,1-1.494-.155,5.276,5.276,0,0,1-1.41-.679A4.014,4.014,0,0,1,215,296.8a6.064,6.064,0,0,1-.692-1.391l-.427-1.281-.724,1.145a6.224,6.224,0,0,1-1.112,1.287,2.038,2.038,0,0,1-1.3.589h-.155a1.706,1.706,0,0,0-.194-.045,3.045,3.045,0,0,1-.4-.1,4.839,4.839,0,0,1-.783-.336,6.924,6.924,0,0,1-1.4-1.035l-1.125-1.08.233,1.481a11.876,11.876,0,0,1,.155,2.393,3.293,3.293,0,0,1-.226,1.1.725.725,0,0,1-.789.453l-.3-.026.091.239c.188.485.382.97.582,1.449-.065-.433-.136-.86-.207-1.287l.116.019a1.056,1.056,0,0,0,.731-.272c.084-.091.175-.187.252-.285a3.477,3.477,0,0,0,.485-1.294,8.228,8.228,0,0,0,.142-1.306V297.2a6.9,6.9,0,0,0,.666.472,6.3,6.3,0,0,0,.957.479,3.561,3.561,0,0,0,1.119.252,3.249,3.249,0,0,0,2.16-.86,6,6,0,0,0,.705-.7,5.146,5.146,0,0,0,.42.66,5,5,0,0,0,3.208,2.05,5.234,5.234,0,0,0,1.235.091c-.052.136-.11.265-.155.395a8.549,8.549,0,0,0-.265,1.138,4.728,4.728,0,0,0-.052,1.171,2.314,2.314,0,0,0,.343,1.1,2.352,2.352,0,0,1-.078-1.1,4.971,4.971,0,0,1,.252-1.061,10.6,10.6,0,0,1,.938-1.973l.407-.692-.886.123Z" transform="translate(-186.609 -294.13)" fill="#407bff"/>
          </g>
        </g>
      </g>
      <g id="Table" transform="translate(30.756 175.79)">
        <g id="Grupo_1025182" data-name="Grupo 1025182">
          <path id="Trazado_745854" data-name="Trazado 745854" d="M2.306,0h182.1a2.307,2.307,0,0,1,2.305,2.306V7.914H0V2.306A2.307,2.307,0,0,1,2.306,0Z" transform="translate(192.858 11.335) rotate(180)" fill="#151e33"/>
          <rect id="Rectángulo_375253" data-name="Rectángulo 375253" width="186.721" height="3.957" transform="translate(192.858 7.379) rotate(180)" fill="#253351" opacity="0.2"/>
          <path id="Trazado_745855" data-name="Trazado 745855" d="M61.458,343H256.009a2.227,2.227,0,0,0,2.228-2.228h0a2.227,2.227,0,0,0-2.228-2.228H61.458a2.227,2.227,0,0,0-2.228,2.228h0A2.227,2.227,0,0,0,61.458,343Z" transform="translate(-59.23 -338.54)" fill="#253351"/>
        </g>
      </g>
      <g id="Device_2" data-name="Device 2" transform="translate(159.6 147.335)">
        <g id="Grupo_1025183" data-name="Grupo 1025183">
          <path id="Trazado_745856" data-name="Trazado 745856" d="M375.987,284.96l-5.681,25.766a1.937,1.937,0,0,1-1.843,1.464H337.437a1.249,1.249,0,0,1-1.163-1.62L341.944,285a1.774,1.774,0,0,1,1.843-1.262h31.026c.836,0,1.355.379,1.174,1.22Z" transform="translate(-321.241 -283.74)" fill="#263238"/>
          <path id="Trazado_745857" data-name="Trazado 745857" d="M376.956,284.96l-5.681,25.766a1.937,1.937,0,0,1-1.843,1.464H339.46a1.255,1.255,0,0,1-1.174-1.62L343.967,285a1.77,1.77,0,0,1,1.843-1.262h29.972c.836,0,1.355.379,1.174,1.22Z" transform="translate(-322.21 -283.74)" fill="#fff" opacity="0.4"/>
          <path id="Trazado_745858" data-name="Trazado 745858" d="M372.637,312.1l5.65-25.636c.187-.841-.338-1.22-1.174-1.22H347.141A1.763,1.763,0,0,0,345.3,286.5l-5.738,25.927,33.077-.332Z" transform="translate(-322.84 -284.461)" fill="#7e71ef"/>
          <path id="Trazado_745860" data-name="Trazado 745860" d="M375.916,313.665l-2.669,12.094-17.712.177H340.83l2.4-11.06a1.543,1.543,0,0,1,1.506-1.215h31.171Z" transform="translate(-323.45 -298.124)" opacity="0.2"/>
          <path id="Trazado_745861" data-name="Trazado 745861" d="M375.82,315.742a1.77,1.77,0,0,0-1.843-1.262H344c-.836,0-1.355.379-1.174,1.22l2.274,10.307h-5.058a.478.478,0,0,0,0,.955h36.919a1.084,1.084,0,0,0,1.059-1.319l-2.2-9.9Z" transform="translate(-322.845 -298.518)" fill="#6f61eb"/>
          <path id="Trazado_745863" data-name="Trazado 745863" d="M336.938,328.96H335.2l-.218.94h1.693Z" transform="translate(-320.638 -305.479)"/>
          <path id="Trazado_745864" data-name="Trazado 745864" d="M312.667,334.207h-5.011a.3.3,0,0,1-.3-.3.3.3,0,0,1,.3-.3h5.011a5.494,5.494,0,0,0,4.289-2.051,6.072,6.072,0,0,1,4.751-2.274h.883a.3.3,0,0,1,.3.3.3.3,0,0,1-.3.3h-.883a5.494,5.494,0,0,0-4.289,2.051A6.072,6.072,0,0,1,312.667,334.207Z" transform="translate(-307.36 -305.638)"/>
        </g>
      </g>
      <g id="Device_1" data-name="Device 1" transform="translate(81.285 124.826)">
        <g id="Grupo_1025184" data-name="Grupo 1025184" transform="translate(0 0)">
          <path id="Trazado_745865" data-name="Trazado 745865" d="M156.78,331.7v2.369c0,1.065,1.287,1.5,2.352,1.5h83.073c1.054,0,2.307-.436,2.307-1.5V331.7Z" transform="translate(-156.78 -284.626)" fill="#263238"/>
          <path id="Trazado_745866" data-name="Trazado 745866" d="M156.78,331.7v2.369c0,1.065,1.287,1.5,2.352,1.5h83.073c1.054,0,2.307-.436,2.307-1.5V331.7Z" transform="translate(-156.78 -284.626)" fill="#fff" opacity="0.4"/>
          <path id="Trazado_745867" data-name="Trazado 745867" d="M206.716,331.7v2.369c0,1.065,1.264,1.5,2.329,1.5h54.793c1.054,0,2.307-.436,2.307-1.5V331.7H206.71Z" transform="translate(-178.413 -284.626)" opacity="0.2"/>
          <path id="Trazado_745868" data-name="Trazado 745868" d="M283.191,250.76l-9.89,44.858a3.36,3.36,0,0,1-3.213,2.55H216.067a2.176,2.176,0,0,1-2.029-2.817l9.878-44.518a3.086,3.086,0,0,1,3.213-2.193h54.022C282.6,248.64,283.514,249.3,283.191,250.76Z" transform="translate(-181.558 -248.64)" fill="#263238"/>
          <path id="Trazado_745869" data-name="Trazado 745869" d="M284.589,250.76l-9.89,44.858a3.36,3.36,0,0,1-3.213,2.55H219.3a2.183,2.183,0,0,1-2.04-2.817l9.89-44.518a3.077,3.077,0,0,1,3.213-2.193h52.186C284,248.64,284.912,249.3,284.589,250.76Z" transform="translate(-182.955 -248.64)" fill="#fff" opacity="0.4"/>
          <path id="Trazado_745870" data-name="Trazado 745870" d="M280.474,287.307v.011c0,3.843-4.12,6.96-7.135,6.96s-4.806-3.123-3.944-6.96c.861-3.763,3.865-6.835,6.818-6.948-.861,3.843.981,6.948,3.99,6.948a1.815,1.815,0,0,0,.278-.011Z" transform="translate(-205.477 -262.387)" opacity="0.2"/>
        </g>
      </g>
      <g id="Program_icons" data-name="Program icons" transform="translate(152.533 19.763)">
        <g id="Grupo_1025143" data-name="Grupo 1025143">
          <path id="Trazado_746428" data-name="Trazado 746428" d="M2.27,0H15.577a2.27,2.27,0,0,1,2.27,2.27V15.577a2.27,2.27,0,0,1-2.27,2.27H2.27A2.27,2.27,0,0,1,0,15.577V2.27A2.27,2.27,0,0,1,2.27,0Z" transform="translate(0.042)" fill="#f66a2d"/>
          <g id="Grupo_1025140" data-name="Grupo 1025140" transform="translate(2.139 4.538)">
            <path id="Trazado_745732" data-name="Trazado 745732" d="M302.3,52.368,299.2,53.5l3.1,1.127v1.163l-4.429-1.682V52.9L302.3,51.22v1.153Z" transform="translate(-297.87 -48.925)" fill="#fff"/>
            <path id="Trazado_745733" data-name="Trazado 745733" d="M309.979,46.8h1.293L308.2,55.565H306.91l3.069-8.765Z" transform="translate(-302.216 -46.8)" fill="#fff"/>
            <path id="Trazado_745734" data-name="Trazado 745734" d="M320.049,52.888V54.1L315.62,55.78V54.617l3.1-1.127-3.1-1.137V51.2l4.429,1.682Z" transform="translate(-306.403 -48.915)" fill="#fff"/>
          </g>
          <g id="Grupo_1025141" data-name="Grupo 1025141" transform="translate(0 21.103)">
            <path id="Trazado_745735" data-name="Trazado 745735" d="M297.722,78.7v4.336h-1V81.26h-1.968v1.776h-1V78.7h1v1.708h1.968V78.7Z" transform="translate(-293.75 -78.7)" fill="#263238"/>
            <path id="Trazado_745736" data-name="Trazado 745736" d="M303.836,79.525H302.45V78.71h3.78v.815h-1.386v3.521h-1V79.525Z" transform="translate(-297.932 -78.705)" fill="#263238"/>
            <path id="Trazado_745737" data-name="Trazado 745737" d="M314.716,83.046v-2.6l-1.283,2.145h-.452L311.71,80.5v2.544h-.94V78.71h.831l1.625,2.695,1.6-2.695h.826l.01,4.336h-.94Z" transform="translate(-301.932 -78.705)" fill="#263238"/>
            <path id="Trazado_745738" data-name="Trazado 745738" d="M322.17,78.7h1v3.521h2.176v.82H322.17V78.705Z" transform="translate(-307.413 -78.7)" fill="#263238"/>
          </g>
          <g id="Grupo_1025142" data-name="Grupo 1025142" transform="translate(0 21.103)">
            <path id="Trazado_745739" data-name="Trazado 745739" d="M297.722,78.7v4.336h-1V81.26h-1.968v1.776h-1V78.7h1v1.708h1.968V78.7Z" transform="translate(-293.75 -78.7)" fill="#fff"/>
            <path id="Trazado_745740" data-name="Trazado 745740" d="M303.836,79.525H302.45V78.71h3.78v.815h-1.386v3.521h-1V79.525Z" transform="translate(-297.932 -78.705)" fill="#fff"/>
            <path id="Trazado_745741" data-name="Trazado 745741" d="M314.716,83.046v-2.6l-1.283,2.145h-.452L311.71,80.5v2.544h-.94V78.71h.831l1.625,2.695,1.6-2.695h.826l.01,4.336h-.94Z" transform="translate(-301.932 -78.705)" fill="#fff"/>
            <path id="Trazado_745742" data-name="Trazado 745742" d="M322.17,78.7h1v3.521h2.176v.82H322.17V78.705Z" transform="translate(-307.413 -78.7)" fill="#fff"/>
          </g>
        </g>
        <g id="Grupo_1025148" data-name="Grupo 1025148" transform="translate(38.212 9.513)">
          <path id="Trazado_746170" data-name="Trazado 746170" d="M2.27,0H15.577a2.27,2.27,0,0,1,2.27,2.27V15.577a2.27,2.27,0,0,1-2.27,2.27H2.27A2.27,2.27,0,0,1,0,15.577V2.27A2.27,2.27,0,0,1,2.27,0Z" fill="#f66a2d"/>
          <g id="Grupo_1025145" data-name="Grupo 1025145" transform="translate(4.45 4.554)">
            <path id="Trazado_745743" data-name="Trazado 745743" d="M377.457,69.536c.426.13.623.4.623,1.044v1.49a.614.614,0,0,0,.68.691h.166V73.9h-.54a1.537,1.537,0,0,1-1.76-1.667V70.549a.38.38,0,0,0-.41-.436h-.306V68.975h.306a.382.382,0,0,0,.41-.436V66.857a1.537,1.537,0,0,1,1.76-1.667h.54v1.137h-.166a.612.612,0,0,0-.68.691v1.49c0,.644-.2.914-.623,1.044Z" transform="translate(-375.91 -65.169)" fill="#fff"/>
            <path id="Trazado_745744" data-name="Trazado 745744" d="M390.337,68.951v1.137h-.306a.382.382,0,0,0-.41.436v1.682a1.537,1.537,0,0,1-1.76,1.667h-.54V72.736h.166a.612.612,0,0,0,.68-.691v-1.49c0-.644.2-.914.623-1.044-.426-.13-.623-.4-.623-1.044v-1.49a.614.614,0,0,0-.68-.691h-.166V65.15h.54a1.537,1.537,0,0,1,1.76,1.667V68.5a.38.38,0,0,0,.41.436h.306Z" transform="translate(-381.395 -65.15)" fill="#fff"/>
          </g>
          <g id="Grupo_1025146" data-name="Grupo 1025146" transform="translate(2.923 21.098)">
            <path id="Trazado_745745" data-name="Trazado 745745" d="M372.97,99.253a2.388,2.388,0,0,1,4.138-1.475l-.644.6a1.407,1.407,0,0,0-1.09-.509,1.386,1.386,0,0,0,0,2.773,1.372,1.372,0,0,0,1.09-.514l.644.6a2.384,2.384,0,0,1-4.138-1.469Z" transform="translate(-372.97 -97.01)" fill="#263238"/>
            <path id="Trazado_745746" data-name="Trazado 745746" d="M381.52,100.993l.343-.758a2.554,2.554,0,0,0,1.433.452c.6,0,.836-.2.836-.462,0-.81-2.524-.254-2.524-1.864,0-.737.6-1.35,1.828-1.35a2.913,2.913,0,0,1,1.506.384l-.312.763a2.474,2.474,0,0,0-1.2-.343c-.6,0-.826.223-.826.493,0,.8,2.524.249,2.524,1.838,0,.727-.6,1.345-1.838,1.345a3.067,3.067,0,0,1-1.765-.5Z" transform="translate(-377.08 -97.01)" fill="#263238"/>
            <path id="Trazado_745747" data-name="Trazado 745747" d="M389.13,100.993l.343-.758a2.554,2.554,0,0,0,1.433.452c.6,0,.836-.2.836-.462,0-.81-2.524-.254-2.524-1.864,0-.737.6-1.35,1.828-1.35a2.912,2.912,0,0,1,1.506.384l-.312.763a2.477,2.477,0,0,0-1.2-.343c-.6,0-.826.223-.826.493,0,.8,2.524.249,2.524,1.838,0,.727-.6,1.345-1.838,1.345a3.067,3.067,0,0,1-1.765-.5Z" transform="translate(-380.739 -97.01)" fill="#263238"/>
          </g>
          <g id="Grupo_1025147" data-name="Grupo 1025147" transform="translate(2.923 21.098)" opacity="0.83">
            <path id="Trazado_745748" data-name="Trazado 745748" d="M372.97,99.253a2.388,2.388,0,0,1,4.138-1.475l-.644.6a1.407,1.407,0,0,0-1.09-.509,1.386,1.386,0,0,0,0,2.773,1.372,1.372,0,0,0,1.09-.514l.644.6a2.384,2.384,0,0,1-4.138-1.469Z" transform="translate(-372.97 -97.01)" fill="#fff"/>
            <path id="Trazado_745749" data-name="Trazado 745749" d="M381.52,100.993l.343-.758a2.554,2.554,0,0,0,1.433.452c.6,0,.836-.2.836-.462,0-.81-2.524-.254-2.524-1.864,0-.737.6-1.35,1.828-1.35a2.913,2.913,0,0,1,1.506.384l-.312.763a2.474,2.474,0,0,0-1.2-.343c-.6,0-.826.223-.826.493,0,.8,2.524.249,2.524,1.838,0,.727-.6,1.345-1.838,1.345a3.067,3.067,0,0,1-1.765-.5Z" transform="translate(-377.08 -97.01)" fill="#fff"/>
            <path id="Trazado_745750" data-name="Trazado 745750" d="M389.13,100.993l.343-.758a2.554,2.554,0,0,0,1.433.452c.6,0,.836-.2.836-.462,0-.81-2.524-.254-2.524-1.864,0-.737.6-1.35,1.828-1.35a2.912,2.912,0,0,1,1.506.384l-.312.763a2.477,2.477,0,0,0-1.2-.343c-.6,0-.826.223-.826.493,0,.8,2.524.249,2.524,1.838,0,.727-.6,1.345-1.838,1.345a3.067,3.067,0,0,1-1.765-.5Z" transform="translate(-380.739 -97.01)" fill="#fff"/>
          </g>
        </g>
      </g>
    </g>
  </g>
</svg>
