<svg xmlns="http://www.w3.org/2000/svg" xmlns:xlink="http://www.w3.org/1999/xlink" width="85" height="74" viewBox="0 0 85 74">
  <defs>
    <filter id="Elipse_7683" x="7" y="3" width="71" height="71" filterUnits="userSpaceOnUse">
      <feOffset dy="3" input="SourceAlpha"/>
      <feGaussianBlur stdDeviation="3" result="blur"/>
      <feFlood flood-opacity="0.161"/>
      <feComposite operator="in" in2="blur"/>
      <feComposite in="SourceGraphic"/>
    </filter>
    <clipPath id="clip-path">
      <path id="path4752" d="M46.309-682.665H0v46.309H46.309Z" transform="translate(0 682.665)"/>
    </clipPath>
  </defs>
  <g id="_6" data-name="6" transform="translate(0 -1)">
    <g id="Grupo_1019890" data-name="Grupo 1019890">
      <rect id="Rectángulo_345292" data-name="Rectángulo 345292" width="85" height="71" rx="5" transform="translate(0 1)" fill="#221b6b"/>
      <g id="Grupo_1003705" data-name="Grupo 1003705" transform="translate(16 10)">
        <g transform="matrix(1, 0, 0, 1, -16, -9)" filter="url(#Elipse_7683)">
          <circle id="Elipse_7683-2" data-name="Elipse 7683" cx="26.5" cy="26.5" r="26.5" transform="translate(16 9)" fill="#362b9e"/>
        </g>
      </g>
    </g>
    <g id="g4746" transform="translate(19.346 13.346)">
      <g id="g4748">
        <g id="g4750" clip-path="url(#clip-path)">
          <g id="g4756" transform="translate(4.646)">
            <path id="path4758" d="M-526.749,0h34.612a1.2,1.2,0,0,1,1.2,1.2V45.107a1.2,1.2,0,0,1-1.2,1.2h-34.612a1.2,1.2,0,0,1-1.2-1.2V1.2a1.2,1.2,0,0,1,1.2-1.2" transform="translate(527.951)" fill="#edebed"/>
          </g>
          <g id="g4760" transform="translate(36.733 0)">
            <path id="path4762" d="M-53.741-619.843v-43.905a1.2,1.2,0,0,0-1.2-1.2h3.727a1.2,1.2,0,0,1,1.2,1.2v43.905a1.2,1.2,0,0,1-1.2,1.2h-3.727a1.2,1.2,0,0,0,1.2-1.2" transform="translate(54.943 664.95)" fill="#dbd9dc"/>
          </g>
          <g id="g4764" transform="translate(4.646)">
            <path id="path4766" d="M-526.749,0h34.612a1.2,1.2,0,0,1,1.2,1.2V7.454h-37.015V1.2a1.2,1.2,0,0,1,1.2-1.2" transform="translate(527.951)" fill="#112e4c"/>
          </g>
          <g id="g4768" transform="translate(36.733)">
            <path id="path4770" d="M-72.657,0h3.727a1.2,1.2,0,0,1,1.2,1.2V7.454h-3.727V1.2a1.2,1.2,0,0,0-1.2-1.2" transform="translate(72.657)" fill="#12263f"/>
          </g>
          <g id="g4772" transform="translate(8.373 11.181)">
            <path id="path4774" d="M-435.78-179.814v-12.334a.751.751,0,0,1,.751-.751h28.059a.751.751,0,0,1,.751.751v12.334a.751.751,0,0,1-.751.751h-28.059a.751.751,0,0,1-.751-.751" transform="translate(435.78 192.9)" fill="#f56a71"/>
          </g>
          <g id="g4776" transform="translate(33.456 11.181)">
            <path id="path4778" d="M-54.191-179.814v-12.334a.751.751,0,0,0-.751-.751h3.727a.751.751,0,0,1,.751.751v12.334a.751.751,0,0,1-.751.751h-3.727a.751.751,0,0,0,.751-.751" transform="translate(54.943 192.9)" fill="#f14d55"/>
          </g>
          <g id="g4780" transform="translate(8.373 28.745)">
            <path id="path4782" d="M12.917-10.325V2.009a.751.751,0,0,1-.751.751H.751A.751.751,0,0,1,0,2.009V-10.325a.751.751,0,0,1,.751-.751H12.166a.751.751,0,0,1,.751.751" transform="translate(0 11.076)" fill="#bd70ff"/>
          </g>
          <g id="g4784" transform="translate(16.812 28.745)">
            <path id="path4786" d="M-54.191-179.814v-12.334a.751.751,0,0,0-.751-.751h3.727a.751.751,0,0,1,.751.751v12.334a.751.751,0,0,1-.751.751h-3.727a.751.751,0,0,0,.751-.751" transform="translate(54.943 192.9)" fill="#a35bef"/>
          </g>
          <g id="g4788" transform="translate(25.018 28.745)">
            <path id="path4790" d="M-178.592,0h11.414a.751.751,0,0,1,.751.751V13.085a.751.751,0,0,1-.751.751h-11.414a.751.751,0,0,1-.751-.751V.751A.751.751,0,0,1-178.592,0" transform="translate(179.344)" fill="#458ce4"/>
          </g>
          <g id="g4792" transform="translate(33.456 28.745)">
            <path id="path4794" d="M-54.191-179.814v-12.334a.751.751,0,0,0-.751-.751h3.727a.751.751,0,0,1,.751.751v12.334a.751.751,0,0,1-.751.751h-3.727a.751.751,0,0,0,.751-.751" transform="translate(54.943 192.9)" fill="#2c79d9"/>
          </g>
          <g id="g4796" transform="translate(13.388 2.283)">
            <path id="path4798" d="M-42.581-19.846A1.444,1.444,0,0,0-41.137-18.4a1.444,1.444,0,0,0,1.444-1.444,1.444,1.444,0,0,0-1.444-1.444,1.444,1.444,0,0,0-1.444,1.444" transform="translate(42.581 21.291)" fill="#ffd164"/>
          </g>
          <g id="g4800" transform="translate(8.373 2.283)">
            <path id="path4802" d="M-42.581-19.846A1.444,1.444,0,0,0-41.137-18.4a1.444,1.444,0,0,0,1.444-1.444,1.444,1.444,0,0,0-1.444-1.444,1.444,1.444,0,0,0-1.444,1.444" transform="translate(42.581 21.291)" fill="#e6646e"/>
          </g>
          <g id="g4804" transform="translate(8.374 11.181)">
            <path id="path4806" d="M-228.3-95.069l-13.18-6.169a.751.751,0,0,1,.751-.749h.849l13.18,6.169,13.18-6.169h.849a.751.751,0,0,1,.751.749l-13.18,6.169,13.18,6.169a.751.751,0,0,1-.751.749h-.849L-226.7-94.32l-13.18,6.169h-.849a.751.751,0,0,1-.751-.749Z" transform="translate(241.478 101.988)" fill="#f14d55"/>
          </g>
          <g id="g4808" transform="translate(25.018 28.745)">
            <path id="path4810" d="M-1.692,0h.177A.751.751,0,0,1-.764.751V.994L-12.753,13.837h-.177a.751.751,0,0,1-.751-.751v-.243Z" transform="translate(13.681)" fill="#2c79d9"/>
          </g>
          <g id="g4812" transform="translate(8.373 28.745)">
            <path id="path4814" d="M-1.691,0h.177A.751.751,0,0,1-.763.751V.994L-12.752,13.837h-.177a.751.751,0,0,1-.751-.751v-.243Z" transform="translate(13.68)" fill="#a35bef"/>
          </g>
        </g>
      </g>
    </g>
  </g>
</svg>
