<svg xmlns="http://www.w3.org/2000/svg" width="78.506" height="78.506" viewBox="0 0 78.506 78.506">
  <g id="_5" data-name="5" transform="translate(-918.685 -927.529)">
    <path id="Trazado_734791" data-name="Trazado 734791" d="M39.253,0A39.253,39.253,0,1,1,0,39.253,39.253,39.253,0,0,1,39.253,0Z" transform="translate(918.685 927.529)" fill="#362b9e"/>
    <g id="lista" transform="translate(924.815 933.905)">
      <path id="Trazado_743931" data-name="Trazado 743931" d="M56.47,25.33h7.56V54.766H56.47Z" transform="translate(0.216 0.088)" fill="#009aff"/>
      <path id="Trazado_743932" data-name="Trazado 743932" d="M58.508,47.046V25.33H56.48V54.766h7.55v-2.2a5.519,5.519,0,0,1-5.522-5.522Z" transform="translate(0.216 0.088)" opacity="0.1"/>
      <path id="Trazado_743933" data-name="Trazado 743933" d="M62.042,19.8H58.468a1.992,1.992,0,0,0-1.988,1.988v3.564h7.55V21.788A1.992,1.992,0,0,0,62.042,19.8Z" transform="translate(0.216 0.066)" fill="#ff4823"/>
      <path id="Trazado_743934" data-name="Trazado 743934" d="M64.03,54.65H56.47l3.785,6.6Z" transform="translate(0.216 0.204)" fill="#fec200"/>
      <path id="Trazado_743935" data-name="Trazado 743935" d="M58.57,58.31l1.677,2.922,1.667-2.922Z" transform="translate(0.224 0.219)" fill="#5d5b68"/>
      <path id="Trazado_743936" data-name="Trazado 743936" d="M57.039,3.12A4.846,4.846,0,0,0,52.19,7.969v5.692h9.7V7.969A4.846,4.846,0,0,0,57.039,3.12Z" transform="translate(0.199 0)" fill="#8f919a"/>
      <path id="Trazado_743937" data-name="Trazado 743937" d="M14.56,3.12A5.079,5.079,0,0,0,9.48,8.2V63.117H47.289a5.079,5.079,0,0,0,5.08-5.08V7.969A4.846,4.846,0,0,1,57.218,3.12Z" transform="translate(0.03 0)" fill="#e6e9ee"/>
      <path id="Trazado_743938" data-name="Trazado 743938" d="M29.78,12.87H4.148A2.153,2.153,0,0,0,2,15.029V38.5A2.151,2.151,0,0,0,4.148,40.65H29.78A2.151,2.151,0,0,0,31.928,38.5V15.029A2.153,2.153,0,0,0,29.78,12.87Z" transform="translate(0 0.039)" fill="#fec200"/>
      <path id="Trazado_743939" data-name="Trazado 743939" d="M29.695,12.87H23.38a3.008,3.008,0,0,0,3.012,3.012h2.44v12.57a3.008,3.008,0,0,0,3.012,3.012V15.029a2.153,2.153,0,0,0-2.148-2.159Z" transform="translate(0.085 0.039)" fill="#fff" opacity="0.35"/>
      <path id="Trazado_743940" data-name="Trazado 743940" d="M21.607,20.4l-4.678-2.249L12.25,20.4V12.87h9.357Z" transform="translate(0.041 0.039)" fill="#ff4823"/>
      <circle id="Elipse_7938" data-name="Elipse 7938" cx="5.763" cy="5.763" r="5.763" transform="translate(36.416 7.407)" fill="#fec200"/>
      <circle id="Elipse_7939" data-name="Elipse 7939" cx="5.763" cy="5.763" r="5.763" transform="translate(36.416 22.175)" fill="#5072ff"/>
      <circle id="Elipse_7940" data-name="Elipse 7940" cx="5.763" cy="5.763" r="5.763" transform="translate(36.416 36.933)" fill="#ff4823"/>
      <path id="Trazado_743941" data-name="Trazado 743941" d="M44.121,46.264A5.763,5.763,0,0,1,38.358,40.5a5.686,5.686,0,0,1,.793-2.9,5.763,5.763,0,1,0,7.881,7.881,5.873,5.873,0,0,1-2.911.783Z" transform="translate(0.136 0.137)" opacity="0.1"/>
      <path id="Trazado_743942" data-name="Trazado 743942" d="M44.121,31.554a5.763,5.763,0,0,1-5.763-5.763,5.686,5.686,0,0,1,.793-2.9,5.763,5.763,0,1,0,7.881,7.881,5.873,5.873,0,0,1-2.911.783Z" transform="translate(0.136 0.078)" opacity="0.1"/>
      <path id="Trazado_743943" data-name="Trazado 743943" d="M44.121,16.844a5.763,5.763,0,0,1-5.763-5.763,5.686,5.686,0,0,1,.793-2.9,5.763,5.763,0,1,0,7.881,7.881,5.873,5.873,0,0,1-2.911.783Z" transform="translate(0.136 0.02)" opacity="0.1"/>
      <g id="Grupo_1024383" data-name="Grupo 1024383" transform="translate(59.467 30.046)">
        <path id="Trazado_743944" data-name="Trazado 743944" d="M60.244,50.11a1.007,1.007,0,0,1-1-1V30.944a1,1,0,0,1,2.008,0V49.106A1,1,0,0,1,60.244,50.11Z" transform="translate(-59.24 -29.94)" fill="#fff" opacity="0.35"/>
      </g>
      <g id="Grupo_1024386" data-name="Grupo 1024386" transform="translate(5.303 31.01)">
        <g id="Grupo_1024384" data-name="Grupo 1024384" transform="translate(0 4.367)">
          <path id="Trazado_743945" data-name="Trazado 743945" d="M14.8,37.258h-8.5a1,1,0,0,1,0-2.008h8.5a1,1,0,1,1,0,2.008Z" transform="translate(-5.29 -35.25)" fill="#5d5b68"/>
        </g>
        <g id="Grupo_1024385" data-name="Grupo 1024385" transform="translate(0)">
          <path id="Trazado_743946" data-name="Trazado 743946" d="M14.8,32.908h-8.5a1,1,0,0,1,0-2.008h8.5a1,1,0,0,1,0,2.008Z" transform="translate(-5.29 -30.9)" fill="#5d5b68"/>
        </g>
      </g>
      <path id="Trazado_743947" data-name="Trazado 743947" d="M42.69,58.069V53.22H2v4.618a5.079,5.079,0,0,0,5.08,5.08H47.54a4.852,4.852,0,0,1-4.849-4.849Z" transform="translate(0 0.198)" fill="#a4a7b1"/>
      <path id="Trazado_743948" data-name="Trazado 743948" d="M43.313,60.4H9.6a5.079,5.079,0,0,1-5.08-5.08v-2.1H2v4.618a5.079,5.079,0,0,0,5.08,5.08H47.54A4.835,4.835,0,0,1,43.313,60.4Z" transform="translate(0 0.198)" opacity="0.13"/>
      <g id="Grupo_1024387" data-name="Grupo 1024387" transform="translate(39.124 10.728)">
        <path id="Trazado_743949" data-name="Trazado 743949" d="M41.229,15.569a1.028,1.028,0,0,1-.713-.291l-1.245-1.245a1,1,0,1,1,1.416-1.416l.532.532,2.159-2.159a1,1,0,0,1,1.416,1.416l-2.861,2.861A.936.936,0,0,1,41.229,15.569Z" transform="translate(-38.978 -10.698)" fill="#fff"/>
      </g>
      <g id="Grupo_1024388" data-name="Grupo 1024388" transform="translate(39.124 25.496)">
        <path id="Trazado_743950" data-name="Trazado 743950" d="M41.229,30.279a1.028,1.028,0,0,1-.713-.291l-1.245-1.245a1,1,0,1,1,1.416-1.416l.532.532L43.377,25.7a1,1,0,0,1,1.416,1.416l-2.861,2.861A.974.974,0,0,1,41.229,30.279Z" transform="translate(-38.978 -25.408)" fill="#fff"/>
      </g>
      <path id="Trazado_743951" data-name="Trazado 743951" d="M29.78,37.126A24.243,24.243,0,0,1,5.534,12.88H4.148A2.138,2.138,0,0,0,2,15.028V38.5A2.151,2.151,0,0,0,4.148,40.65H29.78A2.151,2.151,0,0,0,31.928,38.5V37.126Z" transform="translate(0 0.039)" fill="#937512" opacity="0.1"/>
      <g id="Grupo_1024389" data-name="Grupo 1024389" transform="translate(39.124 40.274)">
        <path id="Trazado_743952" data-name="Trazado 743952" d="M41.229,44.989a1.028,1.028,0,0,1-.713-.291l-1.245-1.245a1,1,0,1,1,1.416-1.416l.532.532,2.159-2.148a1,1,0,0,1,1.416,1.416L41.932,44.7a1,1,0,0,1-.7.291Z" transform="translate(-38.978 -40.127)" fill="#fff"/>
      </g>
    </g>
  </g>
</svg>
