<svg xmlns="http://www.w3.org/2000/svg" xmlns:xlink="http://www.w3.org/1999/xlink" width="82.654" height="82.654" viewBox="0 0 82.654 82.654">
  <defs>
    <clipPath id="clip-path">
      <path id="Trazado_743966" data-name="Trazado 743966" d="M41.327,0A41.327,41.327,0,1,1,0,41.327,41.327,41.327,0,0,1,41.327,0Z" transform="translate(1231.611 925.456)" fill="#f3f9ff" opacity="0.67"/>
    </clipPath>
  </defs>
  <g id="_6" data-name="6" transform="translate(-1231.611 -925.456)" clip-path="url(#clip-path)">
    <g id="Grupo_1024390" data-name="Grupo 1024390">
      <path id="Trazado_734791" data-name="Trazado 734791" d="M39.253,0A39.253,39.253,0,1,1,0,39.253,39.253,39.253,0,0,1,39.253,0Z" transform="translate(1233.685 927.529)" fill="#362b9e"/>
      <path id="Trazado_743965" data-name="Trazado 743965" d="M175.661,25.754A25.754,25.754,0,1,1,149.907,0,25.754,25.754,0,0,1,175.661,25.754Z" transform="translate(1126.012 940.576)" fill="#352d79"/>
      <g id="facil" transform="translate(1233.927 941.279)">
        <path id="Trazado_743955" data-name="Trazado 743955" d="M144.315,40.078l-1.074,1.074L135.09,49.3a9.458,9.458,0,0,1-4.5,2.521,10.074,10.074,0,0,0-4.793,2.655L111.8,68.473l-14-14L110.778,41.5a3.177,3.177,0,0,1,.01-.734l2.547-19.556-.555-2.953a2.376,2.376,0,0,1,1.866-2.794,3.959,3.959,0,0,1,4.656,3.11l.319,1.79q.023.117.038.235a3.969,3.969,0,0,1,0,1.066l-1.082,8.307,4.282-4.282h0l14.764-14.764a3.168,3.168,0,1,1,4.48,4.48l-6.545,6.545a3.167,3.167,0,0,1,4.479,4.48L138.1,28.374a3.167,3.167,0,0,1,4.479,4.48l-3.818,3.818,1.074-1.074a3.168,3.168,0,0,1,4.48,4.48Z" transform="translate(-85.909 -8.702)" fill="#fed2a4"/>
        <path id="Trazado_743956" data-name="Trazado 743956" d="M97.806,54.475,110.14,42.141a2.331,2.331,0,0,0,.647-1.365v-.007l2.547-19.556-.555-2.953a2.376,2.376,0,0,1,1.866-2.794,3.942,3.942,0,0,1,2.033.129,2.377,2.377,0,0,0-1.435,2.665l.555,2.953-2.48,20.269-.143,1.17a3.241,3.241,0,0,1-1.035,1.773L101.254,55.459ZM129.228,30a1.213,1.213,0,0,0,1.715,0l7.241-7.241a3.153,3.153,0,0,1,1.771-.893,3.167,3.167,0,0,0-4.392.084l-6.335,6.335a1.213,1.213,0,0,0,0,1.715Zm4.48,4.48a1.213,1.213,0,0,0,1.715,0l5.3-5.3a3.153,3.153,0,0,1,1.771-.893,3.167,3.167,0,0,0-4.392.084l-4.392,4.392a1.213,1.213,0,0,0,0,1.715Zm4.48,4.48a1.213,1.213,0,0,0,1.715,0l2.554-2.554a3.153,3.153,0,0,1,1.771-.893,3.167,3.167,0,0,0-4.392.084l-1.648,1.648A1.213,1.213,0,0,0,138.188,38.962Zm-20.307-6.571a1.213,1.213,0,0,0,1.715,0l20.654-20.654a3.153,3.153,0,0,1,1.771-.893,3.167,3.167,0,0,0-4.392.084L117.881,30.676A1.213,1.213,0,0,0,117.881,32.391Z" transform="translate(-85.909 -8.702)" fill="#ffbd86"/>
        <path id="Trazado_743957" data-name="Trazado 743957" d="M381.531,24.111l-1.42-1.42a.7.7,0,0,1,0-1l1.215-1.215a1.41,1.41,0,0,1,1.994,0l.423.423a1.41,1.41,0,0,1,0,1.994l-1.215,1.215A.7.7,0,0,1,381.531,24.111Z" transform="translate(-328.241 -17.35)" fill="#ffe5c2"/>
        <path id="Trazado_743958" data-name="Trazado 743958" d="M240.845,17.957l-2.509-2.509a1.057,1.057,0,0,1,1.5-1.5l2.509,2.509a1.057,1.057,0,1,1-1.5,1.5Zm4.55-2.294a1.057,1.057,0,0,0,1.057-1.057V11.057a1.057,1.057,0,1,0-2.114,0v3.549A1.057,1.057,0,0,0,245.395,15.663Zm-6.406,6.406H235.44a1.057,1.057,0,0,1,0-2.114h3.549a1.057,1.057,0,1,1,0,2.114Z" transform="translate(-203.233 -8.702)" fill="#00b3ce"/>
        <path id="Trazado_743959" data-name="Trazado 743959" d="M125.621,292.829l-8.476,8.476L103.638,287.8l8.975-8.975,13.009,13.009A.7.7,0,0,1,125.621,292.829Z" transform="translate(-90.919 -239.632)" fill="#fff"/>
        <path id="Trazado_743960" data-name="Trazado 743960" d="M96.427,264.414l-8.975,8.975L84.3,270.241l8.476-8.476a.7.7,0,0,1,1,0Z" transform="translate(-74.31 -224.8)" fill="#d9e7ec"/>
        <path id="Trazado_743961" data-name="Trazado 743961" d="M59.385,301.161,73.44,315.216a.7.7,0,0,1,0,1L61.405,328.248a36.212,36.212,0,0,1-16.147-12.959Z" transform="translate(-40.768 -258.82)" fill="#f43b45"/>
        <path id="Trazado_743962" data-name="Trazado 743962" d="M25.2,288.783l12.612-12.612a.7.7,0,0,1,1,0l3.732,3.732L28.349,294.1A36.061,36.061,0,0,1,25.2,288.783Z" transform="translate(-23.54 -237.175)" fill="#cf3735"/>
        <path id="Trazado_743963" data-name="Trazado 743963" d="M102.749,327.254h-2.5a.7.7,0,0,1-.7-.7v-2.5a.7.7,0,0,1,.7-.7h2.5a.7.7,0,0,1,.7.7v2.5A.7.7,0,0,1,102.749,327.254Z" transform="translate(-87.398 -277.872)" fill="#ffea00"/>
        <path id="Trazado_743964" data-name="Trazado 743964" d="M108.864,331.126h-.984a.7.7,0,0,1-.7-.7v-.984a.7.7,0,0,1,.7-.7h.984a.7.7,0,0,1,.7.7v.984A.7.7,0,0,1,108.864,331.126Z" transform="translate(-93.958 -282.505)" fill="#fff261"/>
      </g>
    </g>
  </g>
</svg>
