<svg xmlns="http://www.w3.org/2000/svg" xmlns:xlink="http://www.w3.org/1999/xlink" width="1328" height="3135" viewBox="0 0 1328 3135">
  <defs>
    <clipPath id="clip-path">
      <rect id="Rect치ngulo_372986" data-name="Rect치ngulo 372986" width="1328" height="2943" transform="translate(0 0)" fill="#f4f2fd" opacity="0.3"/>
    </clipPath>
  </defs>
  <g id="bg-tema5" transform="translate(-136 -870)">
    <g id="Grupo_1025602" data-name="Grupo 1025602" transform="translate(92 6.083)">
      <path id="Trazado_741205" data-name="Trazado 741205" d="M0,2942.917H1328V0H0Z" transform="translate(44 969)" fill="#f4f2fd"/>
      <g id="Enmascarar_grupo_952169" data-name="Enmascarar grupo 952169" transform="translate(44 968.917)" clip-path="url(#clip-path)">
        <path id="Trazado_741204" data-name="Trazado 741204" d="M1883.757,946.754l173.551,892.732,209.315,498.966-215.431,145.237c-8.114-13.4-16.141-27.315-24.36-40.108-61.566-95.813-122.952-196.2-184.8-286.046-122.627-178.111-219.016-260.918-285.407-246.817a311.916,311.916,0,0,0-65.952,21.647c-38.551,17.785-87.546,10.287-156.572-43.437-43.2-33.623-88.79-84.861-139.47-161.224-75.855-114.3-145.461-242.517-217.007-366.7-37.912-65.8-76.163-131.67-115.022-194.908C782.678,1036.044,711.244,952.362,646.8,917.039c-69.319-37.992-113.78-30.774-115.268,63.2-1.243,78.418-3.052,156.28-10.217,225.958-11.6,112.786-79.872,106.149-194.3-4.276-40.962-39.526-84.95-90.6-127.558-136.4L0,0,1553.307,780.674Z" transform="matrix(0.891, 0.454, -0.454, 0.891, 565.147, -362.386)" fill="none" stroke="#fff" stroke-width="1"/>
      </g>
    </g>
    <rect id="Rect치ngulo_375486" data-name="Rect치ngulo 375486" width="1328" height="3135" transform="translate(136 870)" fill="none"/>
  </g>
</svg>
