<svg xmlns="http://www.w3.org/2000/svg" width="66.073" height="59.321" viewBox="0 0 66.073 59.321">
  <g id="_18" data-name="18" transform="translate(-1264.464 -3360.786)">
    <g id="encabezados" transform="translate(1264.028 3359.336)">
      <g id="BG" transform="translate(0.436 1.45)">
        <g id="Grupo_1024247" data-name="Grupo 1024247">
          <path id="Trazado_743782" data-name="Trazado 743782" d="M14.1,8.921C10.89,20.806,2.526,27.3.977,33.03S-.53,51.676,25.817,58.8,60.4,50.787,62.107,44.486c7.976-29.5-42.313-56.614-48-35.566Z" transform="translate(-0.436 -1.45)" fill="#9d8fe3"/>
        </g>
      </g>
      <g id="Color" transform="translate(5.325 18.962)">
        <g id="Grupo_1024251" data-name="Grupo 1024251" transform="translate(-2 30.804)">
          <g id="Grupo_1024248" data-name="Grupo 1024248" transform="translate(0.311 0)">
            <path id="Trazado_743783" data-name="Trazado 743783" d="M0,0H1.78V3.56H0Z" transform="translate(0 1.258) rotate(-45)" fill="#221b6b"/>
          </g>
          <g id="Grupo_1024249" data-name="Grupo 1024249" transform="translate(7.552 7.23)">
            <path id="Trazado_743784" data-name="Trazado 743784" d="M0,0H1.78V3.56H0Z" transform="translate(0 1.258) rotate(-45)" fill="#221b6b"/>
          </g>
          <g id="Grupo_1024250" data-name="Grupo 1024250" transform="translate(0 7.23)">
            <path id="Trazado_743785" data-name="Trazado 743785" d="M0,0H3.56V1.78H0Z" transform="translate(0 2.517) rotate(-45)" fill="#221b6b"/>
          </g>
        </g>
        <g id="Grupo_1024252" data-name="Grupo 1024252" transform="translate(55.844 -4)">
          <path id="Trazado_743786" data-name="Trazado 743786" d="M32.17,16.628a2.67,2.67,0,1,1,2.67-2.67A2.673,2.673,0,0,1,32.17,16.628Zm0-3.56a.89.89,0,1,0,.89.89A.891.891,0,0,0,32.17,13.068Z" transform="translate(-29.5 -11.288)" fill="#221b6b"/>
        </g>
      </g>
    </g>
    <g id="enlace" transform="translate(1272.501 3364.912)">
      <path id="Trazado_743813" data-name="Trazado 743813" d="M354.256,83.193a1.016,1.016,0,1,0-1.436,1.437l.035.033a1.016,1.016,0,0,0,1.456-1.411.728.728,0,0,0-.054-.059Zm0,0" transform="translate(-316.72 -74.476)" fill="#12263f"/>
      <path id="Trazado_743814" data-name="Trazado 743814" d="M49.029,2.971a10.169,10.169,0,0,0-14.366,0l-7.946,7.945A10.178,10.178,0,0,0,24.443,21.81L21.81,24.444a10.177,10.177,0,0,0-10.894,2.274L2.969,34.664A10.158,10.158,0,0,0,17.335,49.03l7.946-7.946A10.177,10.177,0,0,0,27.555,30.19l2.633-2.633a10.175,10.175,0,0,0,10.894-2.274l7.946-7.946a10.17,10.17,0,0,0,0-14.366ZM23.845,39.648,15.9,47.593A8.126,8.126,0,0,1,4.406,36.1l7.946-7.946a8.144,8.144,0,0,1,7.851-2.1l-2.825,2.825a5.066,5.066,0,0,0-2.872,1.434L6.562,38.256a5.079,5.079,0,1,0,7.182,7.182l7.946-7.945a5.068,5.068,0,0,0,1.434-2.872L25.948,31.8a8.145,8.145,0,0,1-2.1,7.851Zm-7.9-3.592a4.034,4.034,0,0,0,3.13,1.181L12.307,44A3.047,3.047,0,1,1,8,39.692l6.765-6.767a4.033,4.033,0,0,0,1.179,3.129Zm5.49-2.616-1.181,1.18a2.031,2.031,0,1,1-2.872-2.872L31.746,17.381a2.031,2.031,0,1,1,2.872,2.872Zm18.213-9.593a8.145,8.145,0,0,1-7.851,2.1l2.825-2.825a5.066,5.066,0,0,0,2.87-1.433h0l7.945-7.945a5.079,5.079,0,0,0-6.173-7.966A1.016,1.016,0,0,0,40.3,7.529,3.048,3.048,0,0,1,44,12.308l-6.765,6.766a4.059,4.059,0,0,0-4.053-4.319c-.086,0-.172,0-.257.009l1.738-1.738a1.016,1.016,0,0,0-1.437-1.437l-2.918,2.917a5.068,5.068,0,0,0-1.434,2.872L26.05,20.2a8.145,8.145,0,0,1,2.1-7.851L36.1,4.407A8.127,8.127,0,1,1,47.592,15.9Zm0,0" fill="#12263f"/>
      <path id="Trazado_743815" data-name="Trazado 743815" d="M110.6,110.6a1.016,1.016,0,0,0,0-1.437l-4.31-4.31a1.016,1.016,0,0,0-1.437,1.437l4.31,4.31A1.016,1.016,0,0,0,110.6,110.6Zm0,0" transform="translate(-93.933 -93.933)" fill="#12263f"/>
      <path id="Trazado_743816" data-name="Trazado 743816" d="M53.336,198a1.016,1.016,0,0,0,1.016,1.016h6.095a1.016,1.016,0,0,0,0-2.032H54.352A1.016,1.016,0,0,0,53.336,198Zm0,0" transform="translate(-47.92 -176.981)" fill="#12263f"/>
      <path id="Trazado_743817" data-name="Trazado 743817" d="M199.02,60.443V54.348a1.016,1.016,0,1,0-2.032,0v6.095a1.016,1.016,0,0,0,2.032,0Zm0,0" transform="translate(-176.982 -47.916)" fill="#12263f"/>
      <path id="Trazado_743818" data-name="Trazado 743818" d="M345.306,345.3a1.016,1.016,0,0,0,0,1.437l4.31,4.31a1.016,1.016,0,0,0,1.437-1.437l-4.31-4.311A1.017,1.017,0,0,0,345.306,345.3Zm0,0" transform="translate(-309.969 -309.967)" fill="#12263f"/>
      <path id="Trazado_743819" data-name="Trazado 743819" d="M296.008,379.668v6.095a1.016,1.016,0,1,0,2.032,0v-6.095a1.016,1.016,0,0,0-2.032,0Zm0,0" transform="translate(-265.945 -340.195)" fill="#12263f"/>
      <path id="Trazado_743820" data-name="Trazado 743820" d="M386.779,297.024a1.016,1.016,0,0,0-1.016-1.016h-6.095a1.016,1.016,0,1,0,0,2.032h6.095A1.016,1.016,0,0,0,386.779,297.024Zm0,0" transform="translate(-340.196 -265.945)" fill="#12263f"/>
    </g>
  </g>
</svg>
