<svg xmlns="http://www.w3.org/2000/svg" xmlns:xlink="http://www.w3.org/1999/xlink" width="408.348" height="644.273" viewBox="0 0 408.348 644.273">
  <defs>
    <clipPath id="clip-path">
      <path id="AdobeStock_63496949" d="M38,0H408.348a0,0,0,0,1,0,0V599a38,38,0,0,1-38,38H0a0,0,0,0,1,0,0V38A38,38,0,0,1,38,0Z" transform="translate(2306.5 -8076.95)" fill="#b2b4f7" opacity="0.66"/>
    </clipPath>
    <clipPath id="clip-path-2">
      <rect id="Rectángulo_348557" data-name="Rectángulo 348557" width="1126.526" height="563.263" rx="23" transform="translate(0 0)" fill="#37f871" opacity="0.15"/>
    </clipPath>
    <clipPath id="clip-path-3">
      <path id="AdobeStock_63496949-2" data-name="AdobeStock_63496949" d="M38,0H408.348a0,0,0,0,1,0,0V599a38,38,0,0,1-38,38H0a0,0,0,0,1,0,0V38A38,38,0,0,1,38,0Z" transform="translate(1020 2504)" fill="#b2b4f7"/>
    </clipPath>
    <clipPath id="clip-path-4">
      <rect id="Rectángulo_374208" data-name="Rectángulo 374208" width="118.123" height="54.025" transform="translate(0)" fill="#7478d5" stroke="#707070" stroke-width="1"/>
    </clipPath>
    <clipPath id="clip-path-5">
      <rect id="Rectángulo_374209" data-name="Rectángulo 374209" width="118.123" height="54.025" transform="translate(0)" fill="#907af8" stroke="#707070" stroke-width="1"/>
    </clipPath>
  </defs>
  <g id="_7" data-name="7" transform="translate(-1020 -2499.727)">
    <g id="Grupo_1024123" data-name="Grupo 1024123">
      <g id="Grupo_1024118" data-name="Grupo 1024118">
        <g id="Enmascarar_grupo_952229" data-name="Enmascarar grupo 952229" transform="translate(-1286.5 10579.95)" clip-path="url(#clip-path)">
          <g id="Grupo_1013613" data-name="Grupo 1013613" transform="translate(2150.269 -6959.394) rotate(-90)">
            <g id="Grupo_1013565" data-name="Grupo 1013565" transform="translate(0 0)">
              <rect id="Rectángulo_348555" data-name="Rectángulo 348555" width="1126.526" height="563.263" rx="23" transform="translate(0 0)" fill="#b2b4f7"/>
            </g>
            <path id="Rectangle_652" data-name="Rectangle 652" d="M1108.786,0H17.741A17.627,17.627,0,0,0,0,17.512v437.8a17.627,17.627,0,0,0,17.741,17.512H1108.786a17.627,17.627,0,0,0,17.741-17.512V17.512A17.627,17.627,0,0,0,1108.786,0Z" transform="translate(0 91.757)" fill="none" opacity="0.238"/>
            <g id="Enmascarar_grupo_952098" data-name="Enmascarar grupo 952098" transform="translate(0 0)" clip-path="url(#clip-path-2)">
              <g id="Grupo_1013564" data-name="Grupo 1013564" transform="translate(-204.455 -119.83)">
                <path id="Trazado_726348" data-name="Trazado 726348" d="M895.145,103.154s-78.67-.93-211.5-79.242S534.867,84.8,454.292,83.893s-101.485-60.5-188.838-44.585S156,121.475,52.183,91.77s-20.661,94.815-20.661,94.815l851.881,18.8Z" transform="matrix(0.995, -0.105, 0.105, 0.995, 534.285, 512.368)" fill="none" stroke="#12263f" stroke-width="3" stroke-dasharray="11" opacity="0.142"/>
                <path id="Trazado_726350" data-name="Trazado 726350" d="M1693.055,0l-132.1,377.843,36.384,173.139-260.6,144.01c-3.423-3.8-6.586-7.892-10.319-11.365-27.961-26.007-54.193-54.313-84.456-77.3-60-45.575-126.54-53.424-196.468-24.038q-36.5,15.341-72.052,32.928c-43.856,21.757-89.4,34.687-138.933,31.793-31.006-1.811-58.384-11.429-82.251-31.61-35.721-30.207-60.593-69.34-88.737-105.842-14.912-19.342-30.137-38.6-46.85-56.366-34.369-36.538-76.123-53.268-127.4-48.715-55.154,4.9-101.229,23.49-134.524,69.959-27.783,38.775-55.933,77.469-86.567,113.976C218.6,647.5,153.854,667.38,78.97,652.134,52.161,646.677,26.3,636.6,0,628.629L165.2,175.052Z" transform="matrix(-0.921, 0.391, -0.391, -0.921, 1830.02, 681.841)" fill="none" stroke="#31313c" stroke-width="3" opacity="0.05"/>
                <path id="Trazado_726351" data-name="Trazado 726351" d="M1244.637,510.918l-97.109-277.768,26.747-127.282L982.695,0c-2.516,2.8-4.841,5.8-7.586,8.355-20.555,19.119-39.84,39.928-62.087,56.829C868.912,98.687,820,104.458,768.59,82.855q-26.836-11.278-52.968-24.207c-32.24-15.995-65.718-25.5-102.135-23.372-22.793,1.331-42.921,8.4-60.466,23.238-26.26,22.207-44.544,50.975-65.234,77.809-10.963,14.219-22.155,28.376-34.441,41.437-25.266,26.86-55.961,39.16-93.654,35.813-40.546-3.6-74.418-17.269-98.894-51.429-20.425-28.505-41.119-56.951-63.639-83.789C160.705,34.914,113.1,20.3,58.054,31.507,38.346,35.518,19.332,42.928,0,48.786L121.448,382.23Z" transform="matrix(0.891, -0.454, 0.454, 0.891, 402.122, 565.053)" fill="none" stroke="#fff" stroke-width="1" opacity="0.81"/>
              </g>
            </g>
          </g>
        </g>
      </g>
      <g id="Enmascarar_grupo_952230" data-name="Enmascarar grupo 952230" clip-path="url(#clip-path-3)">
        <g id="_4085216" data-name="4085216" transform="translate(1020 2733.148)">
          <g id="BACKGROUND">
            <g id="Grupo_1024066" data-name="Grupo 1024066">
              <rect id="Rectángulo_374114" data-name="Rectángulo 374114" width="407.379" height="407.379" fill="#b8bdff" opacity="0.8"/>
              <g id="Grupo_1024065" data-name="Grupo 1024065" transform="translate(15.106 44.852)" opacity="0.2">
                <path id="Trazado_743586" data-name="Trazado 743586" d="M385.938,205.487c0,2.461-.35,8.742-1.043,18.585q-1.039,14.886-6.787,34.366-5.744,19.6-17.745,41.324-12,21.888-33.918,40.469c-14.609,12.3-33.055,22.569-55.322,30.627s-49.407,12.05-81.411,12.05c-25.746,0-49.057-2.884-69.931-8.824q-31.311-8.787-53.75-26.9c-14.959-12.132-26.618-27.58-34.969-46.5q-12.527-28.256-12.523-68.22A201.121,201.121,0,0,1,29.5,166.965a160.677,160.677,0,0,1,33.918-57.106Q86.381,84.78,122.91,69.895T209.544,55.05q86.637,0,131.51,39.027Q385.93,133.026,385.938,205.487Z" transform="translate(-18.54 -55.05)" fill="#fff"/>
              </g>
            </g>
          </g>
          <g id="OBJECTS" transform="translate(1.507 17.151)">
            <g id="Grupo_1024087" data-name="Grupo 1024087" transform="translate(-111 -16.385)">
              <g id="Grupo_1024067" data-name="Grupo 1024067" transform="translate(0 247.678)">
                <path id="Trazado_743587" data-name="Trazado 743587" d="M442.937,400.584c-49.9-12.536-130.1-20.674-220.544-20.674S51.761,388.048,1.85,400.584V507.93H443.274V400.584Z" transform="translate(106.795 -379.91)" fill="#fff"/>
                <path id="Trazado_743588" data-name="Trazado 743588" d="M660.058,396.613c-8.824-1.479-18.309-2.906-28.349-4.267a16.41,16.41,0,0,1,.357,3.408c0,38.719-134.691,70.107-300.849,70.107S30.368,434.473,30.368,395.754a17.153,17.153,0,0,1,.37-3.474c-10.238,1.374-19.895,2.827-28.878,4.333V503.959H660.574V396.613h-.5Z" transform="translate(-1.847 -375.939)" fill="#001627" opacity="0.1"/>
                <path id="Trazado_743589" data-name="Trazado 743589" d="M660.762,479.638C586.3,473.852,466.624,470.1,331.656,470.1S77.029,473.852,2.55,479.638V509.6H661.264V479.638Z" transform="translate(-1.625 -350.957)" fill="#b3c1c6"/>
              </g>
              <g id="Grupo_1024073" data-name="Grupo 1024073" transform="translate(151.891 28.296)">
                <g id="Grupo_1024068" data-name="Grupo 1024068" transform="translate(0 224.851)">
                  <path id="Trazado_743590" data-name="Trazado 743590" d="M139.01,384.763l-22.18,43.131.819,6.473,329.476,2.88v-8.626l-23-44.571Z" transform="translate(-116.83 -384.05)" fill="#414074"/>
                  <path id="Trazado_743591" data-name="Trazado 743591" d="M116.83,417.24l.819,6.473,329.476,2.88v-8.626Z" transform="translate(-116.83 -373.395)" fill="#2d2d51"/>
                </g>
                <g id="Grupo_1024072" data-name="Grupo 1024072" transform="translate(7.702)">
                  <path id="Trazado_743592" data-name="Trazado 743592" d="M127.786,219.825l314.72-3.038L425.068,421.545,133.928,415.8,122.66,213.92" transform="translate(-122.66 -213.814)" fill="#2d2d51"/>
                  <path id="Trazado_743593" data-name="Trazado 743593" d="M123.2,213.84l-.542.106,11.268,195.022,291.14,5.733,17.438-197.889Z" transform="translate(-122.66 -213.84)" fill="#414074"/>
                  <path id="Trazado_743594" data-name="Trazado 743594" d="M131.97,219.73,427.2,222.385,411.128,405.056l-268.748-5.3L131.97,219.73" transform="translate(-119.671 -211.949)" fill="#fff"/>
                  <g id="Grupo_1024071" data-name="Grupo 1024071" transform="translate(29.327 22.272)">
                    <g id="Grupo_1024069" data-name="Grupo 1024069" transform="translate(43.594 17.173)" opacity="0.5">
                      <rect id="Rectángulo_374115" data-name="Rectángulo 374115" width="210.174" height="142.472" fill="#fff" stroke="#888cf0" stroke-miterlimit="10" stroke-width="0.88"/>
                      <rect id="Rectángulo_374116" data-name="Rectángulo 374116" width="10.885" height="4.716" transform="translate(6.156 11.268)" fill="#888cf0"/>
                      <rect id="Rectángulo_374117" data-name="Rectángulo 374117" width="10.885" height="4.716" transform="translate(6.156 20.291)" fill="#888cf0"/>
                      <rect id="Rectángulo_374118" data-name="Rectángulo 374118" width="10.885" height="4.716" transform="translate(6.156 29.327)" fill="#888cf0"/>
                      <rect id="Rectángulo_374119" data-name="Rectángulo 374119" width="10.885" height="4.716" transform="translate(6.156 38.362)" fill="#888cf0"/>
                      <rect id="Rectángulo_374120" data-name="Rectángulo 374120" width="10.885" height="4.716" transform="translate(6.156 47.385)" fill="#888cf0"/>
                      <rect id="Rectángulo_374121" data-name="Rectángulo 374121" width="10.885" height="4.716" transform="translate(6.156 56.421)" fill="#888cf0"/>
                      <rect id="Rectángulo_374122" data-name="Rectángulo 374122" width="10.885" height="4.716" transform="translate(6.156 65.457)" fill="#888cf0"/>
                      <rect id="Rectángulo_374123" data-name="Rectángulo 374123" width="10.885" height="4.716" transform="translate(6.156 74.492)" fill="#888cf0"/>
                      <rect id="Rectángulo_374124" data-name="Rectángulo 374124" width="10.885" height="4.716" transform="translate(6.156 83.515)" fill="#888cf0"/>
                      <rect id="Rectángulo_374125" data-name="Rectángulo 374125" width="10.885" height="4.716" transform="translate(6.156 92.551)" fill="#888cf0"/>
                      <rect id="Rectángulo_374126" data-name="Rectángulo 374126" width="10.885" height="4.716" transform="translate(6.156 101.586)" fill="#888cf0"/>
                      <rect id="Rectángulo_374127" data-name="Rectángulo 374127" width="10.885" height="4.716" transform="translate(6.156 110.609)" fill="#888cf0"/>
                      <rect id="Rectángulo_374128" data-name="Rectángulo 374128" width="10.885" height="4.716" transform="translate(6.156 119.645)" fill="#888cf0"/>
                      <rect id="Rectángulo_374129" data-name="Rectángulo 374129" width="10.885" height="4.716" transform="translate(6.156 128.681)" fill="#888cf0"/>
                      <rect id="Rectángulo_374130" data-name="Rectángulo 374130" width="19.049" height="4.716" transform="translate(42.497 11.268)" fill="#ffc979"/>
                      <rect id="Rectángulo_374131" data-name="Rectángulo 374131" width="89.605" height="4.716" transform="translate(66.606 11.268)" fill="#888cf0"/>
                      <rect id="Rectángulo_374132" data-name="Rectángulo 374132" width="23.131" height="4.716" transform="translate(35.786 20.291)" fill="#ffc979"/>
                      <rect id="Rectángulo_374133" data-name="Rectángulo 374133" width="100.094" height="4.716" transform="translate(64.558 20.291)" fill="#888cf0"/>
                      <rect id="Rectángulo_374134" data-name="Rectángulo 374134" width="32.656" height="4.716" transform="translate(59.023 29.327)" fill="#ffc979"/>
                      <rect id="Rectángulo_374135" data-name="Rectángulo 374135" width="79.301" height="4.716" transform="translate(96.342 29.327)" fill="#888cf0"/>
                      <rect id="Rectángulo_374136" data-name="Rectángulo 374136" width="31.295" height="4.716" transform="translate(76.025 38.362)" fill="#ffc979"/>
                      <rect id="Rectángulo_374137" data-name="Rectángulo 374137" width="79.393" height="4.716" transform="translate(113.344 38.362)" fill="#888cf0"/>
                      <rect id="Rectángulo_374138" data-name="Rectángulo 374138" width="22.444" height="4.716" transform="translate(45.073 47.385)" fill="#ffc979"/>
                      <rect id="Rectángulo_374139" data-name="Rectángulo 374139" width="90.913" height="4.716" transform="translate(73.066 47.385)" fill="#888cf0"/>
                      <rect id="Rectángulo_374140" data-name="Rectángulo 374140" width="19.049" height="4.716" transform="translate(35.496 56.421)" fill="#ffc979"/>
                      <rect id="Rectángulo_374141" data-name="Rectángulo 374141" width="96.606" height="4.716" transform="translate(59.604 56.421)" fill="#888cf0"/>
                      <rect id="Rectángulo_374142" data-name="Rectángulo 374142" width="27.887" height="4.716" transform="translate(79.671 65.457)" fill="#ffc979"/>
                      <rect id="Rectángulo_374143" data-name="Rectángulo 374143" width="74.202" height="4.716" transform="translate(113.885 65.457)" fill="#888cf0"/>
                      <rect id="Rectángulo_374144" data-name="Rectángulo 374144" width="32.656" height="4.716" transform="translate(46.579 74.492)" fill="#ffc979"/>
                      <rect id="Rectángulo_374145" data-name="Rectángulo 374145" width="87.082" height="4.716" transform="translate(84.677 74.492)" fill="#888cf0"/>
                      <rect id="Rectángulo_374146" data-name="Rectángulo 374146" width="59.869" height="4.716" transform="translate(61.744 83.515)" fill="#ffc979"/>
                      <rect id="Rectángulo_374147" data-name="Rectángulo 374147" width="73.079" height="4.716" transform="translate(127.043 83.515)" fill="#888cf0"/>
                      <rect id="Rectángulo_374148" data-name="Rectángulo 374148" width="44.215" height="4.716" transform="translate(58.297 92.551)" fill="#ffc979"/>
                      <rect id="Rectángulo_374149" data-name="Rectángulo 374149" width="72.643" height="4.716" transform="translate(109.988 92.551)" fill="#888cf0"/>
                      <rect id="Rectángulo_374150" data-name="Rectángulo 374150" width="43.541" height="4.716" transform="translate(46.579 101.586)" fill="#ffc979"/>
                      <rect id="Rectángulo_374151" data-name="Rectángulo 374151" width="79.301" height="4.716" transform="translate(95.563 101.586)" fill="#888cf0"/>
                      <rect id="Rectángulo_374152" data-name="Rectángulo 374152" width="29.934" height="4.716" transform="translate(44.835 110.609)" fill="#ffc979"/>
                      <rect id="Rectángulo_374153" data-name="Rectángulo 374153" width="81.824" height="4.716" transform="translate(81.375 110.609)" fill="#888cf0"/>
                      <rect id="Rectángulo_374154" data-name="Rectángulo 374154" width="28.574" height="4.716" transform="translate(36.183 119.645)" fill="#ffc979"/>
                      <rect id="Rectángulo_374155" data-name="Rectángulo 374155" width="110.688" height="4.716" transform="translate(69.618 119.645)" fill="#888cf0"/>
                      <rect id="Rectángulo_374156" data-name="Rectángulo 374156" width="32.656" height="4.716" transform="translate(83.898 128.681)" fill="#ffc979"/>
                      <rect id="Rectángulo_374157" data-name="Rectángulo 374157" width="77.742" height="4.716" transform="translate(122.776 128.681)" fill="#888cf0"/>
                      <rect id="Rectángulo_374158" data-name="Rectángulo 374158" width="210.174" height="5.68" transform="translate(0 0.476)" fill="#888cf0" stroke="#888cf0" stroke-miterlimit="10" stroke-width="0.18"/>
                    </g>
                    <rect id="Rectángulo_374159" data-name="Rectángulo 374159" width="210.174" height="142.472" fill="#fff"/>
                    <g id="Grupo_1024070" data-name="Grupo 1024070" opacity="0.5">
                      <rect id="Rectángulo_374160" data-name="Rectángulo 374160" width="210.174" height="142.472" fill="#fff" stroke="#888cf0" stroke-miterlimit="10" stroke-width="0.88"/>
                      <rect id="Rectángulo_374161" data-name="Rectángulo 374161" width="10.885" height="4.716" transform="translate(6.156 11.268)" fill="#888cf0"/>
                      <rect id="Rectángulo_374162" data-name="Rectángulo 374162" width="10.885" height="4.716" transform="translate(6.156 20.291)" fill="#888cf0"/>
                      <rect id="Rectángulo_374163" data-name="Rectángulo 374163" width="10.885" height="4.716" transform="translate(6.156 29.327)" fill="#888cf0"/>
                      <rect id="Rectángulo_374164" data-name="Rectángulo 374164" width="10.885" height="4.716" transform="translate(6.156 38.362)" fill="#888cf0"/>
                      <rect id="Rectángulo_374165" data-name="Rectángulo 374165" width="10.885" height="4.716" transform="translate(6.156 47.385)" fill="#888cf0"/>
                      <rect id="Rectángulo_374166" data-name="Rectángulo 374166" width="10.885" height="4.716" transform="translate(6.156 56.421)" fill="#888cf0"/>
                      <rect id="Rectángulo_374167" data-name="Rectángulo 374167" width="10.885" height="4.716" transform="translate(6.156 65.457)" fill="#888cf0"/>
                      <rect id="Rectángulo_374168" data-name="Rectángulo 374168" width="10.885" height="4.716" transform="translate(6.156 74.492)" fill="#888cf0"/>
                      <rect id="Rectángulo_374169" data-name="Rectángulo 374169" width="10.885" height="4.716" transform="translate(6.156 83.515)" fill="#888cf0"/>
                      <rect id="Rectángulo_374170" data-name="Rectángulo 374170" width="10.885" height="4.716" transform="translate(6.156 92.551)" fill="#888cf0"/>
                      <rect id="Rectángulo_374171" data-name="Rectángulo 374171" width="10.885" height="4.716" transform="translate(6.156 101.586)" fill="#888cf0"/>
                      <rect id="Rectángulo_374172" data-name="Rectángulo 374172" width="10.885" height="4.716" transform="translate(6.156 110.609)" fill="#888cf0"/>
                      <rect id="Rectángulo_374173" data-name="Rectángulo 374173" width="10.885" height="4.716" transform="translate(6.156 119.645)" fill="#888cf0"/>
                      <rect id="Rectángulo_374174" data-name="Rectángulo 374174" width="10.885" height="4.716" transform="translate(6.156 128.681)" fill="#888cf0"/>
                      <rect id="Rectángulo_374175" data-name="Rectángulo 374175" width="19.049" height="4.716" transform="translate(42.497 11.268)" fill="#ffc979"/>
                      <rect id="Rectángulo_374176" data-name="Rectángulo 374176" width="89.605" height="4.716" transform="translate(66.606 11.268)" fill="#888cf0"/>
                      <rect id="Rectángulo_374177" data-name="Rectángulo 374177" width="23.131" height="4.716" transform="translate(35.786 20.291)" fill="#ffc979"/>
                      <rect id="Rectángulo_374178" data-name="Rectángulo 374178" width="100.094" height="4.716" transform="translate(64.558 20.291)" fill="#888cf0"/>
                      <rect id="Rectángulo_374179" data-name="Rectángulo 374179" width="32.656" height="4.716" transform="translate(59.023 29.327)" fill="#ffc979"/>
                      <rect id="Rectángulo_374180" data-name="Rectángulo 374180" width="79.301" height="4.716" transform="translate(96.342 29.327)" fill="#888cf0"/>
                      <rect id="Rectángulo_374181" data-name="Rectángulo 374181" width="31.295" height="4.716" transform="translate(76.025 38.362)" fill="#ffc979"/>
                      <rect id="Rectángulo_374182" data-name="Rectángulo 374182" width="79.393" height="4.716" transform="translate(113.344 38.362)" fill="#888cf0"/>
                      <rect id="Rectángulo_374183" data-name="Rectángulo 374183" width="22.444" height="4.716" transform="translate(45.073 47.385)" fill="#ffc979"/>
                      <rect id="Rectángulo_374184" data-name="Rectángulo 374184" width="90.913" height="4.716" transform="translate(73.066 47.385)" fill="#888cf0"/>
                      <rect id="Rectángulo_374185" data-name="Rectángulo 374185" width="19.049" height="4.716" transform="translate(35.496 56.421)" fill="#ffc979"/>
                      <rect id="Rectángulo_374186" data-name="Rectángulo 374186" width="96.606" height="4.716" transform="translate(59.604 56.421)" fill="#888cf0"/>
                      <rect id="Rectángulo_374187" data-name="Rectángulo 374187" width="27.887" height="4.716" transform="translate(79.671 65.457)" fill="#ffc979"/>
                      <rect id="Rectángulo_374188" data-name="Rectángulo 374188" width="74.202" height="4.716" transform="translate(113.885 65.457)" fill="#888cf0"/>
                      <rect id="Rectángulo_374189" data-name="Rectángulo 374189" width="32.656" height="4.716" transform="translate(46.579 74.492)" fill="#ffc979"/>
                      <rect id="Rectángulo_374190" data-name="Rectángulo 374190" width="87.082" height="4.716" transform="translate(84.677 74.492)" fill="#888cf0"/>
                      <rect id="Rectángulo_374191" data-name="Rectángulo 374191" width="59.869" height="4.716" transform="translate(61.744 83.515)" fill="#ffc979"/>
                      <rect id="Rectángulo_374192" data-name="Rectángulo 374192" width="73.079" height="4.716" transform="translate(127.043 83.515)" fill="#888cf0"/>
                      <rect id="Rectángulo_374193" data-name="Rectángulo 374193" width="44.215" height="4.716" transform="translate(58.297 92.551)" fill="#ffc979"/>
                      <rect id="Rectángulo_374194" data-name="Rectángulo 374194" width="72.643" height="4.716" transform="translate(109.988 92.551)" fill="#888cf0"/>
                      <rect id="Rectángulo_374195" data-name="Rectángulo 374195" width="43.541" height="4.716" transform="translate(46.579 101.586)" fill="#ffc979"/>
                      <rect id="Rectángulo_374196" data-name="Rectángulo 374196" width="79.301" height="4.716" transform="translate(95.563 101.586)" fill="#888cf0"/>
                      <rect id="Rectángulo_374197" data-name="Rectángulo 374197" width="29.934" height="4.716" transform="translate(44.835 110.609)" fill="#ffc979"/>
                      <rect id="Rectángulo_374198" data-name="Rectángulo 374198" width="81.824" height="4.716" transform="translate(81.375 110.609)" fill="#888cf0"/>
                      <rect id="Rectángulo_374199" data-name="Rectángulo 374199" width="28.574" height="4.716" transform="translate(36.183 119.645)" fill="#ffc979"/>
                      <rect id="Rectángulo_374200" data-name="Rectángulo 374200" width="110.688" height="4.716" transform="translate(69.618 119.645)" fill="#888cf0"/>
                      <rect id="Rectángulo_374201" data-name="Rectángulo 374201" width="32.656" height="4.716" transform="translate(83.898 128.681)" fill="#ffc979"/>
                      <rect id="Rectángulo_374202" data-name="Rectángulo 374202" width="77.742" height="4.716" transform="translate(122.776 128.681)" fill="#888cf0"/>
                      <rect id="Rectángulo_374203" data-name="Rectángulo 374203" width="210.174" height="5.68" transform="translate(0 0.476)" fill="#888cf0" stroke="#888cf0" stroke-miterlimit="10" stroke-width="0.18"/>
                    </g>
                  </g>
                </g>
              </g>
              <g id="Grupo_1024076" data-name="Grupo 1024076" transform="translate(113.828 233.663)">
                <path id="Trazado_743595" data-name="Trazado 743595" d="M109.31,409.543c0,3.144-9.159,5.7-20.465,5.7s-20.465-2.549-20.465-5.7,9.159-5.7,20.465-5.7S109.31,406.389,109.31,409.543Z" transform="translate(-66.576 -365.399)" fill="#001627" opacity="0.2"/>
                <g id="Grupo_1024075" data-name="Grupo 1024075" transform="translate(0 0)">
                  <g id="Grupo_1024074" data-name="Grupo 1024074" transform="translate(0)">
                    <path id="Trazado_743596" data-name="Trazado 743596" d="M111.071,369.99l-1.713,38.5-32.838-.645L73.9,370.121Z" transform="translate(-73.9 -365.657)" fill="#f1b762"/>
                    <path id="Trazado_743597" data-name="Trazado 743597" d="M110.329,370.154c0,2.469-8.162,4.464-18.218,4.464s-17.341-2-17.341-4.464,7.285-4.464,17.341-4.464S110.329,367.685,110.329,370.154Z" transform="translate(-74.034 -365.69)" fill="#c68d42" stroke="#f1b762" stroke-miterlimit="10" stroke-width="1.79"/>
                    <path id="Trazado_743598" data-name="Trazado 743598" d="M108.418,407.967c0,2.469-8.464,5.219-17.029,5.219s-15.8-3.134-15.8-5.592,6.953-4.464,15.527-4.464,17.311,2.378,17.311,4.837Z" transform="translate(-72.96 -365.405)" fill="#f1b762"/>
                  </g>
                  <ellipse id="Elipse_7907" data-name="Elipse 7907" cx="9.895" cy="9.895" rx="9.895" ry="9.895" transform="translate(26.803 12.333)" fill="none" stroke="#f1b762" stroke-miterlimit="10" stroke-width="4.28"/>
                  <line id="Línea_953" data-name="Línea 953" y2="14.832" transform="translate(9.22 7.124)" fill="none" stroke="#959faf" stroke-linecap="round" stroke-miterlimit="10" stroke-width="1.07"/>
                  <path id="Trazado_743599" data-name="Trazado 743599" d="M102.363,383.8l4.947,5.078-.685,7.7-9.341-.413-.554-8.927Z" transform="translate(-93.143 -365.552)" fill="#fff"/>
                </g>
              </g>
              <g id="Grupo_1024078" data-name="Grupo 1024078" transform="translate(472.037 153.331)">
                <ellipse id="Elipse_7908" data-name="Elipse 7908" cx="36.724" cy="10.119" rx="36.724" ry="10.119" transform="translate(40.755 132.776)" fill="#001627" opacity="0.2"/>
                <g id="Grupo_1024077" data-name="Grupo 1024077">
                  <path id="Trazado_743600" data-name="Trazado 743600" d="M420.433,330.754a7.7,7.7,0,0,1-10.819,1.281h0a7.7,7.7,0,0,1-1.281-10.819l16.182-20.542a7.7,7.7,0,0,1,10.819-1.281h0a7.7,7.7,0,0,1,1.281,10.819Z" transform="translate(-379.93 -292.788)" fill="#f1b762"/>
                  <path id="Trazado_743601" data-name="Trazado 743601" d="M420.433,330.754a7.7,7.7,0,0,1-10.819,1.281h0a7.7,7.7,0,0,1-1.281-10.819l16.182-20.542a7.7,7.7,0,0,1,10.819-1.281h0a7.7,7.7,0,0,1,1.281,10.819Z" transform="translate(-379.93 -292.788)" fill="#001627" opacity="0.1"/>
                  <path id="Trazado_743602" data-name="Trazado 743602" d="M417.681,404.309c-.238,7.015,13.91,10.357,31.837,10.951s32.827-1.77,33.052-8.785-15.3-19.432-33.224-20.04-31.427,10.846-31.665,17.86Z" transform="translate(-376.398 -264.32)" fill="#f1b762"/>
                  <path id="Trazado_743603" data-name="Trazado 743603" d="M446.72,387.02c9.683,5.126,16.328,13.316,16.143,18.772-.159,4.742-5.126,7.715-12.7,9.274,13.157-.489,22.893-3.131,23.078-8.785.211-6.116-11.6-16.354-26.526-19.26Z" transform="translate(-367.075 -264.126)" fill="#001627" opacity="0.1"/>
                  <line id="Línea_954" data-name="Línea 954" x1="38.125" y2="125.708" transform="translate(76.079)" fill="none" stroke="#f1b762" stroke-linecap="round" stroke-miterlimit="10" stroke-width="2.14"/>
                  <line id="Línea_955" data-name="Línea 955" x1="38.125" y2="125.708" transform="translate(83.846)" fill="none" stroke="#f1b762" stroke-linecap="round" stroke-miterlimit="10" stroke-width="2.14"/>
                  <line id="Línea_956" data-name="Línea 956" y1="32.088" x2="96.382" transform="translate(34.731 8.415)" fill="none" stroke="#f1b762" stroke-linecap="round" stroke-miterlimit="10" stroke-width="2.14"/>
                  <line id="Línea_957" data-name="Línea 957" y1="32.088" x2="96.382" transform="translate(30.596 1.836)" fill="none" stroke="#f1b762" stroke-linecap="round" stroke-miterlimit="10" stroke-width="2.14"/>
                  <path id="Trazado_743604" data-name="Trazado 743604" d="M431.166,356.523a32.09,32.09,0,0,0,2.431-3c9.828-13.659,7.768-31.942-4.584-40.833s-30.344-5.02-40.172,8.653a32.877,32.877,0,0,0-2.061,3.263Z" transform="translate(-386.317 -289.521)" fill="#f1b762"/>
                  <path id="Trazado_743605" data-name="Trazado 743605" d="M429.01,311.652c-.251-.185-.528-.33-.793-.5,6.407,9.657,6.13,23.422-1.678,34.28a36.432,36.432,0,0,1-2.431,3l-36.5-26.249c-.291.462-.568.925-.819,1.387l44.386,31.916a30.08,30.08,0,0,0,2.431-3c9.828-13.659,7.768-31.942-4.584-40.833Z" transform="translate(-386.313 -288.481)" fill="#001627" opacity="0.1"/>
                  <path id="Trazado_743606" data-name="Trazado 743606" d="M405.81,341.319c12.51,8.877,24.254,13.831,26.209,11.07s-6.592-12.206-19.1-21.083-24.254-13.831-26.209-11.07S393.3,332.442,405.81,341.319Z" transform="translate(-386.429 -285.81)" fill="#fff"/>
                </g>
              </g>
              <g id="Grupo_1024082" data-name="Grupo 1024082" transform="translate(170.268)">
                <g id="Grupo_1024079" data-name="Grupo 1024079" transform="translate(83.056)">
                  <path id="Trazado_743607" data-name="Trazado 743607" d="M208.325,249.44,197.03,272.981l9.881,7.53Z" transform="translate(-192.517 -174.115)" fill="#edaa98"/>
                  <path id="Trazado_743608" data-name="Trazado 743608" d="M208.949,245.461s-25.43,88.046,24.016,76.276l2.827,28.719,38.138,3.765,1.413-40.965s13.184-84.743,6.592-92.749-61.2-22.6-72.973,24.954Z" transform="translate(-190.789 -186.147)" fill="#ffc1ac"/>
                  <path id="Trazado_743609" data-name="Trazado 743609" d="M214.153,245.461s-26.751,88.046,17.609,76.276l1.149,30.9,39.538,1.585,1.268-40.965s11.823-84.743,5.918-92.749-54.915-22.6-65.47,24.954Z" transform="translate(-189.587 -186.147)" fill="#edaa98"/>
                  <path id="Trazado_743610" data-name="Trazado 743610" d="M297.94,228.193a23.84,23.84,0,0,0-18.138-9.736c-.819-14.267-21.876-15.06-38.362-11.916-21.982,4.188-40.965-14.122-40.965-14.122-5.654,19.776,5.654,29.195,5.654,29.195-5.178-.938-12.246-10.832-12.246-10.832-2.827,21.189,18.362,34.835,18.362,34.835-1.413,10.832,6.592,18.362,6.592,18.362l.938,24.479h4.24a38.682,38.682,0,0,1,2.351-16.473c3.289-8.943,11.77-.938,10.357,13.659s-9.419,8.481-9.419,8.481c1.414,11.295,16.011,27.781,16.011,27.781h34.373c34.373-56.024,29.195-81.916,20.251-93.687Z" transform="translate(-193.61 -192.42)" fill="#001627"/>
                  <path id="Trazado_743611" data-name="Trazado 743611" d="M216.079,260.585c3.435-13.474,10.555-26.275,20.965-34.875,11.031-9.1,25.39-15.945,39.776-14.531-6.5-7.134-22.365-7.12-35.39-4.637-21.982,4.188-40.965-14.122-40.965-14.122-5.654,19.776,5.654,29.195,5.654,29.195-5.178-.938-12.246-10.832-12.246-10.832-2.827,21.189,18.362,34.835,18.362,34.835a21.842,21.842,0,0,0,3.831,14.967Z" transform="translate(-193.613 -192.42)" fill="#03243a"/>
                  <path id="Trazado_743612" data-name="Trazado 743612" d="M226.307,256.277a13.141,13.141,0,0,0-1.44-1.295,6.256,6.256,0,0,0-.74-.515,2.516,2.516,0,0,0-.727-.3.653.653,0,0,0-.515.026c-.066,0-.106.092-.159.132-.053.013-.106.132-.159.2a.767.767,0,0,0-.159.277l-.159.33-.238.779.053-.225c-.106,1.876-.211,3.752-.449,5.628-.2,1.863-.489,3.725-.819,5.575l-.819-1.2a7.7,7.7,0,0,1,1.057.449c.33.172.661.37.991.581a5.083,5.083,0,0,1,.925.779c.145.172.277.344.41.515a3.63,3.63,0,0,1,.3.647,2.037,2.037,0,0,1,.092.74,1.648,1.648,0,0,1-.172.687,2.058,2.058,0,0,1-.33.555l-.41.436a3.446,3.446,0,0,1-.449.317c-.159.093-.3.211-.462.291-.33.145-.66.277-.978.409a8.8,8.8,0,0,0,1.242-1.559l.185-.4c.079-.132.04-.251.079-.37s-.04-.211-.026-.3-.092-.172-.119-.251c-.053-.079-.145-.158-.211-.238l-.291-.225a7.752,7.752,0,0,0-.74-.4c-.277-.119-.555-.211-.845-.3s-.608-.172-.859-.225l-.872-.2.053-1c.106-1.876.238-3.752.462-5.614.2-1.863.515-3.725.845-5.575l.04-.2v-.04c.185-.343.357-.674.528-.991a4.8,4.8,0,0,1,.793-.964,1.911,1.911,0,0,1,.581-.41,2.023,2.023,0,0,1,.727-.225,1.531,1.531,0,0,1,.74.053,2.028,2.028,0,0,1,.621.238,3.1,3.1,0,0,1,.9.727,6.034,6.034,0,0,1,.634.832,8.088,8.088,0,0,1,.832,1.823Z" transform="translate(-185.624 -173.106)" fill="#edaa98"/>
                </g>
                <g id="Grupo_1024081" data-name="Grupo 1024081" transform="translate(0 151.275)">
                  <g id="Grupo_1024080" data-name="Grupo 1024080">
                    <path id="Trazado_743613" data-name="Trazado 743613" d="M369.183,396.066s-2.827,7.464,1.03,9.776,27.028,2.061,27.794-4.888-4.888-14.412-11.836-16.222-16.988,11.321-16.988,11.321Z" transform="translate(-54.517 -282.014)" fill="#414074"/>
                    <path id="Trazado_743614" data-name="Trazado 743614" d="M394.137,388.57a12.223,12.223,0,0,1,.264,4.148c-.7,6.248-19.5,7.081-26.077,5.509-.33,2.285-.225,5.073,1.889,6.328,3.857,2.312,27.028,2.061,27.794-4.888A14.892,14.892,0,0,0,394.137,388.57Z" transform="translate(-54.517 -280.726)" fill="#2d2d51"/>
                    <path id="Trazado_743615" data-name="Trazado 743615" d="M357.83,387.6s18.27-11.07,20.846-10.291,5.152,1.8,5.152,1.8,3.606-2.061,5.918-1.03,12.867,5.152,11.07,7.728-7.728.515-7.728.515,7.464,1.8,8.745,3.342c0,0,.515,3.342-2.827,3.342s-11.07-2.827-11.07-2.827-10.04,13.131-17.755,13.131S357.83,387.6,357.83,387.6Z" transform="translate(-57.841 -284.354)" fill="#ffc1ac"/>
                    <path id="Trazado_743616" data-name="Trazado 743616" d="M169.049,386.3s-15.905-11.07-18.138-10.291-4.478,1.8-4.478,1.8-3.131-2.061-5.152-1.03-11.2,5.152-9.63,7.728,6.724.515,6.724.515-6.5,1.8-7.609,3.342c0,0-.449,3.342,2.457,3.342s9.63-2.827,9.63-2.827,8.732,13.131,15.456,13.131S169.062,386.3,169.062,386.3Z" transform="translate(-130.741 -284.771)" fill="#ffc1ac"/>
                    <path id="Trazado_743617" data-name="Trazado 743617" d="M429.3,403.786c-7.068,0-41.2,12.47-41.2,12.47s-25.43-73.449-46.606-94.638-89.684-14.835-122.181-9.181c-20.608,3.58-34.267,30.938-40.714,96.58-13.54-7.054-19.974-9.8-25.733-8.362-15.443,3.857-11.585,22.523-11.585,22.523s25.509,19.049,35.39,21.876c6.05,1.73,21.665,22.087,32.814-50.833-.647,17.371-8.573,52.339-1.48,90.543l138.417,12.708s-4.8-50.674-6.526-89.526c11.1,11.889,23.567,43.845,36.037,44.611,10.264.634,51.242-12.061,61.137-17.7S436.364,403.786,429.3,403.786Z" transform="translate(-127.497 -306.933)" fill="#f1b762"/>
                    <path id="Trazado_743618" data-name="Trazado 743618" d="M434.318,408.346c-7.068,0-43.66,14.267-43.66,14.267s-.9-2.959-2.51-7.847a.092.092,0,0,0-.053.026s-21.216-61.269-41.031-88.033c-.185-.2-.37-.4-.555-.581C325.321,304.99,256.826,311.344,224.329,317c-20.608,3.58-34.267,30.938-40.714,96.58a238.264,238.264,0,0,0-32.867-13.712c-12.959,4.967-9.485,21.85-9.485,21.85s25.509,19.049,35.39,21.876c6.05,1.731,21.665,22.087,32.814-50.833-.647,17.371-8.573,52.339-1.48,90.543L346.4,496.009s-4.8-50.674-6.526-89.526c11.1,11.889,23.567,43.845,36.037,44.611,10.264.634,51.242-12.061,61.137-17.7,6.579-3.765,4.082-16.262-.4-24.214a4.387,4.387,0,0,0-2.351-.832Z" transform="translate(-127.499 -305.47)" fill="#001627" opacity="0.1"/>
                  </g>
                  <path id="Trazado_743619" data-name="Trazado 743619" d="M357.471,520.963h64.2c8.322-16.988,15.747-35.06,15.007-39.089C429.611,443.736,327.946,434.7,327.946,434.7c-14.082,4.359-23.8,7.7-38.653,9.432-31.652,3.686-63.488,2.51-95.193.159,1.651,15.192,4.056,28.732,7.569,37.57H315.991c15.548,9.036,29.247,24.637,41.48,39.089Z" transform="translate(-110.402 -265.918)" fill="#001627"/>
                </g>
              </g>
              <g id="Grupo_1024086" data-name="Grupo 1024086" transform="translate(226.344 186.436)">
                <g id="Grupo_1024083" data-name="Grupo 1024083" transform="translate(0 169.5)">
                  <rect id="Rectángulo_374204" data-name="Rectángulo 374204" width="217.942" height="51.15" rx="10.69" transform="translate(0)" fill="#414074"/>
                  <path id="Trazado_743620" data-name="Trazado 743620" d="M327.564,498.689c0,7.728-5.707,13.99-12.735,13.99H185.925c-7.041,0-12.735-6.262-12.735-13.99V476.84c0-7.728,5.707-13.99,12.735-13.99H314.83c7.041,0,12.735,6.262,12.735,13.99Z" transform="translate(-173.19 -461.542)" fill="#001627" opacity="0.4"/>
                </g>
                <g id="Grupo_1024084" data-name="Grupo 1024084" transform="translate(9.789)">
                  <rect id="Rectángulo_374205" data-name="Rectángulo 374205" width="145.484" height="120.807" rx="9.83" fill="#414074"/>
                  <rect id="Rectángulo_374206" data-name="Rectángulo 374206" width="131.191" height="107.914" rx="8.87" transform="translate(0 12.893)" fill="#001627" opacity="0.4"/>
                </g>
                <g id="Grupo_1024085" data-name="Grupo 1024085" transform="translate(65.84 66.249)">
                  <path id="Trazado_743621" data-name="Trazado 743621" d="M247.707,537.335v-141.3a12.338,12.338,0,1,0-24.677,0v141.3Z" transform="translate(-223.03 -383.7)" fill="#6e7989"/>
                  <path id="Trazado_743622" data-name="Trazado 743622" d="M237.672,537.033H243.4v-141.3a12.327,12.327,0,0,0-6.975-11.1A12.171,12.171,0,0,1,237.672,390Z" transform="translate(-218.728 -383.398)" fill="#001627" opacity="0.2"/>
                </g>
              </g>
            </g>
            <g id="Grupo_1024113" data-name="Grupo 1024113" transform="translate(7.59 -209.056)">
              <g id="Grupo_1024092" data-name="Grupo 1024092" transform="translate(124.461 5.684)">
                <g id="Grupo_1024089" data-name="Grupo 1024089" transform="translate(-63.138 16)">
                  <path id="Trazado_743623" data-name="Trazado 743623" d="M356.043,33.22h75.084A9.78,9.78,0,0,1,440.91,43V89.075a9.78,9.78,0,0,1-9.783,9.783H397.4l5.376,19.844H397.4L375.944,98.858h-19.9a9.78,9.78,0,0,1-9.783-9.783V43A9.78,9.78,0,0,1,356.043,33.22Z" transform="translate(-346.26 -33.22)" fill="#2e2e59"/>
                  <path id="Trazado_743624" data-name="Trazado 743624" d="M350.443,33.22h75.084A9.78,9.78,0,0,1,435.31,43V89.075a9.78,9.78,0,0,1-9.783,9.783H391.8V118.7L370.344,98.858h-19.9a9.78,9.78,0,0,1-9.783-9.783V43a9.78,9.78,0,0,1,9.783-9.783Z" transform="translate(-335.284 -33.22)" fill="#414074"/>
                </g>
                <g id="Grupo_1024091" data-name="Grupo 1024091" transform="translate(20 94.481)">
                  <path id="Trazado_743628" data-name="Trazado 743628" d="M245.835,121.86H179.42a8.645,8.645,0,0,0-8.65,8.65v40.753a8.64,8.64,0,0,0,8.1,8.621l-4.762,16.234h4.762l17.521-16.205h49.442a8.645,8.645,0,0,0,8.65-8.65V130.51a8.645,8.645,0,0,0-8.65-8.65Z" transform="translate(-166.008 -121.86)" fill="#a9acd8"/>
                  <path id="Trazado_743629" data-name="Trazado 743629" d="M240.875,121.86H174.46a8.645,8.645,0,0,0-8.65,8.65v40.753a8.64,8.64,0,0,0,8.1,8.621v16.234l17.521-16.205h49.442a8.645,8.645,0,0,0,8.65-8.65V130.51a8.645,8.645,0,0,0-8.65-8.65Z" transform="translate(-165.81 -121.86)" fill="#fff"/>
                  <g id="Grupo_1024090" data-name="Grupo 1024090" transform="translate(12.711 13.623)">
                    <path id="Trazado_743630" data-name="Trazado 743630" d="M191.77,141.9a4.527,4.527,0,0,0-3.965,2.083,10.069,10.069,0,0,0-1.421,5.751q0,7.618,5.789,7.613a11.761,11.761,0,0,0,3.389-.49c1.094-.326,2.2-.72,3.3-1.171v6.029a18.352,18.352,0,0,1-7.469,1.459q-5.976,0-9.159-3.466t-3.187-10.013a16.024,16.024,0,0,1,1.546-7.2,11.059,11.059,0,0,1,4.435-4.771,13.4,13.4,0,0,1,6.807-1.67,18.738,18.738,0,0,1,8.17,1.862l-2.179,5.607a23,23,0,0,0-2.918-1.152,10.052,10.052,0,0,0-3.139-.47Z" transform="translate(-179.05 -136.05)" fill="#888cf0"/>
                    <path id="Trazado_743631" data-name="Trazado 743631" d="M210.141,152.393H203.43v-4.839h6.711V140.93H215v6.624h6.711v4.839H215V158.9h-4.858Z" transform="translate(-180.024 -136.245)" fill="#888cf0"/>
                    <path id="Trazado_743632" data-name="Trazado 743632" d="M231.921,152.393H225.21v-4.839h6.711V140.93h4.858v6.624h6.711v4.839h-6.711V158.9h-4.858Z" transform="translate(-180.895 -136.245)" fill="#888cf0"/>
                  </g>
                </g>
                <g id="Grupo_1024121" data-name="Grupo 1024121" transform="translate(-44.667 38.927)">
                  <path id="Trazado_743625" data-name="Trazado 743625" d="M367.251,60.793a3.688,3.688,0,0,0-3.216,1.69,8.154,8.154,0,0,0-1.152,4.647q0,6.163,4.685,6.163a9.736,9.736,0,0,0,2.746-.394,25.426,25.426,0,0,0,2.669-.95v4.877a14.813,14.813,0,0,1-6.048,1.181q-4.839,0-7.411-2.8t-2.573-8.1a12.918,12.918,0,0,1,1.248-5.827,8.852,8.852,0,0,1,3.591-3.859A10.83,10.83,0,0,1,367.3,56.06a15.122,15.122,0,0,1,6.615,1.507l-1.766,4.541a18.526,18.526,0,0,0-2.362-.931,8.358,8.358,0,0,0-2.544-.384Z" transform="translate(-356.95 -56.06)" fill="#fff"/>
                  <path id="Trazado_743626" data-name="Trazado 743626" d="M387.293,77.731l-4.368-15.38h-.134q.3,3.931.307,6.106v9.274H377.99V56.38h7.68l4.455,15.159h.115l4.368-15.159h7.7V77.731h-5.3v-9.36c0-.49,0-1.027.019-1.622s.077-2.045.2-4.368h-.134l-4.311,15.351h-5.491Z" transform="translate(-357.791 -56.073)" fill="#fff"/>
                  <path id="Trazado_743627" data-name="Trazado 743627" d="M422.027,71.239a6.283,6.283,0,0,1-1.008,3.523,6.569,6.569,0,0,1-2.909,2.39,10.813,10.813,0,0,1-4.455.854,17.961,17.961,0,0,1-3.581-.3,13.064,13.064,0,0,1-3-1.046V71.527a17.324,17.324,0,0,0,3.427,1.325,12.754,12.754,0,0,0,3.274.47,3.161,3.161,0,0,0,1.882-.442,1.358,1.358,0,0,0,.6-1.142,1.26,1.26,0,0,0-.24-.768,2.786,2.786,0,0,0-.778-.662c-.355-.221-1.306-.682-2.842-1.373a13.471,13.471,0,0,1-3.13-1.843,5.613,5.613,0,0,1-1.546-2.045,6.777,6.777,0,0,1-.5-2.726,5.466,5.466,0,0,1,2.15-4.6,9.443,9.443,0,0,1,5.9-1.651,16.463,16.463,0,0,1,6.759,1.536l-1.766,4.455a12.845,12.845,0,0,0-5.165-1.373,2.7,2.7,0,0,0-1.632.394,1.194,1.194,0,0,0-.509.979,1.406,1.406,0,0,0,.653,1.123A26.291,26.291,0,0,0,417.131,65a9.649,9.649,0,0,1,3.831,2.669,5.753,5.753,0,0,1,1.075,3.581Z" transform="translate(-358.953 -56.06)" fill="#fff"/>
                </g>
              </g>
              <g id="Grupo_1024098" data-name="Grupo 1024098" transform="translate(0 48.155)">
                <g id="Grupo_1024094" data-name="Grupo 1024094" transform="translate(224.334 -10)">
                  <circle id="Elipse_7909" data-name="Elipse 7909" cx="26.622" cy="26.622" r="26.622" transform="translate(5.683)" fill="#7178c6"/>
                  <circle id="Elipse_7910" data-name="Elipse 7910" cx="26.622" cy="26.622" r="26.622" fill="#888cf0"/>
                  <g id="Grupo_1024093" data-name="Grupo 1024093" transform="translate(5.338 17.684)">
                    <path id="Trazado_743633" data-name="Trazado 743633" d="M280.728,93.509a3.033,3.033,0,0,0-2.64,1.382,6.675,6.675,0,0,0-.95,3.821q0,5.055,3.85,5.059a7.727,7.727,0,0,0,2.256-.326,22.1,22.1,0,0,0,2.189-.778v4a12.209,12.209,0,0,1-4.963.97,7.861,7.861,0,0,1-6.087-2.3q-2.117-2.3-2.112-6.653A10.621,10.621,0,0,1,273.3,93.9a7.357,7.357,0,0,1,2.947-3.168,8.892,8.892,0,0,1,4.522-1.1,12.393,12.393,0,0,1,5.424,1.238l-1.45,3.725a16.263,16.263,0,0,0-1.939-.768,6.668,6.668,0,0,0-2.083-.307Z" transform="translate(-272.27 -89.63)" fill="#fff"/>
                    <path id="Trazado_743634" data-name="Trazado 743634" d="M300.969,102.072a5.172,5.172,0,0,1-.826,2.89,5.467,5.467,0,0,1-2.381,1.968,8.787,8.787,0,0,1-3.658.7,14.822,14.822,0,0,1-2.938-.25,10.953,10.953,0,0,1-2.467-.854v-4.215a14.312,14.312,0,0,0,2.813,1.085,10.52,10.52,0,0,0,2.688.394,2.637,2.637,0,0,0,1.546-.365,1.12,1.12,0,0,0,.49-.941,1.039,1.039,0,0,0-.2-.634,2.321,2.321,0,0,0-.634-.547,25.752,25.752,0,0,0-2.333-1.123,11.565,11.565,0,0,1-2.573-1.507,4.61,4.61,0,0,1-1.267-1.68,5.537,5.537,0,0,1-.413-2.237,4.475,4.475,0,0,1,1.766-3.773,7.769,7.769,0,0,1,4.839-1.354,13.629,13.629,0,0,1,5.549,1.258l-1.45,3.658a10.552,10.552,0,0,0-4.243-1.123,2.179,2.179,0,0,0-1.344.326.976.976,0,0,0-.422.806,1.157,1.157,0,0,0,.538.922,21.087,21.087,0,0,0,2.89,1.488,8.069,8.069,0,0,1,3.149,2.189,4.748,4.748,0,0,1,.883,2.938Z" transform="translate(-272.927 -89.63)" fill="#fff"/>
                    <path id="Trazado_743635" data-name="Trazado 743635" d="M315.719,102.072a5.171,5.171,0,0,1-.826,2.89,5.4,5.4,0,0,1-2.381,1.968,8.787,8.787,0,0,1-3.658.7,14.891,14.891,0,0,1-2.938-.25,10.952,10.952,0,0,1-2.467-.854v-4.215a14.31,14.31,0,0,0,2.813,1.085,10.52,10.52,0,0,0,2.688.394,2.637,2.637,0,0,0,1.546-.365,1.12,1.12,0,0,0,.49-.941,1.04,1.04,0,0,0-.2-.634,2.32,2.32,0,0,0-.634-.547,25.739,25.739,0,0,0-2.333-1.123,11.565,11.565,0,0,1-2.573-1.507,4.507,4.507,0,0,1-1.267-1.68,5.538,5.538,0,0,1-.413-2.237,4.493,4.493,0,0,1,1.757-3.773,7.75,7.75,0,0,1,4.839-1.354,13.629,13.629,0,0,1,5.549,1.258l-1.45,3.658a10.551,10.551,0,0,0-4.243-1.123,2.179,2.179,0,0,0-1.344.326.976.976,0,0,0-.422.806,1.157,1.157,0,0,0,.538.922,21.085,21.085,0,0,0,2.89,1.488,8.069,8.069,0,0,1,3.149,2.189,4.748,4.748,0,0,1,.883,2.938Z" transform="translate(-273.516 -89.63)" fill="#fff"/>
                  </g>
                </g>
                <g id="Grupo_1024097" data-name="Grupo 1024097" transform="translate(18 61.162)">
                  <g id="Grupo_1024095" data-name="Grupo 1024095">
                    <path id="Trazado_743636" data-name="Trazado 743636" d="M125.525,153.067A35.84,35.84,0,1,0,103.4,186.2l4.378,10.32h5.943V179.67A35.748,35.748,0,0,0,125.525,153.067Z" transform="translate(-47.867 -117.21)" fill="#7178c6"/>
                    <path id="Trazado_743637" data-name="Trazado 743637" d="M119.335,153.067A35.84,35.84,0,1,0,97.206,186.2l10.32,10.32V179.67a35.748,35.748,0,0,0,11.808-26.6Z" transform="translate(-47.62 -117.21)" fill="#888cf0"/>
                  </g>
                  <g id="Grupo_1024096" data-name="Grupo 1024096" transform="translate(19.181 15.86)">
                    <path id="Trazado_743638" data-name="Trazado 743638" d="M71.584,171.056a18.377,18.377,0,0,1-3.984-.413v-5.962q.619.115,1.325.259a7.536,7.536,0,0,0,1.517.144,3.109,3.109,0,0,0,2.717-1.142,7.014,7.014,0,0,0,.816-3.927V133.73h7.709v25.623q0,5.775-2.525,8.736C77.479,170.067,74.944,171.056,71.584,171.056Z" transform="translate(-67.6 -133.73)" fill="#fff"/>
                    <path id="Trazado_743639" data-name="Trazado 743639" d="M105.2,155.63a6.276,6.276,0,0,1-2.41,5.347q-2.4,1.8-6.912,1.8a30.314,30.314,0,0,1-4.253-.259,18.43,18.43,0,0,1-3.7-.96v-6.077a22.679,22.679,0,0,0,3.879,1.286,16.381,16.381,0,0,0,3.763.509c1.642,0,2.467-.374,2.467-1.123a1.268,1.268,0,0,0-.691-1.037,32.983,32.983,0,0,0-4.013-1.776,10.028,10.028,0,0,1-4.234-2.823,6.412,6.412,0,0,1-1.2-4.013,5.556,5.556,0,0,1,2.371-4.781,11.3,11.3,0,0,1,6.7-1.709,16.935,16.935,0,0,1,4.09.48,23.747,23.747,0,0,1,3.975,1.392l-2.064,4.9a23.421,23.421,0,0,0-3.207-1.152,10.689,10.689,0,0,0-2.755-.48c-1.248,0-1.862.307-1.862.912a1.135,1.135,0,0,0,.653.96,36.383,36.383,0,0,0,3.763,1.622,14.46,14.46,0,0,1,3.447,1.862,5.529,5.529,0,0,1,1.67,2.15,7.576,7.576,0,0,1,.538,3Z" transform="translate(-68.411 -133.981)" fill="#fff"/>
                  </g>
                </g>
              </g>
              <g id="Grupo_1024105" data-name="Grupo 1024105" transform="translate(45.39)">
                <g id="Grupo_1024101" data-name="Grupo 1024101" transform="translate(267.36 3)">
                  <g id="Grupo_1024099" data-name="Grupo 1024099" transform="translate(0)">
                    <path id="Trazado_743640" data-name="Trazado 743640" d="M107.507,21.05h52.879a7.5,7.5,0,0,1,7.5,7.5V81.427a7.5,7.5,0,0,1-7.5,7.5h-31.1L117.127,103.6h-4.9V88.925H107.5a7.5,7.5,0,0,1-7.5-7.5V28.548a7.5,7.5,0,0,1,7.5-7.5Z" transform="translate(-100 -21.05)" fill="#a9acd8"/>
                    <path id="Trazado_743641" data-name="Trazado 743641" d="M102.407,21.05h52.879a7.5,7.5,0,0,1,7.5,7.5V81.427a7.5,7.5,0,0,1-7.5,7.5h-31.1L107.131,103.6V88.925H102.4a7.5,7.5,0,0,1-7.5-7.5V28.548a7.5,7.5,0,0,1,7.5-7.5Z" transform="translate(-90.004 -21.05)" fill="#fff"/>
                  </g>
                  <g id="Grupo_1024122" data-name="Grupo 1024122" transform="translate(9.293 19.882)">
                    <path id="Trazado_743642" data-name="Trazado 743642" d="M122.129,64.546l-17.549-7.8V53.764l17.549-8.784v5.155l-10.762,4.915,10.762,4.378Z" transform="translate(-104.58 -41.889)" fill="#888cf0"/>
                    <path id="Trazado_743643" data-name="Trazado 743643" d="M139.886,41.76,130.43,67.854h-6.01l9.456-26.094h6.01Z" transform="translate(-105.373 -41.76)" fill="#888cf0"/>
                    <path id="Trazado_743644" data-name="Trazado 743644" d="M141.9,59.419l10.762-4.378L141.9,50.125V44.97l17.549,8.784V56.74l-17.549,7.8V59.419Z" transform="translate(-106.072 -41.888)" fill="#888cf0"/>
                  </g>
                </g>
                <g id="Grupo_1024104" data-name="Grupo 1024104" transform="translate(275.299 153.75)">
                  <g id="Grupo_1024102" data-name="Grupo 1024102">
                    <path id="Trazado_743645" data-name="Trazado 743645" d="M440.084,181.2H393.465a6.615,6.615,0,0,0-6.615,6.615v27.918a6.615,6.615,0,0,0,6.615,6.615l-2.842,13.133h4.992l14.2-13.133h30.28a6.615,6.615,0,0,0,6.615-6.615V187.815a6.615,6.615,0,0,0-6.615-6.615Z" transform="translate(-381.867 -181.2)" fill="#2e2e59"/>
                    <path id="Trazado_743646" data-name="Trazado 743646" d="M434.894,181.2H388.275a6.615,6.615,0,0,0-6.615,6.615v27.918a6.615,6.615,0,0,0,6.615,6.615h2.15V235.48l14.2-13.133H434.9a6.615,6.615,0,0,0,6.615-6.615V187.815A6.615,6.615,0,0,0,434.9,181.2Z" transform="translate(-381.66 -181.2)" fill="#414074"/>
                  </g>
                  <g id="Grupo_1024103" data-name="Grupo 1024103" transform="translate(9.476 15.265)">
                    <path id="Trazado_743647" data-name="Trazado 743647" d="M401.534,209.782H399.45V204.07H393.6v5.712H391.53V197.1H393.6v5.184h5.847V197.1h2.083Z" transform="translate(-391.53 -197.1)" fill="#fff"/>
                    <path id="Trazado_743648" data-name="Trazado 743648" d="M409.749,209.782h-2.074V198.876H403.95V197.1h9.533v1.776h-3.725v10.906Z" transform="translate(-392.026 -197.1)" fill="#fff"/>
                    <path id="Trazado_743649" data-name="Trazado 743649" d="M421.382,209.782,417.7,199.193h-.067c.1,1.574.144,3.043.144,4.426v6.163H415.9V197.1h2.919l3.523,10.09h.048l3.629-10.09h2.928v12.682h-2v-6.269c0-.634.019-1.45.048-2.467s.058-1.622.086-1.843h-.067l-3.811,10.57h-1.834Z" transform="translate(-392.504 -197.1)" fill="#fff"/>
                    <path id="Trazado_743650" data-name="Trazado 743650" d="M432.97,209.782V197.1h2.074v10.906h5.367v1.776Z" transform="translate(-393.186 -197.1)" fill="#fff"/>
                  </g>
                </g>
              </g>
              <g id="Grupo_1024112" data-name="Grupo 1024112" transform="translate(13.778 25.643)">
                <g id="Grupo_1024107" data-name="Grupo 1024107" transform="translate(2 179.266)">
                  <circle id="Elipse_7911" data-name="Elipse 7911" cx="17.895" cy="17.895" r="17.895" transform="translate(3.263 8.537) rotate(-13.8)" fill="#d8a159"/>
                  <circle id="Elipse_7912" data-name="Elipse 7912" cx="17.895" cy="17.895" r="17.895" transform="translate(0 8.385) rotate(-13.39)" fill="#ffc979"/>
                  <g id="Grupo_1024106" data-name="Grupo 1024106" transform="translate(16.28 10.117)">
                    <path id="Trazado_743651" data-name="Trazado 743651" d="M78.93,232.2a19,19,0,0,1,.96-6.125,15.012,15.012,0,0,1,2.765-5h2.534a17.587,17.587,0,0,0-2.63,5.2,19.35,19.35,0,0,0,0,11.741,17.529,17.529,0,0,0,2.611,5.117H82.665a14.558,14.558,0,0,1-2.765-4.906,18.671,18.671,0,0,1-.95-6.029Z" transform="translate(-78.93 -221.07)" fill="#414074"/>
                    <path id="Trazado_743652" data-name="Trazado 743652" d="M87.93,227.2a1.626,1.626,0,0,1,1.824-1.862,1.811,1.811,0,0,1,1.382.49A1.93,1.93,0,0,1,91.6,227.2a1.977,1.977,0,0,1-.48,1.392,1.747,1.747,0,0,1-1.363.509,1.781,1.781,0,0,1-1.363-.509,1.957,1.957,0,0,1-.47-1.392Zm0,10.551a1.871,1.871,0,0,1,.47-1.382,1.842,1.842,0,0,1,1.363-.48,1.8,1.8,0,0,1,1.373.5,1.9,1.9,0,0,1,.47,1.363,1.993,1.993,0,0,1-.48,1.392,1.747,1.747,0,0,1-1.363.509,1.781,1.781,0,0,1-1.363-.509A1.957,1.957,0,0,1,87.93,237.753Z" transform="translate(-79.289 -221.241)" fill="#414074"/>
                  </g>
                </g>
                <g id="Grupo_1024109" data-name="Grupo 1024109" transform="translate(229.379 83.638)">
                  <path id="Trazado_743653" data-name="Trazado 743653" d="M362.595,163.412A28.532,28.532,0,1,0,330.424,191.7l3.831,12.183h4.455l3.84-13.229A28.542,28.542,0,0,0,362.595,163.4Z" transform="translate(-301.085 -134.88)" fill="#d8a159"/>
                  <path id="Trazado_743654" data-name="Trazado 743654" d="M357.964,163.412A28.532,28.532,0,1,0,325.794,191.7l8.285,12.183,3.84-13.229A28.542,28.542,0,0,0,357.964,163.4Z" transform="translate(-300.9 -134.88)" fill="#ffc979"/>
                  <g id="Grupo_1024108" data-name="Grupo 1024108" transform="translate(10.436 20.026)">
                    <path id="Trazado_743655" data-name="Trazado 743655" d="M322.628,160.511a5.015,5.015,0,0,1-1.478,3.879,5.975,5.975,0,0,1-4.2,1.363h-1.133v4.963H311.77V155.74h5.184a6.346,6.346,0,0,1,4.263,1.238,4.408,4.408,0,0,1,1.421,3.523ZM315.8,162.46h.739a2.037,2.037,0,0,0,1.45-.509,1.881,1.881,0,0,0,.538-1.411c0-1.008-.557-1.517-1.68-1.517H315.8Z" transform="translate(-311.77 -155.74)" fill="#414074"/>
                    <path id="Trazado_743656" data-name="Trazado 743656" d="M338.4,170.717h-4.071v-6.106h-4.7v6.106H325.55V155.74h4.071v5.549h4.7V155.74H338.4Z" transform="translate(-312.321 -155.74)" fill="#414074"/>
                    <path id="Trazado_743657" data-name="Trazado 743657" d="M353.178,160.511a5.015,5.015,0,0,1-1.478,3.879,5.975,5.975,0,0,1-4.205,1.363h-1.133v4.963H342.32V155.74H347.5a6.346,6.346,0,0,1,4.263,1.238,4.409,4.409,0,0,1,1.421,3.523Zm-6.826,1.949h.739a2.037,2.037,0,0,0,1.45-.509,1.881,1.881,0,0,0,.538-1.411c0-1.008-.557-1.517-1.68-1.517h-1.046Z" transform="translate(-312.991 -155.74)" fill="#414074"/>
                  </g>
                </g>
                <g id="Grupo_1024111" data-name="Grupo 1024111" transform="translate(166.147 -45)">
                  <path id="Trazado_743658" data-name="Trazado 743658" d="M229,47.76H196.589a4.6,4.6,0,0,0-4.6,4.6V84.769a4.6,4.6,0,0,0,4.6,4.6h16.186l8.842,11.751h4.675V89.368h2.7a4.6,4.6,0,0,0,4.6-4.6V52.359a4.6,4.6,0,0,0-4.6-4.6Z" transform="translate(-187.315 -47.76)" fill="#d8a159"/>
                  <path id="Trazado_743659" data-name="Trazado 743659" d="M224.129,47.76H191.719a4.6,4.6,0,0,0-4.6,4.6V84.769a4.6,4.6,0,0,0,4.6,4.6H207.9l13.527,11.751V89.368h2.7a4.6,4.6,0,0,0,4.6-4.6V52.359A4.6,4.6,0,0,0,224.129,47.76Z" transform="translate(-187.12 -47.76)" fill="#ffc979"/>
                  <g id="Grupo_1024110" data-name="Grupo 1024110" transform="translate(6.252 6.271)">
                    <path id="Trazado_743660" data-name="Trazado 743660" d="M223.627,80.783a2.474,2.474,0,0,1,0,3.5h0a2.474,2.474,0,0,1-3.5,0l-6.893-6.893a2.474,2.474,0,0,1,0-3.5h0a2.474,2.474,0,0,1,3.5,0Z" transform="translate(-194.387 -55.047)" fill="#414074"/>
                    <path id="Trazado_743661" data-name="Trazado 743661" d="M210.162,70.822a9.687,9.687,0,1,1,0-13.7A9.706,9.706,0,0,1,210.162,70.822ZM198.008,58.668a7.5,7.5,0,1,0,10.608,0A7.5,7.5,0,0,0,198.008,58.668Z" transform="translate(-193.633 -54.293)" fill="#414074"/>
                    <rect id="Rectángulo_374207" data-name="Rectángulo 374207" width="2.189" height="10.628" transform="translate(14.988 16.52) rotate(-45)" fill="#414074"/>
                  </g>
                </g>
              </g>
            </g>
          </g>
        </g>
      </g>
      <g id="Grupo_1024120" data-name="Grupo 1024120" transform="translate(1039.78 2499.727)" clip-path="url(#clip-path-4)">
        <g id="Grupo_1024119" data-name="Grupo 1024119" transform="translate(2.747 -62.266)">
          <path id="Sustracción_35" data-name="Sustracción 35" d="M57.23,0A57.653,57.653,0,0,0,45.7,1.163,56.917,56.917,0,0,0,25.232,9.774,57.4,57.4,0,0,0,4.5,34.954,56.944,56.944,0,0,0,1.163,45.7a57.789,57.789,0,0,0,0,23.068A56.917,56.917,0,0,0,9.774,89.228a57.4,57.4,0,0,0,25.18,20.735A56.945,56.945,0,0,0,45.7,113.3a57.789,57.789,0,0,0,23.068,0,56.917,56.917,0,0,0,20.464-8.611,57.4,57.4,0,0,0,20.735-25.18A56.944,56.944,0,0,0,113.3,68.764a57.789,57.789,0,0,0,0-23.068,56.917,56.917,0,0,0-8.611-20.464A57.4,57.4,0,0,0,79.507,4.5,56.944,56.944,0,0,0,68.764,1.163,57.653,57.653,0,0,0,57.23,0Zm-.213,87.3A30.078,30.078,0,0,1,51,86.694,29.694,29.694,0,0,1,40.324,82.2,29.944,29.944,0,0,1,29.507,69.065a29.705,29.705,0,0,1-1.74-5.6,30.148,30.148,0,0,1,0-12.034A29.693,29.693,0,0,1,32.259,40.75,29.944,29.944,0,0,1,45.4,29.933a29.706,29.706,0,0,1,5.6-1.74,30.148,30.148,0,0,1,12.034,0A29.693,29.693,0,0,1,73.71,32.686,29.944,29.944,0,0,1,84.528,45.822a29.705,29.705,0,0,1,1.74,5.6,30.148,30.148,0,0,1,0,12.034,29.693,29.693,0,0,1-4.493,10.676A29.944,29.944,0,0,1,68.639,84.954a29.705,29.705,0,0,1-5.6,1.74A30.077,30.077,0,0,1,57.017,87.3Z" transform="translate(0 0)" fill="#7478d5"/>
        </g>
      </g>
      <g id="Grupo_1024128" data-name="Grupo 1024128" transform="translate(1282.78 3089.975)" clip-path="url(#clip-path-5)">
        <g id="Grupo_1024127" data-name="Grupo 1024127" transform="translate(2.747 1.831)">
          <path id="Sustracción_36" data-name="Sustracción 36" d="M57.23,114.461A57.653,57.653,0,0,1,45.7,113.3a56.917,56.917,0,0,1-20.464-8.611A57.4,57.4,0,0,1,4.5,79.507,56.944,56.944,0,0,1,1.163,68.764a57.789,57.789,0,0,1,0-23.068A56.917,56.917,0,0,1,9.774,25.232,57.4,57.4,0,0,1,34.954,4.5,56.945,56.945,0,0,1,45.7,1.163a57.789,57.789,0,0,1,23.068,0A56.917,56.917,0,0,1,89.228,9.774a57.4,57.4,0,0,1,20.735,25.18A56.944,56.944,0,0,1,113.3,45.7a57.789,57.789,0,0,1,0,23.068,56.917,56.917,0,0,1-8.611,20.464,57.4,57.4,0,0,1-25.18,20.735A56.944,56.944,0,0,1,68.764,113.3,57.653,57.653,0,0,1,57.23,114.461Zm-.213-87.3A30.078,30.078,0,0,0,51,27.767a29.694,29.694,0,0,0-10.676,4.493A29.944,29.944,0,0,0,29.507,45.4a29.705,29.705,0,0,0-1.74,5.6,30.148,30.148,0,0,0,0,12.034A29.693,29.693,0,0,0,32.259,73.71,29.944,29.944,0,0,0,45.4,84.528a29.706,29.706,0,0,0,5.6,1.74,30.148,30.148,0,0,0,12.034,0A29.693,29.693,0,0,0,73.71,81.775,29.944,29.944,0,0,0,84.528,68.639a29.705,29.705,0,0,0,1.74-5.6,30.148,30.148,0,0,0,0-12.034,29.693,29.693,0,0,0-4.493-10.676A29.944,29.944,0,0,0,68.639,29.506a29.705,29.705,0,0,0-5.6-1.74A30.077,30.077,0,0,0,57.017,27.16Z" transform="translate(0)" fill="#907af8"/>
        </g>
      </g>
    </g>
  </g>
</svg>
