<svg xmlns="http://www.w3.org/2000/svg" width="64.073" height="59.214" viewBox="0 0 64.073 59.214">
  <g id="_9" data-name="9" transform="translate(-273.237 -3360.786)">
    <g id="encabezados" transform="translate(272.801 3359.336)">
      <g id="BG" transform="translate(0.436 1.45)">
        <g id="Grupo_1024247" data-name="Grupo 1024247">
          <path id="Trazado_743782" data-name="Trazado 743782" d="M14.1,8.921C10.89,20.806,2.526,27.3.977,33.03S-.53,51.676,25.817,58.8,60.4,50.787,62.107,44.486c7.976-29.5-42.313-56.614-48-35.566Z" transform="translate(-0.436 -1.45)" fill="#9d8fe3"/>
        </g>
      </g>
      <g id="Color" transform="translate(5.325 18.962)">
        <g id="Grupo_1024251" data-name="Grupo 1024251" transform="translate(0 27.804)">
          <g id="Grupo_1024248" data-name="Grupo 1024248" transform="translate(0.311 0)">
            <path id="Trazado_743783" data-name="Trazado 743783" d="M0,0H1.78V3.56H0Z" transform="translate(0 1.258) rotate(-45)" fill="#221b6b"/>
          </g>
          <g id="Grupo_1024249" data-name="Grupo 1024249" transform="translate(7.552 7.23)">
            <path id="Trazado_743784" data-name="Trazado 743784" d="M0,0H1.78V3.56H0Z" transform="translate(0 1.258) rotate(-45)" fill="#221b6b"/>
          </g>
          <g id="Grupo_1024250" data-name="Grupo 1024250" transform="translate(0 7.23)">
            <path id="Trazado_743785" data-name="Trazado 743785" d="M0,0H3.56V1.78H0Z" transform="translate(0 2.517) rotate(-45)" fill="#221b6b"/>
          </g>
        </g>
        <g id="Grupo_1024252" data-name="Grupo 1024252" transform="translate(53.844 -7)">
          <path id="Trazado_743786" data-name="Trazado 743786" d="M32.17,16.628a2.67,2.67,0,1,1,2.67-2.67A2.673,2.673,0,0,1,32.17,16.628Zm0-3.56a.89.89,0,1,0,.89.89A.891.891,0,0,0,32.17,13.068Z" transform="translate(-29.5 -11.288)" fill="#221b6b"/>
        </g>
      </g>
    </g>
    <g id="galeria-de-imagenes" transform="translate(277.5 3364)">
      <g id="Grupo_1024234" data-name="Grupo 1024234" transform="translate(0 19.212)">
        <path id="Trazado_743766" data-name="Trazado 743766" d="M39.007,41.659a4.458,4.458,0,0,1-1.14-.148L3.307,32.257a4.511,4.511,0,0,1-3.16-5.476l4.36-16.253a1.117,1.117,0,0,1,2.159.577L2.308,27.353A2.268,2.268,0,0,0,3.9,30.1L38.441,39.35a2.225,2.225,0,0,0,2.72-1.573l1.746-6.468a1.118,1.118,0,0,1,2.159.581l-1.743,6.459a4.464,4.464,0,0,1-4.316,3.31Z" transform="translate(0 -9.701)" fill="#12263f"/>
      </g>
      <g id="Grupo_1024235" data-name="Grupo 1024235" transform="translate(8.939 2)">
        <path id="Trazado_743767" data-name="Trazado 743767" d="M44.23,37.76H8.47A4.474,4.474,0,0,1,4,33.29V6.47A4.474,4.474,0,0,1,8.47,2H44.23A4.474,4.474,0,0,1,48.7,6.47V33.29A4.474,4.474,0,0,1,44.23,37.76ZM8.47,4.235A2.239,2.239,0,0,0,6.235,6.47V33.29A2.239,2.239,0,0,0,8.47,35.525H44.23a2.239,2.239,0,0,0,2.235-2.235V6.47A2.239,2.239,0,0,0,44.23,4.235Z" transform="translate(-4 -2)" fill="#12263f"/>
      </g>
      <g id="Grupo_1024236" data-name="Grupo 1024236" transform="translate(15.644 8.705)">
        <path id="Trazado_743768" data-name="Trazado 743768" d="M11.47,13.94a4.47,4.47,0,1,1,4.47-4.47A4.474,4.474,0,0,1,11.47,13.94Zm0-6.7A2.235,2.235,0,1,0,13.7,9.47,2.239,2.239,0,0,0,11.47,7.235Z" transform="translate(-7 -5)" fill="#12263f"/>
      </g>
      <g id="Grupo_1024237" data-name="Grupo 1024237" transform="translate(9.095 14.404)">
        <path id="Trazado_743769" data-name="Trazado 743769" d="M5.188,28.514A1.116,1.116,0,0,1,4.4,26.608L14.953,16.052a3.435,3.435,0,0,1,4.74,0l3.142,3.142,8.7-10.437A3.358,3.358,0,0,1,34.086,7.55h.025a3.35,3.35,0,0,1,2.546,1.169L48.346,22.357a1.117,1.117,0,0,1-1.7,1.455L34.96,10.174a1.106,1.106,0,0,0-.849-.389,1.186,1.186,0,0,0-.858.4L23.77,21.566a1.113,1.113,0,0,1-.809.4,1.076,1.076,0,0,1-.84-.326l-4.007-4.007a1.148,1.148,0,0,0-1.58,0L5.977,28.188a1.113,1.113,0,0,1-.789.326Z" transform="translate(-4.07 -7.55)" fill="#12263f"/>
      </g>
    </g>
  </g>
</svg>
