<svg xmlns="http://www.w3.org/2000/svg" xmlns:xlink="http://www.w3.org/1999/xlink" width="144.245" height="153.771" viewBox="0 0 144.245 153.771">
  <defs>
    <clipPath id="clip-path">
      <rect id="Rectángulo_373209" data-name="Rectángulo 373209" width="27.891" height="27.891" transform="matrix(0.973, -0.23, 0.23, 0.973, 0, 6.426)" fill="#7e70c6" stroke="#263238" stroke-linecap="round" stroke-linejoin="round" stroke-width="1"/>
    </clipPath>
    <clipPath id="clip-path-2">
      <path id="Trazado_742313" data-name="Trazado 742313" d="M197.48,365.33c-6.781,1.606-16.389,3.115-22.183,3.967-3.032.443-5.024.7-5.024.7-2.569-4.708-7.2-23.656-7.2-23.656l27.14-6.425c.05.231.1.463.151.691A188.921,188.921,0,0,0,197.48,365.33Z" transform="translate(-163.07 -339.92)" fill="#fff" stroke="#263238" stroke-linecap="round" stroke-linejoin="round" stroke-width="1"/>
    </clipPath>
    <clipPath id="clip-path-3">
      <path id="Trazado_742331" data-name="Trazado 742331" d="M20.469,100.1l2.75,49.7-1.013,4.088-1.459-3.95L18,100.242a.623.623,0,0,1,.587-.657l1.224-.067a.623.623,0,0,1,.657.587Z" transform="translate(-17.997 -99.517)" fill="#362b9e" stroke="#263238" stroke-linecap="round" stroke-linejoin="round" stroke-width="1"/>
    </clipPath>
  </defs>
  <g id="_1" data-name="1" transform="translate(0 -0.008)">
    <g id="Background_Simple" data-name="Background Simple" transform="translate(0 0.008)">
      <path id="Trazado_742306" data-name="Trazado 742306" d="M26.608,54.655S17.258,78.8,30.4,103.114s40.2,37.157,61.862,48.14,44.152,5.634,54.84-12.354-3.974-30.829-3.991-56.48,3.84-32.442-10.047-54.112S85.087,1.838,59.318,17.911s-32.71,36.741-32.71,36.741Z" transform="translate(-15.542 -5.576)" fill="#948ecb" opacity="0.7"/>
      <g id="Grupo_1023216" data-name="Grupo 1023216" transform="translate(0 0)">
        <path id="Trazado_742307" data-name="Trazado 742307" d="M53.328,1.239C41.956,3.117,31.054,7.246,21.791,14.385,8.317,24.771.845,40.3.064,57.186-.449,68.333,2.21,79.2,5.426,89.785c4.135,13.615,6.8,29.125,15.44,40.762C34.31,148.663,60.3,156.3,82.03,153.053c14.041-2.1,28.877-10.071,33.2-24.481,1.6-5.335,2.378-11.07,5.111-16,3.276-5.909,9.215-9.36,13.726-14.172,5.57-5.942,7.817-13.347,9.205-21.181A66.7,66.7,0,0,0,132.142,27.7C121.689,12.859,106.182,4.9,88.576,1.769c-1.932-.345-3.873-.634-5.822-.879a103.3,103.3,0,0,0-29.43.349Z" transform="translate(0 -0.008)" fill="#9f90ec"/>
      </g>
    </g>
    <g id="Note" transform="translate(54.682 113.998)">
      <g id="Grupo_1023222" data-name="Grupo 1023222">
        <path id="Trazado_742309" data-name="Trazado 742309" d="M166.35,351.555l28.062-5.235s6.352,20.041,7.633,22.633l-.677,1.573.423,2.633L173.909,379.5l-2.237-1.764-5.322-26.184Z" transform="translate(-165.246 -344.174)" opacity="0.2"/>
        <g id="Grupo_1023221" data-name="Grupo 1023221">
          <g id="Grupo_1023218" data-name="Grupo 1023218" transform="translate(0 0)">
            <rect id="Rectángulo_373208" data-name="Rectángulo 373208" width="27.891" height="27.891" transform="matrix(0.973, -0.23, 0.23, 0.973, 0, 6.426)" fill="#7e70c6"/>
            <g id="Grupo_1023217" data-name="Grupo 1023217" clip-path="url(#clip-path)">
              <path id="Trazado_742310" data-name="Trazado 742310" d="M195.882,361.75l4.5,19.018L174.5,386.895a154.387,154.387,0,0,1-5.5-17.629Z" transform="translate(-167.008 -354.429)" fill="#7e70c6" opacity="0.2"/>
            </g>
            <rect id="Rectángulo_373210" data-name="Rectángulo 373210" width="27.891" height="27.891" transform="matrix(0.973, -0.23, 0.23, 0.973, 0, 6.426)" fill="none" stroke="#263238" stroke-linecap="round" stroke-linejoin="round" stroke-width="1"/>
          </g>
          <g id="Grupo_1023220" data-name="Grupo 1023220" transform="translate(0.004)">
            <path id="Trazado_742311" data-name="Trazado 742311" d="M197.48,365.33c-6.781,1.606-16.389,3.115-22.183,3.967-3.032.443-5.024.7-5.024.7-2.569-4.708-7.2-23.656-7.2-23.656l27.14-6.425c.05.231.1.463.151.691A188.921,188.921,0,0,0,197.48,365.33Z" transform="translate(-163.07 -339.92)" fill="#fff"/>
            <g id="Grupo_1023219" data-name="Grupo 1023219" clip-path="url(#clip-path-2)">
              <path id="Trazado_742312" data-name="Trazado 742312" d="M211.108,366.7c-6.781,1.606-16.389,3.115-22.183,3.967-4.353-2.894-5.4-5.731-5.349-8.437.06-3.216,14.055-.074,16.979-3.256,2.086-2.27,2.026-11.908,3.434-16.992a188.918,188.918,0,0,0,7.119,24.719Z" transform="translate(-176.698 -341.289)" fill="#ccc2ff" opacity="0.4"/>
            </g>
            <path id="Trazado_742314" data-name="Trazado 742314" d="M197.48,365.33c-6.781,1.606-16.389,3.115-22.183,3.967-3.032.443-5.024.7-5.024.7-2.569-4.708-7.2-23.656-7.2-23.656l27.14-6.425c.05.231.1.463.151.691A188.921,188.921,0,0,0,197.48,365.33Z" transform="translate(-163.07 -339.92)" fill="none" stroke="#263238" stroke-linecap="round" stroke-linejoin="round" stroke-width="1"/>
          </g>
          <path id="Trazado_742315" data-name="Trazado 742315" d="M176.72,362.626a4.868,4.868,0,0,1,1.3-1.063c.134.345.268.687.4,1.033.469-.171.939-.342,1.405-.51a1.79,1.79,0,0,0,1.17-.855c.258.614,1.147.51,1.781.305a98.116,98.116,0,0,1,13.414-3.3" transform="translate(-172.139 -352.096)" fill="none" stroke="#263238" stroke-linecap="round" stroke-linejoin="round" stroke-width="1"/>
          <path id="Trazado_742316" data-name="Trazado 742316" d="M178.491,373.221c-.292-.151-.05-.674.278-.651s.54.382.567.711a.7.7,0,0,0,.594-.547l.466.325a.51.51,0,1,1,.879-.513c-.034-.379.114-.932.486-.842a1.039,1.039,0,0,1,.315.2.844.844,0,0,0,1.261-.523,1.676,1.676,0,0,0,1.566.265q2.44-.418,4.883-.832c.044-.309.2-.7.506-.664.178.023.3.2.453.288a1.06,1.06,0,0,0,.748.027,42.555,42.555,0,0,0,6.456-1.942" transform="translate(-173.229 -358.936)" fill="none" stroke="#263238" stroke-linecap="round" stroke-linejoin="round" stroke-width="1"/>
          <path id="Trazado_742317" data-name="Trazado 742317" d="M183.77,385.546a4.377,4.377,0,0,0,1.925-.265,1.113,1.113,0,0,1,.315-1.358l.59.379a31.174,31.174,0,0,0,7.039-.969c1.033-.265,2.049-.584,3.068-.9l5.788-1.8" transform="translate(-176.825 -366.978)" fill="none" stroke="#263238" stroke-linecap="round" stroke-linejoin="round" stroke-width="1"/>
        </g>
      </g>
    </g>
    <g id="Glasses" transform="translate(61.517 8.461)">
      <g id="Grupo_1023224" data-name="Grupo 1023224">
        <path id="Trazado_742318" data-name="Trazado 742318" d="M233.34,30.434l-.54.034a1.045,1.045,0,0,1-1.13-.765c-.822-3-3.833-4.688-7.324-4.47a11.7,11.7,0,0,0-8.384,4.923,2.929,2.929,0,0,1-2.119,1.3l-2.679.168a1.715,1.715,0,0,1-1.747-1.06,6.93,6.93,0,0,0-6.979-3.971,11.341,11.341,0,0,0-8.893,5.476,1.8,1.8,0,0,1-1.4.922l-.54.034a.594.594,0,0,0-.516.486l-.211,1.348a.349.349,0,0,0,.262.423l.654.195a1.136,1.136,0,0,1,.8,1.2,6.5,6.5,0,0,0,7.119,7.187c4.165-.258,8.122-3.615,9.417-7.76a2.138,2.138,0,0,1,1.465-1.4,7.631,7.631,0,0,1,2.827-.2,1.2,1.2,0,0,1,1.07,1.244,6.469,6.469,0,0,0,7.13,6.751c4.316-.268,8.414-3.867,9.547-8.219a2.008,2.008,0,0,1,1.2-1.321l.728-.282a.6.6,0,0,0,.4-.463l.211-1.348a.348.348,0,0,0-.372-.429ZM199.889,42.718c-4.011.248-6.744-2.911-6.093-7.042a9.708,9.708,0,0,1,8.458-7.944c4.011-.248,6.744,2.911,6.093,7.042A9.708,9.708,0,0,1,199.889,42.718Zm9.655-8.813q.025-.352.02-.694a.406.406,0,0,1,.359-.382l4.8-.3a.246.246,0,0,1,.245.345c-.074.231-.141.463-.2.7a8.6,8.6,0,0,0-5.221.332ZM221.8,41.36c-4.011.248-6.744-2.911-6.093-7.042a9.708,9.708,0,0,1,8.458-7.944c4.011-.248,6.744,2.911,6.093,7.042A9.708,9.708,0,0,1,221.8,41.36Z" transform="translate(-188.38 -25.214)" opacity="0.2"/>
        <path id="Trazado_742319" data-name="Trazado 742319" d="M229.965,43.3l-30.772,4.078a5.245,5.245,0,0,0-3.628,2.223l-4.5,6.549a.488.488,0,0,0,.228.731h0a1.439,1.439,0,0,0,1.7-.527l4.165-6.05a3.174,3.174,0,0,1,2.163-1.338l30.762-4.36Z" transform="translate(-188.448 -37.235)" fill="#263238"/>
        <path id="Trazado_742320" data-name="Trazado 742320" d="M183.443,49.972l31.033-.513a5.247,5.247,0,0,1,3.917,1.663l5.423,5.815a.489.489,0,0,1-.117.758h0a1.437,1.437,0,0,1-1.761-.272l-5.014-5.369a3.165,3.165,0,0,0-2.337-1.006l-31.067.235-.08-1.311Z" transform="translate(-183.44 -41.328)" fill="#263238"/>
        <g id="Grupo_1023223" data-name="Grupo 1023223" transform="translate(16.752 10.198)">
          <path id="Trazado_742321" data-name="Trazado 742321" d="M235.454,56.809c.382.074.366,2.673-.5,3.565s-1.754-1.264-1.526-2.036a1.815,1.815,0,0,1,2.026-1.533Z" transform="translate(-233.392 -56.387)" fill="#92e3a9" stroke="#263238" stroke-linecap="round" stroke-linejoin="round" stroke-width="1"/>
          <path id="Trazado_742322" data-name="Trazado 742322" d="M255.331,55.709c-.369.117-.03,2.7.936,3.478s1.583-1.472,1.264-2.207A1.816,1.816,0,0,0,255.331,55.709Z" transform="translate(-247.877 -55.623)" fill="#92e3a9" stroke="#263238" stroke-linecap="round" stroke-linejoin="round" stroke-width="1"/>
        </g>
        <path id="Trazado_742323" data-name="Trazado 742323" d="M193.646,33.836c1.623-1.388,5.06-3.753,8.823-1.506s5.064,4.688,4.289,8-3.142,7.737-8.722,6.965S188.606,38.146,193.646,33.836Z" transform="translate(-188.666 -29.327)" fill="#362b9e" opacity="0.5"/>
        <path id="Trazado_742324" data-name="Trazado 742324" d="M259.076,30.636c1.623-1.388,5.06-3.753,8.823-1.506s5.064,4.688,4.289,8-3.142,7.737-8.722,6.965S254.036,34.946,259.076,30.636Z" transform="translate(-232.154 -27.2)" fill="#362b9e" opacity="0.5"/>
        <path id="Trazado_742325" data-name="Trazado 742325" d="M225.6,31.855l-.54.034a1.373,1.373,0,0,1-1.315-.741,8.751,8.751,0,0,0-8.411-4.326,9.075,9.075,0,0,0-7.415,4.792,2.251,2.251,0,0,1-1.861,1.264l-2.679.168a2.255,2.255,0,0,1-2.005-1.026,9.07,9.07,0,0,0-7.948-3.84,8.756,8.756,0,0,0-7.81,5.332,1.379,1.379,0,0,1-1.214.9l-.54.034a.444.444,0,0,0-.416.473l.08,1.311a.449.449,0,0,0,.359.409l.7.188a1.473,1.473,0,0,1,1.08,1.16A8.4,8.4,0,0,0,202.3,37.4a1.57,1.57,0,0,1,1.177-1.355,7.69,7.69,0,0,1,2.824-.2,1.583,1.583,0,0,1,1.358,1.207,8.4,8.4,0,0,0,16.583-1.455,1.477,1.477,0,0,1,.926-1.288l.677-.275a.445.445,0,0,0,.305-.449l-.08-1.311a.444.444,0,0,0-.473-.416ZM194.4,43.837a7.289,7.289,0,1,1,6.824-7.726A7.3,7.3,0,0,1,194.4,43.837Zm7.844-8.572c-.037-.228-.08-.453-.134-.674a.306.306,0,0,1,.278-.372l4.8-.3a.3.3,0,0,1,.322.335c-.027.225-.044.449-.05.677a8.637,8.637,0,0,0-5.221.332Zm14.065,7.213a7.289,7.289,0,1,1,6.824-7.726A7.3,7.3,0,0,1,216.309,42.479Z" transform="translate(-183.445 -26.27)" fill="#757575" stroke="#263238" stroke-linecap="round" stroke-linejoin="round" stroke-width="1"/>
        <path id="Trazado_742326" data-name="Trazado 742326" d="M197.16,47.418a7.922,7.922,0,0,1-.791-7.673,6.155,6.155,0,0,1,7.592-3.337l-4.135,7.2a25.129,25.129,0,0,1,1.71-5.114A17.5,17.5,0,0,0,197.16,47.418Z" transform="translate(-191.584 -32.429)" fill="#fff" opacity="0.4"/>
        <path id="Trazado_742327" data-name="Trazado 742327" d="M262.34,42.748a7.922,7.922,0,0,1-.791-7.673,6.155,6.155,0,0,1,7.592-3.337l-4.135,7.2a16.25,16.25,0,0,1,1.71-5.114,17.5,17.5,0,0,0-4.376,8.924Z" transform="translate(-234.905 -29.325)" fill="#fff" opacity="0.4"/>
      </g>
    </g>
    <g id="Pen" transform="translate(6.035 33.378)">
      <g id="Grupo_1023228" data-name="Grupo 1023228">
        <path id="Trazado_742328" data-name="Trazado 742328" d="M25.074,153.044l.973,4.37,1.11-4.943L24.239,103.06H22.25Z" transform="translate(-20.824 -101.872)" opacity="0.2"/>
        <g id="Grupo_1023227" data-name="Grupo 1023227">
          <g id="Grupo_1023226" data-name="Grupo 1023226">
            <path id="Trazado_742329" data-name="Trazado 742329" d="M20.469,100.1l2.75,49.7-1.013,4.088-1.459-3.95L18,100.242a.623.623,0,0,1,.587-.657l1.224-.067a.623.623,0,0,1,.657.587Z" transform="translate(-17.997 -99.517)" fill="#362b9e"/>
            <g id="Grupo_1023225" data-name="Grupo 1023225" clip-path="url(#clip-path-3)">
              <path id="Trazado_742330" data-name="Trazado 742330" d="M22.207,154.007l-1.459-3.95L18,100.357a.623.623,0,0,1,.587-.657l.171-.01,2.77,50.065.677,4.252Z" transform="translate(-17.997 -99.632)" fill="#362b9e" opacity="0.2"/>
            </g>
            <path id="Trazado_742332" data-name="Trazado 742332" d="M20.469,100.1l2.75,49.7-1.013,4.088-1.459-3.95L18,100.242a.623.623,0,0,1,.587-.657l1.224-.067a.623.623,0,0,1,.657.587Z" transform="translate(-17.997 -99.517)" fill="none" stroke="#263238" stroke-linecap="round" stroke-linejoin="round" stroke-width="1"/>
          </g>
          <path id="Trazado_742333" data-name="Trazado 742333" d="M20.41,102.23l2.7,48.79a.421.421,0,0,0,.446.4l.3-.017" transform="translate(-19.601 -101.32)" fill="#362b9e" stroke="#263238" stroke-linecap="round" stroke-linejoin="round" stroke-width="1"/>
        </g>
      </g>
    </g>
    <g id="Device" transform="translate(17.967 27.096)">
      <g id="Grupo_1023273" data-name="Grupo 1023273">
        <path id="Trazado_742334" data-name="Trazado 742334" d="M56.658,150.281l9.091-59.4a6.967,6.967,0,0,1,7.941-5.832l87.3,13.36a6.967,6.967,0,0,1,5.832,7.941l-9.091,59.4a6.967,6.967,0,0,1-7.941,5.832l-87.3-13.36a6.967,6.967,0,0,1-5.832-7.941Z" transform="translate(-55.571 -83.564)" opacity="0.2"/>
        <g id="Grupo_1023272" data-name="Grupo 1023272">
          <path id="Trazado_742335" data-name="Trazado 742335" d="M.332,0H4.9a.331.331,0,0,1,.332.332V2.257H0V.332A.331.331,0,0,1,.332,0Z" transform="translate(8.042 9.883) rotate(-81.3)" fill="#92e3a9" stroke="#263238" stroke-linecap="round" stroke-linejoin="round" stroke-width="1"/>
          <path id="Trazado_742336" data-name="Trazado 742336" d="M.332,0H4.9a.331.331,0,0,1,.332.332V2.257H0V.332A.331.331,0,0,1,.332,0Z" transform="translate(19.587 0) rotate(8.7)" fill="#92e3a9" stroke="#263238" stroke-linecap="round" stroke-linejoin="round" stroke-width="1"/>
          <path id="Trazado_742337" data-name="Trazado 742337" d="M.332,0H4.9a.331.331,0,0,1,.332.332V2.257H0V.332A.331.331,0,0,1,.332,0Z" transform="translate(25.733 0.939) rotate(8.7)" fill="#92e3a9" stroke="#263238" stroke-linecap="round" stroke-linejoin="round" stroke-width="1"/>
          <path id="Trazado_742338" data-name="Trazado 742338" d="M53.658,146.281l9.091-59.4a6.967,6.967,0,0,1,7.941-5.832l87.3,13.36a6.967,6.967,0,0,1,5.832,7.941l-9.091,59.4a6.967,6.967,0,0,1-7.941,5.832l-87.3-13.36a6.967,6.967,0,0,1-5.832-7.941Z" transform="translate(-53.577 -80.906)" fill="#92e3a9" stroke="#263238" stroke-linecap="round" stroke-linejoin="round" stroke-width="1"/>
          <path id="Trazado_742339" data-name="Trazado 742339" d="M148.61,168.33,60.862,154.9a5.962,5.962,0,0,1-4.99-6.794l9.162-59.853a5.962,5.962,0,0,1,6.794-4.99l87.748,13.431a5.962,5.962,0,0,1,4.99,6.794L155.4,163.34A5.962,5.962,0,0,1,148.61,168.33Z" transform="translate(-55.056 -82.384)" fill="#757575" stroke="#263238" stroke-linecap="round" stroke-linejoin="round" stroke-width="1"/>
          <path id="Trazado_742340" data-name="Trazado 742340" d="M72.715,187.41a.341.341,0,1,1-.285-.389A.34.34,0,0,1,72.715,187.41Z" transform="translate(-65.846 -151.392)" fill="#999" stroke="#263238" stroke-linecap="round" stroke-linejoin="round" stroke-width="1"/>
          <path id="Trazado_742341" data-name="Trazado 742341" d="M71.006,196.01a.653.653,0,1,1-.547-.744A.655.655,0,0,1,71.006,196.01Z" transform="translate(-64.298 -156.869)" fill="#263238"/>
          <path id="Trazado_742342" data-name="Trazado 742342" d="M74.436,173.6a.653.653,0,1,1-.547-.744A.655.655,0,0,1,74.436,173.6Z" transform="translate(-66.578 -141.974)" fill="#263238"/>
          <path id="Trazado_742343" data-name="Trazado 742343" d="M70.2,202.7a.477.477,0,1,1-.4-.543A.475.475,0,0,1,70.2,202.7Z" transform="translate(-63.996 -161.452)" fill="#263238"/>
          <path id="Trazado_742344" data-name="Trazado 742344" d="M166.793,106.89,157.427,168.1a2.945,2.945,0,0,1-3.354,2.465L80.561,159.312l-1.593-.245-5.993-.919-2.9-.443-4.192-.641-.916-.141a2.943,2.943,0,0,1-2.465-3.354l9.37-61.208A2.939,2.939,0,0,1,75.226,89.9l27.442,4.2,4.152.637,3.967.607,5.1.778,1.844.282,46.6,7.133a2.943,2.943,0,0,1,2.461,3.354Z" transform="translate(-59.487 -86.82)" fill="#263238"/>
          <g id="Grupo_1023271" data-name="Grupo 1023271" transform="translate(6.568 5.944)">
            <g id="Grupo_1023242" data-name="Grupo 1023242" transform="translate(0 39.441)">
              <g id="Grupo_1023229" data-name="Grupo 1023229" opacity="0.1">
                <path id="Trazado_742345" data-name="Trazado 742345" d="M104.992,242.661l-31.174-4.772a.771.771,0,0,1-.647-.882l3.1-20.228a.771.771,0,0,1,.882-.647l31.174,4.772a.771.771,0,0,1,.647.882l-3.1,20.228a.771.771,0,0,1-.882.647ZM77.111,216.4a.5.5,0,0,0-.573.423l-3.1,20.228a.5.5,0,0,0,.423.573l31.174,4.772a.5.5,0,0,0,.573-.423l3.1-20.228a.5.5,0,0,0-.423-.573L77.111,216.4Z" transform="translate(-73.161 -216.121)" fill="#fff"/>
              </g>
              <g id="Grupo_1023230" data-name="Grupo 1023230" transform="translate(4.867 4.303)">
                <path id="Trazado_742346" data-name="Trazado 742346" d="M112.97,244.049l6.982,3.961a8.244,8.244,0,0,0-.516-8.709l-6.466,4.749Z" transform="translate(-104.487 -235.83)" fill="#a6a1d4" opacity="0.4"/>
                <path id="Trazado_742347" data-name="Trazado 742347" d="M113.163,238.173l6.238-4.581a8.228,8.228,0,0,0-3.229-2.552l-1.231,2.914-1.781,4.219Z" transform="translate(-104.614 -230.34)" fill="#716abb" opacity="0.6"/>
                <path id="Trazado_742348" data-name="Trazado 742348" d="M114.2,229.3l-1.08,7.059,2.777-6.583A8.294,8.294,0,0,0,114.2,229.3Z" transform="translate(-104.587 -229.183)" fill="#716abb"/>
                <path id="Trazado_742349" data-name="Trazado 742349" d="M95.789,237.087l1.234-8.059a8.235,8.235,0,0,0-8.82,11.06l7.582-3Z" transform="translate(-87.675 -228.952)" fill="#fff" opacity="0.1"/>
                <path id="Trazado_742350" data-name="Trazado 742350" d="M95.9,261.931a8.239,8.239,0,0,0,8.34-3.961l-7.106-4.031-7.6,3A8.229,8.229,0,0,0,95.9,261.931Z" transform="translate(-88.915 -245.56)" fill="#d5cef8" opacity="0.2"/>
              </g>
              <g id="Grupo_1023241" data-name="Grupo 1023241" transform="translate(22.869 7.509)">
                <g id="Grupo_1023232" data-name="Grupo 1023232" transform="translate(1.837)">
                  <rect id="Rectángulo_373211" data-name="Rectángulo 373211" width="1.358" height="1.358" rx="0.63" transform="translate(0.205) rotate(8.7)" fill="#362b9e"/>
                  <g id="Grupo_1023231" data-name="Grupo 1023231" transform="translate(2.09 0.517)">
                    <path id="Trazado_742351" data-name="Trazado 742351" d="M157.548,240.982l-4.041-.617a.156.156,0,0,1,.047-.309l4.041.617a.156.156,0,1,1-.047.309Z" transform="translate(-153.27 -240.054)" fill="#362b9e"/>
                    <path id="Trazado_742352" data-name="Trazado 742352" d="M156,242.794l-2.807-.429a.156.156,0,1,1,.047-.309l2.807.429a.156.156,0,0,1-.047.309Z" transform="translate(-153.064 -241.384)" fill="#362b9e"/>
                  </g>
                </g>
                <g id="Grupo_1023234" data-name="Grupo 1023234" transform="translate(1.378 3.001)">
                  <rect id="Rectángulo_373212" data-name="Rectángulo 373212" width="1.358" height="1.358" rx="0.63" transform="translate(0.205 0) rotate(8.7)" fill="#716abb" opacity="0.6"/>
                  <g id="Grupo_1023233" data-name="Grupo 1023233" transform="translate(2.089 0.52)">
                    <path id="Trazado_742353" data-name="Trazado 742353" d="M156.168,249.942l-4.041-.617a.156.156,0,0,1,.047-.309l4.041.617a.156.156,0,1,1-.047.309Z" transform="translate(-151.894 -249.014)" fill="#716abb"/>
                    <path id="Trazado_742354" data-name="Trazado 742354" d="M154.634,251.744l-2.807-.429a.156.156,0,0,1,.047-.309l2.807.429a.156.156,0,1,1-.047.309Z" transform="translate(-151.694 -250.337)" fill="#716abb"/>
                  </g>
                </g>
                <g id="Grupo_1023236" data-name="Grupo 1023236" transform="translate(0.919 6.006)">
                  <rect id="Rectángulo_373213" data-name="Rectángulo 373213" width="1.358" height="1.358" rx="0.63" transform="translate(0.205 0) rotate(8.7)" fill="#948ecb" opacity="0.4"/>
                  <g id="Grupo_1023235" data-name="Grupo 1023235" transform="translate(2.089 0.52)">
                    <path id="Trazado_742355" data-name="Trazado 742355" d="M154.8,258.9l-4.041-.617a.156.156,0,0,1,.047-.309l4.041.617a.156.156,0,0,1-.047.309Z" transform="translate(-150.524 -257.974)" fill="#948ecb"/>
                    <path id="Trazado_742356" data-name="Trazado 742356" d="M153.264,260.7l-2.807-.429a.156.156,0,1,1,.047-.309l2.807.429a.156.156,0,0,1-.047.309Z" transform="translate(-150.324 -259.297)" fill="#948ecb"/>
                  </g>
                </g>
                <g id="Grupo_1023238" data-name="Grupo 1023238" transform="translate(0.459 9.011)">
                  <rect id="Rectángulo_373214" data-name="Rectángulo 373214" width="1.358" height="1.358" rx="0.63" transform="translate(0.205 0) rotate(8.7)" fill="#a6a1d4" opacity="0.2"/>
                  <g id="Grupo_1023237" data-name="Grupo 1023237" transform="translate(2.089 0.521)">
                    <path id="Trazado_742357" data-name="Trazado 742357" d="M153.428,267.862l-4.041-.617a.156.156,0,1,1,.047-.309l4.041.617a.156.156,0,0,1-.047.309Z" transform="translate(-149.154 -266.934)" fill="#a6a1d4"/>
                    <path id="Trazado_742358" data-name="Trazado 742358" d="M151.894,269.664l-2.807-.429a.156.156,0,0,1,.047-.309l2.807.429a.156.156,0,1,1-.047.309Z" transform="translate(-148.954 -268.257)" fill="#a6a1d4"/>
                  </g>
                </g>
                <g id="Grupo_1023240" data-name="Grupo 1023240" transform="translate(0 12.015)">
                  <rect id="Rectángulo_373215" data-name="Rectángulo 373215" width="1.358" height="1.358" rx="0.63" transform="translate(0.205) rotate(8.7)" fill="#d5cef8" opacity="0.1"/>
                  <g id="Grupo_1023239" data-name="Grupo 1023239" transform="translate(2.088 0.517)">
                    <path id="Trazado_742359" data-name="Trazado 742359" d="M152.058,276.812l-4.041-.617a.156.156,0,0,1,.047-.309l4.041.617a.156.156,0,0,1-.047.309Z" transform="translate(-147.784 -275.884)" fill="#d5cef8"/>
                    <path id="Trazado_742360" data-name="Trazado 742360" d="M150.524,278.624l-2.807-.429a.156.156,0,1,1,.047-.309l2.807.429a.156.156,0,1,1-.047.309Z" transform="translate(-147.584 -277.214)" fill="#d5cef8"/>
                  </g>
                </g>
              </g>
            </g>
            <g id="Grupo_1023243" data-name="Grupo 1023243" transform="translate(35.897 44.935)" opacity="0.1">
              <path id="Trazado_742361" data-name="Trazado 742361" d="M234.875,240.269,184.2,232.513a.779.779,0,0,0-.885.647l-.215,1.4-.04.268-.288,1.881-.04.268-.288,1.878-.04.268L182.111,241l-.04.268-.288,1.881-.04.268-.288,1.878-.04.268-.288,1.878-.04.268-.288,1.881-.04.268-.288,1.878-.04.268-.215,1.4a.781.781,0,0,0,.651.885l50.678,7.757a.776.776,0,0,0,.882-.651l.215-1.4.04-.268.288-1.878.04-.268.288-1.881.04-.268.288-1.878.04-.268.288-1.878.04-.268.288-1.881.04-.268.288-1.878.04-.268.288-1.878.04-.268.288-1.881.04-.268.215-1.4a.775.775,0,0,0-.647-.882Zm-2.716,21.07a.505.505,0,0,1-.573.423l-50.678-7.757a.507.507,0,0,1-.423-.577l.215-1.4,51.674,7.911Zm.255-1.663-51.674-7.911.288-1.878L232.7,257.8Zm.329-2.146-51.674-7.911.288-1.881,51.674,7.911Zm.329-2.15L181.4,247.469l.288-1.878,51.674,7.911Zm.329-2.146-51.674-7.911.288-1.878,51.674,7.911-.288,1.878Zm.329-2.146-51.674-7.911.288-1.881,51.674,7.911Zm.329-2.15-51.674-7.911.288-1.878,51.674,7.911-.288,1.878Zm.329-2.146-51.674-7.911L183,237l51.674,7.911Zm.329-2.146-51.674-7.911.288-1.881L235,242.764l-.288,1.881Zm-51.346-10.057.215-1.4a.5.5,0,0,1,.577-.419l50.678,7.757a.506.506,0,0,1,.423.573l-.215,1.4-51.674-7.911Z" transform="translate(-180.204 -232.504)" fill="#fff"/>
            </g>
            <g id="Grupo_1023246" data-name="Grupo 1023246" transform="translate(3.765)">
              <g id="Grupo_1023244" data-name="Grupo 1023244" transform="translate(0 3.363)" opacity="0.1">
                <path id="Trazado_742362" data-name="Trazado 742362" d="M176.6,121.769l-86.36-13.22a.883.883,0,0,0-1.006.741L84.4,140.908a.883.883,0,0,0,.741,1.006l86.363,13.22a.883.883,0,0,0,1.006-.741l4.839-31.617a.883.883,0,0,0-.741-1.006Zm-70.437,4.547,6.006.919-.523,3.411-6.006-.919Zm-.788,3.37-6.006-.919.523-3.411,6.006.919Zm7.062-2.408,6.006.919-.523,3.411-6.006-.919Zm31.147,4.494-6.006-.919.523-3.411,6.006.919Zm.788-3.37,6.006.919-.523,3.411-6.006-.919Zm-19.387.795,6.006.919-.523,3.411-6.006-.919Zm-.788,3.37-6.006-.919.523-3.411,6.006.919Zm7.062-2.408,6.006.919-.523,3.411-6.006-.919Zm6.274.959,6.006.919-.523,3.411-6.006-.919Zm-.225-.309-6.006-.919.523-3.411,6.006.919Zm-6.274-.959-6.006-.919.523-3.411,6.006.919Zm-6.274-.959-6.006-.919.523-3.411,6.006.919Zm-6.274-.959-6.006-.919.523-3.411,6.006.919Zm-.6,3.944-.523,3.411-6.006-.919.523-3.411Zm.268.04,6.006.919-.523,3.411-6.006-.919Zm6.274.959,6.006.919-.523,3.411-6.006-.919Zm6.274.959,6.006.919-.523,3.411-6.006-.919Zm6.274.959,6.006.919-.523,3.411-6.006-.919Zm6.274.959,6.006.919-.523,3.411-6.006-.919Zm.04-.268.523-3.411,6.006.919L149.3,136.4Zm6.8-2.451,6.006.919-.523,3.411-6.006-.919Zm6.274.959,6.006.919-.523,3.411-6.006-.919Zm.04-.268.523-3.411,6.006.919-.523,3.411Zm-.268-.04-6.006-.919.523-3.411,6.006.919Zm-5.443-4.6.523-3.411,6.006.919-.523,3.411Zm-.268-.04-6.006-.919.523-3.411,6.006.919Zm-6.274-.959-6.006-.919.523-3.411,6.006.919Zm-6.274-.959-6.006-.919.523-3.411,6.006.919Zm-6.274-.959-6.006-.919.523-3.411,6.006.919Zm-6.274-.959-6.006-.919.523-3.411,6.006.919Zm-6.274-.959-6.006-.919.523-3.411,6.006.919Zm-6.274-.959-6.006-.919.523-3.411,6.006.919Zm-.04.268-.523,3.411-6.006-.919.523-3.411Zm-6.8,2.451-6.006-.919.523-3.411,6.006.919Zm-6.274-.959-6.006-.919.523-3.411,6.006.919Zm-.04.268-.523,3.411-6.006-.919.523-3.411ZM99.065,129l-.523,3.411-6.006-.919.523-3.411Zm.268.04,6.006.919-.523,3.411-6.006-.919Zm6.274.959,6.006.919-.523,3.411-6.006-.919Zm5.443,4.6-.523,3.411-6.006-.919.523-3.411Zm.268.04,6.006.919-.523,3.411-6.006-.919Zm6.274.959,6.006.919-.523,3.411-6.006-.919Zm6.274.959,6.006.919-.523,3.411-6.006-.919Zm6.274.959,6.006.919-.523,3.411-6.006-.919Zm6.274.959,6.006.919L141.9,142.8l-6.006-.919Zm6.274.959,6.006.919-.523,3.411-6.006-.919Zm6.274.959,6.006.919-.523,3.411-6.006-.919Zm.04-.268.523-3.411,6.006.919-.523,3.411Zm6.8-2.448,6.006.919L161.286,142l-6.006-.919Zm6.274.959,6.006.919-.523,3.411-6.006-.919Zm.04-.268.523-3.411,6.006.919-.523,3.411Zm.563-3.679.523-3.411,6.006.919-.523,3.411Zm.563-3.679.523-3.411,6.006.919-.523,3.411Zm-.268-.04-6.006-.919.523-3.411,6.006.919Zm-5.443-4.6.523-3.411,6.006.919-.523,3.411Zm-.268-.04-6.006-.919.523-3.411,6.006.919Zm-6.274-.959-6.006-.919.523-3.411,6.006.919Zm-6.274-.959-6.006-.919.523-3.411,6.006.919Zm-6.274-.959-6.006-.919.523-3.411,6.006.919Zm-6.274-.959-6.006-.919.523-3.411,6.006.919Zm-6.274-.959-6.006-.919.523-3.411,6.006.919Zm-6.274-.959-6.006-.919.523-3.411,6.006.919Zm-6.274-.959-6.006-.919.523-3.411,6.006.919Zm-6.274-.959-6.006-.919.523-3.411,6.006.919Zm-.04.268-.523,3.411-6.006-.919.523-3.411Zm-6.8,2.448-6.006-.919.523-3.411,6.006.919Zm-6.274-.959-6.006-.919.523-3.411L94.48,117l-.523,3.411Zm-.04.268-.523,3.411-6.006-.919.523-3.411Zm-.563,3.679-.523,3.411-6.006-.919.523-3.411Zm-.563,3.679-.523,3.411-6.006-.919.523-3.411Zm-.563,3.679L91.7,135.13l-6.006-.919.523-3.411,6.006.919Zm.268.04,6.006.919-.523,3.411-6.006-.919.523-3.411Zm6.274.959,6.006.919-.523,3.411-6.006-.919Zm5.443,4.6-.523,3.411-6.006-.919.523-3.411Zm.268.04,6.006.919-.523,3.411-6.006-.919Zm6.274.959,6.006.919-.523,3.411-6.006-.919Zm6.274.959,6.006.919-.523,3.411-6.006-.919Zm6.274.959,6.006.919-.523,3.411-6.006-.919Zm6.274.959,6.006.919-.523,3.411-6.006-.919Zm6.274.959,6.006.919-.523,3.411-6.006-.919Zm6.274.959,6.006.919-.523,3.411-6.006-.919Zm6.274.959,6.006.919-.523,3.411-6.006-.919Zm6.274.959,6.006.919-.523,3.411-6.006-.919Zm.04-.268.523-3.411,6.006.919-.523,3.411Zm6.8-2.451,6.006.919L167,146.639l-6.006-.919Zm6.274.959,6.006.919-.523,3.411-6.006-.919Zm.04-.268.523-3.411,6.006.919-.523,3.411Zm.563-3.679.523-3.411,6.006.919-.523,3.411Zm.563-3.679.523-3.411,6.006.919-.523,3.411Zm.563-3.679.523-3.411,6.006.919-.523,3.411Zm.563-3.679.523-3.411,6.006.919-.523,3.411Zm-.268-.04-6.006-.919.523-3.411,6.006.919Zm-5.446-4.6.523-3.411,6.006.919-.523,3.411Zm-.268-.04-6.006-.919.523-3.411,6.006.919Zm-6.274-.959-6.006-.919.523-3.411,6.006.919Zm-6.274-.959-6.006-.919.523-3.411,6.006.919Zm-6.274-.959-6.006-.919.523-3.411,6.006.919ZM139,119.771,133,118.852l.523-3.411,6.006.919Zm-6.274-.959-6.006-.919.523-3.411,6.006.919Zm-6.274-.959-6.006-.919.523-3.411,6.006.919Zm-6.274-.959-6.006-.919.523-3.411,6.006.919Zm-6.274-.959-6.006-.919.523-3.411,6.006.919Zm-6.274-.959-6.006-.919.523-3.411,6.006.919Zm-6.274-.959-6.006-.919.523-3.411,6.006.919Zm-.04.268-.523,3.411-6.006-.919.523-3.411Zm-6.8,2.448-6.006-.919.523-3.411,6.006.919Zm-8.863,17.733,6.006.919-.523,3.411-6.006-.919Zm6.274.959,6.006.919-.523,3.411-6.006-.919Zm5.443,4.6-.523,3.411-6.006-.919.523-3.411Zm.268.04,6.006.919-.523,3.411-6.006-.919Zm6.274.959,6.006.919-.523,3.411-6.006-.919Zm6.274.959,6.006.919-.523,3.411-6.006-.919Zm6.274.959,6.006.919-.523,3.411-6.006-.919Zm6.274.959,6.006.919-.523,3.411-6.006-.919Zm6.274.959,6.006.919-.523,3.411-6.006-.919Zm6.274.959,6.006.919-.523,3.411-6.006-.919Zm6.274.959,6.006.919-.523,3.411-6.006-.919Zm6.274.959,6.006.919-.523,3.411-6.006-.919Zm6.274.959,6.006.919-.523,3.411-6.006-.919Zm6.274.959,6.006.919-.523,3.411-6.006-.919Zm.04-.268.523-3.411,6.006.919-.523,3.411Zm6.8-2.448,6.006.919-.523,3.411-6.006-.919Zm9.853-24.216-.429,2.8-6.006-.919.523-3.411,5.4.828a.613.613,0,0,1,.513.7ZM90.2,108.818l5.4.825-.523,3.411-6.006-.919.429-2.8A.613.613,0,0,1,90.2,108.818Zm-5.537,32.13.429-2.8,6.006.919-.523,3.411-5.4-.828a.613.613,0,0,1-.513-.7Zm86.876,13.917-5.4-.828.523-3.411,6.006.919-.429,2.8a.613.613,0,0,1-.7.513Z" transform="translate(-84.389 -108.539)" fill="#fff"/>
              </g>
              <g id="Grupo_1023245" data-name="Grupo 1023245" transform="translate(0.275 16.144)">
                <path id="Trazado_742363" data-name="Trazado 742363" d="M174.3,169.789l-1.512,9.886a.585.585,0,0,1-.671.49l-86.41-13.226a.584.584,0,0,1-.49-.667l.2-1.321s4.061-3.273,6.6-2.884c3,.459,3.535,2.163,6.207,2.572s5.62-5.8,8.042-5.429c1.308.2,1.643,1.207,2.287,2.133a3.464,3.464,0,0,0,2.482,1.563.982.982,0,0,0,.1.017c3.286.5,7.733-16.945,12.257-16.251,2,.305,2.807,4.158,3.407,8.407.761,5.372,1.19,11.385,3.286,11.707,3.749.573,5.024-7.032,8.508-6.5,2.19.335,2.988,4.4,4.832,7.609,1.09,1.9,2.549,3.511,4.886,3.867a6,6,0,0,0,4.645-.942c2.163-1.512,3.129-4.095,5.832-3.679,1.6.245,2.186,1.479,2.78,2.643.52,1.016,1.05,1.979,2.284,2.17,1.452.221,2.686-1.854,4-3.7,1.076-1.516,2.2-2.877,3.538-2.673,1.365.208,2.17,1.848,2.575,3.018a9.916,9.916,0,0,1,.332,1.191Z" transform="translate(-85.208 -146.65)" fill="#716abb" opacity="0.5"/>
                <path id="Trazado_742364" data-name="Trazado 742364" d="M176.377,171.169l-3.592,23.471a.585.585,0,0,1-.671.49L85.705,181.9a.584.584,0,0,1-.49-.667l.2-1.321c3.588.55,5.5-2.136,7.911-1.767s3.655,2.049,5.909,2.394,5.728-4.93,8.2-4.551a4.672,4.672,0,0,1,1.123.315,19.372,19.372,0,0,1,2.482,1.563,6.021,6.021,0,0,0,2.257.812c2.887.443,8.665-10.01,12.016-9.5a2.554,2.554,0,0,1,1.489.858c1.979,2.156,2.488,7.549,5.278,7.975,3.384.516,5.195-4.987,8.474-4.484s4.252,6.157,8.055,6.741,7.921-9.806,11.868-9.2,5.074,5.939,8.5,6.462c3.759.577,7.394-6.368,7.394-6.368Z" transform="translate(-85.208 -161.615)" fill="#716abb" opacity="0.5"/>
                <path id="Trazado_742365" data-name="Trazado 742365" d="M174.707,201.235l-1.922,12.559a.585.585,0,0,1-.671.49l-86.41-13.226a.584.584,0,0,1-.49-.667l.1-.647c.124-.121,2.16-2.042,4.225-1.724,2.136.325,2.14,2.24,5.121,2.7s3.846-1.9,8.072-1.254,4.209,3.6,8.578,4.269,5.272-2.871,8.374-2.4,2.9,2.284,4.658,2.552,2.79-2.5,4.96-2.163,3.83,4.879,6.274,5.255c1.717.262,4.755-3.136,7.851-4.963a6.068,6.068,0,0,1,3.87-1.07c2.552.389,4.041,2.381,5.661,3.994a6.424,6.424,0,0,0,3.5,2.1c2.022.309,3.558-1.519,5.111-3.132,1.261-1.311,2.532-2.478,4.078-2.24a6.3,6.3,0,0,1,2.207.711c1.335.751,1.694,1.764,3.3,2.009,1.935.3,3.555-3.146,3.555-3.146Z" transform="translate(-85.208 -180.769)" fill="#716abb"/>
              </g>
              <path id="Trazado_742366" data-name="Trazado 742366" d="M106.539,100.864l-4.638-.711a.824.824,0,0,1-.691-.942h0a.824.824,0,0,1,.942-.691l4.638.711a.824.824,0,0,1,.691.942h0A.824.824,0,0,1,106.539,100.864Z" transform="translate(-95.563 -98.51)" fill="#716abb"/>
              <path id="Trazado_742367" data-name="Trazado 742367" d="M123.125,102.075h0a.275.275,0,0,1,.074.007l4.638.711a.491.491,0,0,1-.074.976.275.275,0,0,1-.074-.007l-4.638-.711a.491.491,0,0,1,.074-.976m0-.335a.826.826,0,0,0-.124,1.643l4.638.711a.823.823,0,0,0,.942-.691.826.826,0,0,0-.691-.942l-4.638-.711a.816.816,0,0,0-.127-.01Z" transform="translate(-109.587 -100.657)" fill="#716abb"/>
              <path id="Trazado_742368" data-name="Trazado 742368" d="M144.225,105.305h0a.275.275,0,0,1,.074.007l4.638.711a.491.491,0,0,1-.074.976.275.275,0,0,1-.074-.007l-4.638-.711a.491.491,0,0,1,.074-.976m0-.335a.826.826,0,0,0-.124,1.643l4.638.711a.823.823,0,0,0,.942-.691.826.826,0,0,0-.691-.942l-4.638-.711a.816.816,0,0,0-.127-.01Z" transform="translate(-123.611 -102.804)" fill="#716abb"/>
              <path id="Trazado_742369" data-name="Trazado 742369" d="M358.549,138.786l.09-.574-.425-.1a1,1,0,0,0-.069-.276l.329-.287-.345-.467-.372.228a1.1,1.1,0,0,0-.239-.143l.027-.435-.574-.09-.1.425a1,1,0,0,0-.276.069l-.287-.329-.467.345.228.372a1.1,1.1,0,0,0-.143.239l-.435-.027-.09.574.425.1a1,1,0,0,0,.069.276l-.329.287.345.467.372-.228a1.1,1.1,0,0,0,.239.143l-.026.435.574.09.1-.425a1,1,0,0,0,.276-.069l.287.329.467-.345L357.97,139a1.1,1.1,0,0,0,.143-.239Zm-1.636.138a.674.674,0,1,1,.77-.563A.674.674,0,0,1,356.914,138.924Z" transform="translate(-265.113 -124.45)" fill="#716abb"/>
            </g>
            <g id="Grupo_1023270" data-name="Grupo 1023270" transform="translate(37.897 52.682)">
              <g id="Grupo_1023247" data-name="Grupo 1023247" transform="translate(4.511 1.212)">
                <rect id="Rectángulo_373216" data-name="Rectángulo 373216" width="0.999" height="7.177" transform="translate(1.086) rotate(8.7)" fill="#716abb" opacity="0.2"/>
                <rect id="Rectángulo_373217" data-name="Rectángulo 373217" width="0.999" height="3.377" transform="translate(0.919 1.069) rotate(8.7)" fill="#716abb"/>
              </g>
              <g id="Grupo_1023248" data-name="Grupo 1023248" transform="translate(2.016 2.666)">
                <rect id="Rectángulo_373218" data-name="Rectángulo 373218" width="0.999" height="7.177" transform="translate(1.086) rotate(8.7)" fill="#716abb" opacity="0.2"/>
                <rect id="Rectángulo_373219" data-name="Rectángulo 373219" width="3.38" height="0.999" transform="translate(0.282 5.207) rotate(-81.3)" fill="#716abb"/>
              </g>
              <g id="Grupo_1023249" data-name="Grupo 1023249" transform="translate(0 0.962)">
                <rect id="Rectángulo_373220" data-name="Rectángulo 373220" width="0.999" height="7.177" transform="translate(1.086) rotate(8.7)" fill="#716abb" opacity="0.2"/>
                <rect id="Rectángulo_373221" data-name="Rectángulo 373221" width="0.999" height="3.38" transform="translate(0.679 2.674) rotate(8.7)" fill="#716abb"/>
              </g>
              <g id="Grupo_1023250" data-name="Grupo 1023250" transform="translate(6.515 2.954)">
                <rect id="Rectángulo_373222" data-name="Rectángulo 373222" width="0.999" height="7.177" transform="translate(1.086) rotate(8.7)" fill="#716abb" opacity="0.2"/>
                <rect id="Rectángulo_373223" data-name="Rectángulo 373223" width="0.999" height="3.38" transform="translate(0.925 1.069) rotate(8.7)" fill="#716abb"/>
              </g>
              <g id="Grupo_1023251" data-name="Grupo 1023251" transform="translate(9.059 1.196)">
                <rect id="Rectángulo_373224" data-name="Rectángulo 373224" width="0.999" height="7.177" transform="translate(1.086) rotate(8.7)" fill="#716abb" opacity="0.2"/>
                <rect id="Rectángulo_373225" data-name="Rectángulo 373225" width="0.999" height="3.38" transform="translate(0.963 0.8) rotate(8.7)" fill="#716abb"/>
              </g>
              <g id="Grupo_1023252" data-name="Grupo 1023252" transform="translate(10.999 3.366)">
                <rect id="Rectángulo_373226" data-name="Rectángulo 373226" width="0.999" height="7.177" transform="translate(1.086) rotate(8.7)" fill="#716abb" opacity="0.2"/>
                <rect id="Rectángulo_373227" data-name="Rectángulo 373227" width="0.999" height="3.38" transform="translate(1.042 0.268) rotate(8.7)" fill="#716abb"/>
              </g>
              <g id="Grupo_1023253" data-name="Grupo 1023253" transform="translate(13.787)">
                <rect id="Rectángulo_373228" data-name="Rectángulo 373228" width="0.999" height="7.177" transform="translate(1.086 0) rotate(8.7)" fill="#716abb" opacity="0.2"/>
                <rect id="Rectángulo_373229" data-name="Rectángulo 373229" width="0.999" height="3.377" transform="translate(1.046 0.266) rotate(8.7)" fill="#716abb"/>
              </g>
              <g id="Grupo_1023254" data-name="Grupo 1023254" transform="translate(15.322 4.805)">
                <rect id="Rectángulo_373230" data-name="Rectángulo 373230" width="0.999" height="7.177" transform="translate(1.086) rotate(8.7)" fill="#716abb" opacity="0.2"/>
                <rect id="Rectángulo_373231" data-name="Rectángulo 373231" width="0.999" height="3.38" transform="translate(0.922 1.069) rotate(8.7)" fill="#716abb"/>
              </g>
              <g id="Grupo_1023255" data-name="Grupo 1023255" transform="translate(17.481 5.559)">
                <rect id="Rectángulo_373232" data-name="Rectángulo 373232" width="0.999" height="7.177" transform="translate(1.086) rotate(8.7)" fill="#716abb" opacity="0.2"/>
                <rect id="Rectángulo_373233" data-name="Rectángulo 373233" width="0.999" height="3.38" transform="translate(0.676 2.67) rotate(8.7)" fill="#716abb"/>
              </g>
              <g id="Grupo_1023256" data-name="Grupo 1023256" transform="translate(20.386 1.444)">
                <rect id="Rectángulo_373234" data-name="Rectángulo 373234" width="0.999" height="7.177" transform="translate(1.086) rotate(8.7)" fill="#716abb" opacity="0.2"/>
                <rect id="Rectángulo_373235" data-name="Rectángulo 373235" width="0.999" height="3.377" transform="translate(0.633 2.943) rotate(8.7)" fill="#716abb"/>
              </g>
              <g id="Grupo_1023257" data-name="Grupo 1023257" transform="translate(22.127 4.904)">
                <rect id="Rectángulo_373236" data-name="Rectángulo 373236" width="0.999" height="7.177" transform="translate(1.086) rotate(8.7)" fill="#716abb" opacity="0.2"/>
                <rect id="Rectángulo_373237" data-name="Rectángulo 373237" width="0.999" height="3.377" transform="translate(0.882 1.335) rotate(8.7)" fill="#716abb"/>
              </g>
              <g id="Grupo_1023258" data-name="Grupo 1023258" transform="translate(24.631 3.392)">
                <rect id="Rectángulo_373238" data-name="Rectángulo 373238" width="0.999" height="7.177" transform="translate(1.086) rotate(8.7)" fill="#716abb" opacity="0.2"/>
                <rect id="Rectángulo_373239" data-name="Rectángulo 373239" width="0.999" height="3.38" transform="translate(0.922 1.073) rotate(8.7)" fill="#716abb"/>
              </g>
              <g id="Grupo_1023259" data-name="Grupo 1023259" transform="translate(27.34 0.544)">
                <rect id="Rectángulo_373240" data-name="Rectángulo 373240" width="0.999" height="7.177" transform="translate(1.086 0.004) rotate(8.7)" fill="#716abb" opacity="0.2"/>
                <rect id="Rectángulo_373241" data-name="Rectángulo 373241" width="0.999" height="3.38" transform="translate(1.083) rotate(8.7)" fill="#716abb"/>
              </g>
              <g id="Grupo_1023260" data-name="Grupo 1023260" transform="translate(28.876 5.379)">
                <rect id="Rectángulo_373242" data-name="Rectángulo 373242" width="0.999" height="7.177" transform="translate(1.086 0) rotate(8.7)" fill="#716abb" opacity="0.2"/>
                <rect id="Rectángulo_373243" data-name="Rectángulo 373243" width="0.999" height="3.38" transform="translate(0.962 0.803) rotate(8.7)" fill="#716abb"/>
              </g>
              <g id="Grupo_1023261" data-name="Grupo 1023261" transform="translate(30.616 8.839)">
                <rect id="Rectángulo_373244" data-name="Rectángulo 373244" width="0.999" height="7.177" transform="translate(1.086) rotate(8.7)" fill="#716abb" opacity="0.2"/>
                <rect id="Rectángulo_373245" data-name="Rectángulo 373245" width="0.999" height="3.38" transform="translate(0.966 0.8) rotate(8.7)" fill="#716abb"/>
              </g>
              <g id="Grupo_1023262" data-name="Grupo 1023262" transform="translate(33.411 5.424)">
                <rect id="Rectángulo_373246" data-name="Rectángulo 373246" width="0.999" height="7.177" transform="translate(1.086) rotate(8.7)" fill="#716abb" opacity="0.2"/>
                <rect id="Rectángulo_373247" data-name="Rectángulo 373247" width="0.999" height="3.38" transform="translate(0.68 2.667) rotate(8.7)" fill="#716abb"/>
              </g>
              <g id="Grupo_1023263" data-name="Grupo 1023263" transform="translate(36.248 1.751)">
                <rect id="Rectángulo_373248" data-name="Rectángulo 373248" width="0.999" height="7.177" transform="translate(1.086) rotate(8.7)" fill="#716abb" opacity="0.2"/>
                <rect id="Rectángulo_373249" data-name="Rectángulo 373249" width="0.999" height="3.38" transform="translate(0.593 3.208) rotate(8.7)" fill="#716abb"/>
              </g>
              <g id="Grupo_1023264" data-name="Grupo 1023264" transform="translate(37.855 6.102)">
                <rect id="Rectángulo_373250" data-name="Rectángulo 373250" width="0.999" height="7.177" transform="translate(1.086) rotate(8.7)" fill="#716abb" opacity="0.2"/>
                <rect id="Rectángulo_373251" data-name="Rectángulo 373251" width="0.999" height="3.38" transform="translate(0.925 1.066) rotate(8.7)" fill="#716abb"/>
              </g>
              <g id="Grupo_1023265" data-name="Grupo 1023265" transform="translate(39.892 7.624)">
                <rect id="Rectángulo_373252" data-name="Rectángulo 373252" width="0.999" height="7.177" transform="translate(1.086) rotate(8.7)" fill="#716abb" opacity="0.2"/>
                <rect id="Rectángulo_373253" data-name="Rectángulo 373253" width="0.999" height="3.38" transform="translate(0.639 2.94) rotate(8.7)" fill="#716abb"/>
              </g>
              <g id="Grupo_1023266" data-name="Grupo 1023266" transform="translate(42.453 5.749)">
                <rect id="Rectángulo_373254" data-name="Rectángulo 373254" width="0.999" height="7.177" transform="translate(1.086) rotate(8.7)" fill="#716abb" opacity="0.2"/>
                <rect id="Rectángulo_373255" data-name="Rectángulo 373255" width="0.999" height="3.38" transform="translate(1.085 0.003) rotate(8.7)" fill="#716abb"/>
              </g>
              <g id="Grupo_1023267" data-name="Grupo 1023267" transform="translate(44.335 8.305)">
                <rect id="Rectángulo_373256" data-name="Rectángulo 373256" width="0.999" height="7.177" transform="translate(1.086 0) rotate(8.7)" fill="#716abb" opacity="0.2"/>
                <rect id="Rectángulo_373257" data-name="Rectángulo 373257" width="0.999" height="3.38" transform="translate(1.003 0.531) rotate(8.7)" fill="#716abb"/>
              </g>
              <g id="Grupo_1023268" data-name="Grupo 1023268" transform="translate(46.705 7.687)">
                <rect id="Rectángulo_373258" data-name="Rectángulo 373258" width="0.999" height="7.177" transform="translate(1.086) rotate(8.7)" fill="#716abb" opacity="0.2"/>
                <rect id="Rectángulo_373259" data-name="Rectángulo 373259" width="0.999" height="3.38" transform="translate(1.042 0.265) rotate(8.7)" fill="#716abb"/>
              </g>
              <g id="Grupo_1023269" data-name="Grupo 1023269" transform="translate(48.783 8.937)">
                <rect id="Rectángulo_373260" data-name="Rectángulo 373260" width="0.999" height="7.177" transform="translate(1.086 0) rotate(8.7)" fill="#716abb" opacity="0.2"/>
                <rect id="Rectángulo_373261" data-name="Rectángulo 373261" width="0.999" height="3.38" transform="translate(0.56 3.471) rotate(8.7)" fill="#716abb"/>
              </g>
            </g>
          </g>
          <rect id="Rectángulo_373262" data-name="Rectángulo 373262" width="18.82" height="0.584" transform="translate(40.851 74.72) rotate(8.7)" fill="#999" stroke="#263238" stroke-linecap="round" stroke-linejoin="round" stroke-width="1"/>
        </g>
      </g>
    </g>
    <g id="Right_hand" data-name="Right hand" transform="translate(86.593 58.259)">
      <g id="Grupo_1023276" data-name="Grupo 1023276">
        <path id="Trazado_742370" data-name="Trazado 742370" d="M261.065,191.15s-2.522,1.4-.916,5.188,11.375,10.017,11.177,13.183c0,0-10.03-6.251-12.817-2.643,0,0,7.576,7.348,8.364,12.874s3.364,7.978,9.283,11.13,18.82,19.792,18.82,19.792l-1.928-27.935-18.776-21.194-9.286-5.288-3.924-5.107Z" transform="translate(-258.411 -185.302)" opacity="0.2"/>
        <g id="Grupo_1023275" data-name="Grupo 1023275">
          <path id="Trazado_742371" data-name="Trazado 742371" d="M311.827,240.2s-16.533,10.859-16.536,10.859a.07.07,0,0,1-.1-.044c-.074-.195-7.388-19.715-9.138-21.238a7.192,7.192,0,0,1-2.086-3.333s0,0,0-.007,0-.017-.007-.027c-.064-.215-.094-.355-.1-.392a12.158,12.158,0,0,0-4.316-4.849,22.528,22.528,0,0,0-3.9-1.878,15.631,15.631,0,0,1-5.731-3.317,7.026,7.026,0,0,1-.708-.882c-2.4-3.521-6.117-7.408-7.354-8.206a6.934,6.934,0,0,0-3.525-.687.074.074,0,0,1-.08-.06,2.108,2.108,0,0,1,.543-1.707,3.37,3.37,0,0,1,2.559-1.174,9.83,9.83,0,0,1,5.872,2.27c1.3,1.224,4.4,2.193,4.752,2.3.5-.3,1.663.339,2.109.607-.513-1.828-.305-2.532-.225-2.71-1.1-1.425-6.828-5.644-9.869-7.76h0c-.838-.587-1.469-1.009-1.744-1.17a6.187,6.187,0,0,1-2.364-5.272,1.683,1.683,0,0,1,.674-1.268,1.616,1.616,0,0,1,.956-.245,2.1,2.1,0,0,1,.406.05.138.138,0,0,1,.037.023c.027.037,2.874,3.414,3.86,3.944.483.258,3.052,1.556,5.493,2.763.372.184.741.369,1.1.543a27.05,27.05,0,0,1,.168-3.182,2.808,2.808,0,0,1,1.512-1.355,1.823,1.823,0,0,1,1.486-.137c.184.1.62.372,1.224.748.3.181.637.4,1.013.624a3.917,3.917,0,0,1,.778-.875,4.5,4.5,0,0,1,2.14-.231,34.9,34.9,0,0,1,3.29,1.972l.634.4c.077-.144.258-.446.429-.513a3.83,3.83,0,0,1,2.264-.121,34.654,34.654,0,0,1,3.85,2.656c.905.671,1.774,1.311,2.344,1.7a.082.082,0,0,1,.047.034c.164.111.3.2.406.258,1.214.694,4.2,16.348,4.229,16.506a9.972,9.972,0,0,0,1.657,3.28,17.339,17.339,0,0,1,2.066,3.853,62.83,62.83,0,0,0,6.321,11.878q.433.679.892,1.378c.862,1.321,1.781,2.683,2.683,4Z" transform="translate(-258.216 -184.541)" fill="#fff"/>
          <path id="Trazado_742372" data-name="Trazado 742372" d="M274.982,210.222c-.641.506-5.288.027-5.859,1.59-.335.922-.087,2.317.785,4.158a7.024,7.024,0,0,1-.708-.882c-2.4-3.521-6.117-7.408-7.354-8.206a6.934,6.934,0,0,0-3.525-.687.074.074,0,0,1-.08-.06,2.108,2.108,0,0,1,.543-1.707,3.37,3.37,0,0,1,2.559-1.174,9.83,9.83,0,0,1,5.872,2.27c1.3,1.224,4.4,2.193,4.752,2.3.5-.3,1.663.339,2.109.607-.513-1.828-.305-2.532-.225-2.71-1.1-1.425-6.828-5.644-9.869-7.76h0c-.838-.587-1.469-1.009-1.744-1.17a6.187,6.187,0,0,1-2.364-5.272,1.683,1.683,0,0,1,.674-1.268,1.616,1.616,0,0,1,.956-.245,2.146,2.146,0,0,0-.63.382c-.932.795,1.291,4.99,2.542,6.15,1.308,1.211,7.19,4.215,9.3,6.006,1.16.983,2.683,2.472,2.683,2.472-.929,1.579.221,4.7-.416,5.2Z" transform="translate(-258.216 -184.541)" fill="#ccc2ff" opacity="0.4"/>
          <path id="Trazado_742373" data-name="Trazado 742373" d="M372.6,173.74c0-.03,0-.037,0-.023A.028.028,0,0,1,372.6,173.74Z" transform="translate(-334.243 -173.71)" fill="#92e3a9"/>
          <path id="Trazado_742374" data-name="Trazado 742374" d="M334.176,239.849c-2.492-2.371-6.2-6.063-6.895-7.683-1.06-2.482-1.767-4.772-3.085-6.442s-3.991-19.467-4.759-19.517c-.748-.054.966,7.036,1.056,7.4-.074-.225-1.033-3.246-1.952-6.69-.952-3.578-1.915-3.773-1.915-3.773-1.278.255-1.284,1.164-1.938,1.15s-2.9-1.606-2.9-1.606c-2.176.315-10.342-4.943-10.342-4.943-1.858.252-2.294,1.875-.708,3.4s3.957,3.377,3.957,3.377c-1.529.744-7.143-2.4-7.143-2.4l-.335-.3c.372.184.741.369,1.1.543a27.057,27.057,0,0,1,.168-3.182A2.808,2.808,0,0,1,300,197.823a1.823,1.823,0,0,1,1.486-.137c.184.1.62.372,1.224.748.3.181.637.4,1.013.624a3.917,3.917,0,0,1,.778-.875,4.5,4.5,0,0,1,2.14-.231,34.9,34.9,0,0,1,3.29,1.972l.634.4c.077-.144.258-.446.429-.513a3.83,3.83,0,0,1,2.264-.121,34.65,34.65,0,0,1,3.85,2.656c.905.671,1.774,1.311,2.344,1.7a.082.082,0,0,1,.047.034c.164.111.3.2.406.258,1.214.694,4.2,16.348,4.229,16.506a9.972,9.972,0,0,0,1.657,3.28,17.342,17.342,0,0,1,2.066,3.853A62.831,62.831,0,0,0,334.176,239.849Z" transform="translate(-284.14 -189.57)" fill="#ebe7ff" opacity="0.4"/>
          <g id="Grupo_1023274" data-name="Grupo 1023274" transform="translate(0.074 5.538)">
            <path id="Trazado_742375" data-name="Trazado 742375" d="M295.411,251.133s-7.374-19.715-9.158-21.268a7.124,7.124,0,0,1-2.173-3.726,12.153,12.153,0,0,0-4.346-4.889c-3.182-2.1-7.995-2.639-10.325-6.053s-6.053-7.374-7.374-8.23a6.977,6.977,0,0,0-3.572-.7c-.231-1.321,1.241-2.793,3.028-2.793a9.737,9.737,0,0,1,5.822,2.25c1.4,1.318,4.812,2.327,4.812,2.327.543-.389,2.223.687,2.223.687-.671-2.27-.262-2.881-.262-2.881-1.318-1.784-10.342-8.209-11.663-8.984a6.14,6.14,0,0,1-2.327-5.2,1.5,1.5,0,0,1,1.942-1.4s2.871,3.414,3.88,3.957,8.927,4.5,10.091,4.967a2.185,2.185,0,0,0,2.019-.154" transform="translate(-258.438 -190.226)" fill="none" stroke="#263238" stroke-linecap="round" stroke-linejoin="round" stroke-width="1"/>
            <path id="Trazado_742376" data-name="Trazado 742376" d="M300.72,202.623a29.492,29.492,0,0,1,.164-3.283c.154-.7,2.036-1.911,2.891-1.445s7.143,4.6,8.783,4.782" transform="translate(-286.541 -195.254)" fill="none" stroke="#263238" stroke-linecap="round" stroke-linejoin="round" stroke-width="1"/>
            <path id="Trazado_742377" data-name="Trazado 742377" d="M316.66,199.937a2.274,2.274,0,0,1,2.874-1.144c.932.335,6.422,4.125,7.354,4.356" transform="translate(-297.135 -195.884)" fill="none" stroke="#263238" stroke-linecap="round" stroke-linejoin="round" stroke-width="1"/>
            <path id="Trazado_742378" data-name="Trazado 742378" d="M337.09,204.528s.238-.476.429-.553a3.73,3.73,0,0,1,2.213-.117c.855.312,5.55,4.018,6.637,4.638s3.8,14.36,4.192,16.456,2.716,4.192,3.726,7.143,3.414,7.452,7.22,13.273c.667,1.023,1.368,2.069,2.069,3.1" transform="translate(-310.714 -199.208)" fill="none" stroke="#263238" stroke-linecap="round" stroke-linejoin="round" stroke-width="1"/>
            <path id="Trazado_742379" data-name="Trazado 742379" d="M314.99,223.556a4.48,4.48,0,0,1,1.281-2.27c.932-.7,2.213.409,3.142.523" transform="translate(-296.025 -210.717)" fill="none" stroke="#263238" stroke-linecap="round" stroke-linejoin="round" stroke-width="1"/>
            <path id="Trazado_742380" data-name="Trazado 742380" d="M333.91,216.5s.523-1.808,1.455-2.217,2.368.815,2.988.872" transform="translate(-308.601 -206.161)" fill="none" stroke="#263238" stroke-linecap="round" stroke-linejoin="round" stroke-width="1"/>
            <path id="Trazado_742381" data-name="Trazado 742381" d="M352.14,214.874s.7-.661.989-.664,1.512,1.278,1.774,1.365.583-.392,1.033-.4" transform="translate(-320.717 -206.167)" fill="none" stroke="#263238" stroke-linecap="round" stroke-linejoin="round" stroke-width="1"/>
            <path id="Trazado_742382" data-name="Trazado 742382" d="M345.81,211.29a2.431,2.431,0,0,1,1.452.359" transform="translate(-316.51 -204.222)" fill="none" stroke="#263238" stroke-linecap="round" stroke-linejoin="round" stroke-width="1"/>
            <path id="Trazado_742383" data-name="Trazado 742383" d="M304.5,233.274a3.417,3.417,0,0,1-.231-1.8" transform="translate(-288.856 -217.639)" fill="none" stroke="#263238" stroke-linecap="round" stroke-linejoin="round" stroke-width="1"/>
            <path id="Trazado_742384" data-name="Trazado 742384" d="M307.78,210.72a2.619,2.619,0,0,1,.584,1.167c.03.516,1.355,1.15,1.355,1.15" transform="translate(-291.233 -203.847)" fill="none" stroke="#263238" stroke-linecap="round" stroke-linejoin="round" stroke-width="1"/>
            <path id="Trazado_742385" data-name="Trazado 742385" d="M334.25,211.661s.758-.272,1.167,0" transform="translate(-308.827 -204.392)" fill="none" stroke="#263238" stroke-linecap="round" stroke-linejoin="round" stroke-width="1"/>
            <path id="Trazado_742386" data-name="Trazado 742386" d="M305.074,237.529a2.33,2.33,0,0,1,.9-2.019" transform="translate(-289.43 -220.324)" fill="none" stroke="#263238" stroke-linecap="round" stroke-linejoin="round" stroke-width="1"/>
            <path id="Trazado_742387" data-name="Trazado 742387" d="M304.155,245.44s-.865.748-.865,1.214" transform="translate(-288.249 -226.924)" fill="none" stroke="#263238" stroke-linecap="round" stroke-linejoin="round" stroke-width="1"/>
            <path id="Trazado_742388" data-name="Trazado 742388" d="M294,241.53c1.026.382,1.878,1.979,2.5,2.25" transform="translate(-282.074 -224.325)" fill="none" stroke="#263238" stroke-linecap="round" stroke-linejoin="round" stroke-width="1"/>
            <path id="Trazado_742389" data-name="Trazado 742389" d="M331.08,226.37c.62.892,2.019,7.374,3.414,9.43" transform="translate(-306.72 -214.249)" fill="none" stroke="#263238" stroke-linecap="round" stroke-linejoin="round" stroke-width="1"/>
            <path id="Trazado_742390" data-name="Trazado 742390" d="M346.59,220.91c.117.077.932,2.6.932,2.6" transform="translate(-317.028 -210.62)" fill="none" stroke="#263238" stroke-linecap="round" stroke-linejoin="round" stroke-width="1"/>
            <path id="Trazado_742391" data-name="Trazado 742391" d="M377.66,268.56a14.987,14.987,0,0,0,1.107,3.746" transform="translate(-337.679 -242.29)" fill="none" stroke="#263238" stroke-linecap="round" stroke-linejoin="round" stroke-width="1"/>
            <path id="Trazado_742392" data-name="Trazado 742392" d="M333.017,290.352a20.528,20.528,0,0,0-1.107-4.152" transform="translate(-307.271 -254.015)" fill="none" stroke="#263238" stroke-linecap="round" stroke-linejoin="round" stroke-width="1"/>
          </g>
        </g>
      </g>
    </g>
    <g id="Left_hand" data-name="Left hand" transform="translate(2.884 84.063)">
      <g id="Grupo_1023279" data-name="Grupo 1023279">
        <path id="Trazado_742393" data-name="Trazado 742393" d="M54.96,313.25S65.872,298.578,74.1,295.892s8.635-6.331,8.3-13.132-.087-13.655-2.334-14.474,2.71-9.7.329-13.216L64.826,279.534l-9.866,33.72Z" transform="translate(-39.413 -253.59)" opacity="0.2"/>
        <g id="Grupo_1023278" data-name="Grupo 1023278">
          <path id="Trazado_742394" data-name="Trazado 742394" d="M21.5,314.4c-.047-.013-.1-.034-.164-.054.131.074.211.121.235.131C21.561,314.469,21.538,314.445,21.5,314.4ZM48.027,269.4c-1.358-.627-4-3.568-4.336-3.937,1.683-2.824,3.333-5.547,3.907-6.2,1.19-1.355,2.643-5.255,2.052-7.146A2.138,2.138,0,0,0,47.1,250.7l-.027.007a.052.052,0,0,0-.044.03c-.037.064-3.635,6.13-4.752,7.582-.533.691-1.761,2.264-3,3.84-.064-.01-.2-.034-.372-.057a6.453,6.453,0,0,0-2.364.067c-.023.007-.05.017-.077.027a8.1,8.1,0,0,0-1.15.61c-.047-.02-.141-.06-.265-.111a9.1,9.1,0,0,0-2.146-.671,13.251,13.251,0,0,0-4.2,1.844,9,9,0,0,0-2.824-.392,20.848,20.848,0,0,0-4.785,1.573c-.744.3-1.388.563-1.764.681-.114.037-.221.067-.325.1a2.9,2.9,0,0,0-2.247,1.861c-.7,1.4-1.506,6.851-1.881,9.447l-.05.352a37.991,37.991,0,0,0-.1,4.651c.037,2.616.074,5.319-.315,6.378a16.6,16.6,0,0,1-2.066,3.729c-.111.158-.211.305-.305.446a11.5,11.5,0,0,0-1.244,2.619c-.282.745-.634,1.563-.976,2.311-.63,1.385-1.217,2.529-1.217,2.529s11.865,13.1,12.9,14.249a1.434,1.434,0,0,0,.171.054c.04-.067,2.233-3.816,4.557-7.515,2-3.193,4.1-6.348,5-7.073a8.293,8.293,0,0,0,2.569-4c.483-1.553,3.565-3.468,6.546-5.319,3.3-2.046,6.7-4.162,6.821-5.912.064-.905.272-2.4.513-4.145C48.329,275.783,49.141,269.911,48.027,269.4Zm-5.647,7.539-1.465,1.435a7.9,7.9,0,0,0-1.858-2.971,12.27,12.27,0,0,0,.218-1.71,3.383,3.383,0,0,1,.272-1.452,34.2,34.2,0,0,0,2.109-3.357,6.967,6.967,0,0,0,1.509,3.206Z" transform="translate(-8.6 -250.657)" fill="#fff"/>
          <path id="Trazado_742395" data-name="Trazado 742395" d="M27.391,295.112c-.433,3.863-4.219,13.448-4.219,13.448l-.684-9.655s-2.921,13.1-3.743,13.575-2.227,2.978-3.025,4.967c-.533,1.338-2.351,2.254-3.491,2.713.342-.748.694-1.566.976-2.311a11.5,11.5,0,0,1,1.244-2.619c.094-.141.195-.288.305-.446a16.6,16.6,0,0,0,2.066-3.729c.389-1.06.352-3.763.315-6.378a37.992,37.992,0,0,1,.1-4.651l.05-.352c.376-2.6,1.157-8,1.881-9.447a2.831,2.831,0,0,1,2.247-1.861c.1-.034.211-.064.325-.1.376-.117,1.019-.379,1.764-.681a20.848,20.848,0,0,1,4.785-1.573,9,9,0,0,1,2.824.392,13.253,13.253,0,0,1,4.2-1.844,9.1,9.1,0,0,1,2.146.671,63.7,63.7,0,0,0-5.956,3.94c-4.249.905-4.111,5.942-4.111,5.942Z" transform="translate(-11.013 -273.189)" fill="#7f66ff" opacity="0.4"/>
          <path id="Trazado_742396" data-name="Trazado 742396" d="M79.82,289.982a37.324,37.324,0,0,1,3.4-2.1c1.087-.51,1.435-2.542.671-3.115a.214.214,0,0,0-.1-.04c.027-.01.054-.02.077-.027a6.452,6.452,0,0,1,2.364-.067c-1.405,2.109-2.505,3.726-2.8,4.074C82.459,289.885,79.82,289.982,79.82,289.982Z" transform="translate(-55.936 -273.19)" fill="#92e3a9" opacity="0.4"/>
          <path id="Trazado_742397" data-name="Trazado 742397" d="M96.35,340.2l.513.221C96.551,341.665,96.35,340.2,96.35,340.2Z" transform="translate(-66.923 -310.172)" fill="#92e3a9" opacity="0.4"/>
          <path id="Trazado_742398" data-name="Trazado 742398" d="M82.968,269.4c-1.358-.627-4-3.568-4.336-3.937,1.683-2.824,3.333-5.547,3.907-6.2,1.19-1.355,2.643-5.255,2.052-7.146a2.138,2.138,0,0,0-2.549-1.412l-.01.074s1.911.238,1.908,3-4.967,8.24-4.967,8.24-5.1,9.574-5.443,9.43-1.083,6.4-1.083,6.4a3.234,3.234,0,0,1,1.083,2.84q-.025.121-.05.221l2.186.942s2.193-1.539,3.307.724-10.691,10.352-11.62,11.546c0,0-.131,4.51-1.854,5.174-1.117.429-3.085,4.695-4.329,7.649,2-3.193,4.1-6.348,5-7.073a8.293,8.293,0,0,0,2.569-4c.483-1.553,3.565-3.468,6.546-5.319,3.3-2.046,6.7-4.162,6.821-5.912.064-.905.272-2.4.513-4.145C83.27,275.783,84.081,269.911,82.968,269.4Zm-5.647,7.539-1.465,1.435A7.9,7.9,0,0,0,74,275.4a12.27,12.27,0,0,0,.218-1.71,3.383,3.383,0,0,1,.272-1.452,34.2,34.2,0,0,0,2.109-3.357,6.967,6.967,0,0,0,1.509,3.206Z" transform="translate(-43.541 -250.657)" fill="#ccc2ff" opacity="0.4"/>
          <g id="Grupo_1023277" data-name="Grupo 1023277" transform="translate(0 0.071)">
            <path id="Trazado_742399" data-name="Trazado 742399" d="M83.53,267.681a4.552,4.552,0,0,0,2.378-1.358c1.019-1.13,5.1-6.341,6.227-7.814s4.755-7.589,4.755-7.589a2.082,2.082,0,0,1,2.492,1.358c.567,1.811-.791,5.661-2.039,7.076s-7.589,12.629-8.042,12.968-.114,3.514-1.019,4.192" transform="translate(-58.402 -250.87)" fill="none" stroke="#263238" stroke-linecap="round" stroke-linejoin="round" stroke-width="1"/>
            <path id="Trazado_742400" data-name="Trazado 742400" d="M99.18,311.048s1.774,1.858,1.885,3.1l1.586-1.553.791-4.9s-1.566-1.888-1.519-3.434" transform="translate(-68.804 -286.356)" fill="none" stroke="#263238" stroke-linecap="round" stroke-linejoin="round" stroke-width="1"/>
            <path id="Trazado_742401" data-name="Trazado 742401" d="M69.386,294.83s2.921,3.313,4.393,3.994S73.1,310.716,72.873,314,60.529,321.92,59.51,325.209a8.181,8.181,0,0,1-2.549,3.964C55,330.766,47.39,343.781,47.39,343.781" transform="translate(-34.382 -280.088)" fill="none" stroke="#263238" stroke-linecap="round" stroke-linejoin="round" stroke-width="1"/>
            <path id="Trazado_742402" data-name="Trazado 742402" d="M76.538,284.909a7.35,7.35,0,0,0-2.747,0c-1.019.319-5.322,3.374-6.341,3.94s-2.492.681-2.83,1.358" transform="translate(-45.834 -273.4)" fill="none" stroke="#263238" stroke-linecap="round" stroke-linejoin="round" stroke-width="1"/>
            <path id="Trazado_742403" data-name="Trazado 742403" d="M67.985,285.56a11.65,11.65,0,0,0-2.418-.791,14.124,14.124,0,0,0-4.645,2.156,9.913,9.913,0,0,1-3.172,1.549" transform="translate(-41.268 -273.4)" fill="none" stroke="#263238" stroke-linecap="round" stroke-linejoin="round" stroke-width="1"/>
            <path id="Trazado_742404" data-name="Trazado 742404" d="M28.7,289.488a8.847,8.847,0,0,0-2.83-.4c-1.472.06-5.322,1.875-6.529,2.25s-1.774.416-2.529,1.925-1.586,7.438-1.925,9.779.265,9.192-.416,11.043a18.787,18.787,0,0,1-2.378,4.192c-1.291,1.918-1.147,3.367-3.5,7.421" transform="translate(-8.6 -276.269)" fill="none" stroke="#263238" stroke-linecap="round" stroke-linejoin="round" stroke-width="1"/>
            <path id="Trazado_742405" data-name="Trazado 742405" d="M56.479,302.52c-1.472,1.3-1.2,3.8-.989,4.531s-.708,3.679-.989,5.265" transform="translate(-39.107 -285.199)" fill="none" stroke="#263238" stroke-linecap="round" stroke-linejoin="round" stroke-width="1"/>
            <path id="Trazado_742406" data-name="Trazado 742406" d="M80.972,306.23a3.48,3.48,0,0,0-3.682,3.058" transform="translate(-54.255 -287.665)" fill="none" stroke="#263238" stroke-linecap="round" stroke-linejoin="round" stroke-width="1"/>
            <path id="Trazado_742407" data-name="Trazado 742407" d="M48.1,298.3c-.791-.057-2.83,1.19-3.226,3.226" transform="translate(-32.707 -282.391)" fill="none" stroke="#263238" stroke-linecap="round" stroke-linejoin="round" stroke-width="1"/>
            <path id="Trazado_742408" data-name="Trazado 742408" d="M111.9,312.044s.4-1.133.791-1.244" transform="translate(-77.258 -290.702)" fill="none" stroke="#263238" stroke-linecap="round" stroke-linejoin="round" stroke-width="1"/>
            <path id="Trazado_742409" data-name="Trazado 742409" d="M107.781,329.13a15.084,15.084,0,0,1-.728,1.948,2.723,2.723,0,0,0,0,1.74" transform="translate(-73.934 -302.885)" fill="none" stroke="#263238" stroke-linecap="round" stroke-linejoin="round" stroke-width="1"/>
            <path id="Trazado_742410" data-name="Trazado 742410" d="M101.726,333.76c-.057,1.133-1.3,2.347-1.556,2.136" transform="translate(-69.462 -305.963)" fill="none" stroke="#263238" stroke-linecap="round" stroke-linejoin="round" stroke-width="1"/>
            <path id="Trazado_742411" data-name="Trazado 742411" d="M68.444,328.01c-.04,1.244-2.3,10.362-2.3,10.362" transform="translate(-46.844 -302.141)" fill="none" stroke="#263238" stroke-linecap="round" stroke-linejoin="round" stroke-width="1"/>
          </g>
        </g>
      </g>
    </g>
  </g>
</svg>
