<svg xmlns="http://www.w3.org/2000/svg" xmlns:xlink="http://www.w3.org/1999/xlink" width="89.817" height="89.569" viewBox="0 0 89.817 89.569">
  <defs>
    <clipPath id="clip-path">
      <path id="Trazado_742690" data-name="Trazado 742690" d="M44.785,0c13.851,0,31.9,1.6,40.288,11.68,6.285,7.555,4.5,22.222,4.5,33.1A44.785,44.785,0,0,1,0,44.785C0,34.446-.541,20.675,5.516,12.874,13.536,2.542,30.39,0,44.785,0Z" transform="translate(-6237 -9714)" fill="#362b9e" opacity="0.42"/>
    </clipPath>
  </defs>
  <g id="_10" data-name="10" transform="translate(6195.012 9526)">
    <path id="Trazado_742667" data-name="Trazado 742667" d="M44.785,0A44.785,44.785,0,1,1,0,44.785,44.785,44.785,0,0,1,44.785,0Z" transform="translate(-6195 -9526)" fill="#362b9e"/>
    <g id="Enmascarar_grupo_952208" data-name="Enmascarar grupo 952208" transform="translate(42 188)" clip-path="url(#clip-path)">
      <g id="presentacion" transform="translate(-6229.063 -9701.18)">
        <g id="Grupo_1023394" data-name="Grupo 1023394" transform="translate(0 0)">
          <path id="Trazado_742668" data-name="Trazado 742668" d="M249.386,389.675a1.112,1.112,0,0,1-1.112-1.112v-6.7a1.112,1.112,0,1,1,2.224,0v6.7A1.112,1.112,0,0,1,249.386,389.675Z" transform="translate(-212.537 -325.944)" fill="#5e54ac"/>
          <path id="Trazado_742669" data-name="Trazado 742669" d="M89.039,69.524v48.793c0,6.234-3.451,11.288-7.708,11.288H29.774c-4.257,0-7.708-5.055-7.708-11.288V69.524a16.084,16.084,0,0,1,.372-3.47c1-4.536,3.906-7.818,7.336-7.818H81.331c3.43,0,6.337,3.282,7.336,7.818A16.074,16.074,0,0,1,89.039,69.524Z" transform="translate(-18.89 -52.857)" fill="#f9f6f9"/>
          <path id="Trazado_742670" data-name="Trazado 742670" d="M91.261,63.606c-.082.006-.165.009-.249.009h-66.1q-.127,0-.249-.009a7.755,7.755,0,0,1,7.377-5.37H83.884A7.754,7.754,0,0,1,91.261,63.606Z" transform="translate(-21.112 -49.853)" fill="#dddaec"/>
          <path id="Trazado_742671" data-name="Trazado 742671" d="M33.059,166.619H29.813c-4.281,0-7.751-7.676-7.751-17.142v-74.1c0-9.466,3.47-17.142,7.751-17.142h3.246c-4.281,0-7.753,7.676-7.753,17.142v74.1C25.306,158.943,28.778,166.619,33.059,166.619Z" transform="translate(-18.886 -89.869)" fill="#dddaec"/>
          <path id="Trazado_742672" data-name="Trazado 742672" d="M69.9,0H3.8A3.8,3.8,0,0,0,0,3.8V6.959a3.8,3.8,0,0,0,3.8,3.8H69.9a3.8,3.8,0,0,0,3.8-3.8V3.8A3.8,3.8,0,0,0,69.9,0Z" transform="translate(0 0)" fill="#656d78"/>
          <path id="Trazado_742673" data-name="Trazado 742673" d="M11.922,10.757H3.8A3.8,3.8,0,0,1,0,6.958V3.8A3.8,3.8,0,0,1,3.8,0h8.123a3.8,3.8,0,0,0-3.8,3.8V6.958A3.8,3.8,0,0,0,11.922,10.757Z" transform="translate(0 0)" fill="#545e6b"/>
        </g>
        <g id="Grupo_1023398" data-name="Grupo 1023398" transform="translate(6.887 19.957)">
          <path id="Trazado_742677" data-name="Trazado 742677" d="M141.722,155.949h-37.2a4.37,4.37,0,0,1-4.364-4.366V127.006a4.369,4.369,0,0,1,4.364-4.364h7.671a1.142,1.142,0,1,1,0,2.285h-7.671a2.082,2.082,0,0,0-2.079,2.079v24.577a2.082,2.082,0,0,0,2.079,2.081h37.2a2.083,2.083,0,0,0,2.081-2.081V127.006a2.082,2.082,0,0,0-2.081-2.079h-7.21a1.142,1.142,0,1,1,0-2.285h7.21a4.37,4.37,0,0,1,4.366,4.364v24.577A4.371,4.371,0,0,1,141.722,155.949Z" transform="translate(-92.985 -119.871)" fill="#5e54ac"/>
          <path id="Trazado_742678" data-name="Trazado 742678" d="M201.505,111.73H183.917a2.367,2.367,0,0,1-2.367-2.367V106.27a2.367,2.367,0,0,1,2.367-2.367h17.589a2.367,2.367,0,0,1,2.367,2.367v3.094A2.367,2.367,0,0,1,201.505,111.73Z" transform="translate(-162.345 -103.903)" fill="#9dc6fb"/>
          <path id="Trazado_742679" data-name="Trazado 742679" d="M363.222,179.154H351.111a1.909,1.909,0,0,1-1.909-1.909V173.93a1.909,1.909,0,0,1,1.909-1.909h12.112a1.909,1.909,0,0,1,1.909,1.909v3.316A1.909,1.909,0,0,1,363.222,179.154Z" transform="translate(-305.207 -161.949)" fill="#ff4a4a"/>
          <path id="Trazado_742680" data-name="Trazado 742680" d="M363.222,257.366H351.111a1.909,1.909,0,0,1-1.909-1.909v-3.316a1.909,1.909,0,0,1,1.909-1.909h12.112a1.909,1.909,0,0,1,1.909,1.909v3.316A1.909,1.909,0,0,1,363.222,257.366Z" transform="translate(-305.207 -228.596)" fill="#fab400"/>
          <ellipse id="Elipse_7866" data-name="Elipse 7866" cx="8.312" cy="8.311" rx="8.312" ry="8.311" transform="translate(0 12.018)" fill="#4ce166"/>
          <g id="Grupo_1023395" data-name="Grupo 1023395" transform="translate(19.205 29.989)">
            <path id="Trazado_742681" data-name="Trazado 742681" d="M186.007,306.716h-2.848a1.609,1.609,0,0,0-1.609,1.609v6.568a1.609,1.609,0,0,0,1.609,1.609h2.848a1.609,1.609,0,0,0,1.609-1.609v-6.568A1.609,1.609,0,0,0,186.007,306.716Z" transform="translate(-181.55 -306.716)" fill="#9dc6fb"/>
          </g>
          <g id="Grupo_1023397" data-name="Grupo 1023397" transform="translate(3.581 17.328)">
            <path id="Trazado_742683" data-name="Trazado 742683" d="M84.209,223.376H77.032a1.142,1.142,0,1,1,0-2.285h7.176a1.142,1.142,0,1,1,0,2.285Z" transform="translate(-75.89 -221.091)" fill="#524798"/>
            <path id="Trazado_742684" data-name="Trazado 742684" d="M84.209,248.52H77.032a1.142,1.142,0,1,1,0-2.285h7.176a1.142,1.142,0,0,1,0,2.285Z" transform="translate(-75.89 -242.517)" fill="#524798"/>
          </g>
          <path id="Trazado_742688" data-name="Trazado 742688" d="M249.416,397.45c-.631,0-1.142-.932-1.142-2.081V382.832c0-1.149.511-2.081,1.142-2.081s1.142.932,1.142,2.081v12.537C250.559,396.518,250.048,397.45,249.416,397.45Z" transform="translate(-219.203 -345.928)" fill="#5e54ac"/>
          <g id="Grupo_1023396" data-name="Grupo 1023396" transform="translate(29.972 29.989)">
            <path id="Trazado_742682" data-name="Trazado 742682" d="M263.158,306.716h-6.629a2.162,2.162,0,0,0-2.162,2.162v5.462a2.162,2.162,0,0,0,2.162,2.162h6.629a2.162,2.162,0,0,0,2.162-2.162v-5.462A2.162,2.162,0,0,0,263.158,306.716Z" transform="translate(-254.367 -306.716)" fill="#4ce166"/>
          </g>
          <path id="Trazado_742689" data-name="Trazado 742689" d="M218.823,424.744a6.451,6.451,0,1,0,6.451,6.451A6.451,6.451,0,0,0,218.823,424.744Zm0,8.562a2.111,2.111,0,1,1,2.111-2.111A2.111,2.111,0,0,1,218.823,433.306Z" transform="translate(-188.609 -377.302)" fill="#fab400"/>
          <g id="Grupo_1023400" data-name="Grupo 1023400" transform="translate(23.763 47.442)">
            <path id="Trazado_742675" data-name="Trazado 742675" d="M263.139,458.032a2.111,2.111,0,1,0,0-3.653,2.108,2.108,0,0,1,0,3.653Z" transform="translate(-255.632 -449.754)" fill="#dc9600"/>
            <path id="Trazado_742676" data-name="Trazado 742676" d="M214.483,431.2a6.452,6.452,0,0,1,5.4-6.364,6.451,6.451,0,1,0,0,12.728A6.452,6.452,0,0,1,214.483,431.2Z" transform="translate(-212.372 -424.744)" fill="#dc9600"/>
          </g>
        </g>
        <g id="Grupo_1023399" data-name="Grupo 1023399" transform="translate(29.541 32.161)">
          <path id="Trazado_742685" data-name="Trazado 742685" d="M218.883,188.654h-12.9a1.109,1.109,0,1,1,0-2.218h12.9a1.109,1.109,0,1,1,0,2.218Z" transform="translate(-204.872 -186.436)" fill="#524798"/>
          <path id="Trazado_742686" data-name="Trazado 742686" d="M218.883,224.064h-12.9a1.109,1.109,0,1,1,0-2.218h12.9a1.109,1.109,0,1,1,0,2.218Z" transform="translate(-204.872 -216.61)" fill="#524798"/>
          <path id="Trazado_742687" data-name="Trazado 742687" d="M218.883,259.475h-12.9a1.109,1.109,0,1,1,0-2.218h12.9a1.109,1.109,0,1,1,0,2.218Z" transform="translate(-204.872 -246.785)" fill="#524798"/>
        </g>
      </g>
    </g>
  </g>
</svg>
