<svg xmlns="http://www.w3.org/2000/svg" xmlns:xlink="http://www.w3.org/1999/xlink" width="748" height="213.305" viewBox="0 0 748 213.305">
  <defs>
    <filter id="Trazado_738356" x="680.445" y="34.027" width="67.554" height="67.554" filterUnits="userSpaceOnUse">
      <feOffset dy="3" input="SourceAlpha"/>
      <feGaussianBlur stdDeviation="3" result="blur"/>
      <feFlood flood-opacity="0.161"/>
      <feComposite operator="in" in2="blur"/>
      <feComposite in="SourceGraphic"/>
    </filter>
    <clipPath id="clip-path">
      <rect id="Rectángulo_373297" data-name="Rectángulo 373297" width="75" height="45" transform="translate(0 0.413)" fill="#bddcfa" stroke="#707070" stroke-width="1" opacity="0.6"/>
    </clipPath>
    <clipPath id="clip-path-2">
      <rect id="Rectángulo_373305" data-name="Rectángulo 373305" width="16.817" height="14.415" transform="translate(0 0)" fill="#112e4c"/>
    </clipPath>
  </defs>
  <g id="_12" data-name="12" transform="translate(-665 -2609.695)">
    <g id="Grupo_1023442" data-name="Grupo 1023442">
      <rect id="_1" data-name="1" width="733.651" height="212.662" rx="11" transform="translate(665 2609.695)" fill="#f2f9ff"/>
      <g id="Grupo_1023441" data-name="Grupo 1023441" transform="translate(705 2649.723)">
        <g transform="matrix(1, 0, 0, 1, -40, -40.03)" filter="url(#Trazado_738356)">
          <path id="Trazado_738356-2" data-name="Trazado 738356" d="M24.777,0A24.777,24.777,0,1,1,0,24.777,24.777,24.777,0,0,1,24.777,0Z" transform="translate(689.45 40.03)" fill="#d6e8f9"/>
        </g>
        <g id="Enmascarar_grupo_952209" data-name="Enmascarar grupo 952209" transform="translate(0 127.865)" opacity="0.64" clip-path="url(#clip-path)">
          <path id="Trazado_742701" data-name="Trazado 742701" d="M576.058,508.023a30.928,30.928,0,1,0,30.925,30.925,30.963,30.963,0,0,0-30.925-30.925m0,55.755a24.83,24.83,0,1,1,24.83-24.83,24.832,24.832,0,0,1-24.83,24.83" transform="translate(-538.729 -492.848)" fill="#def" stroke="#b8d5f2" stroke-width="10"/>
        </g>
      </g>
    </g>
    <g id="Grupo_1023466" data-name="Grupo 1023466" transform="translate(0 13)">
      <rect id="Rectángulo_373298" data-name="Rectángulo 373298" width="147" height="34" rx="4" transform="translate(705 2626)" fill="#221b6b"/>
      <path id="Trazado_746548" data-name="Trazado 746548" d="M7.8,9.922H3.133v3.5H8.594V15H1.156V3.625H8.539V5.219H3.133V8.359H7.8ZM14.758,12.7a.861.861,0,0,0-.418-.773,4.445,4.445,0,0,0-1.387-.469,7.129,7.129,0,0,1-1.617-.516A2.158,2.158,0,0,1,9.914,8.953a2.25,2.25,0,0,1,.922-1.828,3.644,3.644,0,0,1,2.344-.734,3.792,3.792,0,0,1,2.449.75,2.38,2.38,0,0,1,.934,1.945h-1.9a1.17,1.17,0,0,0-.406-.91,1.557,1.557,0,0,0-1.078-.363,1.682,1.682,0,0,0-1.02.289.911.911,0,0,0-.395.773.769.769,0,0,0,.367.68,5.049,5.049,0,0,0,1.484.488,7.027,7.027,0,0,1,1.754.586,2.484,2.484,0,0,1,.945.816,2.082,2.082,0,0,1,.309,1.156,2.2,2.2,0,0,1-.945,1.848,4.031,4.031,0,0,1-2.477.707,4.371,4.371,0,0,1-1.852-.375,3.047,3.047,0,0,1-1.266-1.031,2.441,2.441,0,0,1-.453-1.414h1.844a1.338,1.338,0,0,0,.508,1.035,1.973,1.973,0,0,0,1.242.363,1.92,1.92,0,0,0,1.141-.285A.883.883,0,0,0,14.758,12.7Zm5.9-8.211V6.547h1.492V7.953H20.656v4.719a1.039,1.039,0,0,0,.191.7.888.888,0,0,0,.684.215,2.925,2.925,0,0,0,.664-.078v1.469a4.676,4.676,0,0,1-1.25.18q-2.188,0-2.187-2.414V7.953H17.367V6.547h1.391V4.492Zm7.367,3.789a4.7,4.7,0,0,0-.773-.062,1.741,1.741,0,0,0-1.758,1V15h-1.9V6.547h1.813l.047.945a2.139,2.139,0,0,1,1.906-1.1,1.777,1.777,0,0,1,.672.109Zm6.32,5.891a2.944,2.944,0,0,1-2.375.984,2.624,2.624,0,0,1-2.082-.8,3.423,3.423,0,0,1-.707-2.328V6.547h1.9V12q0,1.609,1.336,1.609a1.876,1.876,0,0,0,1.867-.992V6.547h1.9V15H34.391Zm7.242-.531a1.716,1.716,0,0,0,1.18-.414,1.415,1.415,0,0,0,.5-1.023h1.789a2.789,2.789,0,0,1-.492,1.473,3.228,3.228,0,0,1-1.25,1.082,3.725,3.725,0,0,1-1.7.4A3.6,3.6,0,0,1,38.8,14.008a4.555,4.555,0,0,1-1.039-3.172v-.2a4.479,4.479,0,0,1,1.031-3.09A3.571,3.571,0,0,1,41.6,6.391a3.473,3.473,0,0,1,2.457.879,3.148,3.148,0,0,1,1,2.309H43.266a1.738,1.738,0,0,0-.5-1.2,1.6,1.6,0,0,0-1.184-.469,1.671,1.671,0,0,0-1.422.668,3.408,3.408,0,0,0-.508,2.027v.3a3.465,3.465,0,0,0,.5,2.051A1.669,1.669,0,0,0,41.586,13.641Zm7.281-9.148V6.547h1.492V7.953H48.867v4.719a1.039,1.039,0,0,0,.191.7.888.888,0,0,0,.684.215,2.924,2.924,0,0,0,.664-.078v1.469a4.676,4.676,0,0,1-1.25.18q-2.187,0-2.187-2.414V7.953H45.578V6.547h1.391V4.492Zm8.063,9.68a2.944,2.944,0,0,1-2.375.984,2.624,2.624,0,0,1-2.082-.8,3.423,3.423,0,0,1-.707-2.328V6.547h1.9V12q0,1.609,1.336,1.609a1.876,1.876,0,0,0,1.867-.992V6.547h1.9V15H56.977Zm8.2-5.891a4.7,4.7,0,0,0-.773-.062,1.741,1.741,0,0,0-1.758,1V15H60.7V6.547h1.813l.047.945a2.139,2.139,0,0,1,1.906-1.1,1.777,1.777,0,0,1,.672.109ZM71.141,15a2.93,2.93,0,0,1-.219-.789,3.193,3.193,0,0,1-4.3.219,2.325,2.325,0,0,1-.8-1.8,2.4,2.4,0,0,1,1-2.074A4.865,4.865,0,0,1,69.7,9.836h1.164V9.281a1.481,1.481,0,0,0-.367-1.051,1.456,1.456,0,0,0-1.117-.395,1.672,1.672,0,0,0-1.062.324,1,1,0,0,0-.414.824H66a2.107,2.107,0,0,1,.461-1.3,3.071,3.071,0,0,1,1.254-.949,4.4,4.4,0,0,1,1.77-.344,3.547,3.547,0,0,1,2.367.746,2.661,2.661,0,0,1,.906,2.1v3.813a4.321,4.321,0,0,0,.32,1.82V15Zm-2.086-1.367a2.159,2.159,0,0,0,1.059-.273,1.827,1.827,0,0,0,.746-.734V11.031H69.836a2.8,2.8,0,0,0-1.586.367,1.189,1.189,0,0,0-.531,1.039,1.109,1.109,0,0,0,.363.871A1.407,1.407,0,0,0,69.055,13.633Zm11.836-.211h5.164V15H78.914V3.625h1.977ZM89.406,15h-1.9V6.547h1.9ZM87.391,4.352a1.008,1.008,0,0,1,.277-.727,1.048,1.048,0,0,1,.793-.289,1.061,1.061,0,0,1,.8.289,1,1,0,0,1,.281.727.977.977,0,0,1-.281.715,1.069,1.069,0,0,1-.8.285,1.056,1.056,0,0,1-.793-.285A.984.984,0,0,1,87.391,4.352Zm5.844,2.2.055.977A3.039,3.039,0,0,1,95.75,6.391q2.641,0,2.688,3.023V15h-1.9V9.523a1.741,1.741,0,0,0-.348-1.191,1.462,1.462,0,0,0-1.137-.387,1.829,1.829,0,0,0-1.711,1.039V15h-1.9V6.547Zm10.859,8.609a3.928,3.928,0,0,1-2.926-1.137,4.124,4.124,0,0,1-1.121-3.027v-.234a5.072,5.072,0,0,1,.488-2.262,3.716,3.716,0,0,1,1.371-1.551,3.625,3.625,0,0,1,1.969-.555,3.318,3.318,0,0,1,2.668,1.1,4.658,4.658,0,0,1,.941,3.117v.766h-5.523a2.539,2.539,0,0,0,.7,1.656,2.1,2.1,0,0,0,1.543.609,2.571,2.571,0,0,0,2.125-1.055l1.023.977A3.418,3.418,0,0,1,106,14.738,4.244,4.244,0,0,1,104.094,15.156Zm-.227-7.242a1.6,1.6,0,0,0-1.262.547,2.835,2.835,0,0,0-.613,1.523h3.617V9.844A2.307,2.307,0,0,0,105.1,8.4,1.586,1.586,0,0,0,103.867,7.914ZM114.008,15a2.93,2.93,0,0,1-.219-.789,3.193,3.193,0,0,1-4.3.219,2.325,2.325,0,0,1-.8-1.8,2.4,2.4,0,0,1,1-2.074,4.865,4.865,0,0,1,2.871-.723h1.164V9.281a1.481,1.481,0,0,0-.367-1.051,1.456,1.456,0,0,0-1.117-.395,1.672,1.672,0,0,0-1.062.324,1,1,0,0,0-.414.824h-1.9a2.107,2.107,0,0,1,.461-1.3,3.071,3.071,0,0,1,1.254-.949,4.4,4.4,0,0,1,1.77-.344,3.547,3.547,0,0,1,2.367.746,2.661,2.661,0,0,1,.906,2.1v3.813a4.321,4.321,0,0,0,.32,1.82V15Zm-2.086-1.367a2.159,2.159,0,0,0,1.059-.273,1.827,1.827,0,0,0,.746-.734V11.031H112.7a2.8,2.8,0,0,0-1.586.367,1.189,1.189,0,0,0-.531,1.039,1.109,1.109,0,0,0,.363.871A1.407,1.407,0,0,0,111.922,13.633ZM119.633,15h-1.9V3h1.9Z" transform="translate(717 2632.5)" fill="#fff"/>
    </g>
    <g id="Grupo_1023470" data-name="Grupo 1023470">
      <g id="Grupo_1023461" data-name="Grupo 1023461" transform="translate(794.211 2721)">
        <path id="Trazado_742704" data-name="Trazado 742704" d="M-7647.208-8893.5h50.934" transform="translate(7647.208 8902)" fill="#112e4c" stroke="#112e4c" stroke-width="2"/>
        <g id="Grupo_1025476" data-name="Grupo 1025476" transform="translate(40.764 0.892)">
          <g id="Grupo_1023424" data-name="Grupo 1023424" transform="translate(0 0)" clip-path="url(#clip-path-2)">
            <path id="Trazado_742703" data-name="Trazado 742703" d="M0,0,16.817,7.208,0,14.415,4.8,7.208,0,0" fill="#112e4c"/>
          </g>
        </g>
      </g>
      <g id="Grupo_1025489" data-name="Grupo 1025489" transform="translate(926.211 2721)">
        <path id="Trazado_742704-2" data-name="Trazado 742704" d="M-7647.208-8893.5h50.934" transform="translate(7647.208 8902)" fill="#112e4c" stroke="#112e4c" stroke-width="2"/>
        <g id="Grupo_1025476-2" data-name="Grupo 1025476" transform="translate(40.764 0.892)">
          <g id="Grupo_1023424-2" data-name="Grupo 1023424" transform="translate(0 0)" clip-path="url(#clip-path-2)">
            <path id="Trazado_742703-2" data-name="Trazado 742703" d="M0,0,16.817,7.208,0,14.415,4.8,7.208,0,0" fill="#112e4c"/>
          </g>
        </g>
      </g>
      <g id="Grupo_1025490" data-name="Grupo 1025490" transform="translate(1059.211 2721)">
        <path id="Trazado_742704-3" data-name="Trazado 742704" d="M-7647.208-8893.5h50.934" transform="translate(7647.208 8902)" fill="#112e4c" stroke="#112e4c" stroke-width="2"/>
        <g id="Grupo_1025476-3" data-name="Grupo 1025476" transform="translate(40.764 0.892)">
          <g id="Grupo_1023424-3" data-name="Grupo 1023424" transform="translate(0 0)" clip-path="url(#clip-path-2)">
            <path id="Trazado_742703-3" data-name="Trazado 742703" d="M0,0,16.817,7.208,0,14.415,4.8,7.208,0,0" fill="#112e4c"/>
          </g>
        </g>
      </g>
      <g id="Grupo_1025491" data-name="Grupo 1025491" transform="translate(1193.211 2721)">
        <path id="Trazado_742704-4" data-name="Trazado 742704" d="M-7647.208-8893.5h50.934" transform="translate(7647.208 8902)" fill="#112e4c" stroke="#112e4c" stroke-width="2"/>
        <g id="Grupo_1025476-4" data-name="Grupo 1025476" transform="translate(40.764 0.892)">
          <g id="Grupo_1023424-4" data-name="Grupo 1023424" transform="translate(0 0)" clip-path="url(#clip-path-2)">
            <path id="Trazado_742703-4" data-name="Trazado 742703" d="M0,0,16.817,7.208,0,14.415,4.8,7.208,0,0" fill="#112e4c"/>
          </g>
        </g>
      </g>
      <rect id="Rectángulo_373316" data-name="Rectángulo 373316" width="82" height="30" rx="4" transform="translate(722 2714)" fill="#4b4e6a"/>
      <path id="Trazado_746549" data-name="Trazado 746549" d="M2.82,10.547V15H1.32V3.625h4.2a4.215,4.215,0,0,1,2.926.953A3.231,3.231,0,0,1,9.5,7.1,3.189,3.189,0,0,1,8.465,9.652a4.4,4.4,0,0,1-2.965.895Zm0-1.227h2.7a2.7,2.7,0,0,0,1.844-.567A2.075,2.075,0,0,0,8,7.113a2.143,2.143,0,0,0-.641-1.628A2.525,2.525,0,0,0,5.6,4.852H2.82ZM16.32,15a3.036,3.036,0,0,1-.2-.891,3.225,3.225,0,0,1-2.406,1.047,2.984,2.984,0,0,1-2.051-.707,2.287,2.287,0,0,1-.8-1.793,2.39,2.39,0,0,1,1-2.051,4.733,4.733,0,0,1,2.824-.73h1.406V9.211A1.623,1.623,0,0,0,15.641,8,1.821,1.821,0,0,0,14.3,7.555a2.107,2.107,0,0,0-1.3.391,1.151,1.151,0,0,0-.523.945H11.031a2,2,0,0,1,.449-1.223A3.066,3.066,0,0,1,12.7,6.734a4.1,4.1,0,0,1,1.691-.344,3.342,3.342,0,0,1,2.289.73,2.635,2.635,0,0,1,.859,2.012v3.891a4.757,4.757,0,0,0,.3,1.852V15Zm-2.4-1.1a2.54,2.54,0,0,0,1.289-.352,2.127,2.127,0,0,0,.883-.914V10.9H14.961q-2.656,0-2.656,1.555a1.316,1.316,0,0,0,.453,1.063A1.742,1.742,0,0,0,13.922,13.9ZM15.258,3h1.75L14.914,5.3l-1.164,0Zm4.2,7.7a4.968,4.968,0,0,1,.914-3.145,3.151,3.151,0,0,1,4.836-.074l.07-.937H26.6V14.8a3.439,3.439,0,0,1-.973,2.586,3.589,3.589,0,0,1-2.613.945,4.348,4.348,0,0,1-1.789-.391,3.08,3.08,0,0,1-1.336-1.07l.75-.867a2.826,2.826,0,0,0,2.273,1.148,2.214,2.214,0,0,0,1.645-.594,2.269,2.269,0,0,0,.59-1.672v-.727a2.971,2.971,0,0,1-2.367,1,2.887,2.887,0,0,1-2.4-1.2A5.224,5.224,0,0,1,19.461,10.7Zm1.453.164a3.79,3.79,0,0,0,.586,2.246,1.9,1.9,0,0,0,1.641.816,2.117,2.117,0,0,0,2.008-1.242V8.828a2.142,2.142,0,0,0-1.992-1.211,1.921,1.921,0,0,0-1.648.82A4.128,4.128,0,0,0,20.914,10.867ZM30.352,15H28.906V6.547h1.445ZM28.789,4.3A.863.863,0,0,1,29,3.711a.807.807,0,0,1,.637-.242.819.819,0,0,1,.641.242A.854.854,0,0,1,30.5,4.3a.826.826,0,0,1-.219.586.834.834,0,0,1-.641.234A.821.821,0,0,1,29,4.891.834.834,0,0,1,28.789,4.3Zm5.242,2.242.047,1.063a3.08,3.08,0,0,1,2.531-1.219q2.68,0,2.7,3.023V15H37.867V9.406a1.946,1.946,0,0,0-.418-1.352,1.675,1.675,0,0,0-1.277-.437,2.086,2.086,0,0,0-1.234.375,2.546,2.546,0,0,0-.828.984V15H32.664V6.547ZM46.711,15a3.036,3.036,0,0,1-.2-.891A3.225,3.225,0,0,1,44.1,15.156a2.984,2.984,0,0,1-2.051-.707,2.287,2.287,0,0,1-.8-1.793,2.39,2.39,0,0,1,1-2.051,4.733,4.733,0,0,1,2.824-.73h1.406V9.211A1.623,1.623,0,0,0,46.031,8,1.821,1.821,0,0,0,44.7,7.555a2.107,2.107,0,0,0-1.3.391,1.151,1.151,0,0,0-.523.945H41.422a2,2,0,0,1,.449-1.223,3.066,3.066,0,0,1,1.219-.934,4.1,4.1,0,0,1,1.691-.344,3.342,3.342,0,0,1,2.289.73,2.635,2.635,0,0,1,.859,2.012v3.891a4.757,4.757,0,0,0,.3,1.852V15Zm-2.4-1.1a2.54,2.54,0,0,0,1.289-.352,2.127,2.127,0,0,0,.883-.914V10.9H45.352q-2.656,0-2.656,1.555a1.316,1.316,0,0,0,.453,1.063A1.742,1.742,0,0,0,44.313,13.9ZM58.758,15H57.3V5.367l-2.914,1.07V5.125L58.531,3.57h.227Z" transform="translate(732 2719)" fill="#fff"/>
      <rect id="Rectángulo_373299" data-name="Rectángulo 373299" width="82" height="30" rx="4" transform="translate(856 2714)" fill="#4b4e6a"/>
      <path id="Trazado_746550" data-name="Trazado 746550" d="M2.82,10.547V15H1.32V3.625h4.2a4.215,4.215,0,0,1,2.926.953A3.231,3.231,0,0,1,9.5,7.1,3.189,3.189,0,0,1,8.465,9.652a4.4,4.4,0,0,1-2.965.895Zm0-1.227h2.7a2.7,2.7,0,0,0,1.844-.567A2.075,2.075,0,0,0,8,7.113a2.143,2.143,0,0,0-.641-1.628A2.525,2.525,0,0,0,5.6,4.852H2.82ZM16.32,15a3.036,3.036,0,0,1-.2-.891,3.225,3.225,0,0,1-2.406,1.047,2.984,2.984,0,0,1-2.051-.707,2.287,2.287,0,0,1-.8-1.793,2.39,2.39,0,0,1,1-2.051,4.733,4.733,0,0,1,2.824-.73h1.406V9.211A1.623,1.623,0,0,0,15.641,8,1.821,1.821,0,0,0,14.3,7.555a2.107,2.107,0,0,0-1.3.391,1.151,1.151,0,0,0-.523.945H11.031a2,2,0,0,1,.449-1.223A3.066,3.066,0,0,1,12.7,6.734a4.1,4.1,0,0,1,1.691-.344,3.342,3.342,0,0,1,2.289.73,2.635,2.635,0,0,1,.859,2.012v3.891a4.757,4.757,0,0,0,.3,1.852V15Zm-2.4-1.1a2.54,2.54,0,0,0,1.289-.352,2.127,2.127,0,0,0,.883-.914V10.9H14.961q-2.656,0-2.656,1.555a1.316,1.316,0,0,0,.453,1.063A1.742,1.742,0,0,0,13.922,13.9ZM15.258,3h1.75L14.914,5.3l-1.164,0Zm4.2,7.7a4.968,4.968,0,0,1,.914-3.145,3.151,3.151,0,0,1,4.836-.074l.07-.937H26.6V14.8a3.439,3.439,0,0,1-.973,2.586,3.589,3.589,0,0,1-2.613.945,4.348,4.348,0,0,1-1.789-.391,3.08,3.08,0,0,1-1.336-1.07l.75-.867a2.826,2.826,0,0,0,2.273,1.148,2.214,2.214,0,0,0,1.645-.594,2.269,2.269,0,0,0,.59-1.672v-.727a2.971,2.971,0,0,1-2.367,1,2.887,2.887,0,0,1-2.4-1.2A5.224,5.224,0,0,1,19.461,10.7Zm1.453.164a3.79,3.79,0,0,0,.586,2.246,1.9,1.9,0,0,0,1.641.816,2.117,2.117,0,0,0,2.008-1.242V8.828a2.142,2.142,0,0,0-1.992-1.211,1.921,1.921,0,0,0-1.648.82A4.128,4.128,0,0,0,20.914,10.867ZM30.352,15H28.906V6.547h1.445ZM28.789,4.3A.863.863,0,0,1,29,3.711a.807.807,0,0,1,.637-.242.819.819,0,0,1,.641.242A.854.854,0,0,1,30.5,4.3a.826.826,0,0,1-.219.586.834.834,0,0,1-.641.234A.821.821,0,0,1,29,4.891.834.834,0,0,1,28.789,4.3Zm5.242,2.242.047,1.063a3.08,3.08,0,0,1,2.531-1.219q2.68,0,2.7,3.023V15H37.867V9.406a1.946,1.946,0,0,0-.418-1.352,1.675,1.675,0,0,0-1.277-.437,2.086,2.086,0,0,0-1.234.375,2.546,2.546,0,0,0-.828.984V15H32.664V6.547ZM46.711,15a3.036,3.036,0,0,1-.2-.891A3.225,3.225,0,0,1,44.1,15.156a2.984,2.984,0,0,1-2.051-.707,2.287,2.287,0,0,1-.8-1.793,2.39,2.39,0,0,1,1-2.051,4.733,4.733,0,0,1,2.824-.73h1.406V9.211A1.623,1.623,0,0,0,46.031,8,1.821,1.821,0,0,0,44.7,7.555a2.107,2.107,0,0,0-1.3.391,1.151,1.151,0,0,0-.523.945H41.422a2,2,0,0,1,.449-1.223,3.066,3.066,0,0,1,1.219-.934,4.1,4.1,0,0,1,1.691-.344,3.342,3.342,0,0,1,2.289.73,2.635,2.635,0,0,1,.859,2.012v3.891a4.757,4.757,0,0,0,.3,1.852V15Zm-2.4-1.1a2.54,2.54,0,0,0,1.289-.352,2.127,2.127,0,0,0,.883-.914V10.9H45.352q-2.656,0-2.656,1.555a1.316,1.316,0,0,0,.453,1.063A1.742,1.742,0,0,0,44.313,13.9ZM61.461,15H54.008V13.961l3.938-4.375a9.355,9.355,0,0,0,1.207-1.613,2.693,2.693,0,0,0,.332-1.285,2.041,2.041,0,0,0-.539-1.461,1.885,1.885,0,0,0-1.437-.57,2.232,2.232,0,0,0-1.676.613,2.343,2.343,0,0,0-.6,1.707H53.789A3.355,3.355,0,0,1,54.8,4.438a3.751,3.751,0,0,1,2.707-.969,3.6,3.6,0,0,1,2.508.832,2.838,2.838,0,0,1,.922,2.215q0,1.68-2.141,4l-3.047,3.3h5.711Z" transform="translate(865 2719)" fill="#fff"/>
      <rect id="Rectángulo_373301" data-name="Rectángulo 373301" width="82" height="30" rx="4" transform="translate(989 2714)" fill="#4b4e6a"/>
      <path id="Trazado_746551" data-name="Trazado 746551" d="M2.82,10.547V15H1.32V3.625h4.2a4.215,4.215,0,0,1,2.926.953A3.231,3.231,0,0,1,9.5,7.1,3.189,3.189,0,0,1,8.465,9.652a4.4,4.4,0,0,1-2.965.895Zm0-1.227h2.7a2.7,2.7,0,0,0,1.844-.567A2.075,2.075,0,0,0,8,7.113a2.143,2.143,0,0,0-.641-1.628A2.525,2.525,0,0,0,5.6,4.852H2.82ZM16.32,15a3.036,3.036,0,0,1-.2-.891,3.225,3.225,0,0,1-2.406,1.047,2.984,2.984,0,0,1-2.051-.707,2.287,2.287,0,0,1-.8-1.793,2.39,2.39,0,0,1,1-2.051,4.733,4.733,0,0,1,2.824-.73h1.406V9.211A1.623,1.623,0,0,0,15.641,8,1.821,1.821,0,0,0,14.3,7.555a2.107,2.107,0,0,0-1.3.391,1.151,1.151,0,0,0-.523.945H11.031a2,2,0,0,1,.449-1.223A3.066,3.066,0,0,1,12.7,6.734a4.1,4.1,0,0,1,1.691-.344,3.342,3.342,0,0,1,2.289.73,2.635,2.635,0,0,1,.859,2.012v3.891a4.757,4.757,0,0,0,.3,1.852V15Zm-2.4-1.1a2.54,2.54,0,0,0,1.289-.352,2.127,2.127,0,0,0,.883-.914V10.9H14.961q-2.656,0-2.656,1.555a1.316,1.316,0,0,0,.453,1.063A1.742,1.742,0,0,0,13.922,13.9ZM15.258,3h1.75L14.914,5.3l-1.164,0Zm4.2,7.7a4.968,4.968,0,0,1,.914-3.145,3.151,3.151,0,0,1,4.836-.074l.07-.937H26.6V14.8a3.439,3.439,0,0,1-.973,2.586,3.589,3.589,0,0,1-2.613.945,4.348,4.348,0,0,1-1.789-.391,3.08,3.08,0,0,1-1.336-1.07l.75-.867a2.826,2.826,0,0,0,2.273,1.148,2.214,2.214,0,0,0,1.645-.594,2.269,2.269,0,0,0,.59-1.672v-.727a2.971,2.971,0,0,1-2.367,1,2.887,2.887,0,0,1-2.4-1.2A5.224,5.224,0,0,1,19.461,10.7Zm1.453.164a3.79,3.79,0,0,0,.586,2.246,1.9,1.9,0,0,0,1.641.816,2.117,2.117,0,0,0,2.008-1.242V8.828a2.142,2.142,0,0,0-1.992-1.211,1.921,1.921,0,0,0-1.648.82A4.128,4.128,0,0,0,20.914,10.867ZM30.352,15H28.906V6.547h1.445ZM28.789,4.3A.863.863,0,0,1,29,3.711a.807.807,0,0,1,.637-.242.819.819,0,0,1,.641.242A.854.854,0,0,1,30.5,4.3a.826.826,0,0,1-.219.586.834.834,0,0,1-.641.234A.821.821,0,0,1,29,4.891.834.834,0,0,1,28.789,4.3Zm5.242,2.242.047,1.063a3.08,3.08,0,0,1,2.531-1.219q2.68,0,2.7,3.023V15H37.867V9.406a1.946,1.946,0,0,0-.418-1.352,1.675,1.675,0,0,0-1.277-.437,2.086,2.086,0,0,0-1.234.375,2.546,2.546,0,0,0-.828.984V15H32.664V6.547ZM46.711,15a3.036,3.036,0,0,1-.2-.891A3.225,3.225,0,0,1,44.1,15.156a2.984,2.984,0,0,1-2.051-.707,2.287,2.287,0,0,1-.8-1.793,2.39,2.39,0,0,1,1-2.051,4.733,4.733,0,0,1,2.824-.73h1.406V9.211A1.623,1.623,0,0,0,46.031,8,1.821,1.821,0,0,0,44.7,7.555a2.107,2.107,0,0,0-1.3.391,1.151,1.151,0,0,0-.523.945H41.422a2,2,0,0,1,.449-1.223,3.066,3.066,0,0,1,1.219-.934,4.1,4.1,0,0,1,1.691-.344,3.342,3.342,0,0,1,2.289.73,2.635,2.635,0,0,1,.859,2.012v3.891a4.757,4.757,0,0,0,.3,1.852V15Zm-2.4-1.1a2.54,2.54,0,0,0,1.289-.352,2.127,2.127,0,0,0,.883-.914V10.9H45.352q-2.656,0-2.656,1.555a1.316,1.316,0,0,0,.453,1.063A1.742,1.742,0,0,0,44.313,13.9Zm11.8-5.289H57.2A2.387,2.387,0,0,0,58.8,8.07a1.8,1.8,0,0,0,.586-1.414,1.764,1.764,0,0,0-1.992-2,2.072,2.072,0,0,0-1.5.535,1.873,1.873,0,0,0-.559,1.418H53.9a2.9,2.9,0,0,1,.988-2.246A3.6,3.6,0,0,1,57.4,3.469a3.558,3.558,0,0,1,2.523.852,3.076,3.076,0,0,1,.914,2.367,2.5,2.5,0,0,1-.48,1.438,2.9,2.9,0,0,1-1.309,1.039,2.8,2.8,0,0,1,1.449.984,2.734,2.734,0,0,1,.512,1.68,3.1,3.1,0,0,1-1,2.43,3.745,3.745,0,0,1-2.6.9,3.844,3.844,0,0,1-2.605-.867A2.877,2.877,0,0,1,53.8,12H55.25a1.859,1.859,0,0,0,.586,1.438,2.229,2.229,0,0,0,1.57.539,2.187,2.187,0,0,0,1.6-.547,2.108,2.108,0,0,0,.555-1.57,1.912,1.912,0,0,0-.609-1.523A2.655,2.655,0,0,0,57.2,9.789H56.109Z" transform="translate(999 2719)" fill="#fff"/>
      <rect id="Rectángulo_373302" data-name="Rectángulo 373302" width="82" height="30" rx="4" transform="translate(1122 2714)" fill="#4b4e6a"/>
      <path id="Trazado_746552" data-name="Trazado 746552" d="M2.82,10.547V15H1.32V3.625h4.2a4.215,4.215,0,0,1,2.926.953A3.231,3.231,0,0,1,9.5,7.1,3.189,3.189,0,0,1,8.465,9.652a4.4,4.4,0,0,1-2.965.895Zm0-1.227h2.7a2.7,2.7,0,0,0,1.844-.567A2.075,2.075,0,0,0,8,7.113a2.143,2.143,0,0,0-.641-1.628A2.525,2.525,0,0,0,5.6,4.852H2.82ZM16.32,15a3.036,3.036,0,0,1-.2-.891,3.225,3.225,0,0,1-2.406,1.047,2.984,2.984,0,0,1-2.051-.707,2.287,2.287,0,0,1-.8-1.793,2.39,2.39,0,0,1,1-2.051,4.733,4.733,0,0,1,2.824-.73h1.406V9.211A1.623,1.623,0,0,0,15.641,8,1.821,1.821,0,0,0,14.3,7.555a2.107,2.107,0,0,0-1.3.391,1.151,1.151,0,0,0-.523.945H11.031a2,2,0,0,1,.449-1.223A3.066,3.066,0,0,1,12.7,6.734a4.1,4.1,0,0,1,1.691-.344,3.342,3.342,0,0,1,2.289.73,2.635,2.635,0,0,1,.859,2.012v3.891a4.757,4.757,0,0,0,.3,1.852V15Zm-2.4-1.1a2.54,2.54,0,0,0,1.289-.352,2.127,2.127,0,0,0,.883-.914V10.9H14.961q-2.656,0-2.656,1.555a1.316,1.316,0,0,0,.453,1.063A1.742,1.742,0,0,0,13.922,13.9ZM15.258,3h1.75L14.914,5.3l-1.164,0Zm4.2,7.7a4.968,4.968,0,0,1,.914-3.145,3.151,3.151,0,0,1,4.836-.074l.07-.937H26.6V14.8a3.439,3.439,0,0,1-.973,2.586,3.589,3.589,0,0,1-2.613.945,4.348,4.348,0,0,1-1.789-.391,3.08,3.08,0,0,1-1.336-1.07l.75-.867a2.826,2.826,0,0,0,2.273,1.148,2.214,2.214,0,0,0,1.645-.594,2.269,2.269,0,0,0,.59-1.672v-.727a2.971,2.971,0,0,1-2.367,1,2.887,2.887,0,0,1-2.4-1.2A5.224,5.224,0,0,1,19.461,10.7Zm1.453.164a3.79,3.79,0,0,0,.586,2.246,1.9,1.9,0,0,0,1.641.816,2.117,2.117,0,0,0,2.008-1.242V8.828a2.142,2.142,0,0,0-1.992-1.211,1.921,1.921,0,0,0-1.648.82A4.128,4.128,0,0,0,20.914,10.867ZM30.352,15H28.906V6.547h1.445ZM28.789,4.3A.863.863,0,0,1,29,3.711a.807.807,0,0,1,.637-.242.819.819,0,0,1,.641.242A.854.854,0,0,1,30.5,4.3a.826.826,0,0,1-.219.586.834.834,0,0,1-.641.234A.821.821,0,0,1,29,4.891.834.834,0,0,1,28.789,4.3Zm5.242,2.242.047,1.063a3.08,3.08,0,0,1,2.531-1.219q2.68,0,2.7,3.023V15H37.867V9.406a1.946,1.946,0,0,0-.418-1.352,1.675,1.675,0,0,0-1.277-.437,2.086,2.086,0,0,0-1.234.375,2.546,2.546,0,0,0-.828.984V15H32.664V6.547ZM46.711,15a3.036,3.036,0,0,1-.2-.891A3.225,3.225,0,0,1,44.1,15.156a2.984,2.984,0,0,1-2.051-.707,2.287,2.287,0,0,1-.8-1.793,2.39,2.39,0,0,1,1-2.051,4.733,4.733,0,0,1,2.824-.73h1.406V9.211A1.623,1.623,0,0,0,46.031,8,1.821,1.821,0,0,0,44.7,7.555a2.107,2.107,0,0,0-1.3.391,1.151,1.151,0,0,0-.523.945H41.422a2,2,0,0,1,.449-1.223,3.066,3.066,0,0,1,1.219-.934,4.1,4.1,0,0,1,1.691-.344,3.342,3.342,0,0,1,2.289.73,2.635,2.635,0,0,1,.859,2.012v3.891a4.757,4.757,0,0,0,.3,1.852V15Zm-2.4-1.1a2.54,2.54,0,0,0,1.289-.352,2.127,2.127,0,0,0,.883-.914V10.9H45.352q-2.656,0-2.656,1.555a1.316,1.316,0,0,0,.453,1.063A1.742,1.742,0,0,0,44.313,13.9Zm15.8-2.719h1.578v1.18H60.109V15H58.656V12.359h-5.18v-.852L58.57,3.625h1.539Zm-4.992,0h3.539V5.6l-.172.313Z" transform="translate(1133 2719)" fill="#fff"/>
      <rect id="Rectángulo_373306" data-name="Rectángulo 373306" width="82" height="30" rx="4" transform="translate(1256 2714)" fill="#4b4e6a"/>
      <path id="Trazado_746553" data-name="Trazado 746553" d="M2.82,10.547V15H1.32V3.625h4.2a4.215,4.215,0,0,1,2.926.953A3.231,3.231,0,0,1,9.5,7.1,3.189,3.189,0,0,1,8.465,9.652a4.4,4.4,0,0,1-2.965.895Zm0-1.227h2.7a2.7,2.7,0,0,0,1.844-.567A2.075,2.075,0,0,0,8,7.113a2.143,2.143,0,0,0-.641-1.628A2.525,2.525,0,0,0,5.6,4.852H2.82ZM16.32,15a3.036,3.036,0,0,1-.2-.891,3.225,3.225,0,0,1-2.406,1.047,2.984,2.984,0,0,1-2.051-.707,2.287,2.287,0,0,1-.8-1.793,2.39,2.39,0,0,1,1-2.051,4.733,4.733,0,0,1,2.824-.73h1.406V9.211A1.623,1.623,0,0,0,15.641,8,1.821,1.821,0,0,0,14.3,7.555a2.107,2.107,0,0,0-1.3.391,1.151,1.151,0,0,0-.523.945H11.031a2,2,0,0,1,.449-1.223A3.066,3.066,0,0,1,12.7,6.734a4.1,4.1,0,0,1,1.691-.344,3.342,3.342,0,0,1,2.289.73,2.635,2.635,0,0,1,.859,2.012v3.891a4.757,4.757,0,0,0,.3,1.852V15Zm-2.4-1.1a2.54,2.54,0,0,0,1.289-.352,2.127,2.127,0,0,0,.883-.914V10.9H14.961q-2.656,0-2.656,1.555a1.316,1.316,0,0,0,.453,1.063A1.742,1.742,0,0,0,13.922,13.9ZM15.258,3h1.75L14.914,5.3l-1.164,0Zm4.2,7.7a4.968,4.968,0,0,1,.914-3.145,3.151,3.151,0,0,1,4.836-.074l.07-.937H26.6V14.8a3.439,3.439,0,0,1-.973,2.586,3.589,3.589,0,0,1-2.613.945,4.348,4.348,0,0,1-1.789-.391,3.08,3.08,0,0,1-1.336-1.07l.75-.867a2.826,2.826,0,0,0,2.273,1.148,2.214,2.214,0,0,0,1.645-.594,2.269,2.269,0,0,0,.59-1.672v-.727a2.971,2.971,0,0,1-2.367,1,2.887,2.887,0,0,1-2.4-1.2A5.224,5.224,0,0,1,19.461,10.7Zm1.453.164a3.79,3.79,0,0,0,.586,2.246,1.9,1.9,0,0,0,1.641.816,2.117,2.117,0,0,0,2.008-1.242V8.828a2.142,2.142,0,0,0-1.992-1.211,1.921,1.921,0,0,0-1.648.82A4.128,4.128,0,0,0,20.914,10.867ZM30.352,15H28.906V6.547h1.445ZM28.789,4.3A.863.863,0,0,1,29,3.711a.807.807,0,0,1,.637-.242.819.819,0,0,1,.641.242A.854.854,0,0,1,30.5,4.3a.826.826,0,0,1-.219.586.834.834,0,0,1-.641.234A.821.821,0,0,1,29,4.891.834.834,0,0,1,28.789,4.3Zm5.242,2.242.047,1.063a3.08,3.08,0,0,1,2.531-1.219q2.68,0,2.7,3.023V15H37.867V9.406a1.946,1.946,0,0,0-.418-1.352,1.675,1.675,0,0,0-1.277-.437,2.086,2.086,0,0,0-1.234.375,2.546,2.546,0,0,0-.828.984V15H32.664V6.547ZM46.711,15a3.036,3.036,0,0,1-.2-.891A3.225,3.225,0,0,1,44.1,15.156a2.984,2.984,0,0,1-2.051-.707,2.287,2.287,0,0,1-.8-1.793,2.39,2.39,0,0,1,1-2.051,4.733,4.733,0,0,1,2.824-.73h1.406V9.211A1.623,1.623,0,0,0,46.031,8,1.821,1.821,0,0,0,44.7,7.555a2.107,2.107,0,0,0-1.3.391,1.151,1.151,0,0,0-.523.945H41.422a2,2,0,0,1,.449-1.223,3.066,3.066,0,0,1,1.219-.934,4.1,4.1,0,0,1,1.691-.344,3.342,3.342,0,0,1,2.289.73,2.635,2.635,0,0,1,.859,2.012v3.891a4.757,4.757,0,0,0,.3,1.852V15Zm-2.4-1.1a2.54,2.54,0,0,0,1.289-.352,2.127,2.127,0,0,0,.883-.914V10.9H45.352q-2.656,0-2.656,1.555a1.316,1.316,0,0,0,.453,1.063A1.742,1.742,0,0,0,44.313,13.9ZM54.672,9.3l.578-5.672h5.828V4.961h-4.6l-.344,3.1a3.671,3.671,0,0,1,1.9-.492A3.138,3.138,0,0,1,60.5,8.6a4.026,4.026,0,0,1,.914,2.777,3.886,3.886,0,0,1-.949,2.77,3.46,3.46,0,0,1-2.652,1.012,3.6,3.6,0,0,1-2.461-.836,3.337,3.337,0,0,1-1.086-2.312h1.367a2.3,2.3,0,0,0,.7,1.473,2.162,2.162,0,0,0,1.484.5,1.95,1.95,0,0,0,1.582-.687,2.874,2.874,0,0,0,.574-1.9,2.638,2.638,0,0,0-.621-1.832A2.113,2.113,0,0,0,57.7,8.867a2.383,2.383,0,0,0-1.484.414l-.383.313Z" transform="translate(1266 2719)" fill="#fff"/>
    </g>
  </g>
</svg>
