<svg xmlns="http://www.w3.org/2000/svg" xmlns:xlink="http://www.w3.org/1999/xlink" width="189.5" height="194.991" viewBox="0 0 189.5 194.991">
  <defs>
    <clipPath id="clip-path">
      <rect id="html-css-collage-concept-with-person" width="189.5" height="194.991" rx="13" transform="translate(180 4956.73)" fill="#f85f37" opacity="0.67"/>
    </clipPath>
    <clipPath id="clip-path-2">
      <rect id="Rectángulo_373334" data-name="Rectángulo 373334" width="51.832" height="28.187" fill="#fff" stroke="#707070" stroke-width="1" opacity="0.6"/>
    </clipPath>
    <filter id="Trazado_742733" x="6.152" y="-29.199" width="64.134" height="64.134" filterUnits="userSpaceOnUse">
      <feOffset dy="3" input="SourceAlpha"/>
      <feGaussianBlur stdDeviation="3" result="blur"/>
      <feFlood flood-opacity="0.161"/>
      <feComposite operator="in" in2="blur"/>
      <feComposite in="SourceGraphic"/>
    </filter>
    <filter id="Trazado_744401" x="79.401" y="36.649" width="104.054" height="77.801" filterUnits="userSpaceOnUse">
      <feOffset dy="3" input="SourceAlpha"/>
      <feGaussianBlur stdDeviation="3" result="blur-2"/>
      <feFlood flood-opacity="0.161"/>
      <feComposite operator="in" in2="blur-2"/>
      <feComposite in="SourceGraphic"/>
    </filter>
    <filter id="Trazado_744365" x="106.75" y="63.468" width="79.141" height="75.368" filterUnits="userSpaceOnUse">
      <feOffset dy="3" input="SourceAlpha"/>
      <feGaussianBlur stdDeviation="3" result="blur-3"/>
      <feFlood flood-opacity="0.161"/>
      <feComposite operator="in" in2="blur-3"/>
      <feComposite in="SourceGraphic"/>
    </filter>
  </defs>
  <g id="_15" data-name="15" transform="translate(-180 -4956.73)" clip-path="url(#clip-path)">
    <g id="Grupo_1023497" data-name="Grupo 1023497" transform="translate(0 4599.329)">
      <rect id="html-css-collage-concept-with-person-2" data-name="html-css-collage-concept-with-person" width="189.5" height="194.991" rx="13" transform="translate(180 357.401)" fill="#291e8b"/>
      <g id="Enmascarar_grupo_952212" data-name="Enmascarar grupo 952212" transform="translate(192.323 357.401)" clip-path="url(#clip-path-2)">
        <g transform="matrix(1, 0, 0, 1, -12.32, 0)" filter="url(#Trazado_742733)">
          <path id="Trazado_742733-2" data-name="Trazado 742733" d="M565.7,549.157a20.567,20.567,0,1,1,20.565-20.565A20.59,20.59,0,0,1,565.7,549.157m0-37.077a16.512,16.512,0,1,0,16.512,16.512A16.513,16.513,0,0,0,565.7,512.08" transform="translate(-527.48 -528.72)" fill="#37f871" stroke="#37f871" stroke-width="5"/>
        </g>
      </g>
    </g>
    <g id="_4085216" data-name="4085216" transform="translate(129.035 4985.369)">
      <path id="Trazado_744162" data-name="Trazado 744162" d="M85.306,61.722v-.471s-.122-.864-.838-.864H66.012a1.742,1.742,0,0,0-1.737,1.737V78.1a1.743,1.743,0,0,0,.96,1.554c-.515.131-1,.262-1.475.384V.253h.253V0H236.338V.253h.253V12.327h-.515V2.244A1.742,1.742,0,0,0,234.339.506H216.782a1.742,1.742,0,0,0-1.737,1.737V12.327h-.515V2.244A1.742,1.742,0,0,0,212.793.506H195.236A1.742,1.742,0,0,0,193.5,2.244V12.327h-.515V2.244A1.742,1.742,0,0,0,191.247.506H173.69a1.742,1.742,0,0,0-1.737,1.737V12.327h-.515V2.244A1.742,1.742,0,0,0,169.7.506H152.144a1.742,1.742,0,0,0-1.737,1.737V12.327h-.515V2.244A1.742,1.742,0,0,0,148.154.506H130.6a1.742,1.742,0,0,0-1.737,1.737v6.5c-.175.035-.34.079-.515.131V2.244A1.742,1.742,0,0,0,126.608.506H109.052a1.742,1.742,0,0,0-1.737,1.737v4.9c-.166-.017-.34-.026-.515-.044V2.244A1.742,1.742,0,0,0,105.062.506H87.506a1.742,1.742,0,0,0-1.737,1.737v7.7c-.175.061-.34.122-.515.183V2.244A1.742,1.742,0,0,0,83.516.506H65.96a1.742,1.742,0,0,0-1.737,1.737V18.22a1.742,1.742,0,0,0,1.737,1.737H77.92v.515H65.96a1.742,1.742,0,0,0-1.737,1.737V38.186a1.742,1.742,0,0,0,1.737,1.737H77.772l-.044.515H65.96a1.742,1.742,0,0,0-1.737,1.737V58.152a1.742,1.742,0,0,0,1.737,1.737H86.991a1.741,1.741,0,0,0,.873-.236c.122.41.244.838.367,1.266a1.72,1.72,0,0,0-1.24-.524h-.663a1.8,1.8,0,0,0-.559,1.475V76.144l-.515.035v-14.3a.242.242,0,0,1,0-.157h0Zm52.765,58.029h10.118a1.742,1.742,0,0,0,1.737-1.737V102.038a1.742,1.742,0,0,0-1.737-1.737H136.631l-.035-.515h11.6a1.742,1.742,0,0,0,1.737-1.737V91.37l.515-.044v6.722a1.742,1.742,0,0,0,1.737,1.737h17.556a1.742,1.742,0,0,0,1.737-1.737v-8.5L172,89.5v8.547a1.742,1.742,0,0,0,1.737,1.737H191.29a1.742,1.742,0,0,0,1.737-1.737V87.729l.515-.044V98.048a1.742,1.742,0,0,0,1.737,1.737h17.556a1.742,1.742,0,0,0,1.737-1.737V85.9l.515-.044V98.048a1.742,1.742,0,0,0,1.737,1.737h17.556a1.742,1.742,0,0,0,1.737-1.737V84.089l.515-.044V120h-.253v.253H138.15l-.035-.515h0Zm98.014-1.737V102.038a1.742,1.742,0,0,0-1.737-1.737H216.791a1.742,1.742,0,0,0-1.737,1.737v15.976a1.742,1.742,0,0,0,1.737,1.737h17.556a1.742,1.742,0,0,0,1.737-1.737Zm-21.537,0V102.038a1.742,1.742,0,0,0-1.737-1.737H195.254a1.742,1.742,0,0,0-1.737,1.737v15.976a1.742,1.742,0,0,0,1.737,1.737H212.81a1.742,1.742,0,0,0,1.737-1.737Zm-21.537,0V102.038a1.742,1.742,0,0,0-1.737-1.737H173.716a1.742,1.742,0,0,0-1.737,1.737v15.976a1.742,1.742,0,0,0,1.737,1.737h17.556a1.742,1.742,0,0,0,1.737-1.737Zm-21.537,0V102.038a1.742,1.742,0,0,0-1.737-1.737H152.179a1.742,1.742,0,0,0-1.737,1.737v15.976a1.742,1.742,0,0,0,1.737,1.737h17.556a1.742,1.742,0,0,0,1.737-1.737ZM139.485,80.344v-.515h-8.093v.515Zm0-19.957v-.515h-6.277l.017.515Zm0-19.957v-.515H132.92c-.044.166-.079.34-.113.515h6.679Zm0-19.957v-.515h-.864c.044.175.087.34.131.515h.733Z" transform="translate(-3.413)" fill="#fff" fill-rule="evenodd" opacity="0.31"/>
      <g id="Grupo_1024608" data-name="Grupo 1024608" transform="translate(139.367 14.011)">
        <g id="Grupo_1024605" data-name="Grupo 1024605">
          <g transform="matrix(1, 0, 0, 1, -88.4, -42.65)" filter="url(#Trazado_744401)">
            <path id="Trazado_744401-2" data-name="Trazado 744401" d="M10.02,0H76.034a10.02,10.02,0,0,1,10.02,10.02V49.781A10.02,10.02,0,0,1,76.034,59.8H10.02A10.02,10.02,0,0,1,0,49.781V10.02A10.02,10.02,0,0,1,10.02,0Z" transform="translate(88.4 42.65)" fill="#fff"/>
          </g>
          <g id="Grupo_1024604" data-name="Grupo 1024604" transform="translate(4.403 9.739)">
            <g id="Grupo_1024593" data-name="Grupo 1024593" transform="translate(0 5)">
              <path id="Trazado_744163" data-name="Trazado 744163" d="M165.041,113.742h28.2a1.155,1.155,0,0,0,1.151-1.151h0a1.155,1.155,0,0,0-1.151-1.151h-28.2a1.155,1.155,0,0,0-1.151,1.151h0A1.155,1.155,0,0,0,165.041,113.742Z" transform="translate(-163.89 -107.516)" fill="#2d334d" fill-rule="evenodd"/>
              <path id="Trazado_744164" data-name="Trazado 744164" d="M165.041,122.742h12.948a1.155,1.155,0,0,0,1.151-1.151h0a1.155,1.155,0,0,0-1.151-1.151H165.041a1.155,1.155,0,0,0-1.151,1.151h0A1.155,1.155,0,0,0,165.041,122.742Z" transform="translate(-163.89 -120.44)" fill="#2d334d" fill-rule="evenodd"/>
              <path id="Trazado_744165" data-name="Trazado 744165" d="M202.941,122.742h6.182a1.155,1.155,0,0,0,1.151-1.151h0a1.155,1.155,0,0,0-1.151-1.151h-6.182a1.155,1.155,0,0,0-1.151,1.151h0A1.155,1.155,0,0,0,202.941,122.742Z" transform="translate(-185.267 -120.44)" fill="#879aec" fill-rule="evenodd"/>
            </g>
            <g id="Grupo_1024597" data-name="Grupo 1024597" transform="translate(35.858)">
              <rect id="Rectángulo_374764" data-name="Rectángulo 374764" width="41.386" height="17.251" rx="4.34" transform="translate(0 0)" fill="#948ecb"/>
              <g id="Grupo_1024596" data-name="Grupo 1024596" transform="translate(2.886 2.533)">
                <path id="Trazado_744166" data-name="Trazado 744166" d="M254.914,120.663a2.151,2.151,0,1,0-2.154-2.154A2.149,2.149,0,0,0,254.914,120.663Z" transform="translate(-252.76 -108.09)" fill="#2d334d" fill-rule="evenodd"/>
                <g id="Grupo_1024594" data-name="Grupo 1024594" transform="translate(6.618 8.27)">
                  <path id="Trazado_744167" data-name="Trazado 744167" d="M268.821,118.121h25.294a.881.881,0,0,0,.881-.881h0a.881.881,0,0,0-.881-.881H268.821a.881.881,0,0,0-.881.881h0A.881.881,0,0,0,268.821,118.121Z" transform="translate(-267.94 -113.818)" fill="#fff"/>
                  <rect id="Rectángulo_374765" data-name="Rectángulo 374765" width="10.167" height="1.757" rx="0.878" transform="translate(0 0)" fill="#fff"/>
                  <rect id="Rectángulo_374766" data-name="Rectángulo 374766" width="6.012" height="1.757" rx="0.878" transform="translate(11.161 0)" fill="#2d334d"/>
                </g>
                <path id="Trazado_744168" data-name="Trazado 744168" d="M254.914,134.017a2.154,2.154,0,1,0-2.154-2.154A2.149,2.149,0,0,0,254.914,134.017Z" transform="translate(-252.76 -127.264)" fill="#2d334d" fill-rule="evenodd"/>
                <g id="Grupo_1024595" data-name="Grupo 1024595" transform="translate(6.614)">
                  <rect id="Rectángulo_374767" data-name="Rectángulo 374767" width="22.722" height="1.757" rx="0.878" transform="translate(0.004 4.996)" fill="#2d334d"/>
                  <path id="Trazado_744169" data-name="Trazado 744169" d="M268.815,137.311H282.4a.881.881,0,0,0,.881-.881h0a.881.881,0,0,0-.881-.881H268.811a.881.881,0,0,0-.881.881h0a.881.881,0,0,0,.881.881Z" transform="translate(-267.93 -133.104)" fill="#2d334d"/>
                  <path id="Trazado_744170" data-name="Trazado 744170" d="M268.821,142.921h2.489a.881.881,0,0,0,.881-.881h0a.881.881,0,0,0-.881-.881h-2.489a.881.881,0,0,0-.881.881h0A.881.881,0,0,0,268.821,142.921Z" transform="translate(-267.936 -141.16)" fill="#2d334d"/>
                  <path id="Trazado_744171" data-name="Trazado 744171" d="M306.021,137.311h8.405a.881.881,0,0,0,.881-.881h0a.881.881,0,0,0-.881-.881h-8.405a.881.881,0,0,0-.881.881h0A.881.881,0,0,0,306.021,137.311Z" transform="translate(-288.918 -133.104)" fill="#fff"/>
                </g>
              </g>
            </g>
            <g id="Grupo_1024598" data-name="Grupo 1024598" transform="translate(0.004 16.303)">
              <path id="Trazado_744328" data-name="Trazado 744328" d="M5.122,29.092H27.758A5.122,5.122,0,0,0,32.88,23.97V5.122A5.122,5.122,0,0,0,27.758,0H5.122A5.122,5.122,0,0,0,0,5.122V23.97A5.122,5.122,0,0,0,5.122,29.092Z" transform="translate(0 0)" fill="#f66a2d"/>
              <path id="Trazado_744172" data-name="Trazado 744172" d="M196.776,78.326V73.443a3.2,3.2,0,0,0-3.191-3.191H167.091a3.2,3.2,0,0,0-3.191,3.191v8.331l7.581,4.377a2.139,2.139,0,0,0,2.611-.344l7.769-7.769,8.2,4.735a2.139,2.139,0,0,0,2.611-.344l4.1-4.1Z" transform="translate(-163.9 -70.248)" fill="#c8c5e5" fill-rule="evenodd"/>
              <path id="Trazado_744173" data-name="Trazado 744173" d="M210.869,58.887a4.129,4.129,0,1,0-4.129-4.129A4.129,4.129,0,0,0,210.869,58.887Z" transform="translate(-188.063 -34.133)" fill="#fff" fill-rule="evenodd"/>
            </g>
            <g id="Grupo_1024603" data-name="Grupo 1024603" transform="translate(35.858 19.008)">
              <path id="Trazado_744329" data-name="Trazado 744329" d="M5.122,29.092H36.264a5.122,5.122,0,0,0,5.122-5.122V5.122A5.122,5.122,0,0,0,36.264,0H5.122A5.122,5.122,0,0,0,0,5.122V23.97A5.122,5.122,0,0,0,5.122,29.092Z" transform="translate(0 0)" fill="#d5cef8"/>
              <g id="Grupo_1024601" data-name="Grupo 1024601" transform="translate(1.827 4.229)">
                <g id="Grupo_1024599" data-name="Grupo 1024599" transform="translate(0 3.008)">
                  <path id="Trazado_744174" data-name="Trazado 744174" d="M252.633,64.951c2.781-1.051,3.7.3,4.73,1.8,1,1.474,2.1,3.087,4.883,3.087,2.633,0,3.636-2.258,4.621-4.473.881-1.979,1.744-3.915,3.767-3.915s3.161,2.559,4.395,5.258c1.391,3.043,2.86,6.252,5.772,6.509,3.039.27,4.294-1.809,5.463-3.745.924-1.53,1.792-2.969,3.479-2.886l.022-.51c-1.992-.1-2.934,1.465-3.941,3.13-1.09,1.8-2.258,3.741-4.979,3.5-2.616-.231-4.02-3.3-5.349-6.212-1.3-2.856-2.542-5.559-4.861-5.559s-3.283,2.088-4.233,4.22c-.92,2.062-1.857,4.168-4.159,4.168-2.511,0-3.531-1.5-4.46-2.86-1.147-1.683-2.171-3.187-5.332-1.992l.179.475Z" transform="translate(-251.526 -60.216)" fill="#2d334d" fill-rule="evenodd"/>
                  <path id="Trazado_744175" data-name="Trazado 744175" d="M251.346,80.2a1.016,1.016,0,1,0-1.016-1.016A1.014,1.014,0,0,0,251.346,80.2Z" transform="translate(-250.33 -74.691)" fill="#2d334d" fill-rule="evenodd"/>
                  <path id="Trazado_744176" data-name="Trazado 744176" d="M292.846,88.182a1.016,1.016,0,1,0-1.016-1.016A1.014,1.014,0,0,0,292.846,88.182Z" transform="translate(-273.738 -86.15)" fill="#2d334d" fill-rule="evenodd"/>
                  <path id="Trazado_744177" data-name="Trazado 744177" d="M317.216,61.142a1.016,1.016,0,1,0-1.016-1.016A1.014,1.014,0,0,0,317.216,61.142Z" transform="translate(-287.483 -47.322)" fill="#2d334d" fill-rule="evenodd"/>
                </g>
                <g id="Grupo_1024600" data-name="Grupo 1024600" transform="translate(0.301)">
                  <path id="Trazado_744178" data-name="Trazado 744178" d="M295.144,95.234h3.191a.345.345,0,0,0,.344-.344v-.074a.345.345,0,0,0-.344-.344h-3.191a.345.345,0,0,0-.344.344v.074a.345.345,0,0,0,.344.344Zm0-1.151h2.114a.345.345,0,0,0,.344-.344v-.074a.345.345,0,0,0-.344-.344h-2.114a.345.345,0,0,0-.344.344v.074A.345.345,0,0,0,295.144,94.083Z" transform="translate(-275.714 -93.32)" fill="#2d334d" fill-rule="evenodd"/>
                  <path id="Trazado_744179" data-name="Trazado 744179" d="M310.443,56.544h-3.209a.345.345,0,0,1-.344-.344v-.074a.345.345,0,0,1,.344-.344h3.209a.345.345,0,0,1,.344.344V56.2a.345.345,0,0,1-.344.344Zm0-1.151h-2.114a.345.345,0,0,1-.344-.344v-.074a.345.345,0,0,1,.344-.344h2.114a.345.345,0,0,1,.344.344v.074A.345.345,0,0,1,310.443,55.393Z" transform="translate(-282.533 -37.763)" fill="#2d334d" fill-rule="evenodd"/>
                  <path id="Trazado_744180" data-name="Trazado 744180" d="M251.364,87.424h3.209a.345.345,0,0,0,.344-.344v-.074a.345.345,0,0,0-.344-.344h-3.209a.345.345,0,0,0-.344.344v.074a.345.345,0,0,0,.344.344Zm0-1.151h2.114a.345.345,0,0,0,.344-.344v-.074a.345.345,0,0,0-.344-.344h-2.114a.345.345,0,0,0-.344.344v.074A.345.345,0,0,0,251.364,86.273Z" transform="translate(-251.02 -82.105)" fill="#2d334d" fill-rule="evenodd"/>
                </g>
              </g>
              <g id="Grupo_1024602" data-name="Grupo 1024602" transform="translate(2.537 22.557)">
                <path id="Trazado_744181" data-name="Trazado 744181" d="M253.111,46.982h8.628a1.155,1.155,0,0,0,1.151-1.151h0a1.155,1.155,0,0,0-1.151-1.151h-8.628a1.155,1.155,0,0,0-1.151,1.151h0A1.155,1.155,0,0,0,253.111,46.982Z" transform="translate(-251.96 -42.191)" fill="#fff" fill-rule="evenodd"/>
                <path id="Trazado_744182" data-name="Trazado 744182" d="M252.9,53.233h5.493a.943.943,0,0,0,.942-.942h0a.943.943,0,0,0-.942-.942H252.9a.943.943,0,0,0-.942.942h0A.943.943,0,0,0,252.9,53.233Z" transform="translate(-251.96 -51.35)" fill="#fff" fill-rule="evenodd"/>
                <path id="Trazado_744183" data-name="Trazado 744183" d="M280.151,46.982h2.476a1.155,1.155,0,0,0,1.151-1.151h0a1.155,1.155,0,0,0-1.151-1.151h-2.476A1.155,1.155,0,0,0,279,45.831h0A1.155,1.155,0,0,0,280.151,46.982Z" transform="translate(-267.212 -42.191)" fill="#fff" fill-rule="evenodd"/>
              </g>
            </g>
          </g>
        </g>
        <g id="Grupo_1024607" data-name="Grupo 1024607">
          <path id="Trazado_744184" data-name="Trazado 744184" d="M157.823,18.34h77.989a4.043,4.043,0,0,1,4.033,4.033v3.775H153.79V22.373A4.043,4.043,0,0,1,157.823,18.34Z" transform="translate(-153.79 -18.34)" fill="#2d334d" fill-rule="evenodd"/>
          <g id="Grupo_1024606" data-name="Grupo 1024606" transform="translate(3.658 1.604)">
            <path id="Trazado_744185" data-name="Trazado 744185" d="M164.482,22.02a2.3,2.3,0,1,1-2.3,2.3A2.3,2.3,0,0,1,164.482,22.02Z" transform="translate(-162.18 -22.02)" fill="#df6175" fill-rule="evenodd"/>
            <path id="Trazado_744186" data-name="Trazado 744186" d="M181.842,22.02a2.3,2.3,0,1,1-2.3,2.3A2.3,2.3,0,0,1,181.842,22.02Z" transform="translate(-171.972 -22.02)" fill="#f2d266" fill-rule="evenodd"/>
            <path id="Trazado_744187" data-name="Trazado 744187" d="M199.192,22.02a2.3,2.3,0,1,1-2.3,2.3A2.3,2.3,0,0,1,199.192,22.02Z" transform="translate(-181.758 -22.02)" fill="#699b9f" fill-rule="evenodd"/>
          </g>
        </g>
      </g>
      <g id="Grupo_1024628" data-name="Grupo 1024628" transform="translate(53.735 8.29)">
        <g id="Grupo_1024609" data-name="Grupo 1024609" transform="translate(0 72.178)">
          <path id="Trazado_744188" data-name="Trazado 744188" d="M139.109,146.882s-1.659-48.313-8-50.757S66.1,88.041,58.259,97.277s9.149,33.323,7.875,55.506l72.967-5.91Z" transform="translate(-56.187 -92.173)" fill="#fff" fill-rule="evenodd"/>
          <path id="Trazado_744189" data-name="Trazado 744189" d="M56.313,102.805c-1.449,11.244,10.921,31.708,9.83,50.757l19.215-1.554a144.31,144.31,0,0,0-4.688-21.983c-1.685-5.753-17.129-44.751-24.357-27.229Z" transform="translate(-56.188 -92.951)" fill="#6672d9" fill-rule="evenodd"/>
        </g>
        <g id="Grupo_1024624" data-name="Grupo 1024624" transform="translate(1.855)">
          <path id="Trazado_744190" data-name="Trazado 744190" d="M168.827,157.072s-9.6-46.549-22.559-47.283,1.292,54.956,1.292,54.956,4.094,2.872,12.554-.262,8.713-7.412,8.713-7.412Z" transform="translate(-68.789 -22.231)" fill="#fff" fill-rule="evenodd"/>
          <path id="Trazado_744191" data-name="Trazado 744191" d="M91.147,90.8c-2.636,6.583,5.421,19.294,17.844,19.084s19.582-12.633,10.048-21.153c-5.509-4.915-25.256-4.513-27.893,2.069Z" transform="translate(-62.417 -19.134)" fill="#f2d266" fill-rule="evenodd"/>
          <g id="Grupo_1024610" data-name="Grupo 1024610" transform="translate(5.829 74.708)">
            <path id="Trazado_744192" data-name="Trazado 744192" d="M116.079,95.83l18.412,9.542c2.794,1.449,20.525,32.1,21.555,73.045H78.81S63.7,115.324,65.077,111.387,95,95.07,95,95.07l21.083.768Z" transform="translate(-64.988 -95.07)" fill="#f66a2d" fill-rule="evenodd"/>
            <path id="Trazado_744193" data-name="Trazado 744193" d="M148.831,139.02a157.275,157.275,0,0,1,5.194,20.079,156.953,156.953,0,0,1,2.68,24.907H79.47s-5.247-21.921-9.28-40.735c9.97,11.026,25.3,22.506,46.567,23.886,6,.393,14.344.4,21.607-5.317,9.717-7.648,10.38-20.21,10.467-22.812Z" transform="translate(-65.649 -100.651)" fill="#e44f1c" fill-rule="evenodd"/>
            <path id="Trazado_744194" data-name="Trazado 744194" d="M98.169,105.4c5.325,6.722,23.912,16.762,25.152,2.462,0,0,.821,9.3-7.386,10.843S98.16,105.4,98.16,105.4Z" transform="translate(-69.2 -96.382)" fill="#c03f13" fill-rule="evenodd"/>
          </g>
          <g id="Grupo_1024620" data-name="Grupo 1024620" transform="translate(19.769)">
            <g id="Grupo_1024611" data-name="Grupo 1024611" transform="translate(9.145 40.976)">
              <path id="Trazado_744195" data-name="Trazado 744195" d="M91.43,57.417a173.386,173.386,0,0,1,6.923,32.738s15.854,16.858,20.429,9.612-8.46-39.452-8.46-39.452A21.618,21.618,0,0,0,91.43,57.417Z" transform="translate(-91.43 -56.432)" fill="#ebb2a1" fill-rule="evenodd"/>
              <path id="Trazado_744196" data-name="Trazado 744196" d="M120.053,89.729c-2.191-12.109-8.137-29.412-8.04-29.4A17.932,17.932,0,0,0,97.66,56.746L99.6,70.61S104.12,90.27,120.053,89.729Z" transform="translate(-92.221 -56.434)" fill="#d37b83" fill-rule="evenodd"/>
            </g>
            <g id="Grupo_1024619" data-name="Grupo 1024619">
              <path id="Trazado_744197" data-name="Trazado 744197" d="M90.379,48.357s-1.938-11.576-6.015-20.752.716-9.97,4.706-6.163c0,0,3.361-9.219,5.683-9.123s-1.606,5.675-1.606,5.675,18.368-15.531,32.206-4.6,9.507-.873,5.814.393c.541-2.654,5.194-2.217,8.18.96s8.783,19.844-7.91,23.537S90.379,48.349,90.379,48.349Z" transform="translate(-81.191 -9.496)" fill="#2d334d" stroke="#2d334d" stroke-miterlimit="2.61" stroke-width="0.22" fill-rule="evenodd"/>
              <g id="Grupo_1024612" data-name="Grupo 1024612" transform="translate(0 16.481)">
                <path id="Trazado_744198" data-name="Trazado 744198" d="M132.79,31.243S136.117,47.874,134.842,59s-7.621,18.089-13.689,18.77c-2.471.279-13.68,1.51-21.607-5.369-3.71-3.221-6.7-8.215-7.744-15.915,0,0-7.726,3.6-10.406-7.2-2.637-10.66,7.307-12.24,9.813-5.683a28.654,28.654,0,0,1,.812,4.688c3.553-5.867,2.9-15.077,2.9-15.077s13.663-9.42,37.863-1.982Z" transform="translate(-80.955 -28.374)" fill="#ebb2a1" fill-rule="evenodd"/>
                <path id="Trazado_744199" data-name="Trazado 744199" d="M134.4,31.244s.41,2.06.89,5.221a16.968,16.968,0,0,1-5.849-5.308c-9.193,13.8-31.219,4.723-31.219,4.723A20.281,20.281,0,0,1,93.64,48.3c3.553-5.867,2.9-15.077,2.9-15.077S110.2,23.806,134.4,31.244Z" transform="translate(-82.566 -28.375)" fill="#d37b83" fill-rule="evenodd"/>
                <path id="Trazado_744200" data-name="Trazado 744200" d="M91.825,58.717s-7.726,3.6-10.406-7.2c-.594-2.4-.847-5.474,2.593-5.6,3.623-.14,5.491,4.784,5.491,4.784-2.846-.035-2.444,5.954,2.087,5.352Z" transform="translate(-80.969 -30.6)" fill="#d37b83" fill-rule="evenodd"/>
              </g>
              <g id="Grupo_1024613" data-name="Grupo 1024613" transform="translate(11.65 14.103)">
                <path id="Trazado_744201" data-name="Trazado 744201" d="M131.587,27.265S129.037,41.207,95.9,34.441L94.3,28.4l20.088-2.75,17.19,1.615Z" transform="translate(-94.3 -25.65)" fill="#2d334d" fill-rule="evenodd"/>
                <path id="Trazado_744202" data-name="Trazado 744202" d="M130.449,28.75s-7.167,11.786-25.239,9.743C105.21,38.493,122.688,44.91,130.449,28.75Z" transform="translate(-95.685 -26.044)" fill="#2d334d" fill-rule="evenodd"/>
                <path id="Trazado_744203" data-name="Trazado 744203" d="M133.65,25.71s5.867,15.627,11.306,9.629S133.65,25.71,133.65,25.71Z" transform="translate(-99.297 -25.658)" fill="#2d334d" fill-rule="evenodd"/>
              </g>
              <g id="Grupo_1024618" data-name="Grupo 1024618" transform="translate(10.795 27.268)">
                <path id="Trazado_744204" data-name="Trazado 744204" d="M125.09,60.537s3.553,1.842,8.023-.917c0,0-1.283,4.548-3.431,4.706s-4.592-3.789-4.592-3.789Z" transform="translate(-97.354 -43.129)" fill="#d37b83" fill-rule="evenodd"/>
                <g id="Grupo_1024614" data-name="Grupo 1024614" transform="translate(20.472 23.807)">
                  <path id="Trazado_744205" data-name="Trazado 744205" d="M132.545,68s-8.006,2.148-15.775.035c0,0,.236,7.525,7.159,8.119S132.545,68,132.545,68Z" transform="translate(-116.77 -68)" fill="#d37b83" fill-rule="evenodd"/>
                  <path id="Trazado_744206" data-name="Trazado 744206" d="M118.6,73.625a7.083,7.083,0,0,0,5.552,3.187,6.763,6.763,0,0,0,2.5-.218A6.472,6.472,0,0,0,118.6,73.625Z" transform="translate(-117.002 -68.657)" fill="#b85263" fill-rule="evenodd"/>
                  <path id="Trazado_744207" data-name="Trazado 744207" d="M132.607,68.06a35.156,35.156,0,0,1-13.567.428,3.6,3.6,0,0,0,1,2.06c.934.576,7.857,2.06,11.087-.236A3.617,3.617,0,0,0,132.607,68.06Z" transform="translate(-117.058 -68.008)" fill="#fff" fill-rule="evenodd"/>
                </g>
                <g id="Grupo_1024617" data-name="Grupo 1024617">
                  <g id="Grupo_1024615" data-name="Grupo 1024615" transform="translate(14.955 1.659)">
                    <path id="Trazado_744208" data-name="Trazado 744208" d="M118.353,50.7a7.112,7.112,0,0,1,1.729,2.41s-3.431,2.034-9.542.6c0,0,1.17-5.194,7.813-3.012Z" transform="translate(-110.461 -43.587)" fill="#fff" fill-rule="evenodd"/>
                    <path id="Trazado_744209" data-name="Trazado 744209" d="M116.234,49.65a2.434,2.434,0,0,1,2.558,2.3,2.356,2.356,0,0,1-.952,1.982,14.32,14.32,0,0,1-2.654.236,2.377,2.377,0,0,1-1.327-2.025,2.439,2.439,0,0,1,2.375-2.488Z" transform="translate(-110.883 -43.521)" fill="#879aec" fill-rule="evenodd"/>
                    <path id="Trazado_744210" data-name="Trazado 744210" d="M116.357,50.21a1.965,1.965,0,0,1,1.825,2.06,2.3,2.3,0,0,1-.663,1.755,8.336,8.336,0,0,1-1.877.192,2.251,2.251,0,0,1-.952-1.807,1.965,1.965,0,0,1,1.659-2.191Z" transform="translate(-110.988 -43.592)" fill="#2d334d" fill-rule="evenodd"/>
                    <path id="Trazado_744211" data-name="Trazado 744211" d="M120.092,52.873c-.934-6.425-8.852-5.98-9.542.6,0,0,1.729-3.2,4.976-3.169a5.267,5.267,0,0,1,4.566,2.567Z" transform="translate(-110.463 -43.349)" fill="#2d334d" fill-rule="evenodd"/>
                    <path id="Trazado_744212" data-name="Trazado 744212" d="M114.137,51.86c.629-.026,1.152.218,1.161.55s-.489.611-1.117.637-1.152-.218-1.161-.55S113.509,51.886,114.137,51.86Z" transform="translate(-110.776 -43.802)" fill="#fff" fill-rule="evenodd"/>
                    <path id="Trazado_744213" data-name="Trazado 744213" d="M110.45,45.642l8.486-.332s.524-1.2-1.667-2.68C117.268,42.63,113.06,43.171,110.45,45.642Z" transform="translate(-110.45 -42.63)" fill="#2d334d" fill-rule="evenodd"/>
                  </g>
                  <g id="Grupo_1024616" data-name="Grupo 1024616" transform="translate(33.297 1.152)">
                    <path id="Trazado_744214" data-name="Trazado 744214" d="M132.884,50.147a7.091,7.091,0,0,0-1.414,2.532s3.317,1.781,8.852-.113c0,0-1.467-5.09-7.429-2.418Z" transform="translate(-131.461 -42.98)" fill="#fff" fill-rule="evenodd"/>
                    <path id="Trazado_744215" data-name="Trazado 744215" d="M135.371,48.91a2.346,2.346,0,0,0-2.191,2.479,2.427,2.427,0,0,0,1.03,1.9,12.53,12.53,0,0,0,2.462.035,2.41,2.41,0,0,0,1.074-2.121A2.336,2.336,0,0,0,135.371,48.91Z" transform="translate(-131.678 -42.921)" fill="#879aec" fill-rule="evenodd"/>
                    <path id="Trazado_744216" data-name="Trazado 744216" d="M135.487,49.47a1.915,1.915,0,0,0-1.528,2.183,2.367,2.367,0,0,0,.742,1.7,7,7,0,0,0,1.746.052,2.29,2.29,0,0,0,.742-1.877c-.044-1.17-.8-2.1-1.694-2.06Z" transform="translate(-131.777 -42.992)" fill="#2d334d" fill-rule="evenodd"/>
                    <path id="Trazado_744217" data-name="Trazado 744217" d="M131.46,52.444c.384-6.469,7.717-6.626,8.852-.113,0,0-1.833-3.056-4.828-2.785A4.921,4.921,0,0,0,131.46,52.444Z" transform="translate(-131.46 -42.744)" fill="#2d334d" fill-rule="evenodd"/>
                    <path id="Trazado_744218" data-name="Trazado 744218" d="M137.81,50.94c-.585.026-1.048.306-1.03.629s.5.567,1.083.55,1.048-.306,1.03-.629S138.4,50.922,137.81,50.94Z" transform="translate(-132.135 -43.179)" fill="#fff" fill-rule="evenodd"/>
                    <path id="Trazado_744219" data-name="Trazado 744219" d="M139.925,44.538l-7.857.306s-.576-1.161,1.336-2.794a12.263,12.263,0,0,1,6.513,2.488Z" transform="translate(-131.527 -42.05)" fill="#2d334d" fill-rule="evenodd"/>
                  </g>
                  <path id="Trazado_744220" data-name="Trazado 744220" d="M114.673,40.73a9.18,9.18,0,0,1,9.175,8.617,2.19,2.19,0,0,1,1.222-.044,9.175,9.175,0,1,1-.017.908,1.337,1.337,0,0,0-1.187.07,9.2,9.2,0,1,1-9.193-9.542h0Zm25.457,3.3a8.346,8.346,0,1,0,2.436,5.893,8.292,8.292,0,0,0-2.436-5.893Zm-19.564,0A8.346,8.346,0,1,0,123,49.923,8.292,8.292,0,0,0,120.566,44.03Z" transform="translate(-94.864 -40.73)" fill="#fff" fill-rule="evenodd"/>
                  <path id="Trazado_744221" data-name="Trazado 744221" d="M104.5,50.172l-11.087-.349-.1-.873,11.218.358Z" transform="translate(-93.32 -41.774)" fill="#fff" fill-rule="evenodd"/>
                </g>
              </g>
            </g>
          </g>
          <g id="Grupo_1024623" data-name="Grupo 1024623" transform="translate(0 89.585)">
            <g id="Grupo_1024621" data-name="Grupo 1024621">
              <path id="Trazado_744222" data-name="Trazado 744222" d="M84.488,161.418s-6.006-48.522-18.962-49.3-2.3,57.453-2.3,57.453,4.094,3.056,12.554-.279,8.713-7.875,8.713-7.875Z" transform="translate(-58.411 -112.111)" fill="#fff" fill-rule="evenodd"/>
              <path id="Trazado_744223" data-name="Trazado 744223" d="M86.22,168.967c-28.888-18.91-42.4,26.094-5.421,15.618Z" transform="translate(-58.311 -118.735)" fill="#fff" fill-rule="evenodd"/>
            </g>
            <g id="Grupo_1024622" data-name="Grupo 1024622" transform="translate(7.146 23.689)">
              <path id="Trazado_744224" data-name="Trazado 744224" d="M134.765,152.711l-.515-1.03c6.722-9.743,7.211-5.666,11.821-11.524,2.479-3.152,3.536,2.671,1.379,5.325-3.335,2.052-12.685,7.22-12.685,7.22Z" transform="translate(-75.1 -139.246)" fill="#d37b83" fill-rule="evenodd"/>
              <path id="Trazado_744225" data-name="Trazado 744225" d="M68.019,172.47c-5.9,12.842,6.722,12.947,14.492,10.651s45.964-19.451,45.964-19.451l-3.693-9.42C110.15,157.725,73.929,159.628,68.019,172.47Z" transform="translate(-66.496 -141.151)" fill="#ebb2a1" fill-rule="evenodd"/>
              <path id="Trazado_744226" data-name="Trazado 744226" d="M68.019,174.23c-5.9,12.842,6.722,12.947,14.492,10.651.524-.157,1.187-.375,1.956-.655-4.138.419-8.442.044-10.729-2.593-3.44-3.964-1.414-9.891.4-13.523A14.658,14.658,0,0,0,68.019,174.23Z" transform="translate(-66.496 -142.911)" fill="#d37b83" fill-rule="evenodd"/>
              <path id="Trazado_744227" data-name="Trazado 744227" d="M148.35,149.067l.777-3.117,11.175,2.907-.96,10.066-8.992,1.152Z" transform="translate(-76.89 -140.097)" fill="#d37b83" fill-rule="evenodd"/>
              <path id="Trazado_744228" data-name="Trazado 744228" d="M131.22,155.2,133,152.979l13.951-7.019s2.523,8.1,1.222,14.117c0,0-6.652,3.169-11.471,2.54L131.22,155.2Z" transform="translate(-74.715 -140.099)" fill="#ebb2a1" fill-rule="evenodd"/>
            </g>
          </g>
        </g>
        <g id="Grupo_1024627" data-name="Grupo 1024627" transform="translate(42.874 104.486)">
          <g id="Grupo_1024625" data-name="Grupo 1024625" transform="translate(0.832)">
            <path id="Trazado_744229" data-name="Trazado 744229" d="M161.285,189.925H108.363a2.12,2.12,0,0,1-2.113-2.113h0a2.12,2.12,0,0,1,2.113-2.113h52.922a2.12,2.12,0,0,1,2.113,2.113h0A2.12,2.12,0,0,1,161.285,189.925Z" transform="translate(-106.25 -136.357)" fill="#879aec" fill-rule="evenodd"/>
            <path id="Trazado_744230" data-name="Trazado 744230" d="M165.062,129.18h70.479a1.6,1.6,0,0,1,1.6,2.069l-11.279,49.439a2.768,2.768,0,0,1-2.54,2.069H152.84a1.6,1.6,0,0,1-1.6-2.069l11.279-49.439a2.768,2.768,0,0,1,2.54-2.069Z" transform="translate(-111.956 -129.18)" fill="#879aec" fill-rule="evenodd"/>
            <path id="Trazado_744231" data-name="Trazado 744231" d="M167.722,129.18H238.2a1.6,1.6,0,0,1,1.6,2.069l-11.279,49.439a2.768,2.768,0,0,1-2.54,2.069H155.5a1.6,1.6,0,0,1-1.6-2.069l11.279-49.439a2.768,2.768,0,0,1,2.54-2.069Z" transform="translate(-112.294 -129.18)" fill="#6672d9" fill-rule="evenodd"/>
            <path id="Trazado_744232" data-name="Trazado 744232" d="M206.559,151.17a6.209,6.209,0,0,1,6.268,7.587,9.407,9.407,0,0,1-8.9,7.587,6.213,6.213,0,0,1-6.268-7.587A9.407,9.407,0,0,1,206.559,151.17Z" transform="translate(-117.844 -131.972)" fill="#879aec" fill-rule="evenodd"/>
          </g>
          <g id="Grupo_1024626" data-name="Grupo 1024626" transform="translate(0 45.149)">
            <path id="Trazado_744233" data-name="Trazado 744233" d="M105.369,189.315h24.217s-2.41-8.137-9.83-8.363-15.3-.166-14.387,8.363Z" transform="translate(-105.296 -180.896)" fill="#6672d9" fill-rule="evenodd"/>
            <path id="Trazado_744234" data-name="Trazado 744234" d="M106.011,189.512H119.2C116.042,179.281,105.016,180.939,106.011,189.512Z" transform="translate(-105.379 -181.093)" fill="#2d334d" fill-rule="evenodd"/>
            <path id="Trazado_744235" data-name="Trazado 744235" d="M122.727,184.071a5.212,5.212,0,0,0-1.152-1.379.8.8,0,0,1-.279-.856.824.824,0,0,1,.663-.611,2.058,2.058,0,0,1,2.3,2.628.841.841,0,0,1-.69.629.817.817,0,0,1-.838-.4Z" transform="translate(-107.324 -180.933)" fill="#879aec" fill-rule="evenodd"/>
          </g>
        </g>
      </g>
      <g id="Grupo_1024629" data-name="Grupo 1024629" transform="translate(36.88 149.281)">
        <path id="Trazado_744236" data-name="Trazado 744236" d="M222.37,188.058H334.814s-12.2-26.662-28.181-13.331-21.136,12.039-28.041,4.8-21.267-7.508-27.771,1.432S235.684,177.5,222.37,188.058Z" transform="translate(-60.434 -170.994)" fill="#2d334d" fill-rule="evenodd"/>
        <path id="Trazado_744237" data-name="Trazado 744237" d="M85.245,188.833H36.88s5.474-12.4,14.492-11.707,11.244,10.433,18.019,8.809S79.143,178.758,85.245,188.833Z" transform="translate(-36.88 -171.769)" fill="#2d334d" fill-rule="evenodd"/>
      </g>
      <g id="Grupo_1024632" data-name="Grupo 1024632" transform="translate(147.167 25.521)">
        <g id="Grupo_1024605-2" data-name="Grupo 1024605">
          <path id="Trazado_744400" data-name="Trazado 744400" d="M10.02,0H76.034a10.02,10.02,0,0,1,10.02,10.02V49.781A10.02,10.02,0,0,1,76.034,59.8H10.02A10.02,10.02,0,0,1,0,49.781V10.02A10.02,10.02,0,0,1,10.02,0Z" fill="#fff"/>
          <g id="Grupo_1024604-2" data-name="Grupo 1024604" transform="translate(4.403 9.739)">
            <g id="Grupo_1024593-2" data-name="Grupo 1024593" transform="translate(0 30.849)">
              <path id="Trazado_744163-2" data-name="Trazado 744163" d="M165.041,111.44h28.2a1.155,1.155,0,0,1,1.151,1.151h0a1.155,1.155,0,0,1-1.151,1.151h-28.2a1.155,1.155,0,0,1-1.151-1.151h0A1.155,1.155,0,0,1,165.041,111.44Z" transform="translate(-163.89 -111.44)" fill="#2d334d" fill-rule="evenodd"/>
              <path id="Trazado_744164-2" data-name="Trazado 744164" d="M165.041,120.44h12.948a1.155,1.155,0,0,1,1.151,1.151h0a1.155,1.155,0,0,1-1.151,1.151H165.041a1.155,1.155,0,0,1-1.151-1.151h0A1.155,1.155,0,0,1,165.041,120.44Z" transform="translate(-163.89 -116.516)" fill="#2d334d" fill-rule="evenodd"/>
              <path id="Trazado_744165-2" data-name="Trazado 744165" d="M202.941,120.44h6.182a1.155,1.155,0,0,1,1.151,1.151h0a1.155,1.155,0,0,1-1.151,1.151h-6.182a1.155,1.155,0,0,1-1.151-1.151h0A1.155,1.155,0,0,1,202.941,120.44Z" transform="translate(-185.267 -116.516)" fill="#879aec" fill-rule="evenodd"/>
            </g>
            <g id="Grupo_1024597-2" data-name="Grupo 1024597" transform="translate(35.858 30.849)">
              <rect id="Rectángulo_374764-2" data-name="Rectángulo 374764" width="41.386" height="17.251" rx="4.34" fill="#948ecb"/>
              <g id="Grupo_1024596-2" data-name="Grupo 1024596" transform="translate(2.886 2.145)">
                <path id="Trazado_744166-2" data-name="Trazado 744166" d="M254.914,116.36a2.151,2.151,0,1,1-2.154,2.154A2.149,2.149,0,0,1,254.914,116.36Z" transform="translate(-252.76 -116.36)" fill="#2d334d" fill-rule="evenodd"/>
                <g id="Grupo_1024594-2" data-name="Grupo 1024594" transform="translate(6.618)">
                  <path id="Trazado_744167-2" data-name="Trazado 744167" d="M268.821,116.36h25.294a.881.881,0,0,1,.881.881h0a.881.881,0,0,1-.881.881H268.821a.881.881,0,0,1-.881-.881h0A.881.881,0,0,1,268.821,116.36Z" transform="translate(-267.94 -116.36)" fill="#fff"/>
                  <rect id="Rectángulo_374765-2" data-name="Rectángulo 374765" width="10.167" height="1.757" rx="0.878" transform="translate(0 2.546)" fill="#fff"/>
                  <rect id="Rectángulo_374766-2" data-name="Rectángulo 374766" width="6.012" height="1.757" rx="0.878" transform="translate(11.161 2.546)" fill="#2d334d"/>
                </g>
                <path id="Trazado_744168-2" data-name="Trazado 744168" d="M254.914,129.71a2.154,2.154,0,1,1-2.154,2.154A2.149,2.149,0,0,1,254.914,129.71Z" transform="translate(-252.76 -123.89)" fill="#2d334d" fill-rule="evenodd"/>
                <g id="Grupo_1024595-2" data-name="Grupo 1024595" transform="translate(6.614 5.82)">
                  <rect id="Rectángulo_374767-2" data-name="Rectángulo 374767" width="22.722" height="1.757" rx="0.878" transform="translate(0.004)" fill="#2d334d"/>
                  <path id="Trazado_744169-2" data-name="Trazado 744169" d="M268.815,135.55H282.4a.881.881,0,0,1,.881.881h0a.881.881,0,0,1-.881.881H268.811a.881.881,0,0,1-.881-.881h0a.881.881,0,0,1,.881-.881Z" transform="translate(-267.93 -133.004)" fill="#2d334d"/>
                  <path id="Trazado_744170-2" data-name="Trazado 744170" d="M268.821,141.16h2.489a.881.881,0,0,1,.881.881h0a.881.881,0,0,1-.881.881h-2.489a.881.881,0,0,1-.881-.881h0A.881.881,0,0,1,268.821,141.16Z" transform="translate(-267.936 -136.168)" fill="#2d334d"/>
                  <path id="Trazado_744171-2" data-name="Trazado 744171" d="M306.021,135.55h8.405a.881.881,0,0,1,.881.881h0a.881.881,0,0,1-.881.881h-8.405a.881.881,0,0,1-.881-.881h0A.881.881,0,0,1,306.021,135.55Z" transform="translate(-288.918 -133.004)" fill="#fff"/>
                </g>
              </g>
            </g>
            <g id="Grupo_1024598-2" data-name="Grupo 1024598" transform="translate(0.004)">
              <path id="Trazado_744328-2" data-name="Trazado 744328" d="M5.122,0H27.758A5.122,5.122,0,0,1,32.88,5.122V23.97a5.122,5.122,0,0,1-5.122,5.122H5.122A5.122,5.122,0,0,1,0,23.97V5.122A5.122,5.122,0,0,1,5.122,0Z" transform="translate(0)" fill="#f66a2d"/>
              <path id="Trazado_744172-2" data-name="Trazado 744172" d="M196.776,78.373v4.883a3.2,3.2,0,0,1-3.191,3.191H167.091a3.2,3.2,0,0,1-3.191-3.191V74.925l7.581-4.377a2.139,2.139,0,0,1,2.611.344l7.769,7.769,8.2-4.735a2.139,2.139,0,0,1,2.611.344l4.1,4.1Z" transform="translate(-163.9 -57.36)" fill="#fff" fill-rule="evenodd"/>
              <path id="Trazado_744173-2" data-name="Trazado 744173" d="M210.869,50.63a4.129,4.129,0,1,1-4.129,4.129A4.129,4.129,0,0,1,210.869,50.63Z" transform="translate(-188.063 -46.292)" fill="#fff" fill-rule="evenodd"/>
            </g>
            <g id="Grupo_1024603-2" data-name="Grupo 1024603" transform="translate(35.858)">
              <path id="Trazado_744329-2" data-name="Trazado 744329" d="M5.122,0H36.264a5.122,5.122,0,0,1,5.122,5.122V23.97a5.122,5.122,0,0,1-5.122,5.122H5.122A5.122,5.122,0,0,1,0,23.97V5.122A5.122,5.122,0,0,1,5.122,0Z" fill="#d5cef8"/>
              <g id="Grupo_1024601-2" data-name="Grupo 1024601" transform="translate(1.827 6.082)">
                <g id="Grupo_1024599-2" data-name="Grupo 1024599" transform="translate(0 1.953)">
                  <path id="Trazado_744174-2" data-name="Trazado 744174" d="M252.633,69.225c2.781,1.051,3.7-.3,4.73-1.8,1-1.474,2.1-3.087,4.883-3.087,2.633,0,3.636,2.258,4.621,4.473.881,1.979,1.744,3.915,3.767,3.915s3.161-2.559,4.394-5.258c1.391-3.043,2.86-6.252,5.772-6.509,3.039-.27,4.294,1.809,5.463,3.745.924,1.53,1.792,2.969,3.479,2.886l.022.51c-1.992.1-2.934-1.465-3.941-3.13-1.09-1.8-2.258-3.741-4.979-3.5-2.616.231-4.02,3.3-5.349,6.212-1.3,2.856-2.542,5.559-4.861,5.559s-3.283-2.088-4.233-4.22c-.92-2.062-1.857-4.168-4.159-4.168-2.511,0-3.531,1.5-4.46,2.86-1.147,1.683-2.171,3.187-5.332,1.992l.179-.475Z" transform="translate(-251.526 -60.14)" fill="#2d334d" fill-rule="evenodd"/>
                  <path id="Trazado_744175-2" data-name="Trazado 744175" d="M251.346,78.17a1.016,1.016,0,1,1-1.016,1.016A1.014,1.014,0,0,1,251.346,78.17Z" transform="translate(-250.33 -69.861)" fill="#2d334d" fill-rule="evenodd"/>
                  <path id="Trazado_744176-2" data-name="Trazado 744176" d="M292.846,86.15a1.016,1.016,0,1,1-1.016,1.016A1.014,1.014,0,0,1,292.846,86.15Z" transform="translate(-273.738 -74.362)" fill="#2d334d" fill-rule="evenodd"/>
                  <path id="Trazado_744177-2" data-name="Trazado 744177" d="M317.216,59.11a1.016,1.016,0,1,1-1.016,1.016A1.014,1.014,0,0,1,317.216,59.11Z" transform="translate(-287.483 -59.11)" fill="#2d334d" fill-rule="evenodd"/>
                </g>
                <g id="Grupo_1024600-2" data-name="Grupo 1024600" transform="translate(0.301)">
                  <path id="Trazado_744178-2" data-name="Trazado 744178" d="M295.144,93.32h3.191a.345.345,0,0,1,.344.344v.074a.345.345,0,0,1-.344.344h-3.191a.345.345,0,0,1-.344-.344v-.074a.345.345,0,0,1,.344-.344Zm0,1.151h2.114a.345.345,0,0,1,.344.344v.074a.345.345,0,0,1-.344.344h-2.114a.345.345,0,0,1-.344-.344v-.074A.345.345,0,0,1,295.144,94.471Z" transform="translate(-275.714 -76.453)" fill="#2d334d" fill-rule="evenodd"/>
                  <path id="Trazado_744179-2" data-name="Trazado 744179" d="M310.443,54.63h-3.209a.345.345,0,0,0-.344.344v.074a.345.345,0,0,0,.344.344h3.209a.345.345,0,0,0,.344-.344v-.074a.345.345,0,0,0-.344-.344Zm0,1.151h-2.114a.345.345,0,0,0-.344.344V56.2a.345.345,0,0,0,.344.344h2.114a.345.345,0,0,0,.344-.344v-.074A.345.345,0,0,0,310.443,55.781Z" transform="translate(-282.533 -54.63)" fill="#2d334d" fill-rule="evenodd"/>
                  <path id="Trazado_744180-2" data-name="Trazado 744180" d="M251.364,85.51h3.209a.345.345,0,0,1,.344.344v.074a.345.345,0,0,1-.344.344h-3.209a.345.345,0,0,1-.344-.344v-.074a.345.345,0,0,1,.344-.344Zm0,1.151h2.114a.345.345,0,0,1,.344.344v.074a.345.345,0,0,1-.344.344h-2.114a.345.345,0,0,1-.344-.344v-.074A.345.345,0,0,1,251.364,86.661Z" transform="translate(-251.02 -72.048)" fill="#2d334d" fill-rule="evenodd"/>
                </g>
              </g>
              <g id="Grupo_1024602-2" data-name="Grupo 1024602" transform="translate(2.537 1.744)">
                <path id="Trazado_744181-2" data-name="Trazado 744181" d="M253.111,44.68h8.628a1.155,1.155,0,0,1,1.151,1.151h0a1.155,1.155,0,0,1-1.151,1.151h-8.628a1.155,1.155,0,0,1-1.151-1.151h0A1.155,1.155,0,0,1,253.111,44.68Z" transform="translate(-251.96 -44.68)" fill="#fff" fill-rule="evenodd"/>
                <path id="Trazado_744182-2" data-name="Trazado 744182" d="M252.9,51.35h5.493a.943.943,0,0,1,.942.942h0a.943.943,0,0,1-.942.942H252.9a.943.943,0,0,1-.942-.942h0A.943.943,0,0,1,252.9,51.35Z" transform="translate(-251.96 -48.442)" fill="#fff" fill-rule="evenodd"/>
                <path id="Trazado_744183-2" data-name="Trazado 744183" d="M280.151,44.68h2.476a1.155,1.155,0,0,1,1.151,1.151h0a1.155,1.155,0,0,1-1.151,1.151h-2.476A1.155,1.155,0,0,1,279,45.831h0A1.155,1.155,0,0,1,280.151,44.68Z" transform="translate(-267.212 -44.68)" fill="#fff" fill-rule="evenodd"/>
              </g>
            </g>
          </g>
        </g>
        <g id="Grupo_1024607-2" data-name="Grupo 1024607">
          <path id="Trazado_744184-2" data-name="Trazado 744184" d="M157.823,18.34h77.989a4.043,4.043,0,0,1,4.033,4.033v3.775H153.79V22.373A4.043,4.043,0,0,1,157.823,18.34Z" transform="translate(-153.79 -18.34)" fill="#2d334d" fill-rule="evenodd"/>
          <g id="Grupo_1024606-2" data-name="Grupo 1024606" transform="translate(3.658 1.604)">
            <path id="Trazado_744185-2" data-name="Trazado 744185" d="M164.482,22.02a2.3,2.3,0,1,1-2.3,2.3A2.3,2.3,0,0,1,164.482,22.02Z" transform="translate(-162.18 -22.02)" fill="#df6175" fill-rule="evenodd"/>
            <path id="Trazado_744186-2" data-name="Trazado 744186" d="M181.842,22.02a2.3,2.3,0,1,1-2.3,2.3A2.3,2.3,0,0,1,181.842,22.02Z" transform="translate(-171.972 -22.02)" fill="#f2d266" fill-rule="evenodd"/>
            <path id="Trazado_744187-2" data-name="Trazado 744187" d="M199.192,22.02a2.3,2.3,0,1,1-2.3,2.3A2.3,2.3,0,0,1,199.192,22.02Z" transform="translate(-181.758 -22.02)" fill="#699b9f" fill-rule="evenodd"/>
          </g>
        </g>
      </g>
    </g>
    <g id="Grupo_1024674" data-name="Grupo 1024674" transform="translate(231.3 4714.268)">
      <g id="Grupo_1024650" data-name="Grupo 1024650" transform="translate(64.45 311.93)">
        <g id="Grupo_1024648" data-name="Grupo 1024648">
          <path id="Trazado_744364" data-name="Trazado 744364" d="M70.274,311.93h49.494a5.827,5.827,0,0,1,5.824,5.824v49.494a5.827,5.827,0,0,1-5.824,5.824H70.274a5.827,5.827,0,0,1-5.824-5.824V317.754A5.827,5.827,0,0,1,70.274,311.93Z" transform="translate(-64.45 -311.93)" fill="#2d334d"/>
          <g transform="matrix(1, 0, 0, 1, -115.75, -69.47)" filter="url(#Trazado_744365)">
            <path id="Trazado_744365-2" data-name="Trazado 744365" d="M70.274,311.93h49.494a5.827,5.827,0,0,1,5.824,5.824v45.721a5.827,5.827,0,0,1-5.824,5.824H70.274a5.827,5.827,0,0,1-5.824-5.824V317.754A5.827,5.827,0,0,1,70.274,311.93Z" transform="translate(51.3 -242.46)" fill="#fff"/>
          </g>
          <path id="Trazado_744366" data-name="Trazado 744366" d="M125.6,317.764v3.891H64.46v-3.891a5.824,5.824,0,0,1,5.824-5.824h49.494A5.824,5.824,0,0,1,125.6,317.764Z" transform="translate(-64.455 -311.935)" fill="#2d334d"/>
        </g>
        <g id="Grupo_1024649" data-name="Grupo 1024649" transform="translate(41.899 3.989)">
          <circle id="Elipse_7960" data-name="Elipse 7960" cx="1.403" cy="1.403" r="1.403" fill="#c17f89"/>
          <circle id="Elipse_7961" data-name="Elipse 7961" cx="1.403" cy="1.403" r="1.403" transform="translate(5.279)" fill="#5d8495"/>
          <path id="Trazado_744367" data-name="Trazado 744367" d="M174.166,321.463a1.4,1.4,0,1,1-1.4-1.4A1.4,1.4,0,0,1,174.166,321.463Z" transform="translate(-160.807 -320.06)" fill="#f9eaeb"/>
        </g>
      </g>
      <path id="Trazado_744399" data-name="Trazado 744399" d="M14.746-.476A14.8,14.8,0,0,1,9.729.305,10.21,10.21,0,0,1,4.907-.763,7.313,7.313,0,0,1,1.813-3.8,9.4,9.4,0,0,1,.745-8.35a10.01,10.01,0,0,1,1.2-4.932A8.273,8.273,0,0,1,5.322-16.62,10.433,10.433,0,0,1,10.352-17.8a17.48,17.48,0,0,1,4.395.549v4.871A6.2,6.2,0,0,0,13-13.062a8.724,8.724,0,0,0-2.051-.244,4.59,4.59,0,0,0-3.387,1.233A4.507,4.507,0,0,0,6.323-8.728,4.428,4.428,0,0,0,7.562-5.414,4.53,4.53,0,0,0,10.876-4.2a8.6,8.6,0,0,0,3.87-.977ZM29.626-5.3a5.056,5.056,0,0,1-.934,3.04A5.535,5.535,0,0,1,26.074-.33a11.516,11.516,0,0,1-4.053.635,13.238,13.238,0,0,1-5.029-.928v-4.8a9.934,9.934,0,0,0,2.429,1.3,7.145,7.145,0,0,0,2.478.494,2.446,2.446,0,0,0,1.343-.311,1.019,1.019,0,0,0,.476-.909A1.233,1.233,0,0,0,23.48-5.6a2.337,2.337,0,0,0-.72-.6,13.415,13.415,0,0,0-1.788-.769q-4.224-1.624-4.224-5.249a4.9,4.9,0,0,1,1.929-4.059,8.136,8.136,0,0,1,5.176-1.52q.916,0,1.685.073t1.4.183q.629.11,1.764.415v4.456a9.014,9.014,0,0,0-4.346-1.208,2.682,2.682,0,0,0-1.416.33,1.014,1.014,0,0,0-.537.9,1.133,1.133,0,0,0,.433.909,8.125,8.125,0,0,0,1.813.934A10.052,10.052,0,0,1,28.5-8.4,4.586,4.586,0,0,1,29.626-5.3Zm14.294,0a5.056,5.056,0,0,1-.934,3.04A5.535,5.535,0,0,1,40.369-.33a11.516,11.516,0,0,1-4.053.635,13.238,13.238,0,0,1-5.029-.928v-4.8a9.934,9.934,0,0,0,2.429,1.3,7.145,7.145,0,0,0,2.478.494,2.446,2.446,0,0,0,1.343-.311,1.019,1.019,0,0,0,.476-.909,1.233,1.233,0,0,0-.238-.751,2.337,2.337,0,0,0-.72-.6,13.415,13.415,0,0,0-1.788-.769q-4.224-1.624-4.224-5.249a4.9,4.9,0,0,1,1.929-4.059,8.136,8.136,0,0,1,5.176-1.52q.916,0,1.685.073t1.4.183q.629.11,1.764.415v4.456a9.014,9.014,0,0,0-4.346-1.208,2.682,2.682,0,0,0-1.416.33,1.014,1.014,0,0,0-.537.9,1.133,1.133,0,0,0,.433.909,8.125,8.125,0,0,0,1.813.934,10.052,10.052,0,0,1,3.851,2.4A4.586,4.586,0,0,1,43.921-5.3Z" transform="translate(72.69 353.732)" fill="#6672d9"/>
      <path id="Trazado_744398" data-name="Trazado 744398" d="M7.374,0A7.374,7.374,0,1,1,0,7.374,7.374,7.374,0,0,1,7.374,0Z" transform="translate(113.851 355.743)" fill="#f66a2d"/>
      <path id="Trazado_744368" data-name="Trazado 744368" d="M181.986,413.71,177.08,408.8a.154.154,0,0,0-.216,0,.152.152,0,0,0-.044.108v7.055a.154.154,0,0,0,.1.142.143.143,0,0,0,.167-.039l1.948-2.1h2.846a.153.153,0,0,0,.108-.26Z" transform="translate(-57.239 -49.323)" fill="#e6efef"/>
    </g>
    <g id="Grupo_1024675" data-name="Grupo 1024675" transform="translate(-9.95 5009.446)">
      <path id="Trazado_744347" data-name="Trazado 744347" d="M335.277,67.694V80.43A2.273,2.273,0,0,1,333,82.7H301.978A2.276,2.276,0,0,1,299.7,80.43V67.694a2.276,2.276,0,0,1,2.278-2.274H333A2.275,2.275,0,0,1,335.277,67.694Z" fill="#6672d9"/>
      <path id="Trazado_744348" data-name="Trazado 744348" d="M335.284,67.694v.816H299.71v-.816a2.276,2.276,0,0,1,2.278-2.274h31.025a2.275,2.275,0,0,1,2.274,2.274Z" transform="translate(-0.007)" fill="#343a5a"/>
      <path id="Trazado_744349" data-name="Trazado 744349" d="M.86,0h12.55a.861.861,0,0,1,.86.86V31.7a.861.861,0,0,1-.86.86H.86A.861.861,0,0,1,0,31.7V.863A.861.861,0,0,1,.86,0Z" transform="translate(333.771 67.231) rotate(90)" fill="#fff"/>
      <text id="_" data-name="&lt;/&gt;" transform="translate(309.356 77.177)" fill="#343a5a" font-size="9" font-family="SegoeUIBlack, Segoe UI"><tspan x="0" y="0">&lt;/&gt;</tspan></text>
    </g>
    <g id="Grupo_1024677" data-name="Grupo 1024677" transform="translate(-200.817 4716.873)">
      <path id="Trazado_744376" data-name="Trazado 744376" d="M398.648,328.93l-1.23-.159a.269.269,0,0,1-.232-.2,4.647,4.647,0,0,0-.411-.992.278.278,0,0,1,.024-.308l.757-.978a.274.274,0,0,0-.017-.363l-.885-.885a.271.271,0,0,0-.366-.021l-.978.76a.284.284,0,0,1-.308.024,4.578,4.578,0,0,0-.992-.411.278.278,0,0,1-.2-.232l-.156-1.227a.283.283,0,0,0-.276-.249h-1.251a.282.282,0,0,0-.276.245l-.156,1.23a.274.274,0,0,1-.2.232,4.549,4.549,0,0,0-.988.411.278.278,0,0,1-.308-.024l-.978-.757a.278.278,0,0,0-.366.017l-.885.885a.272.272,0,0,0-.024.366l.76.978a.284.284,0,0,1,.024.308,4.646,4.646,0,0,0-.411.992.283.283,0,0,1-.232.2l-1.227.156a.286.286,0,0,0-.249.276v1.251a.276.276,0,0,0,.245.273l1.23.159a.273.273,0,0,1,.232.2,5.034,5.034,0,0,0,.411.992.278.278,0,0,1-.024.308l-.76.978a.274.274,0,0,0,.017.363l.885.885a.271.271,0,0,0,.366.021l.978-.76a.29.29,0,0,1,.173-.059.312.312,0,0,1,.135.035,4.693,4.693,0,0,0,.988.411.278.278,0,0,1,.2.232l.156,1.227a.286.286,0,0,0,.277.249h1.251a.282.282,0,0,0,.276-.245l.156-1.23a.274.274,0,0,1,.2-.232,4.549,4.549,0,0,0,.988-.411.277.277,0,0,1,.308.024l.978.76a.275.275,0,0,0,.366-.021l.885-.885a.271.271,0,0,0,.021-.366l-.76-.978a.284.284,0,0,1-.024-.308,4.652,4.652,0,0,0,.411-.992.283.283,0,0,1,.232-.2l1.227-.156a.283.283,0,0,0,.249-.276V329.2a.276.276,0,0,0-.245-.273Zm-5.9,3.691a2.793,2.793,0,1,1,2.789-2.793A2.8,2.8,0,0,1,392.752,332.621Z" transform="translate(0 -38.629)" fill="#d5cef8"/>
      <g id="Grupo_1024660" data-name="Grupo 1024660" transform="translate(391.532 264.66)">
        <path id="Trazado_744377" data-name="Trazado 744377" d="M421.925,273.829l-2.157-.273a.487.487,0,0,1-.408-.349,8.015,8.015,0,0,0-.719-1.735.487.487,0,0,1,.041-.539l1.327-1.711a.472.472,0,0,0-.031-.636l-.985-.985-.563-.567a.486.486,0,0,0-.646-.038l-1.707,1.334a.508.508,0,0,1-.539.041,8.023,8.023,0,0,0-1.735-.722.48.48,0,0,1-.349-.4l-.273-2.15a.5.5,0,0,0-.487-.435h-2.188a.5.5,0,0,0-.484.429l-.27,2.153a.49.49,0,0,1-.353.408,8.191,8.191,0,0,0-1.735.719.488.488,0,0,1-.536-.041L405.419,267a.484.484,0,0,0-.643.031l-1.545,1.552a.478.478,0,0,0-.042.643l1.331,1.711a.493.493,0,0,1,.041.539,8.266,8.266,0,0,0-.719,1.735.5.5,0,0,1-.408.349l-2.153.273a.5.5,0,0,0-.432.48V276.5a.491.491,0,0,0,.429.48l2.157.276a.472.472,0,0,1,.4.349,8.373,8.373,0,0,0,.719,1.735.494.494,0,0,1-.041.539l-1.286,1.655-.045.059a.475.475,0,0,0,.031.636l1.552,1.552a.485.485,0,0,0,.643.038l1.711-1.334a.485.485,0,0,1,.539-.035,8.233,8.233,0,0,0,1.735.719.5.5,0,0,1,.353.4l.27,2.153a.5.5,0,0,0,.484.432h2.188a.5.5,0,0,0,.484-.429l.273-2.157a.477.477,0,0,1,.352-.4,8.161,8.161,0,0,0,1.732-.719.493.493,0,0,1,.539.041l1.707,1.334a.489.489,0,0,0,.643-.038l1.548-1.548a.478.478,0,0,0,.038-.643l-1.331-1.711a.5.5,0,0,1-.041-.539,8.087,8.087,0,0,0,.719-1.735.49.49,0,0,1,.4-.349l2.153-.273a.5.5,0,0,0,.435-.484v-2.191a.5.5,0,0,0-.429-.48ZM411.6,280.3a4.884,4.884,0,1,1,4.88-4.887,4.86,4.86,0,0,1-4.88,4.887Z" transform="translate(-400.85 -264.66)" fill="#f66a2d"/>
        <path id="Trazado_744378" data-name="Trazado 744378" d="M426.588,279.872v2.191a.5.5,0,0,1-.435.484L424,282.82a.482.482,0,0,0-.4.349,8.189,8.189,0,0,1-.719,1.735.494.494,0,0,0,.041.539l1.331,1.711a.478.478,0,0,1-.038.643l-1.548,1.548a.488.488,0,0,1-.643.038l-1.707-1.334a.5.5,0,0,0-.539-.041,8.054,8.054,0,0,1-1.732.719.485.485,0,0,0-.353.4l-.273,2.157a.492.492,0,0,1-.484.429h-2.188a.5.5,0,0,1-.484-.432l-.27-2.153a.486.486,0,0,0-.352-.4,8.337,8.337,0,0,1-1.735-.719.5.5,0,0,0-.238-.066.531.531,0,0,0-.3.1l-1.711,1.334a.485.485,0,0,1-.643-.038l-1.552-1.552a.476.476,0,0,1-.031-.636l.045-.059a20.77,20.77,0,0,0,4.89-1.87c.2-.1.394-.211.584-.321a4.883,4.883,0,0,0,7.182-6.269,23.824,23.824,0,0,0,2.882-4.845c.086-.2.155-.418.225-.626l.985.985a.472.472,0,0,1,.031.636l-1.327,1.711a.487.487,0,0,0-.041.539,8.263,8.263,0,0,1,.719,1.735.5.5,0,0,0,.408.349l2.157.273a.5.5,0,0,1,.429.48Z" transform="translate(-405.084 -270.222)" fill="#e44f1c"/>
      </g>
    </g>
    <g id="Grupo_1025671" data-name="Grupo 1025671" transform="translate(-53.144 4847.873)">
      <path id="Trazado_744376-2" data-name="Trazado 744376" d="M398.648,328.93l-1.23-.159a.269.269,0,0,1-.232-.2,4.647,4.647,0,0,0-.411-.992.278.278,0,0,1,.024-.308l.757-.978a.274.274,0,0,0-.017-.363l-.885-.885a.271.271,0,0,0-.366-.021l-.978.76a.284.284,0,0,1-.308.024,4.578,4.578,0,0,0-.992-.411.278.278,0,0,1-.2-.232l-.156-1.227a.283.283,0,0,0-.276-.249h-1.251a.282.282,0,0,0-.276.245l-.156,1.23a.274.274,0,0,1-.2.232,4.549,4.549,0,0,0-.988.411.278.278,0,0,1-.308-.024l-.978-.757a.278.278,0,0,0-.366.017l-.885.885a.272.272,0,0,0-.024.366l.76.978a.284.284,0,0,1,.024.308,4.646,4.646,0,0,0-.411.992.283.283,0,0,1-.232.2l-1.227.156a.286.286,0,0,0-.249.276v1.251a.276.276,0,0,0,.245.273l1.23.159a.273.273,0,0,1,.232.2,5.034,5.034,0,0,0,.411.992.278.278,0,0,1-.024.308l-.76.978a.274.274,0,0,0,.017.363l.885.885a.271.271,0,0,0,.366.021l.978-.76a.29.29,0,0,1,.173-.059.312.312,0,0,1,.135.035,4.693,4.693,0,0,0,.988.411.278.278,0,0,1,.2.232l.156,1.227a.286.286,0,0,0,.277.249h1.251a.282.282,0,0,0,.276-.245l.156-1.23a.274.274,0,0,1,.2-.232,4.549,4.549,0,0,0,.988-.411.277.277,0,0,1,.308.024l.978.76a.275.275,0,0,0,.366-.021l.885-.885a.271.271,0,0,0,.021-.366l-.76-.978a.284.284,0,0,1-.024-.308,4.652,4.652,0,0,0,.411-.992.283.283,0,0,1,.232-.2l1.227-.156a.283.283,0,0,0,.249-.276V329.2a.276.276,0,0,0-.245-.273Zm-5.9,3.691a2.793,2.793,0,1,1,2.789-2.793A2.8,2.8,0,0,1,392.752,332.621Z" transform="translate(0 -38.629)" fill="#d5cef8"/>
      <g id="Grupo_1024660-2" data-name="Grupo 1024660" transform="translate(391.532 264.66)">
        <path id="Trazado_744377-2" data-name="Trazado 744377" d="M421.925,273.829l-2.157-.273a.487.487,0,0,1-.408-.349,8.015,8.015,0,0,0-.719-1.735.487.487,0,0,1,.041-.539l1.327-1.711a.472.472,0,0,0-.031-.636l-.985-.985-.563-.567a.486.486,0,0,0-.646-.038l-1.707,1.334a.508.508,0,0,1-.539.041,8.023,8.023,0,0,0-1.735-.722.48.48,0,0,1-.349-.4l-.273-2.15a.5.5,0,0,0-.487-.435h-2.188a.5.5,0,0,0-.484.429l-.27,2.153a.49.49,0,0,1-.353.408,8.191,8.191,0,0,0-1.735.719.488.488,0,0,1-.536-.041L405.419,267a.484.484,0,0,0-.643.031l-1.545,1.552a.478.478,0,0,0-.042.643l1.331,1.711a.493.493,0,0,1,.041.539,8.266,8.266,0,0,0-.719,1.735.5.5,0,0,1-.408.349l-2.153.273a.5.5,0,0,0-.432.48V276.5a.491.491,0,0,0,.429.48l2.157.276a.472.472,0,0,1,.4.349,8.373,8.373,0,0,0,.719,1.735.494.494,0,0,1-.041.539l-1.286,1.655-.045.059a.475.475,0,0,0,.031.636l1.552,1.552a.485.485,0,0,0,.643.038l1.711-1.334a.485.485,0,0,1,.539-.035,8.233,8.233,0,0,0,1.735.719.5.5,0,0,1,.353.4l.27,2.153a.5.5,0,0,0,.484.432h2.188a.5.5,0,0,0,.484-.429l.273-2.157a.477.477,0,0,1,.352-.4,8.161,8.161,0,0,0,1.732-.719.493.493,0,0,1,.539.041l1.707,1.334a.489.489,0,0,0,.643-.038l1.548-1.548a.478.478,0,0,0,.038-.643l-1.331-1.711a.5.5,0,0,1-.041-.539,8.087,8.087,0,0,0,.719-1.735.49.49,0,0,1,.4-.349l2.153-.273a.5.5,0,0,0,.435-.484v-2.191a.5.5,0,0,0-.429-.48ZM411.6,280.3a4.884,4.884,0,1,1,4.88-4.887,4.86,4.86,0,0,1-4.88,4.887Z" transform="translate(-400.85 -264.66)" fill="#f66a2d"/>
        <path id="Trazado_744378-2" data-name="Trazado 744378" d="M426.588,279.872v2.191a.5.5,0,0,1-.435.484L424,282.82a.482.482,0,0,0-.4.349,8.189,8.189,0,0,1-.719,1.735.494.494,0,0,0,.041.539l1.331,1.711a.478.478,0,0,1-.038.643l-1.548,1.548a.488.488,0,0,1-.643.038l-1.707-1.334a.5.5,0,0,0-.539-.041,8.054,8.054,0,0,1-1.732.719.485.485,0,0,0-.353.4l-.273,2.157a.492.492,0,0,1-.484.429h-2.188a.5.5,0,0,1-.484-.432l-.27-2.153a.486.486,0,0,0-.352-.4,8.337,8.337,0,0,1-1.735-.719.5.5,0,0,0-.238-.066.531.531,0,0,0-.3.1l-1.711,1.334a.485.485,0,0,1-.643-.038l-1.552-1.552a.476.476,0,0,1-.031-.636l.045-.059a20.77,20.77,0,0,0,4.89-1.87c.2-.1.394-.211.584-.321a4.883,4.883,0,0,0,7.182-6.269,23.824,23.824,0,0,0,2.882-4.845c.086-.2.155-.418.225-.626l.985.985a.472.472,0,0,1,.031.636l-1.327,1.711a.487.487,0,0,0-.041.539,8.263,8.263,0,0,1,.719,1.735.5.5,0,0,0,.408.349l2.157.273a.5.5,0,0,1,.429.48Z" transform="translate(-405.084 -270.222)" fill="#e44f1c"/>
      </g>
    </g>
  </g>
</svg>
