<svg xmlns="http://www.w3.org/2000/svg" xmlns:xlink="http://www.w3.org/1999/xlink" width="189.5" height="180.722" viewBox="0 0 189.5 180.722">
  <defs>
    <clipPath id="clip-path">
      <rect id="html-css-collage-concept-with-person" width="189.5" height="180.722" rx="13" fill="#f85f37" opacity="0.67"/>
    </clipPath>
    <clipPath id="clip-path-2">
      <rect id="Rectángulo_373334" data-name="Rectángulo 373334" width="51.832" height="28.187" fill="#fff" stroke="#707070" stroke-width="1" opacity="0.6"/>
    </clipPath>
    <filter id="Trazado_742733" x="119.215" y="-29.199" width="64.134" height="64.134" filterUnits="userSpaceOnUse">
      <feOffset dy="3" input="SourceAlpha"/>
      <feGaussianBlur stdDeviation="3" result="blur"/>
      <feFlood flood-opacity="0.161"/>
      <feComposite operator="in" in2="blur"/>
      <feComposite in="SourceGraphic"/>
    </filter>
    <clipPath id="clip-path-3">
      <path id="side-view-male-technician-using-digital-tablet" d="M13,0H73.3a13,13,0,0,1,13,13V31.655a13,13,0,0,1-13,13H0a0,0,0,0,1,0,0V13A13,13,0,0,1,13,0Z" fill="#636363" opacity="0.71"/>
    </clipPath>
  </defs>
  <g id="_16" data-name="16" clip-path="url(#clip-path)">
    <g id="Grupo_1023497" data-name="Grupo 1023497">
      <rect id="html-css-collage-concept-with-person-2" data-name="html-css-collage-concept-with-person" width="189.5" height="180.722" rx="13" fill="#291e8b"/>
      <g id="Enmascarar_grupo_952212" data-name="Enmascarar grupo 952212" transform="translate(125.345)" clip-path="url(#clip-path-2)">
        <g transform="matrix(1, 0, 0, 1, -125.34, 0)" filter="url(#Trazado_742733)">
          <path id="Trazado_742733-2" data-name="Trazado 742733" d="M565.692,549.157a20.567,20.567,0,1,0-20.565-20.565,20.59,20.59,0,0,0,20.565,20.565m0-37.077a16.512,16.512,0,1,1-16.512,16.512,16.513,16.513,0,0,1,16.512-16.512" transform="translate(-414.41 -528.72)" fill="#37f871" stroke="#37f871" stroke-width="5"/>
        </g>
      </g>
      <g id="Enmascarar_grupo_952213" data-name="Enmascarar grupo 952213" transform="translate(103.198 136.066)" clip-path="url(#clip-path-3)">
        <g id="Grupo_1023496" data-name="Grupo 1023496" transform="translate(-0.091 -0.02)">
          <path id="Trazado_742734" data-name="Trazado 742734" d="M85.03,313.3,70.788,298.659a8.021,8.021,0,0,0-11.563,0,8.568,8.568,0,0,0,0,11.883l6.487,6.666a3.762,3.762,0,0,1,0,5.217,3.522,3.522,0,0,1-5.076,0l-1.41-1.449a7.239,7.239,0,0,0-10.435,0,7.732,7.732,0,0,0,0,10.724l5.782,5.941a1.672,1.672,0,0,1,0,2.319,1.565,1.565,0,0,1-2.256,0l-14.1-14.492a6.261,6.261,0,0,0-9.025,0,6.687,6.687,0,0,0,0,9.275L33,338.657a1.463,1.463,0,0,1,0,2.029,1.37,1.37,0,0,1-1.974,0l-.316-.324a16.778,16.778,0,0,0-24.187,0L0,347.062H105.618S93.834,325.65,88.688,317.209" transform="translate(0 -296.198)" fill="#221b6b"/>
          <g id="Grupo_1023495" data-name="Grupo 1023495" transform="translate(5.433 12.378)">
            <path id="Trazado_742735" data-name="Trazado 742735" d="M357.37,475.755a1.355,1.355,0,1,0,1.354-1.392,1.373,1.373,0,0,0-1.354,1.392" transform="translate(-321.987 -454.928)" fill="#907af8"/>
            <line id="Línea_849" data-name="Línea 849" x1="22.458" y1="23.081" transform="translate(57.014)" fill="none" stroke="#fff" stroke-linecap="round" stroke-miterlimit="10" stroke-width="3"/>
            <line id="Línea_850" data-name="Línea 850" x1="20.13" y1="20.687" transform="translate(34.926 30.679)" fill="none" stroke="#fff" stroke-linecap="round" stroke-miterlimit="10" stroke-width="3"/>
            <line id="Línea_851" data-name="Línea 851" x1="20.13" y1="20.687" transform="translate(70.372 7.191)" fill="none" stroke="#fff" stroke-linecap="round" stroke-miterlimit="10" stroke-width="3"/>
            <path id="Trazado_742736" data-name="Trazado 742736" d="M185.959,453.005a3.555,3.555,0,1,0,3.554-3.652,3.6,3.6,0,0,0-3.554,3.652" transform="translate(-126.565 -433.57)" fill="#907af8"/>
            <path id="Trazado_742737" data-name="Trazado 742737" d="M183.229,520.594c-.246-.084-9.533-9.733-13.086-13.43a1.892,1.892,0,0,0-2.736-.008,2.022,2.022,0,0,0,0,2.8l2.92,3a1.014,1.014,0,0,1,0,1.407.95.95,0,0,1-1.369,0l-1.217-1.25a2.075,2.075,0,0,0-2.991,0,2.217,2.217,0,0,0,0,3.074.939.939,0,0,1,0,1.3l-3.422,3.517h22.205" transform="translate(-114.123 -486.03)" fill="#907af8"/>
            <line id="Línea_852" data-name="Línea 852" x1="25.138" y1="25.834" transform="translate(0 14.845)" fill="none" stroke="#fff" stroke-linecap="round" stroke-miterlimit="10" stroke-width="3"/>
            <line id="Línea_853" data-name="Línea 853" x1="25.138" y1="25.834" transform="translate(67.995 28.86)" fill="none" stroke="#fff" stroke-linecap="round" stroke-miterlimit="10" stroke-width="3"/>
            <line id="Línea_854" data-name="Línea 854" x1="4.902" y1="5.037" transform="translate(4.344 25.04)" fill="none" stroke="#fff" stroke-linecap="round" stroke-miterlimit="10" stroke-width="3"/>
          </g>
        </g>
      </g>
    </g>
    <g id="_4085216" data-name="4085216" transform="translate(-20 8.955)">
      <g id="OBJECTS" transform="translate(0)">
        <text id="_" data-name="&lt;/&gt;" transform="matrix(-1, 0, 0, 1, 144.107, 96.801)" fill="#d5cef8" font-size="6" font-family="SegoeUIBlack, Segoe UI"><tspan x="0" y="0">&lt;/&gt;</tspan></text>
        <g id="Grupo_1023498" data-name="Grupo 1023498" transform="translate(0 161.797)">
          <path id="Trazado_742738" data-name="Trazado 742738" d="M38.244,477.932v.826a4.574,4.574,0,0,0,4.575,4.572H276.785a4.578,4.578,0,0,0,4.429-3.416V479.9a4.669,4.669,0,0,0,.143-1.145v-.826a4.572,4.572,0,0,0-4.575-4.572H42.815a4.574,4.574,0,0,0-4.575,4.572Z" transform="translate(-38.24 -473.36)" fill="#47547c"/>
          <path id="Trazado_742739" data-name="Trazado 742739" d="M38.244,477.932v.826a4.574,4.574,0,0,0,4.575,4.572H276.785a4.578,4.578,0,0,0,4.429-3.416V479.9c.1-.733.143-1.145.143-1.145-131.2,4.572-238.541-5.4-238.541-5.4a4.574,4.574,0,0,0-4.575,4.572Z" transform="translate(-38.24 -473.36)" fill="#2b2b3f" opacity="0.5"/>
        </g>
        <g id="Grupo_1023500" data-name="Grupo 1023500" transform="translate(24.383 32.14)">
          <path id="Trazado_742740" data-name="Trazado 742740" d="M662.359,119.789c0-.029,0-.057,0-.086s0-.057,0-.082a10.081,10.081,0,0,1-1.284-.7,10.353,10.353,0,0,1-1.345-1.087l.093-.365a9.521,9.521,0,0,1,.394-1.209c.082-.193.179-.383.272-.572a4.013,4.013,0,0,1,.3-.558l.193-.322a9.9,9.9,0,0,1,1.717.179,9.063,9.063,0,0,1,1.4.415l.118-.118a9.174,9.174,0,0,1-.408-1.4,9.532,9.532,0,0,1-.182-1.717l.318-.193a4.219,4.219,0,0,1,.558-.3c.19-.093.379-.19.576-.272a9.121,9.121,0,0,1,1.206-.393l.365-.093a10.724,10.724,0,0,1,1.088,1.345,10.058,10.058,0,0,1,.7,1.284c.025,0,.057-.007.082-.007s.057.007.086.007a9.238,9.238,0,0,1,.7-1.284,10.089,10.089,0,0,1,1.084-1.345l.365.093a9.362,9.362,0,0,1,1.209.393c.193.082.383.179.576.272a4.442,4.442,0,0,1,.558.3l.318.193a10.258,10.258,0,0,1-.182,1.717,9.6,9.6,0,0,1-.411,1.4c.039.039.082.079.118.118a9.613,9.613,0,0,1,1.4-.415,9.9,9.9,0,0,1,1.717-.179l.2.322a4.921,4.921,0,0,1,.3.558c.089.19.186.379.268.572a8.639,8.639,0,0,1,.394,1.209l.093.365a10.423,10.423,0,0,1-1.345,1.087,10.26,10.26,0,0,1-1.281.7v.168a9.41,9.41,0,0,1,1.281.7,10.1,10.1,0,0,1,1.345,1.084l-.093.365a8.971,8.971,0,0,1-.394,1.209c-.082.193-.179.383-.268.576a5.2,5.2,0,0,1-.3.554l-.2.322a9.937,9.937,0,0,1-1.717-.179,9.186,9.186,0,0,1-1.4-.415c-.036.039-.079.082-.118.118a9.183,9.183,0,0,1,.411,1.4,10.259,10.259,0,0,1,.182,1.717l-.318.2a4.923,4.923,0,0,1-.558.3c-.193.093-.383.19-.576.272a8.517,8.517,0,0,1-1.209.394l-.365.093a10.686,10.686,0,0,1-1.084-1.345,9.237,9.237,0,0,1-.7-1.284.691.691,0,0,1-.086.007.638.638,0,0,1-.082-.007,9.629,9.629,0,0,1-.7,1.284,10.118,10.118,0,0,1-1.088,1.345l-.365-.093a8.949,8.949,0,0,1-1.206-.394c-.2-.082-.386-.179-.576-.272a4.654,4.654,0,0,1-.558-.3l-.318-.2a8.96,8.96,0,0,1,.59-3.116c-.039-.036-.079-.079-.118-.118a9.476,9.476,0,0,1-1.4.415,9.864,9.864,0,0,1-1.717.179l-.193-.322a4.189,4.189,0,0,1-.3-.554c-.093-.193-.19-.383-.272-.576a9.147,9.147,0,0,1-.394-1.209l-.093-.365a10.95,10.95,0,0,1,1.345-1.084A9.654,9.654,0,0,1,662.359,119.789Zm6.167,2.865a2.951,2.951,0,1,0-2.951-2.951A2.95,2.95,0,0,0,668.526,122.654Z" transform="translate(-659.73 -110.91)" fill="#eba154"/>
          <path id="Trazado_742741" data-name="Trazado 742741" d="M604.95,148.23h19.922v19.618h-5.53" transform="translate(-587.69 -134.88)" fill="none" stroke="#fd783d" stroke-miterlimit="10" stroke-width="1" stroke-dasharray="0 2"/>
          <g id="Grupo_1023499" data-name="Grupo 1023499" transform="translate(7.079 43.467)">
            <rect id="Rectángulo_373335" data-name="Rectángulo 373335" width="10.95" height="1.957" transform="translate(13.146)" fill="#fff"/>
            <rect id="Rectángulo_373336" data-name="Rectángulo 373336" width="16.838" height="1.957" transform="translate(7.258 3.624)" fill="#fff"/>
            <rect id="Rectángulo_373337" data-name="Rectángulo 373337" width="5.734" height="1.957" transform="translate(18.362 7.244)" fill="#fff"/>
            <rect id="Rectángulo_373338" data-name="Rectángulo 373338" width="5.734" height="1.957" transform="translate(10.288 7.244)" fill="#eba154"/>
            <rect id="Rectángulo_373339" data-name="Rectángulo 373339" width="8.235" height="1.957" transform="translate(0 7.244)" fill="#eba154"/>
            <rect id="Rectángulo_373340" data-name="Rectángulo 373340" width="5.001" height="1.957" transform="translate(0 3.624)" fill="#eba154"/>
            <rect id="Rectángulo_373341" data-name="Rectángulo 373341" width="10.95" height="1.957" transform="translate(0)" fill="#eba154"/>
          </g>
          <rect id="Rectángulo_373342" data-name="Rectángulo 373342" width="0.365" height="21.814" transform="translate(3.069 30.793)" fill="#fff"/>
        </g>
        <g id="Grupo_1023501" data-name="Grupo 1023501" transform="translate(30.608 63.734)">
          <rect id="Rectángulo_373343" data-name="Rectángulo 373343" width="11.261" height="2.014" transform="translate(13.522)" fill="#fff"/>
          <rect id="Rectángulo_373344" data-name="Rectángulo 373344" width="17.314" height="2.014" transform="translate(7.469 3.724)" fill="#fff"/>
          <rect id="Rectángulo_373345" data-name="Rectángulo 373345" width="5.895" height="2.014" transform="translate(18.888 7.448)" fill="#fff"/>
          <rect id="Rectángulo_373346" data-name="Rectángulo 373346" width="5.895" height="2.014" transform="translate(10.581 7.448)" fill="#eba154"/>
          <rect id="Rectángulo_373347" data-name="Rectángulo 373347" width="8.467" height="2.014" transform="translate(0.004 7.448)" fill="#eba154"/>
          <rect id="Rectángulo_373348" data-name="Rectángulo 373348" width="5.144" height="2.014" transform="translate(0 3.724)" fill="#eba154"/>
          <rect id="Rectángulo_373349" data-name="Rectángulo 373349" width="11.261" height="2.014" transform="translate(0.004)" fill="#eba154"/>
        </g>
        <g id="Grupo_1023505" data-name="Grupo 1023505" transform="translate(45.362 6.224)">
          <g id="Grupo_1023504" data-name="Grupo 1023504">
            <path id="Trazado_742910" data-name="Trazado 742910" d="M32.406,0H0V63.682H32.406Z" fill="#645cb5"/>
            <rect id="Rectángulo_373351" data-name="Rectángulo 373351" width="24.332" height="2.583" transform="translate(4.382 13.543)" fill="#fff"/>
            <rect id="Rectángulo_373352" data-name="Rectángulo 373352" width="16.105" height="2.583" transform="translate(12.61 19.267)" fill="#fff"/>
            <rect id="Rectángulo_373353" data-name="Rectángulo 373353" width="5.834" height="2.583" transform="translate(4.382 19.267)" fill="#eba154"/>
            <rect id="Rectángulo_373354" data-name="Rectángulo 373354" width="15.078" height="2.583" transform="translate(4.382 24.987)" fill="#eba154"/>
            <rect id="Rectángulo_373355" data-name="Rectángulo 373355" width="7.061" height="2.583" transform="translate(21.653 24.987)" fill="#fff"/>
            <rect id="Rectángulo_373356" data-name="Rectángulo 373356" width="12.86" height="2.583" transform="translate(15.854 30.711)" fill="#fff"/>
            <rect id="Rectángulo_373357" data-name="Rectángulo 373357" width="9.49" height="2.583" transform="translate(4.382 30.711)" fill="#eba154"/>
            <rect id="Rectángulo_373358" data-name="Rectángulo 373358" width="17.271" height="2.583" transform="translate(4.382 36.434)" fill="#eba154"/>
            <rect id="Rectángulo_373359" data-name="Rectángulo 373359" width="5.219" height="2.583" transform="translate(23.495 36.434)" fill="#fff"/>
            <rect id="Rectángulo_373360" data-name="Rectángulo 373360" width="10.442" height="2.583" transform="translate(18.273 42.154)" fill="#fff"/>
            <rect id="Rectángulo_373361" data-name="Rectángulo 373361" width="12.166" height="2.583" transform="translate(4.382 42.154)" fill="#eba154"/>
            <g id="Grupo_1023502" data-name="Grupo 1023502" transform="translate(18.273 55.431)">
              <path id="Trazado_742742" data-name="Trazado 742742" d="M561,253.022v.726l2.661,1.012v-.7l-1.864-.676,1.864-.683v-.694Z" transform="translate(-561 -250.05)" fill="#eba154"/>
              <path id="Trazado_742743" data-name="Trazado 742743" d="M539.84,252.01v.694l1.864.683-1.864.676v.7l2.661-1.012v-.726Z" transform="translate(-532.27 -250.05)" fill="#eba154"/>
              <path id="Trazado_742744" data-name="Trazado 742744" d="M551.384,246.53h-.834l1.978,5.645h.833Z" transform="translate(-546.962 -246.53)" fill="#eba154"/>
            </g>
            <g id="Grupo_1023503" data-name="Grupo 1023503" transform="translate(17.328 6.382)">
              <path id="Trazado_742745" data-name="Trazado 742745" d="M524.5,113.537v.952l3.491,1.327V114.9l-2.443-.887,2.443-.894v-.909Z" transform="translate(-524.5 -112.21)" fill="#eba154"/>
              <path id="Trazado_742746" data-name="Trazado 742746" d="M506.56,112.21v.909l2.443.894-2.443.887v.916l3.491-1.327v-.952Z" transform="translate(-500.143 -112.21)" fill="#eba154"/>
            </g>
          </g>
        </g>
        <g id="Grupo_1023513" data-name="Grupo 1023513" transform="translate(145.107 32.14)">
          <g id="Grupo_1023506" data-name="Grupo 1023506" transform="translate(0 42.525)">
            <path id="Trazado_742747" data-name="Trazado 742747" d="M42.522,271.625a4.866,4.866,0,0,0-1.376-.949l-.028-.013a4.9,4.9,0,0,0-2.292-.431,4.784,4.784,0,0,0-1.618.374c-.032.013-.067.028-.1.043a4.883,4.883,0,1,0,6.678,3.093,4.529,4.529,0,0,0-.23-.622,4.875,4.875,0,0,0-1.037-1.494ZM40.479,278.2a3.386,3.386,0,0,1-4.332-4.752.2.2,0,0,0,.011-.021,3.371,3.371,0,0,1,1.56-1.417,3.3,3.3,0,0,1,.391-.146l.041-.013a3.373,3.373,0,0,1,2.02.041h.009a3.394,3.394,0,0,1,1.442.947,3.318,3.318,0,0,1,.573.884,3.272,3.272,0,0,1,.208.629,3.4,3.4,0,0,1-1.923,3.846Z" transform="translate(-34.214 -270.223)" fill="#d5cef8"/>
            <path id="Trazado_742748" data-name="Trazado 742748" d="M62.944,272.275a4.9,4.9,0,0,1,2.642,3.065l-1.384.614a3.375,3.375,0,0,0-2.224-2.46H61.97l.949-1.234" transform="translate(-56.012 -271.821)" fill="#eba154"/>
            <line id="Línea_855" data-name="Línea 855" x1="0.97" y2="1.219" transform="translate(5.962 0.454)" fill="#eba154"/>
            <path id="Trazado_742749" data-name="Trazado 742749" d="M51.129,271.89H51.12a3.373,3.373,0,0,0-2.02-.043l-.041.013-.9-1.262a4.874,4.874,0,0,1,3.911.058" transform="translate(-45.167 -270.217)" fill="#716abb"/>
          </g>
          <g id="Grupo_1023507" data-name="Grupo 1023507" transform="translate(5.273 52.161)">
            <line id="Línea_856" data-name="Línea 856" y2="0.429" transform="translate(0 0.131)" fill="none" stroke="#fd783d" stroke-miterlimit="10" stroke-width="1"/>
            <line id="Línea_857" data-name="Línea 857" y2="6.162" transform="translate(0 1.38)" fill="none" stroke="#fd783d" stroke-miterlimit="10" stroke-width="1" stroke-dasharray="0 0 3.83 3.83"/>
            <path id="Trazado_742750" data-name="Trazado 742750" d="M58.78,352.16v.429h.429" transform="translate(-58.78 -344.207)" fill="none" stroke="#fd783d" stroke-miterlimit="10" stroke-width="1"/>
            <line id="Línea_858" data-name="Línea 858" x2="11.926" transform="translate(1.314 8.382)" fill="none" stroke="#fd783d" stroke-miterlimit="10" stroke-width="1" stroke-dasharray="0 0 4.12 4.12"/>
            <path id="Trazado_742751" data-name="Trazado 742751" d="M122.52,352.589h.429v-.429" transform="translate(-108.838 -344.207)" fill="none" stroke="#fd783d" stroke-miterlimit="10" stroke-width="1"/>
            <line id="Línea_859" data-name="Línea 859" y1="6.27" transform="translate(14.111 0.848)" fill="none" stroke="#fd783d" stroke-miterlimit="10" stroke-width="1" stroke-dasharray="0 0 3.89 3.89"/>
            <line id="Línea_860" data-name="Línea 860" y1="0.429" transform="translate(14.111)" fill="none" stroke="#fd783d" stroke-miterlimit="10" stroke-width="1"/>
          </g>
          <g id="Grupo_1023512" data-name="Grupo 1023512" transform="translate(14.234)">
            <path id="Trazado_742909" data-name="Trazado 742909" d="M41.394,0H0V49.351H41.394Z" transform="translate(0 2.404)" fill="#c3c0e2" opacity="0.33"/>
            <rect id="Rectángulo_373363" data-name="Rectángulo 373363" width="41.394" height="6.263" fill="#30305c"/>
            <g id="Grupo_1023508" data-name="Grupo 1023508" transform="translate(30.883 46.02)">
              <path id="Trazado_742752" data-name="Trazado 742752" d="M265.617,295.327v.406l-1.488.567v-.391l1.041-.378-1.041-.382v-.388Z" transform="translate(-259.897 -292.987)" fill="#eba154"/>
              <path id="Trazado_742753" data-name="Trazado 742753" d="M245.9,294.76v.388l-1.041.382,1.041.378v.391l-1.487-.567v-.406Z" transform="translate(-244.41 -292.987)" fill="#eba154"/>
              <text id="_2" data-name="/" transform="translate(2.039 1)" fill="#eba154" font-size="1" font-family="Montserrat-Bold, Montserrat" font-weight="700"><tspan x="0" y="0">/</tspan></text>
            </g>
            <g id="Grupo_1023509" data-name="Grupo 1023509" transform="translate(4.538 9.55)">
              <path id="Trazado_742754" data-name="Trazado 742754" d="M139.427,117.3v.507l-1.857.706v-.487l1.3-.472-1.3-.477v-.483Z" transform="translate(-134.157 -116.59)" fill="#eba154"/>
              <path id="Trazado_742755" data-name="Trazado 742755" d="M123.527,116.59v.483l-1.3.477,1.3.472v.487l-1.857-.706V117.3Z" transform="translate(-121.67 -116.59)" fill="#eba154"/>
            </g>
            <g id="Grupo_1023511" data-name="Grupo 1023511" transform="translate(2.215 14.478)">
              <g id="Grupo_1023510" data-name="Grupo 1023510" transform="translate(4.941)">
                <rect id="Rectángulo_373364" data-name="Rectángulo 373364" width="12.168" height="2.228" transform="translate(0)" fill="#54b3cd"/>
                <rect id="Rectángulo_373365" data-name="Rectángulo 373365" width="6.083" height="2.228" transform="translate(13.881)" fill="#eba154"/>
                <rect id="Rectángulo_373366" data-name="Rectángulo 373366" width="8.38" height="2.228" transform="translate(21.366)" fill="#fff"/>
                <rect id="Rectángulo_373367" data-name="Rectángulo 373367" width="5.68" height="2.228" transform="translate(0 3.98)" fill="#54b3cd"/>
                <rect id="Rectángulo_373368" data-name="Rectángulo 373368" width="9.7" height="2.228" transform="translate(7.223 3.98)" fill="#eba154"/>
                <rect id="Rectángulo_373369" data-name="Rectángulo 373369" width="11.241" height="2.228" transform="translate(18.505 3.98)" fill="#fff"/>
                <rect id="Rectángulo_373370" data-name="Rectángulo 373370" width="7.476" height="2.228" transform="translate(0 7.957)" fill="#54b3cd"/>
                <rect id="Rectángulo_373371" data-name="Rectángulo 373371" width="14.061" height="2.228" transform="translate(8.691 7.957)" fill="#eba154"/>
                <rect id="Rectángulo_373372" data-name="Rectángulo 373372" width="5.486" height="2.228" transform="translate(24.259 7.957)" fill="#fff"/>
                <rect id="Rectángulo_373373" data-name="Rectángulo 373373" width="9.425" height="2.228" transform="translate(0 11.936)" fill="#54b3cd"/>
                <rect id="Rectángulo_373374" data-name="Rectángulo 373374" width="9.148" height="2.228" transform="translate(10.816 11.936)" fill="#eba154"/>
                <rect id="Rectángulo_373375" data-name="Rectángulo 373375" width="8.38" height="2.228" transform="translate(21.366 11.936)" fill="#fff"/>
                <rect id="Rectángulo_373376" data-name="Rectángulo 373376" width="4.134" height="2.228" transform="translate(0 15.914)" fill="#54b3cd"/>
                <rect id="Rectángulo_373377" data-name="Rectángulo 373377" width="8.191" height="2.228" transform="translate(5.523 15.914)" fill="#eba154"/>
                <rect id="Rectángulo_373378" data-name="Rectángulo 373378" width="14.757" height="2.228" transform="translate(14.989 15.914)" fill="#fff"/>
                <rect id="Rectángulo_373379" data-name="Rectángulo 373379" width="11.821" height="2.228" transform="translate(0 19.891)" fill="#54b3cd"/>
                <rect id="Rectángulo_373380" data-name="Rectángulo 373380" width="3.634" height="2.228" transform="translate(13.289 19.891)" fill="#eba154"/>
                <rect id="Rectángulo_373381" data-name="Rectángulo 373381" width="11.241" height="2.228" transform="translate(18.505 19.891)" fill="#fff"/>
                <rect id="Rectángulo_373382" data-name="Rectángulo 373382" width="15.392" height="2.228" transform="translate(0 23.871)" fill="#54b3cd"/>
                <rect id="Rectángulo_373383" data-name="Rectángulo 373383" width="6.298" height="2.228" transform="translate(16.689 23.871)" fill="#eba154"/>
                <rect id="Rectángulo_373384" data-name="Rectángulo 373384" width="5.486" height="2.228" transform="translate(24.259 23.871)" fill="#fff"/>
                <rect id="Rectángulo_373385" data-name="Rectángulo 373385" width="4.714" height="2.228" transform="translate(0 27.848)" fill="#54b3cd"/>
                <rect id="Rectángulo_373386" data-name="Rectángulo 373386" width="5.737" height="2.228" transform="translate(6.083 27.848)" fill="#eba154"/>
                <rect id="Rectángulo_373387" data-name="Rectángulo 373387" width="16.457" height="2.228" transform="translate(13.289 27.848)" fill="#fff"/>
              </g>
              <rect id="Rectángulo_373388" data-name="Rectángulo 373388" width="0.453" height="30.076" transform="translate(36.314)" fill="#fff"/>
              <ellipse id="Elipse_7868" data-name="Elipse 7868" cx="1.114" cy="1.114" rx="1.114" ry="1.114" transform="translate(0)" fill="#fff"/>
              <ellipse id="Elipse_7869" data-name="Elipse 7869" cx="1.114" cy="1.114" rx="1.114" ry="1.114" transform="translate(0 3.98)" fill="#fff"/>
              <ellipse id="Elipse_7870" data-name="Elipse 7870" cx="1.114" cy="1.114" rx="1.114" ry="1.114" transform="translate(0 7.957)" fill="#fff"/>
              <ellipse id="Elipse_7871" data-name="Elipse 7871" cx="1.114" cy="1.114" rx="1.114" ry="1.114" transform="translate(0 11.936)" fill="#fff"/>
              <ellipse id="Elipse_7872" data-name="Elipse 7872" cx="1.114" cy="1.114" rx="1.114" ry="1.114" transform="translate(0 15.914)" fill="#fff"/>
              <ellipse id="Elipse_7873" data-name="Elipse 7873" cx="1.114" cy="1.114" rx="1.114" ry="1.114" transform="translate(0 19.891)" fill="#fff"/>
              <ellipse id="Elipse_7874" data-name="Elipse 7874" cx="1.114" cy="1.114" rx="1.114" ry="1.114" transform="translate(0 23.871)" fill="#fff"/>
              <ellipse id="Elipse_7875" data-name="Elipse 7875" cx="1.114" cy="1.114" rx="1.114" ry="1.114" transform="translate(0 27.848)" fill="#fff"/>
            </g>
            <path id="Trazado_742756" data-name="Trazado 742756" d="M276.481,84.145a1.135,1.135,0,1,1-1.135-1.135A1.136,1.136,0,0,1,276.481,84.145Z" transform="translate(-236.93 -80.668)" fill="#b83d5d"/>
          </g>
          <path id="Trazado_742757" data-name="Trazado 742757" d="M263.328,84a1.144,1.144,0,1,1-1.144-1.144A1.144,1.144,0,0,1,263.328,84Z" transform="translate(-212.353 -80.55)" fill="#fff"/>
        </g>
        <g id="Grupo_1023516" data-name="Grupo 1023516" transform="translate(107.599)">
          <rect id="Rectángulo_373389" data-name="Rectángulo 373389" width="6.682" height="1.871" transform="translate(35.386 7.775)" fill="#645cb5"/>
          <rect id="Rectángulo_373390" data-name="Rectángulo 373390" width="20.444" height="1.871" transform="translate(21.624 4.441)" fill="#30305c"/>
          <g id="Grupo_1023514" data-name="Grupo 1023514" transform="translate(5.659 10.003)">
            <line id="Línea_861" data-name="Línea 861" y2="0.715" transform="translate(24.597)" fill="none" stroke="#fd783d" stroke-miterlimit="10" stroke-width="1"/>
            <line id="Línea_862" data-name="Línea 862" y2="4.228" transform="translate(24.597 1.925)" fill="none" stroke="#fd783d" stroke-miterlimit="10" stroke-width="1" stroke-dasharray="0 0 3.38 3.38"/>
            <path id="Trazado_742758" data-name="Trazado 742758" d="M352.776,135.44v.715h-.716" transform="translate(-328.178 -128.686)" fill="none" stroke="#fd783d" stroke-miterlimit="10" stroke-width="1"/>
            <line id="Línea_863" data-name="Línea 863" x1="21.12" transform="translate(1.399 7.469)" fill="none" stroke="#fd783d" stroke-miterlimit="10" stroke-width="1" stroke-dasharray="0 0 3.81 3.81"/>
            <path id="Trazado_742759" data-name="Trazado 742759" d="M419.535,136.155h-.715v-.715" transform="translate(-418.82 -128.686)" fill="none" stroke="#fd783d" stroke-miterlimit="10" stroke-width="1"/>
            <line id="Línea_864" data-name="Línea 864" y1="2.179" transform="translate(0 3.127)" fill="none" stroke="#fd783d" stroke-miterlimit="10" stroke-width="1" stroke-dasharray="0 0 4.06 4.06"/>
            <line id="Línea_865" data-name="Línea 865" y1="0.715" transform="translate(0 1.685)" fill="none" stroke="#fd783d" stroke-miterlimit="10" stroke-width="1"/>
          </g>
          <g id="Grupo_1023515" data-name="Grupo 1023515" transform="translate(0)">
            <path id="Trazado_742760" data-name="Trazado 742760" d="M405.249,92.662a4.975,4.975,0,0,1,.265-.719,5.6,5.6,0,0,1,2.79-2.822.128.128,0,0,1,.032-.014,5.62,5.62,0,0,1,4.522-.068c.036.018.075.032.114.05a5.638,5.638,0,1,1-7.72,3.57Zm3.824,5.155a3.923,3.923,0,0,0,5.173-1.982,4.272,4.272,0,0,0,.182-.49,3.928,3.928,0,0,0-.343-3.019.076.076,0,0,0-.011-.025,3.891,3.891,0,0,0-1.8-1.638,3.594,3.594,0,0,0-.451-.165.179.179,0,0,0-.047-.014,3.907,3.907,0,0,0-2.336.043h-.007a3.925,3.925,0,0,0-1.667,1.095,3.842,3.842,0,0,0-.662,1.023,4.036,4.036,0,0,0-.243.726,3.93,3.93,0,0,0,2.225,4.447Z" transform="translate(-405.009 -88.597)" fill="#30305c"/>
            <path id="Trazado_742761" data-name="Trazado 742761" d="M405.192,95.341h1.778a3.908,3.908,0,0,1-.064-1.971,4.031,4.031,0,0,1,.243-.726,3.84,3.84,0,0,1,.662-1.023,3.948,3.948,0,0,1,1.667-1.095h.007a3.88,3.88,0,0,1,2.336-.043.1.1,0,0,1,.047.014,3.4,3.4,0,0,1,.451.165,3.89,3.89,0,0,1,1.8,1.638.074.074,0,0,1,.011.025,3.9,3.9,0,0,1,.343,3.019h1.778a5.645,5.645,0,0,0-.7-4.017,5.574,5.574,0,0,0-2.533-2.239c-.036-.018-.075-.032-.114-.05a5.736,5.736,0,0,0-1.871-.433,5.642,5.642,0,0,0-2.651.5.064.064,0,0,0-.032.014,5.6,5.6,0,0,0-2.79,2.822,6,6,0,0,0-.265.719,5.6,5.6,0,0,0-.114,2.683Z" transform="translate(-405.067 -88.597)" fill="#e8e8e8"/>
          </g>
          <rect id="Rectángulo_373391" data-name="Rectángulo 373391" width="12.424" height="1.871" transform="translate(21.621 7.775)" fill="#30305c"/>
        </g>
        <g id="Grupo_1023518" data-name="Grupo 1023518" transform="translate(232.095 16.207)">
          <text id="_3" data-name="{ }" transform="matrix(-1, 0, 0, 1, 7.294, 6)" fill="#323247" font-size="6" font-family="SegoeUIBlack, Segoe UI"><tspan x="0" y="0">{ }</tspan></text>
          <g id="Grupo_1023517" data-name="Grupo 1023517" transform="translate(0 20.598)">
            <rect id="Rectángulo_373392" data-name="Rectángulo 373392" width="7.348" height="3.506" fill="#fff"/>
            <rect id="Rectángulo_373393" data-name="Rectángulo 373393" width="7.348" height="3.506" transform="translate(0 6.124)" fill="#fff"/>
            <rect id="Rectángulo_373394" data-name="Rectángulo 373394" width="7.348" height="3.506" transform="translate(0 12.252)" fill="#eba154"/>
            <rect id="Rectángulo_373395" data-name="Rectángulo 373395" width="7.348" height="3.506" transform="translate(0 18.376)" fill="#eba154"/>
            <rect id="Rectángulo_373396" data-name="Rectángulo 373396" width="7.348" height="3.506" transform="translate(0 24.501)" fill="#eba154"/>
            <rect id="Rectángulo_373397" data-name="Rectángulo 373397" width="7.348" height="3.506" transform="translate(0 30.628)" fill="#eba154"/>
            <rect id="Rectángulo_373398" data-name="Rectángulo 373398" width="7.348" height="3.506" transform="translate(0 36.753)" fill="#eba154"/>
          </g>
        </g>
        <g id="Grupo_1023524" data-name="Grupo 1023524" transform="translate(27.5 88.758)">
          <path id="Trazado_742762" data-name="Trazado 742762" d="M616.007,303.061v-.143a8.48,8.48,0,0,1-1.1-.6,8.838,8.838,0,0,1-1.148-.93l.079-.311a8.114,8.114,0,0,1,.336-1.034c.072-.165.154-.329.233-.49a3.13,3.13,0,0,1,.261-.479l.165-.275a8.109,8.109,0,0,1,1.467.154,7.779,7.779,0,0,1,1.2.354l.1-.1a7.885,7.885,0,0,1-.351-1.2,8.152,8.152,0,0,1-.157-1.467l.275-.164a3.621,3.621,0,0,1,.476-.261c.161-.079.325-.161.493-.233a7.712,7.712,0,0,1,1.03-.336l.311-.079a8.839,8.839,0,0,1,.93,1.148,8.256,8.256,0,0,1,.6,1.1c.022,0,.047-.007.072-.007s.046.007.071.007a7.9,7.9,0,0,1,.6-1.1,8.8,8.8,0,0,1,.927-1.148l.311.079a7.925,7.925,0,0,1,1.034.336c.165.072.329.154.494.233a3.244,3.244,0,0,1,.476.261l.275.164a8.813,8.813,0,0,1-.157,1.467,7.869,7.869,0,0,1-.354,1.2c.036.036.072.068.1.1a7.9,7.9,0,0,1,1.2-.354,8.482,8.482,0,0,1,1.467-.154l.168.275a3.643,3.643,0,0,1,.261.479c.075.161.157.326.229.49a7.083,7.083,0,0,1,.336,1.034l.079.311a8.855,8.855,0,0,1-1.148.93,8.443,8.443,0,0,1-1.095.6v.143a7.834,7.834,0,0,1,1.095.6,8.816,8.816,0,0,1,1.148.926l-.079.311a7.55,7.55,0,0,1-.336,1.034c-.071.165-.154.329-.229.494a4.112,4.112,0,0,1-.261.476l-.168.275a8.154,8.154,0,0,1-1.467-.154,7.893,7.893,0,0,1-1.2-.354,1.3,1.3,0,0,1-.1.1,7.867,7.867,0,0,1,.354,1.2,8.855,8.855,0,0,1,.157,1.467l-.275.168a3.829,3.829,0,0,1-.476.258c-.165.079-.329.161-.494.233a7.108,7.108,0,0,1-1.034.336l-.311.079a8.8,8.8,0,0,1-.927-1.148,7.884,7.884,0,0,1-.6-1.1c-.025,0-.047.007-.071.007a.255.255,0,0,1-.072-.007,8.257,8.257,0,0,1-.6,1.1,8.84,8.84,0,0,1-.93,1.148l-.311-.079a7.544,7.544,0,0,1-1.03-.336c-.168-.072-.333-.154-.493-.233a3.384,3.384,0,0,1-.476-.258l-.275-.168a7.672,7.672,0,0,1,.508-2.665c-.036-.032-.068-.068-.1-.1a7.773,7.773,0,0,1-1.2.354,8.489,8.489,0,0,1-1.467.154l-.165-.275a3.431,3.431,0,0,1-.261-.476c-.079-.165-.161-.329-.233-.494a7.566,7.566,0,0,1-.336-1.034l-.079-.311a9.046,9.046,0,0,1,1.148-.926A8.076,8.076,0,0,1,616.007,303.061Zm5.276,2.45a2.526,2.526,0,1,0-2.526-2.526A2.525,2.525,0,0,0,621.283,305.511Z" transform="translate(-598.049 -293.685)" fill="#323247"/>
          <g id="Grupo_1023522" data-name="Grupo 1023522" transform="translate(32.421 0)">
            <g id="Grupo_1023519" data-name="Grupo 1023519" transform="translate(8.736)">
              <rect id="Rectángulo_373399" data-name="Rectángulo 373399" width="3.334" height="15.014" transform="translate(0)" fill="#d5cef8"/>
              <rect id="Rectángulo_373400" data-name="Rectángulo 373400" width="3.574" height="8.399" transform="translate(4.675 6.614)" fill="#716abb"/>
              <rect id="Rectángulo_373401" data-name="Rectángulo 373401" width="3.574" height="5.709" transform="translate(9.626 9.301)" fill="#fd783d"/>
            </g>
            <g id="Grupo_1023520" data-name="Grupo 1023520" transform="translate(21.936 12.62)">
              <line id="Línea_866" data-name="Línea 866" x2="0.715" transform="translate(0.633)" fill="none" stroke="#fd783d" stroke-miterlimit="10" stroke-width="1"/>
              <line id="Línea_867" data-name="Línea 867" x2="2.719" transform="translate(3.162)" fill="none" stroke="#fd783d" stroke-miterlimit="10" stroke-width="1" stroke-dasharray="0 0 5.07 5.07"/>
              <path id="Trazado_742763" data-name="Trazado 742763" d="M526.76,325.76h.715v.716" transform="translate(-519.97 -325.76)" fill="none" stroke="#fd783d" stroke-miterlimit="10" stroke-width="1"/>
              <line id="Línea_868" data-name="Línea 868" y2="10.038" transform="translate(7.505 2.053)" fill="none" stroke="#fd783d" stroke-miterlimit="10" stroke-width="1" stroke-dasharray="0 0 3.74 3.74"/>
              <path id="Trazado_742764" data-name="Trazado 742764" d="M527.476,361.43v.715h-.715" transform="translate(-519.97 -348.67)" fill="none" stroke="#fd783d" stroke-miterlimit="10" stroke-width="1"/>
              <line id="Línea_869" data-name="Línea 869" x1="4.25" transform="translate(1.324 13.475)" fill="none" stroke="#fd783d" stroke-miterlimit="10" stroke-width="1" stroke-dasharray="0 0 3.4 3.4"/>
              <line id="Línea_870" data-name="Línea 870" x1="0.715" transform="translate(0 13.475)" fill="none" stroke="#fd783d" stroke-miterlimit="10" stroke-width="1"/>
            </g>
            <g id="Grupo_1023521" data-name="Grupo 1023521" transform="translate(0 25.427)">
              <rect id="Rectángulo_373402" data-name="Rectángulo 373402" width="9.455" height="1.688" transform="translate(11.351)" fill="#fff"/>
              <rect id="Rectángulo_373403" data-name="Rectángulo 373403" width="6.539" height="1.688" transform="translate(14.266 3.127)" fill="#fff"/>
              <rect id="Rectángulo_373404" data-name="Rectángulo 373404" width="8.278" height="1.688" transform="translate(12.527 6.253)" fill="#fff"/>
              <rect id="Rectángulo_373405" data-name="Rectángulo 373405" width="1.932" height="1.688" transform="translate(8.882 6.253)" fill="#eba154"/>
              <rect id="Rectángulo_373406" data-name="Rectángulo 373406" width="7.108" height="1.688" transform="translate(0.004 6.253)" fill="#eba154"/>
              <rect id="Rectángulo_373407" data-name="Rectángulo 373407" width="12.166" height="1.688" transform="translate(0.004 3.127)" fill="#eba154"/>
              <rect id="Rectángulo_373408" data-name="Rectángulo 373408" width="9.455" height="1.688" transform="translate(0)" fill="#eba154"/>
            </g>
          </g>
          <g id="Grupo_1023523" data-name="Grupo 1023523" transform="translate(0 8.385)">
            <rect id="Rectángulo_373409" data-name="Rectángulo 373409" width="6.228" height="2.973" fill="#716abb"/>
            <rect id="Rectángulo_373410" data-name="Rectángulo 373410" width="6.228" height="2.973" transform="translate(0 5.194)" fill="#716abb"/>
            <rect id="Rectángulo_373411" data-name="Rectángulo 373411" width="6.228" height="2.973" transform="translate(0 10.388)" fill="#716abb"/>
            <rect id="Rectángulo_373412" data-name="Rectángulo 373412" width="6.228" height="2.973" transform="translate(0 15.582)" fill="#716abb"/>
            <rect id="Rectángulo_373413" data-name="Rectángulo 373413" width="6.228" height="2.973" transform="translate(0 20.777)" fill="#fff"/>
            <rect id="Rectángulo_373414" data-name="Rectángulo 373414" width="6.228" height="2.973" transform="translate(0 25.971)" fill="#fff"/>
            <rect id="Rectángulo_373415" data-name="Rectángulo 373415" width="6.228" height="2.973" transform="translate(0 31.165)" fill="#fff"/>
          </g>
        </g>
        <g id="Grupo_1023528" data-name="Grupo 1023528" transform="translate(16.216 117.06)">
          <g id="Grupo_1023525" data-name="Grupo 1023525" transform="translate(17.356 12.52)">
            <path id="Trazado_742765" data-name="Trazado 742765" d="M584.876,401.226a9.567,9.567,0,0,0,5.906-1.388c6.571-4.067,7.941-15.536,8.038-16.4-.057.265-.7,1.667-7.537,6.26-.569.383-1.087.773-1.563,1.166a.14.14,0,0,1-.025.018c-5.952,4.929-4.818,10.338-4.818,10.338Z" transform="translate(-584.79 -383.39)" fill="#0c8068"/>
            <path id="Trazado_742766" data-name="Trazado 742766" d="M597.722,383.3s-6.135,15.057-12.942,16.645" transform="translate(-583.688 -383.3)" fill="none" stroke="#0a6d53" stroke-miterlimit="10" stroke-width="1"/>
            <path id="Trazado_742767" data-name="Trazado 742767" d="M607.346,414.566a9.568,9.568,0,0,0,5.906-1.388c-1.309-3.094-1.062-8.968-1.062-8.968a.142.142,0,0,1-.025.018c-5.952,4.929-4.818,10.338-4.818,10.338Z" transform="translate(-607.26 -396.73)" fill="#0a6d53" opacity="0.5"/>
          </g>
          <g id="Grupo_1023526" data-name="Grupo 1023526" transform="translate(0 13.407)">
            <path id="Trazado_742768" data-name="Trazado 742768" d="M632.77,385.784c.025.161.118.716.3,1.535h0c.969,4.343,4.468,16.026,13.883,14.856a7.639,7.639,0,0,0-.157-2.5c-.465-2.2-1.964-5.487-6.518-8.242-6.757-4.085-7.441-5.4-7.509-5.648Z" transform="translate(-632.77 -385.78)" fill="#0c8068"/>
            <path id="Trazado_742769" data-name="Trazado 742769" d="M634.74,388.38s4.833,12.52,13.214,15.071" transform="translate(-634.436 -387.45)" fill="none" stroke="#0a6d53" stroke-miterlimit="10" stroke-width="1"/>
            <path id="Trazado_742770" data-name="Trazado 742770" d="M632.76,390.074h0c.969,4.343,4.468,16.026,13.883,14.856a7.635,7.635,0,0,0-.157-2.5h-.011c-7.834.419-13.715-12.356-13.715-12.356Z" transform="translate(-632.456 -388.535)" fill="#0a6d53" opacity="0.5"/>
          </g>
          <g id="Grupo_1023527" data-name="Grupo 1023527" transform="translate(9.492)">
            <path id="Trazado_742771" data-name="Trazado 742771" d="M619.985,378.521c.233.4,3.67-1.023,5.219-5.158h0c.93-2.483,1.177-5.942-.358-10.567-4.039-12.141-2.375-14.431-2.325-14.495a14.749,14.749,0,0,0-5.852,6.021s0,.007-.011.018c-2.49,4.675-3.459,12.381,3.323,24.182Z" transform="translate(-614.785 -348.3)" fill="#159a7a"/>
            <path id="Trazado_742772" data-name="Trazado 742772" d="M628.075,348.3s-5.266,6.643-3.259,19.278.719,10.939.719,10.939" transform="translate(-620.335 -348.3)" fill="none" stroke="#0c8068" stroke-miterlimit="10" stroke-width="1"/>
            <path id="Trazado_742773" data-name="Trazado 742773" d="M622.07,389.336c.233.4,3.67-1.023,5.219-5.158-8.668,2.461-8.535-19.038-8.535-19.038s0,.007-.011.018c-2.49,4.675-3.459,12.381,3.323,24.182Z" transform="translate(-616.87 -359.116)" fill="#0c8068" opacity="0.5"/>
          </g>
          <path id="Trazado_742774" data-name="Trazado 742774" d="M584.771,383.3a.393.393,0,0,1,0,.043A.1.1,0,0,0,584.771,383.3Z" transform="translate(-553.377 -370.78)" fill="#0c8068"/>
          <path id="Trazado_742775" data-name="Trazado 742775" d="M608.6,432.27v9.705a5.139,5.139,0,0,0,5.14,5.141h4.565a5.134,5.134,0,0,0,4.389-2.465h0a5.119,5.119,0,0,0,.748-2.676V432.27H608.6Z" transform="translate(-600.576 -402.232)" fill="#eba154"/>
          <rect id="Rectángulo_373416" data-name="Rectángulo 373416" width="16.681" height="1.259" rx="0.63" transform="translate(7.112 28.779)" fill="#eba154"/>
          <path id="Trazado_742776" data-name="Trazado 742776" d="M610.69,432.27v9.705a5.139,5.139,0,0,0,5.14,5.141H620.4a5.134,5.134,0,0,0,4.389-2.465c-10.871,3.416-13.232-4.579-12.814-7.752s4.336-4.629,4.336-4.629Z" transform="translate(-602.663 -402.232)" fill="#dc831e"/>
        </g>
        <g id="Grupo_1023534" data-name="Grupo 1023534" transform="translate(45.362 23.69)">
          <path id="Trazado_742777" data-name="Trazado 742777" d="M350.341,186.494c.637,13.958,14.36,24.656,24.639,25.305,13.582.855,23.288-11.394,24.639-25.305,1.171-12.048-3.107-11.868-6.3-16.894-3.863-6.086-11.061-9.449-18.343-9.449C361.372,160.15,349.482,167.71,350.341,186.494Z" transform="translate(-308.727 -155.895)" fill="#18304d"/>
          <rect id="Rectángulo_373417" data-name="Rectángulo 373417" width="19.1" height="23.908" transform="translate(56.705 54.6)" fill="#faaf9a"/>
          <g id="Grupo_1023529" data-name="Grupo 1023529" transform="translate(34.92 36.775)">
            <path id="Trazado_742778" data-name="Trazado 742778" d="M464.318,240.117c-3.406-5.171-7.74-5.4-9.552.718s4.163,11.146,9.026,9.287.521-10.005.521-10.005Z" transform="translate(-454.435 -236.242)" fill="#faaf9a"/>
            <path id="Trazado_742779" data-name="Trazado 742779" d="M466.339,245.605c-2.282-.419-3.453,6.381,1.551,6.607l-1.03-2.372.966-1.975-1.491-2.261Z" transform="translate(-460.478 -241.593)" fill="#faaf9a"/>
            <path id="Trazado_742780" data-name="Trazado 742780" d="M467.321,252.212c-2.919-3.107-.812-5.278-.812-5.278s-2.778-5.693-3.889-1.329" transform="translate(-459.157 -240.66)" fill="none" stroke="#c87e84" stroke-miterlimit="10" stroke-width="0.5"/>
          </g>
          <g id="Grupo_1023530" data-name="Grupo 1023530" transform="translate(86.086 36.775)">
            <path id="Trazado_742781" data-name="Trazado 742781" d="M336.5,240.117c3.406-5.171,7.74-5.4,9.552.718s-4.163,11.146-9.026,9.287-.521-10.005-.521-10.005Z" transform="translate(-334.716 -236.242)" fill="#faaf9a"/>
            <path id="Trazado_742782" data-name="Trazado 742782" d="M345.4,245.605c2.282-.419,3.453,6.381-1.551,6.607l1.03-2.372-.966-1.975,1.492-2.261Z" transform="translate(-339.597 -241.593)" fill="#faaf9a"/>
            <path id="Trazado_742783" data-name="Trazado 742783" d="M342.81,252.212c2.919-3.107.812-5.278.812-5.278s2.778-5.693,3.889-1.329" transform="translate(-339.308 -240.66)" fill="none" stroke="#c87e84" stroke-miterlimit="10" stroke-width="0.5"/>
          </g>
          <path id="Trazado_742784" data-name="Trazado 742784" d="M386.06,279.18v8.894c6.864,9.3,19.1,6.278,19.1,6.278l-.214-15.172Z" transform="translate(-329.355 -224.054)" fill="#ed7662"/>
          <path id="Trazado_742785" data-name="Trazado 742785" d="M387.44,186.81h-13.4A13.947,13.947,0,0,0,360.1,200.751v15.087a20.651,20.651,0,0,0,20.643,20.643h0a20.651,20.651,0,0,0,20.643-20.643V200.751a13.947,13.947,0,0,0-13.941-13.941Z" transform="translate(-314.486 -171.161)" fill="#faaf9a"/>
          <path id="Trazado_742786" data-name="Trazado 742786" d="M400.98,261.04a3.175,3.175,0,0,0,6.351,0" transform="translate(-337.903 -213.667)" fill="none" stroke="#b83d5d" stroke-miterlimit="10" stroke-width="1"/>
          <path id="Trazado_742787" data-name="Trazado 742787" d="M364.135,173.859s3.616-5.992-.915-11.279C363.22,162.58,359.968,168.606,364.135,173.859Z" transform="translate(-279.419 -157.287)" fill="#18304d"/>
          <path id="Trazado_742788" data-name="Trazado 742788" d="M343.31,184.347s5.035,4.864,11.2,1.628C354.507,185.975,349.362,181.458,343.31,184.347Z" transform="translate(-260.432 -169.198)" fill="#18304d"/>
          <path id="Trazado_742789" data-name="Trazado 742789" d="M381.62,239.57c0,1.705.727,3.09,1.624,3.09s1.624-1.385,1.624-3.09-.727-3.09-1.624-3.09S381.62,237.865,381.62,239.57Z" transform="translate(-307.166 -199.603)" fill="#36364f"/>
          <ellipse id="Elipse_7876" data-name="Elipse 7876" cx="8.3" cy="8.3" rx="8.3" ry="8.3" transform="translate(71.081 49.922) rotate(-105.2)" fill="none" stroke="#fff" stroke-miterlimit="10" stroke-width="1"/>
          <path id="Trazado_742790" data-name="Trazado 742790" d="M427.58,239.57c0,1.705.727,3.09,1.624,3.09s1.624-1.385,1.624-3.09-.727-3.09-1.624-3.09S427.58,237.865,427.58,239.57Z" transform="translate(-372.768 -199.603)" fill="#36364f"/>
          <ellipse id="Elipse_7877" data-name="Elipse 7877" cx="8.3" cy="8.3" rx="8.3" ry="8.3" transform="translate(49.815 49.943) rotate(-105.48)" fill="none" stroke="#fff" stroke-miterlimit="10" stroke-width="1"/>
          <path id="Trazado_742791" data-name="Trazado 742791" d="M408.937,183.542s-13.112-6.915-21.826-1.9-9.693,15.36-18.3,12.68c0,0-6.535-2.876.654-12.9s12.108-11.984,21.467-9.8S406.381,175.491,408.937,183.542Z" transform="translate(-324.597 -162.004)" fill="#18304d"/>
          <path id="Trazado_742792" data-name="Trazado 742792" d="M388.071,190.364s-4.329-5.74-10.39-7.257-12.762,5.936-12.762,5.936S380.447,186.829,388.071,190.364Z" transform="translate(-303.232 -168.924)" fill="#12263f"/>
          <path id="Trazado_742793" data-name="Trazado 742793" d="M358.612,217.25s-1.462,10.655,0,17.155C358.612,234.405,360.745,217.887,358.612,217.25Z" transform="translate(-271.746 -188.592)" fill="#18304d"/>
          <path id="Trazado_742794" data-name="Trazado 742794" d="M455.778,217.25s1.462,10.655,0,17.155C455.778,234.405,453.645,217.887,455.778,217.25Z" transform="translate(-410.014 -188.592)" fill="#18304d"/>
          <path id="Trazado_742795" data-name="Trazado 742795" d="M370.408,213.676c2.252-1.077,6.257-2.261,9.971.38a.865.865,0,0,1-.368,1.551,27.771,27.771,0,0,1-4.834.406,20.434,20.434,0,0,1-4.611-.722.866.866,0,0,1-.158-1.62Z" transform="translate(-298.03 -185.846)" fill="#12263f"/>
          <path id="Trazado_742796" data-name="Trazado 742796" d="M421.308,213.676c2.252-1.077,6.257-2.261,9.971.38a.865.865,0,0,1-.368,1.551,27.77,27.77,0,0,1-4.834.406,20.433,20.433,0,0,1-4.611-.722.866.866,0,0,1-.158-1.62Z" transform="translate(-370.684 -185.846)" fill="#12263f"/>
          <g id="Grupo_1023531" data-name="Grupo 1023531" transform="translate(58.594 52.976)">
            <path id="Trazado_742797" data-name="Trazado 742797" d="M390.54,276a6.881,6.881,0,0,0,.812,1.18,7.77,7.77,0,0,0,6.189,2.663v.013l.239,0,.009-.017a7.855,7.855,0,0,0,5.983-2.44,6.918,6.918,0,0,0,1-1.415,7.026,7.026,0,0,0,.675-1.834l-15.587.03a6.34,6.34,0,0,0,.68,1.825Z" transform="translate(-389.86 -274.15)" fill="#c33e5d"/>
            <path id="Trazado_742798" data-name="Trazado 742798" d="M390.54,276a6.881,6.881,0,0,0,.812,1.18,14.649,14.649,0,0,1,12.42.214,6.918,6.918,0,0,0,1-1.415,7.026,7.026,0,0,0,.675-1.834l-15.587.03a6.34,6.34,0,0,0,.68,1.825Z" transform="translate(-389.86 -274.15)" fill="#36364f"/>
          </g>
          <path id="Trazado_742799" data-name="Trazado 742799" d="M236.47,389.981l139.737.145s-2.607-5.453-6.359-12.68c-.278-.534-.564-1.081-.855-1.637-5.124-9.774-12.018-22.121-17.4-28.818-6.2-7.71-20.839-13.206-30.784-16.211-5.8-1.748-9.992-2.65-9.992-2.65H294.765s-3.769.808-9.095,2.385c-9.937,2.936-24.793,8.962-31.682,16.475a36.746,36.746,0,0,0-4.27,5.859c-8.479,14.091-13.249,37.131-13.249,37.131Z" transform="translate(-236.47 -252.084)" fill="#f66a2d"/>
          <path id="Trazado_742800" data-name="Trazado 742800" d="M236.47,423.1l139.737.145s-2.607-5.453-6.359-12.68c-69.732,20.5-106.478-13.1-114.863-22.19a7.407,7.407,0,0,0-5.231-2.406h-.034C241.24,400.061,236.47,423.1,236.47,423.1Z" transform="translate(-236.47 -285.204)" fill="#d3340c" opacity="0.5"/>
          <path id="Trazado_742801" data-name="Trazado 742801" d="M4.381,0H0" transform="translate(64.065 41.146)" fill="none" stroke="#fff" stroke-width="1"/>
          <path id="Trazado_742802" data-name="Trazado 742802" d="M366.09,330.5c17.3,19.031,35.139.269,35.139.269-5.8-1.752-9.992-2.654-9.992-2.654H375.185S371.415,328.932,366.09,330.5Z" transform="translate(-316.89 -252.078)" fill="#faaf9a"/>
          <g id="Grupo_1023532" data-name="Grupo 1023532" transform="translate(104.448 116.361)">
            <line id="Línea_871" data-name="Línea 871" y2="21.707" transform="translate(0)" fill="none" stroke="#dc831e" stroke-miterlimit="10" stroke-width="3"/>
            <line id="Línea_872" data-name="Línea 872" y1="7.428" x2="5.825" transform="translate(0 6.406)" fill="none" stroke="#dc831e" stroke-miterlimit="10" stroke-width="3"/>
          </g>
          <g id="Grupo_1023533" data-name="Grupo 1023533" transform="translate(23.284 116.361)">
            <line id="Línea_873" data-name="Línea 873" y2="21.707" transform="translate(5.176)" fill="none" stroke="#c03f13" stroke-miterlimit="10" stroke-width="3"/>
            <line id="Línea_874" data-name="Línea 874" x1="5.176" y1="6.599" transform="translate(0 7.236)" fill="none" stroke="#c03f13" stroke-miterlimit="10" stroke-width="3"/>
          </g>
          <path id="Trazado_742803" data-name="Trazado 742803" d="M400.119,352.709S378.672,367.356,364.15,352" transform="translate(-314.95 -265.752)" fill="none" stroke="#c03f13" stroke-miterlimit="10" stroke-width="3"/>
          <path id="Trazado_742804" data-name="Trazado 742804" d="M409.8,162.758c-4.817-20.241-53.06-18.014-44.085,21.395,2.688,11.8,22.352-26.835,39.323-17.356a3.338,3.338,0,0,0,3.911-.466h0A3.6,3.6,0,0,0,409.8,162.758Z" transform="translate(-324.966 -150.195)" fill="#18304d"/>
        </g>
        <g id="Grupo_1023536" data-name="Grupo 1023536" transform="translate(87.877 110.019)">
          <g id="Grupo_1023535" data-name="Grupo 1023535">
            <path id="Trazado_742805" data-name="Trazado 742805" d="M164.675,403.771a.232.232,0,0,0,.047.009,3.219,3.219,0,0,0,.355.017h93.592a3.938,3.938,0,0,0,3.932-3.936l.013-.043,14.574-41.178a4.834,4.834,0,0,0-4.556-6.449H211.867a4.835,4.835,0,0,0-4.56,3.223L191.6,399.783l-.026.077H164.987c-2.44,0-2.71,3.65-.312,3.911Z" transform="translate(-163.01 -352.19)" fill="#80abbd"/>
            <path id="Trazado_742806" data-name="Trazado 742806" d="M231.689,402.15c-1.539,4.466.2,9.116,3.881,10.381s7.911-1.329,9.445-5.8-.2-9.116-3.881-10.381S233.224,397.68,231.689,402.15Z" transform="translate(-160.229 -377.294)" fill="#fff"/>
            <path id="Trazado_742807" data-name="Trazado 742807" d="M313.736,399.866h26.587s.009-.026.021-.077l15.711-44.371a4.831,4.831,0,0,1,4.56-3.218h2.03s-4.539.295-5.676,4.359-16.647,47.162-16.647,47.162l-1.145.086H313.83a2.457,2.457,0,0,1-.359-.017c-2.449-.222-2.188-3.919.265-3.919Z" transform="translate(-311.759 -352.196)" fill="#4b7195"/>
          </g>
          <path id="Trazado_742808" data-name="Trazado 742808" d="M199.81,403.771a.232.232,0,0,0,.047.009,3.219,3.219,0,0,0,.355.017H293.8a3.916,3.916,0,0,0,3.073-1.483C241.557,407.066,247,352.19,247,352.19a4.835,4.835,0,0,0-4.56,3.223l-15.706,44.371-.026.077H200.541C200.259,401.155,200.011,402.459,199.81,403.771Z" transform="translate(-198.145 -352.19)" fill="#5a93a0" opacity="0.4"/>
        </g>
        <g id="Grupo_1023545" data-name="Grupo 1023545" transform="translate(192.96 138.892)">
          <g id="Grupo_1023540" data-name="Grupo 1023540" transform="translate(4.264)">
            <g id="Grupo_1023538" data-name="Grupo 1023538">
              <g id="Grupo_1023537" data-name="Grupo 1023537">
                <path id="Trazado_742809" data-name="Trazado 742809" d="M46.87,409.33v1.152c2.086.24,2.593,2,2.593,4.146v.708c0,2.146-.512,3.906-2.593,4.146v1.148H86.717a2.957,2.957,0,0,0,2.958-2.958V412.3a2.963,2.963,0,0,0-2.958-2.966Z" transform="translate(-46.87 -409.33)" fill="#4b7195"/>
                <path id="Trazado_742810" data-name="Trazado 742810" d="M56.157,420.328a.861.861,0,0,0,.808,1.181l38.08.029V412.48l-38.08.029a.863.863,0,0,0-.572.215.843.843,0,0,0-.24.966,8.344,8.344,0,0,1,.3,2.966v.708a8.344,8.344,0,0,1-.3,2.966Z" transform="translate(-55.538 -411.353)" fill="#fff"/>
                <path id="Trazado_742811" data-name="Trazado 742811" d="M56.08,412.73c.733.039,34.381,1.778,36.688,5.051a3.256,3.256,0,0,0,1.964,1.481V412.49l-38.08.029a.863.863,0,0,0-.572.215Z" transform="translate(-55.221 -411.36)" fill="#a3d5e6" opacity="0.4"/>
              </g>
              <path id="Trazado_742812" data-name="Trazado 742812" d="M50.218,409.34H46.87v11.3h3.348a1.91,1.91,0,0,0,1.91-1.91v-7.48A1.91,1.91,0,0,0,50.218,409.34Z" transform="translate(-9.323 -409.336)" fill="#4b7195"/>
              <path id="Trazado_742813" data-name="Trazado 742813" d="M141.357,420.367a.861.861,0,0,0,.808,1.18l7.6.007c-6.038-.687-5.663-5.648-5.663-5.648-.068-.24,4.772-3.148,4.69-3.366l-6.629.007a.863.863,0,0,0-.572.215.843.843,0,0,0-.24.966,8.345,8.345,0,0,1,.3,2.966v.708a8.344,8.344,0,0,1-.3,2.965Z" transform="translate(-140.738 -411.392)" fill="#a3d5e6" opacity="0.4"/>
            </g>
            <g id="Grupo_1023539" data-name="Grupo 1023539" transform="translate(0.927 3.155)">
              <rect id="Rectángulo_373418" data-name="Rectángulo 373418" width="36.556" height="0.816" transform="translate(0 1.839)" fill="#a3d5e6" opacity="0.4"/>
              <rect id="Rectángulo_373419" data-name="Rectángulo 373419" width="36.556" height="0.816" fill="#a3d5e6" opacity="0.4"/>
              <rect id="Rectángulo_373420" data-name="Rectángulo 373420" width="36.556" height="0.816" transform="translate(0 4.178)" fill="#a3d5e6" opacity="0.4"/>
            </g>
            <path id="Trazado_742814" data-name="Trazado 742814" d="M120.16,423.487l1.942-1.939,1.946,1.939V418.15H120.16Z" transform="translate(-107.461 -414.995)" fill="#c33e5d"/>
          </g>
          <g id="Grupo_1023544" data-name="Grupo 1023544" transform="translate(0 11.265)">
            <g id="Grupo_1023542" data-name="Grupo 1023542">
              <g id="Grupo_1023541" data-name="Grupo 1023541">
                <path id="Trazado_742815" data-name="Trazado 742815" d="M58.79,440.82v1.152c2.086.24,2.593,2,2.593,4.146v.708c0,2.146-.512,3.906-2.593,4.146v1.148H98.637a2.957,2.957,0,0,0,2.958-2.958v-5.377a2.963,2.963,0,0,0-2.958-2.966Z" transform="translate(-58.79 -440.82)" fill="#c33e5d"/>
                <path id="Trazado_742816" data-name="Trazado 742816" d="M68.067,451.808a.861.861,0,0,0,.808,1.181l38.08.029V443.96l-38.08.029a.863.863,0,0,0-.572.215.843.843,0,0,0-.24.966,8.344,8.344,0,0,1,.3,2.966v.708a8.344,8.344,0,0,1-.3,2.966Z" transform="translate(-67.444 -442.837)" fill="#fff"/>
                <path id="Trazado_742817" data-name="Trazado 742817" d="M68,444.21c.733.039,34.381,1.778,36.688,5.051a3.256,3.256,0,0,0,1.964,1.481V443.97L68.572,444a.863.863,0,0,0-.572.215Z" transform="translate(-67.141 -442.843)" fill="#a3d5e6" opacity="0.4"/>
              </g>
              <path id="Trazado_742818" data-name="Trazado 742818" d="M62.138,440.82H58.79v11.3h3.348a1.91,1.91,0,0,0,1.91-1.91v-7.48A1.91,1.91,0,0,0,62.138,440.82Z" transform="translate(-21.243 -440.82)" fill="#c33e5d"/>
              <path id="Trazado_742819" data-name="Trazado 742819" d="M153.267,451.847a.861.861,0,0,0,.808,1.18l7.6.007c-6.038-.687-5.663-5.648-5.663-5.648-.068-.24,4.772-3.148,4.69-3.366l-6.629.007a.863.863,0,0,0-.572.215.843.843,0,0,0-.24.966,8.345,8.345,0,0,1,.3,2.965v.708a8.346,8.346,0,0,1-.3,2.966Z" transform="translate(-152.644 -442.875)" fill="#a3d5e6" opacity="0.4"/>
            </g>
            <g id="Grupo_1023543" data-name="Grupo 1023543" transform="translate(0.926 3.152)">
              <rect id="Rectángulo_373421" data-name="Rectángulo 373421" width="36.556" height="0.816" transform="translate(0 1.839)" fill="#a3d5e6" opacity="0.4"/>
              <rect id="Rectángulo_373422" data-name="Rectángulo 373422" width="36.556" height="0.816" fill="#a3d5e6" opacity="0.4"/>
              <rect id="Rectángulo_373423" data-name="Rectángulo 373423" width="36.556" height="0.816" transform="translate(0 4.178)" fill="#a3d5e6" opacity="0.4"/>
            </g>
            <path id="Trazado_742820" data-name="Trazado 742820" d="M153.2,456.418l2.053-2.05,2.053,2.05V450.78H153.2Z" transform="translate(-148.274 -447.217)" fill="#c33e5d"/>
          </g>
        </g>
      </g>
    </g>
  </g>
</svg>
