<svg xmlns="http://www.w3.org/2000/svg" width="64.073" height="59.321" viewBox="0 0 64.073 59.321">
  <g id="_17" data-name="17" transform="translate(-1016.5 -3360.786)">
    <g id="encabezados" transform="translate(1016.064 3359.336)">
      <g id="BG" transform="translate(0.436 1.45)">
        <g id="Grupo_1024247" data-name="Grupo 1024247">
          <path id="Trazado_743782" data-name="Trazado 743782" d="M14.1,8.921C10.89,20.806,2.526,27.3.977,33.03S-.53,51.676,25.817,58.8,60.4,50.787,62.107,44.486c7.976-29.5-42.313-56.614-48-35.566Z" transform="translate(-0.436 -1.45)" fill="#9d8fe3"/>
        </g>
      </g>
      <g id="Color" transform="translate(5.325 18.962)">
        <g id="Grupo_1024251" data-name="Grupo 1024251" transform="translate(-2 30.804)">
          <g id="Grupo_1024248" data-name="Grupo 1024248" transform="translate(0.311 0)">
            <path id="Trazado_743783" data-name="Trazado 743783" d="M0,0H1.78V3.56H0Z" transform="translate(0 1.258) rotate(-45)" fill="#221b6b"/>
          </g>
          <g id="Grupo_1024249" data-name="Grupo 1024249" transform="translate(7.552 7.23)">
            <path id="Trazado_743784" data-name="Trazado 743784" d="M0,0H1.78V3.56H0Z" transform="translate(0 1.258) rotate(-45)" fill="#221b6b"/>
          </g>
          <g id="Grupo_1024250" data-name="Grupo 1024250" transform="translate(0 7.23)">
            <path id="Trazado_743785" data-name="Trazado 743785" d="M0,0H3.56V1.78H0Z" transform="translate(0 2.517) rotate(-45)" fill="#221b6b"/>
          </g>
        </g>
        <g id="Grupo_1024252" data-name="Grupo 1024252" transform="translate(53.844 -7)">
          <path id="Trazado_743786" data-name="Trazado 743786" d="M32.17,16.628a2.67,2.67,0,1,1,2.67-2.67A2.673,2.673,0,0,1,32.17,16.628Zm0-3.56a.89.89,0,1,0,.89.89A.891.891,0,0,0,32.17,13.068Z" transform="translate(-29.5 -11.288)" fill="#221b6b"/>
        </g>
      </g>
    </g>
    <g id="marcado" transform="translate(971.52 3364.793)">
      <g id="Grupo_1024264" data-name="Grupo 1024264" transform="translate(54.98)">
        <g id="Grupo_1024263" data-name="Grupo 1024263">
          <path id="Trazado_743803" data-name="Trazado 743803" d="M97.027,9.247,88.915,1.135A3.85,3.85,0,0,0,86.174,0h-28.3A2.894,2.894,0,0,0,54.98,2.891V52.1a2.894,2.894,0,0,0,2.891,2.891h37.4A2.894,2.894,0,0,0,98.162,52.1V11.988A3.85,3.85,0,0,0,97.027,9.247ZM96.317,52.1a1.047,1.047,0,0,1-1.046,1.046h-37.4A1.047,1.047,0,0,1,56.825,52.1V2.891a1.047,1.047,0,0,1,1.046-1.046h28.3a2.017,2.017,0,0,1,1.435.595l8.112,8.112a2.052,2.052,0,0,1,.228.274H88.382a1.047,1.047,0,0,1-1.046-1.046V4.86a.923.923,0,1,0-1.845,0V9.781a2.894,2.894,0,0,0,2.891,2.891h7.935V52.1Z" transform="translate(-54.98 0)" fill="#12263f"/>
        </g>
      </g>
      <g id="Grupo_1024266" data-name="Grupo 1024266" transform="translate(72.696 26.574)">
        <g id="Grupo_1024265" data-name="Grupo 1024265">
          <path id="Trazado_743804" data-name="Trazado 743804" d="M233.636,247.409H220.842a.923.923,0,0,0,0,1.845h12.795a.923.923,0,1,0,0-1.845Z" transform="translate(-219.919 -247.409)" fill="#12263f"/>
        </g>
      </g>
      <g id="Grupo_1024268" data-name="Grupo 1024268" transform="translate(72.696 30.511)">
        <g id="Grupo_1024267" data-name="Grupo 1024267">
          <path id="Trazado_743805" data-name="Trazado 743805" d="M238.558,284.063H220.842a.923.923,0,0,0,0,1.846h17.716a.923.923,0,1,0,0-1.846Z" transform="translate(-219.919 -284.063)" fill="#12263f"/>
        </g>
      </g>
      <g id="Grupo_1024270" data-name="Grupo 1024270" transform="translate(72.696 13.779)">
        <g id="Grupo_1024269" data-name="Grupo 1024269">
          <path id="Trazado_743806" data-name="Trazado 743806" d="M229.7,128.286h-8.858a.923.923,0,0,0,0,1.845H229.7a.923.923,0,1,0,0-1.845Z" transform="translate(-219.919 -128.286)" fill="#12263f"/>
        </g>
      </g>
      <g id="Grupo_1024272" data-name="Grupo 1024272" transform="translate(72.696 17.716)">
        <g id="Grupo_1024271" data-name="Grupo 1024271">
          <path id="Trazado_743807" data-name="Trazado 743807" d="M238.558,164.94H220.842a.923.923,0,0,0,0,1.845h17.716a.923.923,0,1,0,0-1.845Z" transform="translate(-219.919 -164.94)" fill="#12263f"/>
        </g>
      </g>
      <g id="Grupo_1024274" data-name="Grupo 1024274" transform="translate(60.885 37.4)">
        <g id="Grupo_1024273" data-name="Grupo 1024273">
          <path id="Trazado_743808" data-name="Trazado 743808" d="M117.772,348.206h-5.905a1.909,1.909,0,0,0-1.907,1.907v5.905a1.909,1.909,0,0,0,1.907,1.907h5.905a1.909,1.909,0,0,0,1.907-1.907v-5.905A1.909,1.909,0,0,0,117.772,348.206Zm.061,7.812a.062.062,0,0,1-.062.062h-5.905a.062.062,0,0,1-.062-.062v-5.905a.062.062,0,0,1,.062-.061h5.905a.062.062,0,0,1,.062.061Z" transform="translate(-109.96 -348.206)" fill="#12263f"/>
        </g>
      </g>
      <g id="Grupo_1024276" data-name="Grupo 1024276" transform="translate(72.696 39.368)">
        <g id="Grupo_1024275" data-name="Grupo 1024275">
          <path id="Trazado_743809" data-name="Trazado 743809" d="M230.684,366.532h-9.842a.923.923,0,0,0,0,1.846h9.842a.923.923,0,0,0,0-1.846Z" transform="translate(-219.919 -366.532)" fill="#12263f"/>
        </g>
      </g>
      <g id="Grupo_1024278" data-name="Grupo 1024278" transform="translate(72.696 43.305)">
        <g id="Grupo_1024277" data-name="Grupo 1024277">
          <path id="Trazado_743810" data-name="Trazado 743810" d="M234.621,403.186H220.842a.923.923,0,0,0,0,1.846h13.779a.923.923,0,0,0,0-1.846Z" transform="translate(-219.919 -403.186)" fill="#12263f"/>
        </g>
      </g>
      <g id="Grupo_1024280" data-name="Grupo 1024280" transform="translate(60.885 11.81)">
        <g id="Grupo_1024279" data-name="Grupo 1024279">
          <path id="Trazado_743811" data-name="Trazado 743811" d="M120.392,111.214a.923.923,0,0,0-1.3,0L115.8,114.5l-1.316-1.316a.923.923,0,1,0-1.3,1.3l1.968,1.968a.923.923,0,0,0,1.3,0l1.377-1.378v2.693a.062.062,0,0,1-.062.062h-5.905a.062.062,0,0,1-.062-.062v-5.905a.062.062,0,0,1,.062-.062H115.8a.923.923,0,0,0,0-1.845h-3.937a1.909,1.909,0,0,0-1.907,1.907v5.905a1.909,1.909,0,0,0,1.907,1.907h5.905a1.909,1.909,0,0,0,1.907-1.907v-4.539l.714-.714A.923.923,0,0,0,120.392,111.214Z" transform="translate(-109.959 -109.959)" fill="#12263f"/>
        </g>
      </g>
      <g id="Grupo_1024282" data-name="Grupo 1024282" transform="translate(60.885 24.605)">
        <g id="Grupo_1024281" data-name="Grupo 1024281">
          <path id="Trazado_743812" data-name="Trazado 743812" d="M120.392,230.337a.923.923,0,0,0-1.3,0l-3.284,3.285-1.316-1.316a.923.923,0,1,0-1.3,1.3l1.968,1.968a.923.923,0,0,0,1.3,0l1.377-1.377v2.693a.062.062,0,0,1-.062.062h-5.905a.062.062,0,0,1-.062-.062v-5.905a.062.062,0,0,1,.062-.062H115.8a.923.923,0,0,0,0-1.845h-3.937a1.909,1.909,0,0,0-1.907,1.907v5.905a1.909,1.909,0,0,0,1.907,1.907h5.905a1.909,1.909,0,0,0,1.907-1.907v-4.539l.714-.714A.923.923,0,0,0,120.392,230.337Z" transform="translate(-109.959 -229.082)" fill="#12263f"/>
        </g>
      </g>
    </g>
  </g>
</svg>
