<svg id="_2" data-name="2" xmlns="http://www.w3.org/2000/svg" xmlns:xlink="http://www.w3.org/1999/xlink" width="85" height="75.356" viewBox="0 0 85 75.356">
  <defs>
    <filter id="Trazado_743366" x="5.144" y="0.643" width="74.712" height="74.712" filterUnits="userSpaceOnUse">
      <feOffset dy="3" input="SourceAlpha"/>
      <feGaussianBlur stdDeviation="3" result="blur"/>
      <feFlood flood-opacity="0.161"/>
      <feComposite operator="in" in2="blur"/>
      <feComposite in="SourceGraphic"/>
    </filter>
  </defs>
  <g id="Grupo_1022461" data-name="Grupo 1022461">
    <rect id="Rectángulo_345292" data-name="Rectángulo 345292" width="85" height="70" rx="5" fill="#624ec5"/>
  </g>
  <g id="Grupo_1023881" data-name="Grupo 1023881" transform="translate(-1.489 -1.33)">
    <g id="Grupo_1023878" data-name="Grupo 1023878" transform="translate(15.632 7.974)">
      <g transform="matrix(1, 0, 0, 1, -14.14, -6.64)" filter="url(#Trazado_743366)">
        <path id="Trazado_743366-2" data-name="Trazado 743366" d="M28.356,0A28.356,28.356,0,1,1,0,28.356,28.356,28.356,0,0,1,28.356,0Z" transform="translate(14.14 6.64)" fill="#806ce2"/>
      </g>
    </g>
    <g id="wireframe" transform="translate(20.81 14.045)">
      <path id="Trazado_743323" data-name="Trazado 743323" d="M49.206,51.463H9.756A2.257,2.257,0,0,1,7.5,49.207V9.756A2.257,2.257,0,0,1,9.756,7.5h39.45a2.257,2.257,0,0,1,2.257,2.257v39.45A2.257,2.257,0,0,1,49.206,51.463Zm0,0" transform="translate(-6.836 -6.836)" fill="#e7e7e7"/>
      <path id="Trazado_743324" data-name="Trazado 743324" d="M457.278,9.76V49.21a2.257,2.257,0,0,1-2.257,2.257H452.7a2.257,2.257,0,0,0,2.257-2.257V9.76A2.257,2.257,0,0,0,452.7,7.5h2.326A2.257,2.257,0,0,1,457.278,9.76Zm0,0" transform="translate(-412.651 -6.84)" fill="#cecece"/>
      <path id="Trazado_743325" data-name="Trazado 743325" d="M327.946,149.713h-8.054a2.38,2.38,0,0,1-2.38-2.38v-6.989a2.38,2.38,0,0,1,2.38-2.38h8.054a2.38,2.38,0,0,1,2.38,2.38v6.989A2.38,2.38,0,0,1,327.946,149.713Zm0,0" transform="translate(-289.426 -125.76)" fill="#362b9e"/>
      <path id="Trazado_743326" data-name="Trazado 743326" d="M327.946,336.436h-8.054a2.38,2.38,0,0,1-2.38-2.38v-6.989a2.38,2.38,0,0,1,2.38-2.38h8.054a2.38,2.38,0,0,1,2.38,2.38v6.989A2.38,2.38,0,0,1,327.946,336.436Zm0,0" transform="translate(-289.426 -295.966)" fill="#2ae060"/>
      <path id="Trazado_743327" data-name="Trazado 743327" d="M414.512,140.348v6.988a2.38,2.38,0,0,1-2.38,2.38h-2.265a2.381,2.381,0,0,0,2.381-2.38v-6.988a2.38,2.38,0,0,0-2.381-2.38h2.265A2.38,2.38,0,0,1,414.512,140.348Zm0,0" transform="translate(-373.611 -125.764)" fill="#231a72"/>
      <path id="Trazado_743328" data-name="Trazado 743328" d="M414.512,327.071v6.989a2.38,2.38,0,0,1-2.38,2.38h-2.265a2.381,2.381,0,0,0,2.381-2.38v-6.989a2.38,2.38,0,0,0-2.381-2.38h2.265A2.38,2.38,0,0,1,414.512,327.071Zm0,0" transform="translate(-373.611 -295.97)" fill="#1cb94b"/>
      <path id="Trazado_743329" data-name="Trazado 743329" d="M51.463,15.2H7.5V9.757A2.257,2.257,0,0,1,9.757,7.5h39.45a2.257,2.257,0,0,1,2.257,2.257Zm0,0" transform="translate(-6.837 -6.837)" fill="#112e4c"/>
      <path id="Trazado_743330" data-name="Trazado 743330" d="M457.278,9.76V15.2h-2.326V9.76A2.257,2.257,0,0,0,452.7,7.5h2.326A2.257,2.257,0,0,1,457.278,9.76Zm0,0" transform="translate(-412.651 -6.84)" fill="#12263f"/>
      <path id="Trazado_743331" data-name="Trazado 743331" d="M42.825,37.577a1.284,1.284,0,1,1-1.284-1.284A1.284,1.284,0,0,1,42.825,37.577Zm0,0" transform="translate(-36.697 -33.083)" fill="#ff6b81"/>
      <path id="Trazado_743332" data-name="Trazado 743332" d="M98.872,37.577a1.284,1.284,0,1,1-1.284-1.284A1.284,1.284,0,0,1,98.872,37.577Zm0,0" transform="translate(-87.786 -33.083)" fill="#ffd86e"/>
      <path id="Trazado_743333" data-name="Trazado 743333" d="M154.919,37.577a1.284,1.284,0,1,1-1.284-1.284A1.284,1.284,0,0,1,154.919,37.577Zm0,0" transform="translate(-138.875 -33.083)" fill="#80e0dc"/>
      <path id="Trazado_743334" data-name="Trazado 743334" d="M46.93,37.584a1.283,1.283,0,0,1-2.169.928,1.283,1.283,0,0,0,.856-2.211h.03a1.283,1.283,0,0,1,1.283,1.284Zm0,0" transform="translate(-40.802 -33.09)" fill="#ff435f"/>
      <path id="Trazado_743335" data-name="Trazado 743335" d="M102.97,37.584a1.284,1.284,0,0,1-2.17.928,1.283,1.283,0,0,0,.857-2.211h.029a1.283,1.283,0,0,1,1.284,1.284Zm0,0" transform="translate(-91.884 -33.09)" fill="#ffb509"/>
      <path id="Trazado_743336" data-name="Trazado 743336" d="M159.021,37.584a1.283,1.283,0,0,1-2.169.928,1.283,1.283,0,0,0,.856-2.211h.03a1.283,1.283,0,0,1,1.284,1.284Zm0,0" transform="translate(-142.977 -33.09)" fill="#00a8b0"/>
      <path id="Trazado_743337" data-name="Trazado 743337" d="M.663,9.026A.664.664,0,0,1,0,8.363V2.92A2.923,2.923,0,0,1,2.92,0h14a.664.664,0,0,1,0,1.327h-14A1.6,1.6,0,0,0,1.327,2.92V8.363a.664.664,0,0,1-.664.663Zm0,0" transform="translate(0 0)"/>
      <path id="Trazado_743338" data-name="Trazado 743338" d="M58.73,166.227H42.638a2.38,2.38,0,0,1-2.38-2.38V140.341a2.38,2.38,0,0,1,2.38-2.38H58.73a2.38,2.38,0,0,1,2.38,2.38v23.506A2.38,2.38,0,0,1,58.73,166.227Zm0,0" transform="translate(-36.697 -125.757)" fill="#a35bef"/>
      <path id="Trazado_743339" data-name="Trazado 743339" d="M226.751,140.349v23.506a2.38,2.38,0,0,1-2.38,2.38h-1.757a2.378,2.378,0,0,0,1.738-2.291V140.438a2.38,2.38,0,0,0-2.38-2.38l2.4-.088a2.379,2.379,0,0,1,2.38,2.38Zm0,0" transform="translate(-202.337 -125.765)" fill="#8822f3"/>
      <path id="Trazado_743340" data-name="Trazado 743340" d="M32.754,30.74A1.947,1.947,0,1,0,34.7,28.793,1.949,1.949,0,0,0,32.754,30.74Zm2.568,0a.62.62,0,1,1-.62-.62A.621.621,0,0,1,35.322,30.74Zm0,0" transform="translate(-29.857 -26.246)"/>
      <path id="Trazado_743341" data-name="Trazado 743341" d="M88.8,30.74a1.947,1.947,0,1,0,1.947-1.947A1.949,1.949,0,0,0,88.8,30.74Zm2.567,0a.62.62,0,1,1-.62-.62A.621.621,0,0,1,91.372,30.74Zm0,0" transform="translate(-80.949 -26.246)"/>
      <path id="Trazado_743342" data-name="Trazado 743342" d="M144.852,30.74a1.947,1.947,0,1,0,1.947-1.947A1.949,1.949,0,0,0,144.852,30.74Zm2.567,0a.62.62,0,1,1-.62-.62A.621.621,0,0,1,147.419,30.74Zm0,0" transform="translate(-132.039 -26.246)"/>
      <path id="Trazado_743343" data-name="Trazado 743343" d="M42.37,0H21.112a.664.664,0,0,0,0,1.327H42.37A1.6,1.6,0,0,1,43.963,2.92V7.7H1.327V2.92A1.6,1.6,0,0,1,2.92,1.327h14a.664.664,0,0,0,0-1.327h-14A2.923,2.923,0,0,0,0,2.92V42.37a2.923,2.923,0,0,0,2.92,2.92H42.37a2.923,2.923,0,0,0,2.92-2.92V2.92A2.923,2.923,0,0,0,42.37,0Zm1.593,42.37a1.6,1.6,0,0,1-1.593,1.593H2.92A1.6,1.6,0,0,1,1.327,42.37V9.026H43.963Zm0,0" transform="translate(0 0)"/>
      <path id="Trazado_743344" data-name="Trazado 743344" d="M33.418,146.221a.664.664,0,0,0,.663-.664v-.972a1.707,1.707,0,0,1,.28-.941.664.664,0,1,0-1.109-.729,3.033,3.033,0,0,0-.5,1.669v.972a.664.664,0,0,0,.664.664Zm0,0" transform="translate(-29.857 -130.001)"/>
      <path id="Trazado_743345" data-name="Trazado 743345" d="M55.908,450.975a3.054,3.054,0,0,0,.487.039h1.971a.663.663,0,1,0,0-1.327H56.395a1.741,1.741,0,0,1-.276-.022.664.664,0,1,0-.211,1.31Zm0,0" transform="translate(-50.453 -409.881)"/>
      <path id="Trazado_743346" data-name="Trazado 743346" d="M60.3,131.788h2.349a.664.664,0,0,0,0-1.327H60.294a.664.664,0,0,0,.005,1.327Zm0,0" transform="translate(-54.358 -118.921)"/>
      <path id="Trazado_743347" data-name="Trazado 743347" d="M109.21,451.331h2.354a.663.663,0,1,0,0-1.327H109.21a.663.663,0,1,0,0,1.327Zm0,0" transform="translate(-98.945 -410.198)"/>
      <path id="Trazado_743348" data-name="Trazado 743348" d="M113.484,131.788h2.353a.664.664,0,0,0,0-1.327h-2.353a.664.664,0,1,0,0,1.327Zm0,0" transform="translate(-102.84 -118.921)"/>
      <path id="Trazado_743349" data-name="Trazado 743349" d="M33.418,198.649a.664.664,0,0,0,.663-.663v-2.354a.664.664,0,0,0-1.327,0v2.354A.664.664,0,0,0,33.418,198.649Zm0,0" transform="translate(-29.857 -177.722)"/>
      <path id="Trazado_743350" data-name="Trazado 743350" d="M33.626,411.483a.664.664,0,0,0,.605-.936,1.7,1.7,0,0,1-.15-.7V408.5a.664.664,0,0,0-1.327,0v1.35a3.018,3.018,0,0,0,.266,1.246A.663.663,0,0,0,33.626,411.483Zm0,0" transform="translate(-29.857 -371.756)"/>
      <path id="Trazado_743351" data-name="Trazado 743351" d="M162.426,451.331h2.353a.663.663,0,1,0,0-1.327h-2.353a.663.663,0,1,0,0,1.327Zm0,0" transform="translate(-147.453 -410.198)"/>
      <path id="Trazado_743352" data-name="Trazado 743352" d="M33.418,251.864a.663.663,0,0,0,.663-.663v-2.354a.664.664,0,0,0-1.327,0V251.2A.663.663,0,0,0,33.418,251.864Zm0,0" transform="translate(-29.857 -226.23)"/>
      <path id="Trazado_743353" data-name="Trazado 743353" d="M33.418,358.295a.664.664,0,0,0,.663-.663v-2.354a.664.664,0,1,0-1.327,0v2.354A.664.664,0,0,0,33.418,358.295Zm0,0" transform="translate(-29.857 -323.245)"/>
      <path id="Trazado_743354" data-name="Trazado 743354" d="M33.418,305.08a.664.664,0,0,0,.663-.664v-2.353a.664.664,0,1,0-1.327,0v2.353A.664.664,0,0,0,33.418,305.08Zm0,0" transform="translate(-29.857 -274.738)"/>
      <path id="Trazado_743355" data-name="Trazado 743355" d="M269.156,252.4a.664.664,0,0,0-.664.663v2.354a.664.664,0,1,0,1.327,0v-2.354A.663.663,0,0,0,269.156,252.4Zm0,0" transform="translate(-244.742 -230.071)"/>
      <path id="Trazado_743356" data-name="Trazado 743356" d="M269.156,199.184a.664.664,0,0,0-.664.663V202.2a.664.664,0,0,0,1.327,0v-2.354A.663.663,0,0,0,269.156,199.184Zm0,0" transform="translate(-244.742 -181.565)"/>
      <path id="Trazado_743357" data-name="Trazado 743357" d="M269.156,305.617a.663.663,0,0,0-.664.663v2.354a.664.664,0,0,0,1.327,0V306.28A.663.663,0,0,0,269.156,305.617Zm0,0" transform="translate(-244.742 -278.583)"/>
      <path id="Trazado_743358" data-name="Trazado 743358" d="M266.331,147.947v1.345a.664.664,0,0,0,1.327,0v-1.345a3.017,3.017,0,0,0-.268-1.252.663.663,0,1,0-1.209.546A1.707,1.707,0,0,1,266.331,147.947Zm0,0" transform="translate(-242.581 -133.363)"/>
      <path id="Trazado_743359" data-name="Trazado 743359" d="M269.156,358.832a.664.664,0,0,0-.664.663v2.354a.664.664,0,0,0,1.327,0V359.5A.663.663,0,0,0,269.156,358.832Zm0,0" transform="translate(-244.742 -327.091)"/>
      <path id="Trazado_743360" data-name="Trazado 743360" d="M219.917,131.788h1.976a1.739,1.739,0,0,1,.272.021.679.679,0,0,0,.105.008.664.664,0,0,0,.1-1.319,3.056,3.056,0,0,0-.481-.038h-1.976a.664.664,0,0,0,0,1.327Zm0,0" transform="translate(-199.859 -118.921)"/>
      <path id="Trazado_743361" data-name="Trazado 743361" d="M166.7,131.788h2.354a.664.664,0,0,0,0-1.327H166.7a.664.664,0,0,0,0,1.327Zm0,0" transform="translate(-151.352 -118.921)"/>
      <path id="Trazado_743362" data-name="Trazado 743362" d="M215.64,451.331H218A.663.663,0,0,0,218,450H215.64a.663.663,0,1,0,0,1.327Zm0,0" transform="translate(-195.96 -410.198)"/>
      <path id="Trazado_743363" data-name="Trazado 743363" d="M264.425,415.544a.663.663,0,0,0,.918-.192,3.033,3.033,0,0,0,.494-1.664v-.977a.663.663,0,1,0-1.327,0v.977a1.708,1.708,0,0,1-.278.938A.663.663,0,0,0,264.425,415.544Zm0,0" transform="translate(-240.761 -375.598)"/>
      <path id="Trazado_743364" data-name="Trazado 743364" d="M310.8,142.559a.662.662,0,0,0,.134.115,3.034,3.034,0,0,0,2.12.862h1.823a.664.664,0,0,0,0-1.327h-1.823a1.7,1.7,0,0,1-.691-.146l4.708-4.168,4.716,4.174a1.71,1.71,0,0,1-.679.14h-2.265a.664.664,0,0,0,0,1.327h2.265a3.034,3.034,0,0,0,2.189-.932.621.621,0,0,0,.045-.045l.008-.01a3.032,3.032,0,0,0,.8-2.056V133.5a3.047,3.047,0,0,0-3.043-3.044h-8.054a3.035,3.035,0,0,0-2.205.949.66.66,0,0,0-.048.049c-.007.007-.012.015-.018.022a3.031,3.031,0,0,0-.772,2.023v6.989a3.03,3.03,0,0,0,.706,1.946A.671.671,0,0,0,310.8,142.559Zm12.024-9.055v6.988a1.7,1.7,0,0,1-.117.619l-4.635-4.1,4.641-4.108A1.706,1.706,0,0,1,322.826,133.5Zm-9.771-1.717h8.054a1.705,1.705,0,0,1,.694.148l-4.731,4.187-4.724-4.181A1.706,1.706,0,0,1,313.055,131.788Zm-1.717,1.717a1.7,1.7,0,0,1,.106-.589l4.626,4.094-4.62,4.089a1.713,1.713,0,0,1-.112-.606Zm0,0" transform="translate(-282.588 -118.92)"/>
      <path id="Trazado_743365" data-name="Trazado 743365" d="M310.808,329.272a.578.578,0,0,0,.046.046,3.034,3.034,0,0,0,2.2.942h8.054a3.034,3.034,0,0,0,2.2-.942.619.619,0,0,0,.045-.046l.008-.01a3.032,3.032,0,0,0,.792-2.046v-6.988a3.031,3.031,0,0,0-.792-2.046l-.008-.01a.668.668,0,0,0-.049-.05,3.034,3.034,0,0,0-2.195-.938h-8.054a3.035,3.035,0,0,0-2.195.938c-.017.016-.033.032-.049.05l-.008.01a3.032,3.032,0,0,0-.792,2.046v6.988a3.032,3.032,0,0,0,.792,2.046Zm10.3-.339h-8.054a1.7,1.7,0,0,1-.693-.148l4.72-4.177,4.72,4.177A1.7,1.7,0,0,1,321.106,328.933Zm1.717-8.705v6.988a1.7,1.7,0,0,1-.112.6l-4.63-4.1,4.63-4.1A1.7,1.7,0,0,1,322.823,320.227Zm-9.771-1.717h8.054a1.707,1.707,0,0,1,.693.147l-4.72,4.178-4.72-4.178A1.706,1.706,0,0,1,313.052,318.511Zm-1.717,1.717a1.706,1.706,0,0,1,.112-.6l4.631,4.1-4.631,4.1a1.7,1.7,0,0,1-.112-.6Zm0,0" transform="translate(-282.586 -289.126)"/>
    </g>
  </g>
</svg>
