<svg xmlns="http://www.w3.org/2000/svg" xmlns:xlink="http://www.w3.org/1999/xlink" width="103" height="109" viewBox="0 0 103 109">
  <defs>
    <filter id="Rect치ngulo_345292" x="0" y="0" width="103" height="109" filterUnits="userSpaceOnUse">
      <feOffset dy="3" input="SourceAlpha"/>
      <feGaussianBlur stdDeviation="3" result="blur"/>
      <feFlood flood-opacity="0.161"/>
      <feComposite operator="in" in2="blur"/>
      <feComposite in="SourceGraphic"/>
    </filter>
    <filter id="Trazado_724609" x="8" y="11" width="87" height="87" filterUnits="userSpaceOnUse">
      <feOffset dy="3" input="SourceAlpha"/>
      <feGaussianBlur stdDeviation="3" result="blur-2"/>
      <feFlood flood-opacity="0.161"/>
      <feComposite operator="in" in2="blur-2"/>
      <feComposite in="SourceGraphic"/>
    </filter>
  </defs>
  <g id="_3" data-name="3" transform="translate(9 6)">
    <g id="Grupo_1005927" data-name="Grupo 1005927">
      <g transform="matrix(1, 0, 0, 1, -9, -6)" filter="url(#Rect치ngulo_345292)">
        <rect id="Rect치ngulo_345292-2" data-name="Rect치ngulo 345292" width="85" height="91" rx="5" transform="translate(9 6)" fill="#638bb1"/>
      </g>
      <g id="Grupo_1003705" data-name="Grupo 1003705" transform="translate(8 11)">
        <g transform="matrix(1, 0, 0, 1, -17, -17)" filter="url(#Trazado_724609)">
          <path id="Trazado_724609-2" data-name="Trazado 724609" d="M34.5,0A34.5,34.5,0,1,1,0,34.5,34.5,34.5,0,0,1,34.5,0Z" transform="translate(17 17)" fill="#3a6289"/>
        </g>
      </g>
      <g id="Grupo_1024055" data-name="Grupo 1024055" transform="translate(-8.071 4.981)">
        <g id="html" transform="translate(28.341 18.976)">
          <path id="Trazado_743574" data-name="Trazado 743574" d="M167.224,113.778H144.876a2.654,2.654,0,0,0-2.654,2.654v39.612a2.654,2.654,0,0,0,2.654,2.654H175.5a2.654,2.654,0,0,0,2.654-2.654V124.713Z" transform="translate(-137.73 -113.778)" fill="#fff"/>
          <path id="Trazado_743575" data-name="Trazado 743575" d="M263.033,113.778H256V158.7h15.314a2.654,2.654,0,0,0,2.655-2.654V124.713Z" transform="translate(-233.539 -113.778)" fill="#d0d1d3"/>
          <path id="Trazado_743576" data-name="Trazado 743576" d="M300.535,122.059a2.654,2.654,0,0,0,2.654,2.654h8.281l-10.935-10.935Z" transform="translate(-271.041 -113.778)" fill="#a6a8aa"/>
          <path id="Trazado_743577" data-name="Trazado 743577" d="M134.945,179.65H115.07a1.293,1.293,0,0,1-1.293-1.293v-6.4a1.293,1.293,0,0,1,1.293-1.293h19.874a1.293,1.293,0,0,1,1.293,1.293v6.4A1.293,1.293,0,0,1,134.945,179.65Z" transform="translate(-113.777 -161.682)" fill="#362b9e"/>
          <g id="Grupo_1024033" data-name="Grupo 1024033" transform="translate(3.187 11.019)">
            <path id="Trazado_743578" data-name="Trazado 743578" d="M137.5,187.935h-.915v-1.966h-1.709v1.966h-.916v-4.384h.916v1.661h1.709v-1.661h.916v4.384Z" transform="translate(-133.959 -183.551)" fill="#fff"/>
            <path id="Trazado_743579" data-name="Trazado 743579" d="M163.231,184.326h-1.325v3.608h-.916v-3.608h-1.325v-.775h3.565v.775Z" transform="translate(-155.606 -183.551)" fill="#fff"/>
            <path id="Trazado_743580" data-name="Trazado 743580" d="M189.656,187.935H188.8l-.012-3.663-.818,3.663h-.9l-.812-3.663v3.663h-.855v-4.384h1.337l.806,3.455.781-3.455h1.325v4.384Z" transform="translate(-177.282 -183.551)" fill="#fff"/>
            <path id="Trazado_743581" data-name="Trazado 743581" d="M220.978,187.935h-3.1v-4.384h.916v3.59h2.18v.794Z" transform="translate(-204.629 -183.551)" fill="#fff"/>
          </g>
          <path id="Trazado_743582" data-name="Trazado 743582" d="M191.794,297.2a.814.814,0,0,1-.577-.239l-4.8-4.8a.816.816,0,0,1,0-1.155l4.8-4.8a.817.817,0,0,1,1.155,1.155l-4.218,4.218,4.218,4.218a.817.817,0,0,1-.578,1.394Z" transform="translate(-174.747 -258.776)" fill="#362b9e"/>
          <path id="Trazado_743583" data-name="Trazado 743583" d="M285.924,297.193a.817.817,0,0,1-.577-1.394l4.218-4.219-4.219-4.219a.817.817,0,0,1,1.155-1.155l4.8,4.8a.816.816,0,0,1,0,1.155l-4.8,4.8A.813.813,0,0,1,285.924,297.193Z" transform="translate(-258.049 -258.775)" fill="#180c81"/>
          <path id="Trazado_743584" data-name="Trazado 743584" d="M234.849,297.2a.817.817,0,0,1-.73-1.182l4.8-9.592a.817.817,0,1,1,1.461.731l-4.8,9.592A.817.817,0,0,1,234.849,297.2Z" transform="translate(-215.041 -258.779)" fill="#362b9e"/>
          <path id="Trazado_743585" data-name="Trazado 743585" d="M258.511,286.057a.818.818,0,0,0-1.1.365L256,289.248V292.9l2.874-5.748A.817.817,0,0,0,258.511,286.057Z" transform="translate(-233.541 -258.777)" fill="#180c81"/>
        </g>
      </g>
    </g>
  </g>
</svg>
