<svg xmlns="http://www.w3.org/2000/svg" width="78.506" height="78.506" viewBox="0 0 78.506 78.506">
  <g id="_3" data-name="3" transform="translate(-288.685 -927.529)">
    <path id="Trazado_734791" data-name="Trazado 734791" d="M39.253,0A39.253,39.253,0,1,1,0,39.253,39.253,39.253,0,0,1,39.253,0Z" transform="translate(288.685 927.529)" fill="#362b9e"/>
    <g id="eficiencia" transform="translate(269.322 927.529)">
      <g id="Grupo_1025608" data-name="Grupo 1025608" transform="translate(42.594 23.114)">
        <path id="Trazado_746525" data-name="Trazado 746525" d="M167.791,175.214h-3.38a.975.975,0,0,1-.925-.681,12.854,12.854,0,0,0-.8-1.923.975.975,0,0,1,.172-1.138l2.392-2.392a.97.97,0,0,0,0-1.372l-3.282-3.282a.97.97,0,0,0-1.372,0l-2.392,2.392a.975.975,0,0,1-1.138.172,12.855,12.855,0,0,0-1.923-.8.975.975,0,0,1-.681-.925v-3.38a.97.97,0,0,0-.97-.97h-4.174q.071.718.072,1.455a14.776,14.776,0,0,1-14.759,14.759c-.353,0-.7-.013-1.048-.038v3.733a.97.97,0,0,0,.97.97h3.38a.975.975,0,0,1,.925.681,12.842,12.842,0,0,0,.8,1.923.975.975,0,0,1-.172,1.138l-2.392,2.392a.97.97,0,0,0,0,1.372l3.282,3.282a.97.97,0,0,0,1.372,0l2.392-2.392a.975.975,0,0,1,1.138-.172,12.854,12.854,0,0,0,1.923.8.975.975,0,0,1,.681.925v3.38a.97.97,0,0,0,.97.97h4.641a.97.97,0,0,0,.97-.97v-3.38a.975.975,0,0,1,.681-.925,12.841,12.841,0,0,0,1.923-.8.975.975,0,0,1,1.138.172l2.392,2.392a.97.97,0,0,0,1.372,0l3.282-3.282a.97.97,0,0,0,0-1.372l-2.392-2.392a.975.975,0,0,1-.172-1.138,12.856,12.856,0,0,0,.8-1.923.975.975,0,0,1,.925-.681h3.38a.97.97,0,0,0,.97-.97v-4.641A.97.97,0,0,0,167.791,175.214Z" transform="translate(-133.583 -160.916)" fill="#baafb9"/>
        <g id="Grupo_1025604" data-name="Grupo 1025604" transform="translate(0 14.284)">
          <g id="Grupo_1025603" data-name="Grupo 1025603">
            <path id="Trazado_746526" data-name="Trazado 746526" d="M141.825,263.66a14.023,14.023,0,0,1,.393-3.306,14.832,14.832,0,0,1-7.587,2.074c-.353,0-.7-.013-1.048-.037v3.589a.97.97,0,0,0,.97.97h3.38a.975.975,0,0,1,.925.681,12.838,12.838,0,0,0,.8,1.923.975.975,0,0,1-.172,1.138l-2.392,2.392a.97.97,0,0,0,0,1.372l3.282,3.282a.97.97,0,0,0,1.372,0l2.392-2.392a.975.975,0,0,1,1.138-.172,12.847,12.847,0,0,0,1.923.8.975.975,0,0,1,.681.925v3.38a.97.97,0,0,0,.97.97h4.641a.97.97,0,0,0,.97-.97v-2.691a14,14,0,0,1-12.638-13.928Z" transform="translate(-133.583 -260.354)" fill="#aa9ea9"/>
          </g>
        </g>
        <g id="Grupo_1025605" data-name="Grupo 1025605" transform="translate(9.574 9.574)">
          <circle id="Elipse_8172" data-name="Elipse 8172" cx="8.015" cy="8.015" r="8.015" fill="#e5e1e5"/>
        </g>
        <path id="Trazado_746527" data-name="Trazado 746527" d="M201.829,220.07a9.032,9.032,0,0,0-4.189,1.026,14.88,14.88,0,0,1-3.981,4.08,9.091,9.091,0,1,0,8.17-5.107Zm0,16.03a6.938,6.938,0,1,1,6.938-6.938A6.946,6.946,0,0,1,201.829,236.1Z" transform="translate(-184.24 -211.573)" fill="#9b8e99"/>
        <g id="Grupo_1025606" data-name="Grupo 1025606" transform="translate(13.639 13.639)">
          <circle id="Elipse_8173" data-name="Elipse 8173" cx="3.95" cy="3.95" r="3.95" fill="#baafb9"/>
        </g>
        <g id="Grupo_1025607" data-name="Grupo 1025607" transform="translate(13.639 13.639)">
          <path id="Trazado_746528" data-name="Trazado 746528" d="M231.873,259.818a3.95,3.95,0,0,1,2.281-3.58,3.95,3.95,0,1,0,0,7.16A3.95,3.95,0,0,1,231.873,259.818Z" transform="translate(-228.534 -255.868)" fill="#aa9ea9"/>
        </g>
      </g>
      <g id="Grupo_1025617" data-name="Grupo 1025617" transform="translate(28.74 0)">
        <path id="Trazado_746529" data-name="Trazado 746529" d="M120.584,34.05v5.209a14.813,14.813,0,0,1,5.831,0V34.05Z" transform="translate(-108.597 -29.159)" fill="#baafb9"/>
        <path id="Trazado_746530" data-name="Trazado 746530" d="M120.584,34.05v5.209a14.774,14.774,0,0,1,2.915-.29h.111V34.05Z" transform="translate(-108.597 -29.159)" fill="#aa9ea9"/>
        <path id="Trazado_746531" data-name="Trazado 746531" d="M42.233,71.081a14.875,14.875,0,0,1,4.279-3.967L44.218,64.82a1.48,1.48,0,0,0-2.093,0L40.1,66.85a1.48,1.48,0,0,0,0,2.093Z" transform="translate(-39.298 -55.138)" fill="#baafb9"/>
        <path id="Trazado_746532" data-name="Trazado 746532" d="M42.233,77.815a14.888,14.888,0,0,1,2.229-2.453L41.67,72.569a1.48,1.48,0,0,1-.241-.319L40.1,73.584a1.48,1.48,0,0,0,0,2.093Z" transform="translate(-39.298 -61.872)" fill="#aa9ea9"/>
        <g id="Grupo_1025609" data-name="Grupo 1025609" transform="translate(8.712 0)">
          <path id="Trazado_746533" data-name="Trazado 746533" d="M110.162.8V4.23a.8.8,0,0,1-.8.8H98.585a.8.8,0,0,1-.8-.8V.8a.8.8,0,0,1,.8-.8h10.773a.8.8,0,0,1,.8.8Z" transform="translate(-97.78 0)" fill="#ff4a4a"/>
        </g>
        <g id="Grupo_1025610" data-name="Grupo 1025610" transform="translate(8.712)">
          <path id="Trazado_746534" data-name="Trazado 746534" d="M102.454,4.23V.8a.8.8,0,0,1,.8-.8H98.585a.8.8,0,0,0-.8.8V4.23a.8.8,0,0,0,.8.8h4.674a.8.8,0,0,1-.8-.8Z" transform="translate(-97.78 0)" fill="#e7343f"/>
        </g>
        <g id="Grupo_1025611" data-name="Grupo 1025611" transform="translate(0 9.667)">
          <path id="Trazado_746542" data-name="Trazado 746542" d="M14.9,0A14.9,14.9,0,1,1,0,14.9,14.9,14.9,0,0,1,14.9,0Z" fill="#e7343f"/>
        </g>
        <g id="Grupo_1025612" data-name="Grupo 1025612" transform="translate(3.984 13.65)">
          <circle id="Elipse_8175" data-name="Elipse 8175" cx="10.919" cy="10.919" r="10.919" fill="#fff"/>
        </g>
        <g id="Grupo_1025613" data-name="Grupo 1025613" transform="translate(3.984 13.651)">
          <path id="Trazado_746535" data-name="Trazado 746535" d="M69.532,105.951a10.936,10.936,0,0,1,8.586-10.665,10.919,10.919,0,1,0,0,21.331A10.937,10.937,0,0,1,69.532,105.951Z" transform="translate(-64.866 -95.032)" fill="#fff3de"/>
        </g>
        <g id="Grupo_1025614" data-name="Grupo 1025614" transform="translate(2.906 12.573)">
          <path id="Trazado_746536" data-name="Trazado 746536" d="M69.361,111.524a12,12,0,1,1,12-12A12.01,12.01,0,0,1,69.361,111.524Zm0-21.838A9.842,9.842,0,1,0,79.2,99.527,9.853,9.853,0,0,0,69.361,89.686Z" transform="translate(-57.365 -87.531)" fill="#ff4a4a"/>
        </g>
        <g id="Grupo_1025615" data-name="Grupo 1025615" transform="translate(13.825 15.967)">
          <path id="Trazado_746537" data-name="Trazado 746537" d="M134.457,117.747a2,2,0,0,1,1.077.316v-5.83a1.077,1.077,0,1,0-2.155,0v5.83A2,2,0,0,1,134.457,117.747Z" transform="translate(-133.38 -111.155)" fill="#0182fc"/>
        </g>
        <g id="Grupo_1025616" data-name="Grupo 1025616" transform="translate(12.748 22.415)">
          <circle id="Elipse_8176" data-name="Elipse 8176" cx="2.155" cy="2.155" r="2.155" fill="#0593fc"/>
        </g>
      </g>
      <path id="Trazado_746538" data-name="Trazado 746538" d="M287.629,282.3H281.4l-.339.144A25.974,25.974,0,0,1,255.108,308.4l-.144.327v6.266l.144.3a32.783,32.783,0,0,0,32.851-32.851Z" transform="translate(-194.934 -241.746)" fill="#00b3ce"/>
      <g id="Grupo_1025618" data-name="Grupo 1025618" transform="translate(60.174 7.852)">
        <path id="Trazado_746539" data-name="Trazado 746539" d="M256.792,54.667a.807.807,0,0,0-.827.806V60.76a.8.8,0,0,0,.78.8,25.957,25.957,0,0,1,25.176,25.945h6.895A32.851,32.851,0,0,0,256.792,54.667Z" transform="translate(-255.965 -54.666)" fill="#5faa46"/>
      </g>
      <g id="Grupo_1025619" data-name="Grupo 1025619" transform="translate(27.332 40.694)">
        <path id="Trazado_746540" data-name="Trazado 746540" d="M60.173,309.255a25.957,25.957,0,0,1-25.945-25.176.8.8,0,0,0-.8-.78H28.138a.807.807,0,0,0-.806.827A32.852,32.852,0,0,0,60.174,316.15Z" transform="translate(-27.332 -283.299)" fill="#fed402"/>
      </g>
      <g id="Grupo_1025620" data-name="Grupo 1025620" transform="translate(27.332 40.694)">
        <path id="Trazado_746541" data-name="Trazado 746541" d="M30.436,284.125a.807.807,0,0,1,.806-.827h-3.1a.807.807,0,0,0-.806.827,32.851,32.851,0,0,0,32.841,32.025V316A32.855,32.855,0,0,1,30.436,284.125Z" transform="translate(-27.333 -283.298)" fill="#fac600"/>
      </g>
    </g>
    <g id="eficiencia-2" data-name="eficiencia" transform="translate(267.759 927.529)">
      <g id="Grupo_1025608-2" data-name="Grupo 1025608" transform="translate(42.594 23.114)">
        <path id="Trazado_746525-2" data-name="Trazado 746525" d="M167.791,175.214h-3.38a.975.975,0,0,1-.925-.681,12.854,12.854,0,0,0-.8-1.923.975.975,0,0,1,.172-1.138l2.392-2.392a.97.97,0,0,0,0-1.372l-3.282-3.282a.97.97,0,0,0-1.372,0l-2.392,2.392a.975.975,0,0,1-1.138.172,12.855,12.855,0,0,0-1.923-.8.975.975,0,0,1-.681-.925v-3.38a.97.97,0,0,0-.97-.97h-4.174q.071.718.072,1.455a14.776,14.776,0,0,1-14.759,14.759c-.353,0-.7-.013-1.048-.038v3.733a.97.97,0,0,0,.97.97h3.38a.975.975,0,0,1,.925.681,12.842,12.842,0,0,0,.8,1.923.975.975,0,0,1-.172,1.138l-2.392,2.392a.97.97,0,0,0,0,1.372l3.282,3.282a.97.97,0,0,0,1.372,0l2.392-2.392a.975.975,0,0,1,1.138-.172,12.854,12.854,0,0,0,1.923.8.975.975,0,0,1,.681.925v3.38a.97.97,0,0,0,.97.97h4.641a.97.97,0,0,0,.97-.97v-3.38a.975.975,0,0,1,.681-.925,12.841,12.841,0,0,0,1.923-.8.975.975,0,0,1,1.138.172l2.392,2.392a.97.97,0,0,0,1.372,0l3.282-3.282a.97.97,0,0,0,0-1.372l-2.392-2.392a.975.975,0,0,1-.172-1.138,12.856,12.856,0,0,0,.8-1.923.975.975,0,0,1,.925-.681h3.38a.97.97,0,0,0,.97-.97v-4.641A.97.97,0,0,0,167.791,175.214Z" transform="translate(-133.583 -160.916)" fill="#e1d5e0"/>
        <g id="Grupo_1025604-2" data-name="Grupo 1025604" transform="translate(0 14.284)">
          <g id="Grupo_1025603-2" data-name="Grupo 1025603">
            <path id="Trazado_746526-2" data-name="Trazado 746526" d="M141.825,263.66a14.023,14.023,0,0,1,.393-3.306,14.832,14.832,0,0,1-7.587,2.074c-.353,0-.7-.013-1.048-.037v3.589a.97.97,0,0,0,.97.97h3.38a.975.975,0,0,1,.925.681,12.838,12.838,0,0,0,.8,1.923.975.975,0,0,1-.172,1.138l-2.392,2.392a.97.97,0,0,0,0,1.372l3.282,3.282a.97.97,0,0,0,1.372,0l2.392-2.392a.975.975,0,0,1,1.138-.172,12.847,12.847,0,0,0,1.923.8.975.975,0,0,1,.681.925v3.38a.97.97,0,0,0,.97.97h4.641a.97.97,0,0,0,.97-.97v-2.691a14,14,0,0,1-12.638-13.928Z" transform="translate(-133.583 -260.354)" fill="#b8aeb7"/>
          </g>
        </g>
        <g id="Grupo_1025605-2" data-name="Grupo 1025605" transform="translate(9.574 9.574)">
          <circle id="Elipse_8172-2" data-name="Elipse 8172" cx="8.015" cy="8.015" r="8.015" fill="#e5e1e5"/>
        </g>
        <path id="Trazado_746527-2" data-name="Trazado 746527" d="M201.829,220.07a9.032,9.032,0,0,0-4.189,1.026,14.88,14.88,0,0,1-3.981,4.08,9.091,9.091,0,1,0,8.17-5.107Zm0,16.03a6.938,6.938,0,1,1,6.938-6.938A6.946,6.946,0,0,1,201.829,236.1Z" transform="translate(-184.24 -211.573)" fill="#9b8e99"/>
        <g id="Grupo_1025606-2" data-name="Grupo 1025606" transform="translate(13.639 13.639)">
          <circle id="Elipse_8173-2" data-name="Elipse 8173" cx="3.95" cy="3.95" r="3.95" fill="#baafb9"/>
        </g>
        <g id="Grupo_1025607-2" data-name="Grupo 1025607" transform="translate(13.639 13.639)">
          <path id="Trazado_746528-2" data-name="Trazado 746528" d="M231.873,259.818a3.95,3.95,0,0,1,2.281-3.58,3.95,3.95,0,1,0,0,7.16A3.95,3.95,0,0,1,231.873,259.818Z" transform="translate(-228.534 -255.868)" fill="#aa9ea9"/>
        </g>
      </g>
      <g id="Grupo_1025617-2" data-name="Grupo 1025617" transform="translate(28.74 0)">
        <path id="Trazado_746529-2" data-name="Trazado 746529" d="M120.584,34.05v5.209a14.813,14.813,0,0,1,5.831,0V34.05Z" transform="translate(-108.597 -29.159)" fill="#baafb9"/>
        <path id="Trazado_746530-2" data-name="Trazado 746530" d="M120.584,34.05v5.209a14.774,14.774,0,0,1,2.915-.29h.111V34.05Z" transform="translate(-108.597 -29.159)" fill="#aa9ea9"/>
        <path id="Trazado_746531-2" data-name="Trazado 746531" d="M42.233,71.081a14.875,14.875,0,0,1,4.279-3.967L44.218,64.82a1.48,1.48,0,0,0-2.093,0L40.1,66.85a1.48,1.48,0,0,0,0,2.093Z" transform="translate(-39.298 -55.138)" fill="#baafb9"/>
        <path id="Trazado_746532-2" data-name="Trazado 746532" d="M42.233,77.815a14.888,14.888,0,0,1,2.229-2.453L41.67,72.569a1.48,1.48,0,0,1-.241-.319L40.1,73.584a1.48,1.48,0,0,0,0,2.093Z" transform="translate(-39.298 -61.872)" fill="#aa9ea9"/>
        <g id="Grupo_1025609-2" data-name="Grupo 1025609" transform="translate(8.712 0)">
          <path id="Trazado_746533-2" data-name="Trazado 746533" d="M110.162.8V4.23a.8.8,0,0,1-.8.8H98.585a.8.8,0,0,1-.8-.8V.8a.8.8,0,0,1,.8-.8h10.773a.8.8,0,0,1,.8.8Z" transform="translate(-97.78 0)" fill="#ff4a4a"/>
        </g>
        <g id="Grupo_1025610-2" data-name="Grupo 1025610" transform="translate(8.712)">
          <path id="Trazado_746534-2" data-name="Trazado 746534" d="M102.454,4.23V.8a.8.8,0,0,1,.8-.8H98.585a.8.8,0,0,0-.8.8V4.23a.8.8,0,0,0,.8.8h4.674a.8.8,0,0,1-.8-.8Z" transform="translate(-97.78 0)" fill="#e7343f"/>
        </g>
        <g id="Grupo_1025611-2" data-name="Grupo 1025611" transform="translate(0 9.667)">
          <path id="Trazado_746542-2" data-name="Trazado 746542" d="M14.9,0A14.9,14.9,0,1,1,0,14.9,14.9,14.9,0,0,1,14.9,0Z" fill="#e7343f"/>
        </g>
        <g id="Grupo_1025612-2" data-name="Grupo 1025612" transform="translate(3.984 13.65)">
          <circle id="Elipse_8175-2" data-name="Elipse 8175" cx="10.919" cy="10.919" r="10.919" fill="#fff"/>
        </g>
        <g id="Grupo_1025613-2" data-name="Grupo 1025613" transform="translate(3.984 13.651)">
          <path id="Trazado_746535-2" data-name="Trazado 746535" d="M69.532,105.951a10.936,10.936,0,0,1,8.586-10.665,10.919,10.919,0,1,0,0,21.331A10.937,10.937,0,0,1,69.532,105.951Z" transform="translate(-64.866 -95.032)" fill="#fff3de"/>
        </g>
        <g id="Grupo_1025614-2" data-name="Grupo 1025614" transform="translate(2.906 12.573)">
          <path id="Trazado_746536-2" data-name="Trazado 746536" d="M69.361,111.524a12,12,0,1,1,12-12A12.01,12.01,0,0,1,69.361,111.524Zm0-21.838A9.842,9.842,0,1,0,79.2,99.527,9.853,9.853,0,0,0,69.361,89.686Z" transform="translate(-57.365 -87.531)" fill="#ff4a4a"/>
        </g>
        <g id="Grupo_1025615-2" data-name="Grupo 1025615" transform="translate(13.825 15.967)">
          <path id="Trazado_746537-2" data-name="Trazado 746537" d="M134.457,117.747a2,2,0,0,1,1.077.316v-5.83a1.077,1.077,0,1,0-2.155,0v5.83A2,2,0,0,1,134.457,117.747Z" transform="translate(-133.38 -111.155)" fill="#0182fc"/>
        </g>
        <g id="Grupo_1025616-2" data-name="Grupo 1025616" transform="translate(12.748 22.415)">
          <circle id="Elipse_8176-2" data-name="Elipse 8176" cx="2.155" cy="2.155" r="2.155" fill="#0593fc"/>
        </g>
      </g>
      <path id="Trazado_746538-2" data-name="Trazado 746538" d="M287.629,282.3H281.4l-.339.144A25.974,25.974,0,0,1,255.108,308.4l-.144.327v6.266l.144.3a32.783,32.783,0,0,0,32.851-32.851Z" transform="translate(-194.934 -241.746)" fill="#00b3ce"/>
      <g id="Grupo_1025618-2" data-name="Grupo 1025618" transform="translate(60.174 7.852)">
        <path id="Trazado_746539-2" data-name="Trazado 746539" d="M256.792,54.667a.807.807,0,0,0-.827.806V60.76a.8.8,0,0,0,.78.8,25.957,25.957,0,0,1,25.176,25.945h6.895A32.851,32.851,0,0,0,256.792,54.667Z" transform="translate(-255.965 -54.666)" fill="#5faa46"/>
      </g>
      <g id="Grupo_1025619-2" data-name="Grupo 1025619" transform="translate(27.332 40.694)">
        <path id="Trazado_746540-2" data-name="Trazado 746540" d="M60.173,309.255a25.957,25.957,0,0,1-25.945-25.176.8.8,0,0,0-.8-.78H28.138a.807.807,0,0,0-.806.827A32.852,32.852,0,0,0,60.174,316.15Z" transform="translate(-27.332 -283.299)" fill="#fed402"/>
      </g>
      <g id="Grupo_1025620-2" data-name="Grupo 1025620" transform="translate(27.332 40.694)">
        <path id="Trazado_746541-2" data-name="Trazado 746541" d="M30.436,284.125a.807.807,0,0,1,.806-.827h-3.1a.807.807,0,0,0-.806.827,32.851,32.851,0,0,0,32.841,32.025V316A32.855,32.855,0,0,1,30.436,284.125Z" transform="translate(-27.333 -283.298)" fill="#fac600"/>
      </g>
    </g>
  </g>
</svg>
