<svg xmlns="http://www.w3.org/2000/svg" xmlns:xlink="http://www.w3.org/1999/xlink" width="103" height="103" viewBox="0 0 103 103">
  <defs>
    <filter id="Rect치ngulo_345292" x="0" y="0" width="103" height="103" filterUnits="userSpaceOnUse">
      <feOffset dy="3" input="SourceAlpha"/>
      <feGaussianBlur stdDeviation="3" result="blur"/>
      <feFlood flood-opacity="0.161"/>
      <feComposite operator="in" in2="blur"/>
      <feComposite in="SourceGraphic"/>
    </filter>
    <filter id="Trazado_724609" x="12.049" y="11.881" width="78.903" height="78.903" filterUnits="userSpaceOnUse">
      <feOffset dy="3" input="SourceAlpha"/>
      <feGaussianBlur stdDeviation="3" result="blur-2"/>
      <feFlood flood-opacity="0.161"/>
      <feComposite operator="in" in2="blur-2"/>
      <feComposite in="SourceGraphic"/>
    </filter>
  </defs>
  <g id="_3" data-name="3" transform="translate(9 3)">
    <g id="Grupo_1005927" data-name="Grupo 1005927">
      <g transform="matrix(1, 0, 0, 1, -9, -3)" filter="url(#Rect치ngulo_345292)">
        <rect id="Rect치ngulo_345292-2" data-name="Rect치ngulo 345292" width="85" height="85" rx="5" transform="translate(9 6)" fill="#638bb1"/>
      </g>
      <g id="Grupo_1025591" data-name="Grupo 1025591" transform="translate(-175.951 -1462.119)">
        <g id="Grupo_1003705" data-name="Grupo 1003705" transform="translate(188 1477)">
          <g transform="matrix(1, 0, 0, 1, -21.05, -17.88)" filter="url(#Trazado_724609)">
            <path id="Trazado_724609-2" data-name="Trazado 724609" d="M30.452,0A30.452,30.452,0,1,1,0,30.452,30.452,30.452,0,0,1,30.452,0Z" transform="translate(21.05 17.88)" fill="#3a6289"/>
          </g>
        </g>
        <g id="surface1" transform="translate(189.282 1482.636)">
          <path id="Trazado_742466" data-name="Trazado 742466" d="M97.383,34.338V67.859a29.2,29.2,0,0,1-33.507,9.965q-.725-.266-1.431-.571a29.256,29.256,0,0,1-11.879-9.394V24.019h36.5Zm0,0" transform="translate(-44.805 -24.019)" fill="#dcecf9"/>
          <path id="Trazado_742467" data-name="Trazado 742467" d="M158.047,110.746h22.322v3.036H158.047Zm0,0" transform="translate(-140.039 -100.864)" fill="#1b2c61"/>
          <path id="Trazado_742468" data-name="Trazado 742468" d="M111.355,165.6h32.963v3.036H111.355Zm0,0" transform="translate(-98.667 -149.47)" fill="#1b2c61"/>
          <path id="Trazado_742469" data-name="Trazado 742469" d="M111.355,220.457h32.963v3.036H111.355Zm0,0" transform="translate(-98.667 -198.074)" fill="#1b2c61"/>
          <path id="Trazado_742470" data-name="Trazado 742470" d="M370.879,34.338V24.019L381.2,34.338Zm0,0" transform="translate(-328.62 -24.019)" fill="#fff"/>
          <path id="Trazado_742471" data-name="Trazado 742471" d="M161.853,314.051l2.08,6.691,2.184,7.026-7.131-1.813-6.791-1.727.9-2.715,2.432-7.3Zm0,0" transform="translate(-134.853 -281.004)" fill="#fee2ba"/>
          <path id="Trazado_742472" data-name="Trazado 742472" d="M166.117,382.683l-7.131-1.813-6.791-1.727.9-2.715,2.991-.4Zm0,0" transform="translate(-134.853 -335.918)" fill="#dbc1a5"/>
          <path id="Trazado_742473" data-name="Trazado 742473" d="M7.269,171.564l-6.58,6.58a2.357,2.357,0,0,0,.036,3.369l3.463,3.369,2.424-2.554,7.234-7.623-3.287-3.183A2.357,2.357,0,0,0,7.269,171.564Zm0,0" transform="translate(0.001 -154.14)" fill="#dd6f15"/>
          <path id="Trazado_742474" data-name="Trazado 742474" d="M26.631,171.564l-4.09,4.09a2.358,2.358,0,0,0,.036,3.369l3.4,3.305,7.234-7.623-3.287-3.183A2.357,2.357,0,0,0,26.631,171.564Zm0,0" transform="translate(-19.361 -154.14)" fill="#ed832c"/>
          <path id="Trazado_742475" data-name="Trazado 742475" d="M47.217,205.25l13.063,12.4a3.508,3.508,0,0,0,.13,4.959,3.508,3.508,0,1,0-4.829,5.088,3.508,3.508,0,0,0-4.959.129l-13.062-12.4Zm0,0" transform="translate(-33.279 -184.6)" fill="#1b2c61"/>
          <path id="Trazado_742476" data-name="Trazado 742476" d="M84.767,205.25l13.063,12.4a3.508,3.508,0,0,0,.13,4.959,3.508,3.508,0,0,0-4.959.13l-13.062-12.4Zm0,0" transform="translate(-70.829 -184.6)" fill="#3d5891"/>
          <path id="Trazado_742477" data-name="Trazado 742477" d="M63.575,227.582l15.607,14.811a3.508,3.508,0,1,0-4.829,5.088L58.746,232.67Zm0,0" transform="translate(-52.052 -204.387)" fill="#2a407a"/>
          <path id="Trazado_742478" data-name="Trazado 742478" d="M39.545,196.535a1.488,1.488,0,0,1,.055,2.106l-8.8,9.277a1.49,1.49,0,1,1-2.161-2.051l8.8-9.276A1.489,1.489,0,0,1,39.545,196.535Zm0,0" transform="translate(-25.01 -176.516)" fill="#dbc1a5"/>
          <path id="Trazado_742479" data-name="Trazado 742479" d="M60.146,196.535a1.488,1.488,0,0,1,.055,2.106l-6.154,6.484a1.49,1.49,0,1,1-2.161-2.051l6.154-6.484A1.489,1.489,0,0,1,60.146,196.535Zm0,0" transform="translate(-45.611 -176.516)" fill="#fee2ba"/>
          <path id="Trazado_742480" data-name="Trazado 742480" d="M216.744,372.777l2.184,7.026L211.8,377.99a7.365,7.365,0,0,1,4.947-5.213Zm0,0" transform="translate(-187.664 -333.038)" fill="#ed832c"/>
          <path id="Trazado_742481" data-name="Trazado 742481" d="M218.928,402.8l-7.131-1.813a7.3,7.3,0,0,1,1-2.256Zm0,0" transform="translate(-187.664 -356.032)" fill="#dd6f15"/>
          <path id="Trazado_742482" data-name="Trazado 742482" d="M310.608,387.833l-3.967-3.967,1.684-1.684,2.283,2.283,5.587-5.587,1.684,1.684Zm0,0" transform="translate(-271.701 -338.445)" fill="#ed832c"/>
        </g>
      </g>
    </g>
  </g>
</svg>
