<svg xmlns="http://www.w3.org/2000/svg" width="78.506" height="78.506" viewBox="0 0 78.506 78.506">
  <g id="_4" data-name="4" transform="translate(-603.685 -927.529)">
    <path id="Trazado_734791" data-name="Trazado 734791" d="M39.253,0A39.253,39.253,0,1,1,0,39.253,39.253,39.253,0,0,1,39.253,0Z" transform="translate(603.685 927.529)" fill="#362b9e"/>
    <g id="Grupo_1024382" data-name="Grupo 1024382" transform="translate(-1.823 -6.554)">
      <g id="grafico" transform="translate(622.922 942.933)">
        <path id="Trazado_743893" data-name="Trazado 743893" d="M68.816,32.48V51.714l-12.527-.789L46.8,44.762A22.166,22.166,0,0,1,67.337,31,1.48,1.48,0,0,1,68.816,32.48Z" transform="translate(-42.184 -31)" fill="#fed843"/>
        <path id="Trazado_743894" data-name="Trazado 743894" d="M180.911,242.48A22.181,22.181,0,0,1,160.2,264.624q-.734.049-1.48.049a22.146,22.146,0,0,1-10.537-2.656l2.949-12.041L160.2,241h19.235A1.48,1.48,0,0,1,180.911,242.48Z" transform="translate(-133.564 -220.286)" fill="#ff7b4a"/>
        <path id="Trazado_743895" data-name="Trazado 743895" d="M290.714,242.48A22.181,22.181,0,0,1,270,264.624V241h19.235A1.48,1.48,0,0,1,290.714,242.48Z" transform="translate(-243.367 -220.286)" fill="#ff435b"/>
        <path id="Trazado_743896" data-name="Trazado 743896" d="M26.633,172.566,13.859,194.908a1.48,1.48,0,0,1-2.04.47A25.189,25.189,0,0,1,1.284,166.09a1.481,1.481,0,0,1,1.872-.936Z" transform="translate(0 -151.852)" fill="#89cbe1"/>
      </g>
      <g id="proteger" transform="translate(613.06 981.421)">
        <path id="Trazado_743897" data-name="Trazado 743897" d="M86.188,284.859,74.2,292.883l-3.573-.2-.14-1.406a4.566,4.566,0,0,0-3.9-4.069L53.9,286.1c-1.242-.176-3.855-1.557-5.9-2.732a13.032,13.032,0,0,0-6.376-1.733l-6.445-.053v15.756l18.244,6.909a4.966,4.966,0,0,0,2.121.141l.013,0,18.367-2.647a8.13,8.13,0,0,0,3.856-1.727l11.871-10.677a2.834,2.834,0,0,0-3.463-4.472Zm0,0" transform="translate(-31.091 -277.154)" fill="#fae0c1"/>
        <path id="Trazado_743898" data-name="Trazado 743898" d="M90.108,313.841a2.814,2.814,0,0,0-.259-.326l-12.073,8.866a8.13,8.13,0,0,1-3.856,1.728l-18.367,2.648-.013,0a4.957,4.957,0,0,1-2.121-.141l-18.244-6.908v5.85l18.244,6.908a4.957,4.957,0,0,0,2.121.141l.013,0L73.92,329.96a8.13,8.13,0,0,0,3.856-1.728l11.871-10.676a2.834,2.834,0,0,0,.461-3.714Zm0,0" transform="translate(-31.087 -305.379)" fill="#efd0af"/>
        <path id="Trazado_743899" data-name="Trazado 743899" d="M8.819,269.135H1.24A1.24,1.24,0,0,1,0,267.9V244.756a1.24,1.24,0,0,1,1.24-1.24H8.819a1.24,1.24,0,0,1,1.24,1.24V267.9A1.24,1.24,0,0,1,8.819,269.135Zm0,0" transform="translate(0 -243.516)" fill="#f43b45"/>
        <path id="Trazado_743900" data-name="Trazado 743900" d="M40.89,243.516h-4.6v25.619h4.6a1.24,1.24,0,0,0,1.24-1.24V244.756A1.24,1.24,0,0,0,40.89,243.516Zm0,0" transform="translate(-32.071 -243.516)" fill="#cf3735"/>
        <path id="Trazado_743905" data-name="Trazado 743905" d="M26.8,397.619a2.279,2.279,0,1,1-2.279-2.279A2.28,2.28,0,0,1,26.8,397.619Zm0,0" transform="translate(-19.653 -377.692)" fill="#d6d6d6"/>
        <path id="Trazado_743907" data-name="Trazado 743907" d="M175.31,368.234l-18.42,1.229-.034,0a2.131,2.131,0,0,1-1.454-.761.934.934,0,1,0-1.435,1.2,3.988,3.988,0,0,0,2.722,1.425c.045,0,.091.007.129.009l.083,0h.068l18.443-2.068Zm0,0" transform="translate(-135.878 -353.737)" fill="#efd0af"/>
      </g>
      <g id="Grupo_1024381" data-name="Grupo 1024381" transform="translate(652.692 938.665)">
        <path id="Trazado_743901" data-name="Trazado 743901" d="M137.579,5.348a5.774,5.774,0,0,1-3.536-4.83A.571.571,0,0,0,133.47,0L121.36.071a.574.574,0,0,0-.568.533,5.774,5.774,0,0,1-3.485,4.865.825.825,0,0,0-.494.844c.275,2.631,1.878,11.591,10.614,15.62a.273.273,0,0,0,.116.025.277.277,0,0,0,.116-.026c8.688-4.132,10.185-13.109,10.429-15.743a.828.828,0,0,0-.51-.841Zm0,0" transform="translate(-116.809 0)" fill="#5faa46"/>
        <path id="Trazado_743902" data-name="Trazado 743902" d="M243.615,5.348a5.774,5.774,0,0,1-3.536-4.83A.571.571,0,0,0,239.505,0l-3.3.019a5.774,5.774,0,0,0,3.554,5.327.832.832,0,0,1,.514.843c-.227,2.443-1.532,10.337-8.645,14.767a18.023,18.023,0,0,0,1.833.978.274.274,0,0,0,.233,0C242.383,17.8,243.88,8.824,244.124,6.189a.828.828,0,0,0-.51-.841Zm0,0" transform="translate(-222.844 0)" fill="#4b8c41"/>
        <path id="Trazado_743903" data-name="Trazado 743903" d="M155.78,46.358c-5.978-3.244-7.711-9.262-8.208-12.215a.316.316,0,0,1,.144-.321,7.725,7.725,0,0,0,3.345-4.394.317.317,0,0,1,.3-.227l8.937-.053a.318.318,0,0,1,.306.224,7.726,7.726,0,0,0,3.4,4.354.316.316,0,0,1,.148.319c-.462,2.959-2.124,9-8.064,12.31a.32.32,0,0,1-.307,0Zm0,0" transform="translate(-145.214 -26.919)" fill="#f6f6f6"/>
        <path id="Trazado_743904" data-name="Trazado 743904" d="M241.482,33.726a7.725,7.725,0,0,1-3.4-4.354.318.318,0,0,0-.306-.224l-3.6.021a7.726,7.726,0,0,0,3.455,4.557.315.315,0,0,1,.147.319,17.346,17.346,0,0,1-6.314,11.17,15.15,15.15,0,0,0,1.794,1.143.32.32,0,0,0,.307,0c5.94-3.314,7.6-9.352,8.064-12.31a.316.316,0,0,0-.148-.32Zm0,0" transform="translate(-222.692 -26.918)" fill="#e8e8e8"/>
        <path id="Trazado_743906" data-name="Trazado 743906" d="M215.325,92.046a.592.592,0,0,0,.493-.261l3.934-5.938a.591.591,0,1,0-.985-.653l-3.545,5.35-1.97-1.871a.591.591,0,0,0-.814.857l2.481,2.356a.583.583,0,0,0,.407.159Zm0,0" transform="translate(-204.951 -78.432)" fill="#505264"/>
      </g>
    </g>
  </g>
</svg>
