<svg id="_8" data-name="8" xmlns="http://www.w3.org/2000/svg" width="101.96" height="110.647" viewBox="0 0 101.96 110.647">
  <g id="Page-1" transform="translate(0 16.379)">
    <g id="_021---Freelancer" data-name="021---Freelancer">
      <path id="Path" d="M56.132,30.465a6.285,6.285,0,0,1-6.285,6.269V40.16a6.3,6.3,0,0,1-2.153,4.745l-5.028,4.4H22.46l-5.028-4.4a6.3,6.3,0,0,1-2.153-4.745V36.735a6.269,6.269,0,0,1,0-12.539v-.031s0-14.141,9.428-11,9.428,6.285,22,4.714a6.808,6.808,0,0,1,3.143,6.285V24.2A6.285,6.285,0,0,1,56.132,30.465Z" transform="translate(5.147 7.253)" fill="#edeaff" fill-rule="evenodd"/>
      <path id="Path-2" data-name="Path" d="M34.611,34.855V38.28a6.3,6.3,0,0,1-2.153,4.745l-5.028,4.4h4.714l5.028-4.4a6.3,6.3,0,0,0,2.153-4.745V34.855a6.269,6.269,0,1,0,0-12.539v-.031A6.808,6.808,0,0,0,36.182,16c-1.571.2-2.937.314-4.154.377a7.129,7.129,0,0,1,2.583,5.908Z" transform="translate(15.67 9.132)" fill="#d5cef8" fill-rule="evenodd"/>
      <path id="Path-3" data-name="Path" d="M51.944,19.9c0,9.412-3.143,10.983-3.143,10.983v-.031a6.808,6.808,0,0,0-3.143-6.285c-12.57,1.571-12.57-1.571-22-4.714s-9.428,11-9.428,11v.031S4.806,15.2,17.376,8.934c0,0,7.291-13.089,24.669-5.641a.786.786,0,0,1,.031,1.43,5.5,5.5,0,0,0-2.121,1.713.786.786,0,0,0,.377,1.226C43.287,8.62,51.944,12.108,51.944,19.9Z" transform="translate(6.193 0.564)" fill="#826be9" fill-rule="evenodd"/>
      <path id="Path-4" data-name="Path" d="M33.5,7.647a.786.786,0,0,1-.377-1.226,5.5,5.5,0,0,1,2.121-1.713.786.786,0,0,0-.031-1.43A23.77,23.77,0,0,0,22.792,1.142,27.664,27.664,0,0,1,30.5,3.278a.786.786,0,0,1,.031,1.43,5.5,5.5,0,0,0-2.121,1.713.786.786,0,0,0,.377,1.226c2.954.958,11.612,4.447,11.612,12.24a29.245,29.245,0,0,1-.471,5.534,7.358,7.358,0,0,1,2.043,5.418v.031s3.143-1.571,3.143-10.983c0-7.793-8.658-11.282-11.612-12.24Z" transform="translate(13.02 0.579)" fill="#6e55df" fill-rule="evenodd"/>
      <path id="Path-5" data-name="Path" d="M13.568,60.467v4.714a1.571,1.571,0,0,0,1.571,1.571H2.585a1.571,1.571,0,0,1-1.571-1.744,29.225,29.225,0,0,1,7.778-15.54,22.354,22.354,0,0,1,5.892-4.038L16.223,58.9H15.139a1.571,1.571,0,0,0-1.571,1.571Z" transform="translate(0.574 25.944)" fill="#ab9df1" fill-rule="evenodd"/>
      <path id="Path-6" data-name="Path" d="M12.285,58.9h1.084L11.829,45.43a27.456,27.456,0,0,0-4.4,2.726L8.655,58.9H7.571A1.571,1.571,0,0,0,6,60.467v4.714a1.571,1.571,0,0,0,1.571,1.571h4.714a1.571,1.571,0,0,1-1.571-1.571V60.467A1.571,1.571,0,0,1,12.285,58.9Z" transform="translate(3.428 25.944)" fill="#826be9" fill-rule="evenodd"/>
      <path id="Path-7" data-name="Path" d="M52.52,65.008a1.571,1.571,0,0,1-1.571,1.744H38.394a1.571,1.571,0,0,0,1.571-1.571V60.467A1.571,1.571,0,0,0,38.394,58.9H37.31L38.85,45.43a22.354,22.354,0,0,1,5.892,4.038A29.225,29.225,0,0,1,52.52,65.008Z" transform="translate(21.314 25.944)" fill="#ab9df1" fill-rule="evenodd"/>
      <path id="Path-8" data-name="Path" d="M44.3,49.468A22.354,22.354,0,0,0,38.4,45.43l-.314,2.726a13.973,13.973,0,0,1,1.493,1.312,29.225,29.225,0,0,1,7.778,15.54,1.571,1.571,0,0,1-1.571,1.744H50.5a1.571,1.571,0,0,0,1.571-1.744A29.225,29.225,0,0,0,44.3,49.468Z" transform="translate(21.759 25.944)" fill="#826be9" fill-rule="evenodd"/>
      <rect id="Rectangle" width="47.138" height="7.856" rx="1" transform="translate(14.141 84.84)" fill="#46928d"/>
      <path id="Path-9" data-name="Path" d="M55.02,50.817,53.48,64.283H11.653l-1.54-13.466L9.029,41.232A4.751,4.751,0,0,1,13.821,36h37.49a4.752,4.752,0,0,1,3.569,1.542Z" transform="translate(5.144 20.557)" fill="#71cc98" fill-rule="evenodd"/>
      <path id="Path-10" data-name="Path" d="M37.644,36H32.93a4.751,4.751,0,0,1,4.792,5.232l-1.084,9.585L35.1,64.283h4.714l1.54-13.466,1.084-9.585A4.751,4.751,0,0,0,37.644,36Z" transform="translate(18.812 20.557)" fill="#46928d" fill-rule="evenodd"/>
      <circle id="Oval" cx="4.714" cy="4.714" r="4.714" transform="translate(32.997 65.985)" fill="#f5f5f5"/>
      <g id="Grupo_1021453" data-name="Grupo 1021453">
        <path id="Shape" d="M.022,90.772a3.119,3.119,0,0,0,.764,2.44,3.165,3.165,0,0,0,2.357,1.061H72.267a3.165,3.165,0,0,0,2.357-1.061,3.11,3.11,0,0,0,.77-2.424c-.712-6.563-4.871-12.966-8.208-16.457A22.043,22.043,0,0,0,61.834,70.5l.971-8.529a6.227,6.227,0,0,0-1.548-4.841,6.452,6.452,0,0,0-4.8-2.142H51.995l1.886-1.645a7.869,7.869,0,0,0,2.685-5.928V45.406a7.836,7.836,0,0,0,1.3-14.982,21.322,21.322,0,0,0,1.846-9.956c0-7.968-7.753-11.888-11.514-13.318a4.1,4.1,0,0,1,.721-.429,2.349,2.349,0,0,0-.058-4.305C32.267-4.695,24.031,5.957,22.469,8.3A12.429,12.429,0,0,0,16,15.916c-1.571,5.393.607,11.313,2.027,14.338a7.837,7.837,0,0,0,.825,15.153v2.011a7.867,7.867,0,0,0,2.688,5.927l1.882,1.647H18.968a6.452,6.452,0,0,0-4.811,2.142,6.227,6.227,0,0,0-1.548,4.841L13.58,70.5a22.087,22.087,0,0,0-5.353,3.829C4.887,77.822.732,84.224.022,90.772Zm15.691.358V86.416h44V91.13ZM64.923,76.5A27.769,27.769,0,0,1,72.267,91.13H62.85V86.416a3.143,3.143,0,0,0-2.472-3.067l1.076-9.461A16.746,16.746,0,0,1,64.923,76.5Zm-45.9-59.717a9.407,9.407,0,0,1,5.243-5.878,1.6,1.6,0,0,0,.672-.641C25.2,9.8,31.326-.825,46.189,4.73a6.779,6.779,0,0,0-1.281,1.309,2.357,2.357,0,0,0-.393,2.11A2.39,2.39,0,0,0,46.04,9.72c2.47.8,10.526,3.947,10.526,10.749a23.467,23.467,0,0,1-.831,6.852,7.649,7.649,0,0,0-3.18-3.6,1.545,1.545,0,0,0-.9-.157c-8.406,1.05-10.771-.066-14.685-1.915A54.881,54.881,0,0,0,30.35,18.92a7.426,7.426,0,0,0-7.022.718,10.851,10.851,0,0,0-3.7,6.092,15.625,15.625,0,0,1-.6-8.944Zm4.587,34.192A4.725,4.725,0,0,1,22,47.418V43.992a1.571,1.571,0,0,0-1.571-1.571,4.685,4.685,0,0,1-1.571-9.113v2.828a1.571,1.571,0,0,0,3.143,0V31.422c0-1.934.581-7.364,3.171-9.226a4.439,4.439,0,0,1,4.189-.283,52.284,52.284,0,0,1,6.271,2.6c4.038,1.909,6.976,3.3,15.843,2.263a5.644,5.644,0,0,1,1.952,4.651v4.714a1.571,1.571,0,0,0,3.143,0V33.308a4.685,4.685,0,0,1-1.571,9.113,1.571,1.571,0,0,0-1.571,1.571v3.425a4.726,4.726,0,0,1-1.617,3.562l-4.583,4.011H28.2ZM16.5,59.234a3.3,3.3,0,0,1,2.467-1.1H56.452a3.3,3.3,0,0,1,2.467,1.1,3.036,3.036,0,0,1,.768,2.393L57.224,83.274H18.2L15.733,61.619a3.036,3.036,0,0,1,.765-2.385ZM13.962,73.9l1.076,9.461a3.143,3.143,0,0,0-2.468,3.059V91.13H3.143a27.849,27.849,0,0,1,7.352-14.622,16.812,16.812,0,0,1,3.471-2.619Z" transform="translate(0 -0.005)"/>
        <path id="Shape-2" data-name="Shape" d="M26.285,53.57A6.285,6.285,0,1,0,20,47.285,6.285,6.285,0,0,0,26.285,53.57Zm0-9.428a3.143,3.143,0,1,1-3.143,3.143A3.143,3.143,0,0,1,26.285,44.143Z" transform="translate(11.425 23.414)"/>
      </g>
    </g>
  </g>
  <g id="Grupo_1021442" data-name="Grupo 1021442" transform="translate(1.082)">
    <g id="Layer_7" transform="translate(0 0)">
      <g id="Grupo_1021439" data-name="Grupo 1021439" transform="translate(0)">
        <g id="Grupo_1022378" data-name="Grupo 1022378" transform="translate(66.895 36.563)">
          <g id="Grupo_1021311" data-name="Grupo 1021311" transform="translate(0.982 0.981)">
            <g id="Grupo_1021310" data-name="Grupo 1021310">
              <circle id="Elipse_7728" data-name="Elipse 7728" cx="13.671" cy="13.671" r="13.671" fill="#2a6bac"/>
            </g>
          </g>
          <g id="Grupo_1021327" data-name="Grupo 1021327">
            <g id="Grupo_1021326" data-name="Grupo 1021326">
              <g id="Grupo_1021325" data-name="Grupo 1021325">
                <path id="Trazado_738257" data-name="Trazado 738257" d="M191.468,101.632a14.653,14.653,0,1,0,14.653,14.653A14.669,14.669,0,0,0,191.468,101.632Zm0,27.342a12.689,12.689,0,1,1,12.689-12.689A12.7,12.7,0,0,1,191.468,128.974Z" transform="translate(-176.815 -101.632)"/>
              </g>
            </g>
          </g>
          <g id="Grupo_1021335" data-name="Grupo 1021335" transform="translate(17.926 10.36)">
            <g id="Grupo_1021334" data-name="Grupo 1021334">
              <path id="Trazado_738261" data-name="Trazado 738261" d="M227.387,131.557l-3.263-3.263a.982.982,0,1,0-1.389,1.389l2.568,2.569-2.568,2.569a.982.982,0,0,0,1.389,1.389l3.263-3.263A.982.982,0,0,0,227.387,131.557Z" transform="translate(-222.447 -128.006)"/>
            </g>
          </g>
          <g id="Grupo_1021337" data-name="Grupo 1021337" transform="translate(6.17 10.36)">
            <g id="Grupo_1021336" data-name="Grupo 1021336">
              <path id="Trazado_738262" data-name="Trazado 738262" d="M194.892,132.251l2.569-2.569a.982.982,0,0,0-1.389-1.389l-3.263,3.263a.983.983,0,0,0,0,1.389l3.263,3.263a.982.982,0,0,0,1.389-1.389Z" transform="translate(-192.521 -128.006)"/>
            </g>
          </g>
          <g id="Grupo_1021339" data-name="Grupo 1021339" transform="translate(12.525 9.667)">
            <g id="Grupo_1021338" data-name="Grupo 1021338">
              <path id="Trazado_738263" data-name="Trazado 738263" d="M212.264,126.282a.981.981,0,0,0-1.218.668l-2.307,7.911a.982.982,0,1,0,1.886.55l2.307-7.911a.982.982,0,0,0-.668-1.218Z" transform="translate(-208.699 -126.243)"/>
            </g>
          </g>
        </g>
        <g id="Grupo_1021344" data-name="Grupo 1021344" transform="translate(10.526 65.868)">
          <g id="Grupo_1021343" data-name="Grupo 1021343">
            <path id="Trazado_738265" data-name="Trazado 738265" d="M168.48,107.44a3.059,3.059,0,0,1-2.453-2.4c0-.055-.11-.055-.11,0a3.059,3.059,0,0,1-2.453,2.4c-.055,0-.055.083,0,.11a3.059,3.059,0,0,1,2.453,2.4c0,.055.11.055.11,0a3.058,3.058,0,0,1,2.453-2.4C168.535,107.523,168.535,107.44,168.48,107.44Z" transform="translate(-163.422 -105.001)" fill="#826be9"/>
          </g>
        </g>
        <g id="Grupo_1021346" data-name="Grupo 1021346" transform="translate(34.467 12.082)">
          <g id="Grupo_1021345" data-name="Grupo 1021345">
            <path id="Trazado_738266" data-name="Trazado 738266" d="M126.424,0a1.336,1.336,0,1,0,1.336,1.336A1.336,1.336,0,0,0,126.424,0Z" transform="translate(-125.088)" fill="#826be9"/>
          </g>
        </g>
        <g id="Grupo_1021348" data-name="Grupo 1021348" transform="translate(5.909 16)">
          <g id="Grupo_1021347" data-name="Grupo 1021347">
            <path id="Trazado_738267" data-name="Trazado 738267" d="M146.346,19.024a4.359,4.359,0,0,1-3.5-3.418c0-.079-.157-.079-.157,0a4.359,4.359,0,0,1-3.5,3.418c-.079,0-.079.118,0,.157a4.359,4.359,0,0,1,3.5,3.418c0,.079.157.079.157,0a4.359,4.359,0,0,1,3.5-3.418c.079-.039.079-.157,0-.157Z" transform="translate(-139.138 -15.547)" fill="#362b9e"/>
          </g>
        </g>
        <g id="Grupo_1022379" data-name="Grupo 1022379" transform="translate(62.217)">
          <g id="Grupo_1021309" data-name="Grupo 1021309">
            <g id="Grupo_1021308" data-name="Grupo 1021308">
              <circle id="Elipse_7727" data-name="Elipse 7727" cx="13.671" cy="13.671" r="13.671" transform="translate(0 19.331) rotate(-45)" fill="#9e9abe"/>
            </g>
          </g>
          <g id="Grupo_1021315" data-name="Grupo 1021315" transform="translate(12.657 12.245)">
            <g id="Grupo_1021314" data-name="Grupo 1021314">
              <path id="Trazado_738252" data-name="Trazado 738252" d="M210.788,41.147H198.235a.6.6,0,0,0-.6.6v2.733a.6.6,0,0,0,.6.6h12.553a.6.6,0,0,0,.6-.6V41.745A.6.6,0,0,0,210.788,41.147Z" transform="translate(-197.637 -41.147)" fill="#71cc98"/>
            </g>
          </g>
          <g id="Grupo_1021317" data-name="Grupo 1021317" transform="translate(12.657 19.709)">
            <g id="Grupo_1021316" data-name="Grupo 1021316">
              <path id="Trazado_738253" data-name="Trazado 738253" d="M200.967,60.147h-2.733a.6.6,0,0,0-.6.6v5.482a.6.6,0,0,0,.6.6h2.733a.6.6,0,0,0,.6-.6V60.745A.6.6,0,0,0,200.967,60.147Z" transform="translate(-197.637 -60.147)" fill="#71cc98"/>
            </g>
          </g>
          <g id="Grupo_1021324" data-name="Grupo 1021324" transform="translate(4.689 4.671)">
            <g id="Grupo_1021323" data-name="Grupo 1021323">
              <g id="Grupo_1021322" data-name="Grupo 1021322">
                <path id="Trazado_738256" data-name="Trazado 738256" d="M192,21.866a14.653,14.653,0,1,0,14.653,14.653A14.669,14.669,0,0,0,192,21.866Zm0,27.342a12.689,12.689,0,1,1,12.689-12.689A12.7,12.7,0,0,1,192,49.208Z" transform="translate(-177.352 -21.866)"/>
              </g>
            </g>
          </g>
          <g id="Grupo_1021329" data-name="Grupo 1021329" transform="translate(19.345 22.065)">
            <g id="Grupo_1021328" data-name="Grupo 1021328">
              <path id="Trazado_738258" data-name="Trazado 738258" d="M221.124,66.146h-5.482a.982.982,0,1,0,0,1.964h5.482a.982.982,0,1,0,0-1.964Z" transform="translate(-214.66 -66.146)"/>
            </g>
          </g>
          <g id="Grupo_1021331" data-name="Grupo 1021331" transform="translate(19.345 18.727)">
            <g id="Grupo_1021330" data-name="Grupo 1021330">
              <path id="Trazado_738259" data-name="Trazado 738259" d="M221.124,57.646h-5.482a.982.982,0,1,0,0,1.964h5.482a.982.982,0,1,0,0-1.964Z" transform="translate(-214.66 -57.646)"/>
            </g>
          </g>
          <g id="Grupo_1021333" data-name="Grupo 1021333" transform="translate(19.345 25.404)">
            <g id="Grupo_1021332" data-name="Grupo 1021332">
              <path id="Trazado_738260" data-name="Trazado 738260" d="M221.124,74.646h-5.482a.982.982,0,1,0,0,1.964h5.482a.982.982,0,1,0,0-1.964Z" transform="translate(-214.66 -74.646)"/>
            </g>
          </g>
          <g id="Grupo_1021355" data-name="Grupo 1021355" transform="translate(11.676 11.263)">
            <g id="Grupo_1021354" data-name="Grupo 1021354">
              <g id="Grupo_1021353" data-name="Grupo 1021353">
                <path id="Trazado_738270" data-name="Trazado 738270" d="M209.271,38.646H196.718a1.582,1.582,0,0,0-1.58,1.58v2.733a1.582,1.582,0,0,0,1.58,1.58h12.553a1.582,1.582,0,0,0,1.58-1.58V40.226A1.582,1.582,0,0,0,209.271,38.646Zm-.384,3.928H197.1V40.61h11.785Z" transform="translate(-195.138 -38.646)"/>
              </g>
            </g>
          </g>
          <g id="Grupo_1021358" data-name="Grupo 1021358" transform="translate(11.675 18.727)">
            <g id="Grupo_1021357" data-name="Grupo 1021357">
              <g id="Grupo_1021356" data-name="Grupo 1021356">
                <path id="Trazado_738271" data-name="Trazado 738271" d="M199.449,57.646h-2.733a1.582,1.582,0,0,0-1.58,1.58v5.482a1.582,1.582,0,0,0,1.58,1.58h2.733a1.582,1.582,0,0,0,1.58-1.58V59.226A1.582,1.582,0,0,0,199.449,57.646Zm-.384,6.678H197.1V59.61h1.964Z" transform="translate(-195.137 -57.646)"/>
              </g>
            </g>
          </g>
        </g>
        <g id="Grupo_1022377" data-name="Grupo 1022377" transform="translate(67.312 68.362)">
          <g id="Grupo_1021313" data-name="Grupo 1021313" transform="translate(0.982 0.982)">
            <g id="Grupo_1021312" data-name="Grupo 1021312">
              <circle id="Elipse_7729" data-name="Elipse 7729" cx="13.671" cy="13.671" r="13.671" fill="#b598f9"/>
            </g>
          </g>
          <g id="Grupo_1021319" data-name="Grupo 1021319" transform="translate(7.975 6.6)">
            <g id="Grupo_1021318" data-name="Grupo 1021318">
              <path id="Trazado_738254" data-name="Trazado 738254" d="M209.558,198.2H198.031a.914.914,0,0,0-.915.915V213.39a.914.914,0,0,0,.915.914h11.527a.914.914,0,0,0,.915-.914V199.114A.915.915,0,0,0,209.558,198.2Z" transform="translate(-197.116 -198.199)" fill="#5290db"/>
            </g>
          </g>
          <g id="Grupo_1021321" data-name="Grupo 1021321" transform="translate(7.975 11.903)">
            <g id="Grupo_1021320" data-name="Grupo 1021320">
              <path id="Trazado_738255" data-name="Trazado 738255" d="M197.116,211.7h13.356v5.5H197.116Z" transform="translate(-197.116 -211.699)" fill="#3a70bf"/>
            </g>
          </g>
          <g id="Grupo_1021342" data-name="Grupo 1021342">
            <g id="Grupo_1021341" data-name="Grupo 1021341">
              <g id="Grupo_1021340" data-name="Grupo 1021340">
                <path id="Trazado_738264" data-name="Trazado 738264" d="M191.468,181.4a14.653,14.653,0,1,0,14.653,14.653A14.669,14.669,0,0,0,191.468,181.4Zm0,27.342a12.689,12.689,0,1,1,12.689-12.689A12.7,12.7,0,0,1,191.468,208.74Z" transform="translate(-176.815 -181.398)"/>
              </g>
            </g>
          </g>
          <g id="Grupo_1021350" data-name="Grupo 1021350" transform="translate(7.438 10.921)">
            <g id="Grupo_1021349" data-name="Grupo 1021349">
              <path id="Trazado_738268" data-name="Trazado 738268" d="M209.253,209.2H196.732a.982.982,0,1,0,0,1.964h12.521a.982.982,0,0,0,0-1.964Z" transform="translate(-195.75 -209.199)"/>
            </g>
          </g>
          <g id="Grupo_1021352" data-name="Grupo 1021352" transform="translate(7.414 16.421)">
            <g id="Grupo_1021351" data-name="Grupo 1021351">
              <path id="Trazado_738269" data-name="Trazado 738269" d="M209.216,223.2H196.67a.982.982,0,1,0,0,1.964h12.546a.982.982,0,1,0,0-1.964Z" transform="translate(-195.688 -223.199)"/>
            </g>
          </g>
          <g id="Grupo_1021361" data-name="Grupo 1021361" transform="translate(6.993 5.618)">
            <g id="Grupo_1021360" data-name="Grupo 1021360">
              <g id="Grupo_1021359" data-name="Grupo 1021359">
                <path id="Trazado_738272" data-name="Trazado 738272" d="M208.04,195.7H196.513a1.9,1.9,0,0,0-1.9,1.9v14.277a1.9,1.9,0,0,0,1.9,1.9H208.04a1.9,1.9,0,0,0,1.9-1.9V197.6A1.9,1.9,0,0,0,208.04,195.7Zm-.068,16.106H196.58V197.663h11.392Z" transform="translate(-194.616 -195.699)"/>
              </g>
            </g>
          </g>
        </g>
        <g id="Grupo_1021411" data-name="Grupo 1021411" transform="translate(0 42.174)">
          <g id="Grupo_1021410" data-name="Grupo 1021410">
            <path id="Trazado_738294" data-name="Trazado 738294" d="M9.624,114.114h-.9v-.9a1.266,1.266,0,0,0-1.257-1.257,1.241,1.241,0,0,0-1.257,1.257v.9H5.3a1.266,1.266,0,0,0-1.257,1.257A1.241,1.241,0,0,0,5.3,116.628h.9v.9a1.266,1.266,0,0,0,1.257,1.257,1.241,1.241,0,0,0,1.257-1.257v-.9h.9a1.266,1.266,0,0,0,1.257-1.257A1.241,1.241,0,0,0,9.624,114.114Z" transform="translate(-4.046 -111.953)" fill="#362b9e"/>
          </g>
        </g>
        <g id="Grupo_1021413" data-name="Grupo 1021413" transform="translate(5.909 53.33)">
          <g id="Grupo_1021412" data-name="Grupo 1021412">
            <path id="Trazado_738295" data-name="Trazado 738295" d="M20.424,140.353a1.336,1.336,0,1,0,1.336,1.336A1.336,1.336,0,0,0,20.424,140.353Z" transform="translate(-19.088 -140.353)" fill="#362b9e"/>
          </g>
        </g>
      </g>
    </g>
  </g>
</svg>
