<svg xmlns="http://www.w3.org/2000/svg" width="119.097" height="76.792" viewBox="0 0 119.097 76.792">
  <g id="a1" transform="translate(-93.47 -176.45)">
    <g id="Grupo_1020310" data-name="Grupo 1020310" transform="translate(93.47 176.45)">
      <path id="Trazado_735799" data-name="Trazado 735799" d="M113.383,176.45h93.211a5.013,5.013,0,0,1,5.008,5.008v66.771a5.013,5.013,0,0,1-5.008,5.008H113.388a5.013,5.013,0,0,1-5.008-5.008V181.458a5.013,5.013,0,0,1,5.008-5.008Z" transform="translate(-100.445 -176.45)" fill="#003d5e"/>
      <path id="Trazado_746174" data-name="Trazado 746174" d="M5,0H96.593a5,5,0,0,1,5,5V70.579a5,5,0,0,1-5,5H5a5,5,0,0,1-5-5V5A5,5,0,0,1,5,0Z" transform="translate(8.749 0.607)" fill="#112e4c"/>
      <path id="Trazado_735800" data-name="Trazado 735800" d="M93.47,303v4.433c0,2.767,2.587,5.008,5.78,5.008H206.788c3.188,0,5.78-2.241,5.78-5.008V303Z" transform="translate(-93.47 -235.649)" fill="#f0f0f0"/>
      <path id="Trazado_735801" data-name="Trazado 735801" d="M93.73,313.34a5.648,5.648,0,0,0,5.636,3.933H206.9a5.643,5.643,0,0,0,5.636-3.933Z" transform="translate(-93.592 -240.486)" fill="#003454"/>
      <path id="Trazado_735988" data-name="Trazado 735988" d="M0,0H92.524V57.9H0Z" transform="translate(13.284 5.684)" fill="silver"/>
      <path id="Trazado_735802" data-name="Trazado 735802" d="M210.954,246.447H118.43V189.778l29.193.141,63.218.305Z" transform="translate(-105.146 -182.853)" fill="#e0e0e0"/>
      <path id="Trazado_736044" data-name="Trazado 736044" d="M164.7,246.447H118.43V189.778l14.6.141,31.612.305Z" transform="translate(-58.887 -182.853)" fill="#fff"/>
      <path id="Trazado_735803" data-name="Trazado 735803" d="M205.511,180.911a1.331,1.331,0,1,1-1.331-1.331A1.331,1.331,0,0,1,205.511,180.911Z" transform="translate(-144.637 -177.914)" fill="#cacaca"/>
      <path id="Trazado_735804" data-name="Trazado 735804" d="M205.485,181.1a1.118,1.118,0,1,1-1.118-1.118A1.118,1.118,0,0,1,205.485,181.1Z" transform="translate(-144.824 -178.101)" fill="gray"/>
      <path id="Trazado_735805" data-name="Trazado 735805" d="M207.6,303.222v2.443H166.372v-2.443H207.6m.282-.282H166.09v3.007h41.789V302.94Z" transform="translate(-127.441 -235.621)" fill="#cacaca"/>
      <g id="Grupo_1020307" data-name="Grupo 1020307" transform="translate(2.682 69.07)">
        <path id="Trazado_735806" data-name="Trazado 735806" d="M100.277,307.231a.89.89,0,1,1-.883-1A.951.951,0,0,1,100.277,307.231Z" transform="translate(-98.51 -306.23)" fill="#cacaca"/>
        <path id="Trazado_735807" data-name="Trazado 735807" d="M100.249,307.455a.66.66,0,1,1-.655-.745A.705.705,0,0,1,100.249,307.455Z" transform="translate(-98.711 -306.454)" fill="#666"/>
      </g>
      <g id="Grupo_1020308" data-name="Grupo 1020308" transform="translate(5.45 69.07)">
        <path id="Trazado_735808" data-name="Trazado 735808" d="M105.477,307.231a.89.89,0,1,1-.883-1A.951.951,0,0,1,105.477,307.231Z" transform="translate(-103.71 -306.23)" fill="#cacaca"/>
        <path id="Trazado_735809" data-name="Trazado 735809" d="M105.449,307.455a.66.66,0,1,1-.655-.745A.705.705,0,0,1,105.449,307.455Z" transform="translate(-103.911 -306.454)" fill="#666"/>
      </g>
      <g id="Grupo_1020309" data-name="Grupo 1020309" transform="translate(8.212 69.07)">
        <path id="Trazado_735810" data-name="Trazado 735810" d="M110.667,307.231a.89.89,0,1,1-.883-1A.951.951,0,0,1,110.667,307.231Z" transform="translate(-108.9 -306.23)" fill="#cacaca"/>
        <path id="Trazado_735811" data-name="Trazado 735811" d="M110.639,307.455a.66.66,0,1,1-.655-.745A.705.705,0,0,1,110.639,307.455Z" transform="translate(-109.101 -306.454)" fill="#666"/>
      </g>
      <g id="Grupo_1025385" data-name="Grupo 1025385" transform="translate(11903.283 12117.915)">
        <g id="Grupo_1025379" data-name="Grupo 1025379" transform="translate(-11824.396 -12107.904)">
          <g id="Grupo_1025337" data-name="Grupo 1025337" transform="translate(0 0)">
            <rect id="Rectángulo_375321" data-name="Rectángulo 375321" width="17.806" height="17.806" rx="2.27" transform="translate(0.041 0)" fill="#407bff"/>
            <g id="Grupo_1025333" data-name="Grupo 1025333" transform="translate(0.041 0)">
              <rect id="Rectángulo_375322" data-name="Rectángulo 375322" width="17.806" height="17.806" rx="2.27" fill="#112e4c"/>
            </g>
            <g id="Grupo_1025334" data-name="Grupo 1025334" transform="translate(2.134 4.528)">
              <path id="Trazado_746194" data-name="Trazado 746194" d="M302.289,52.365,299.2,53.5l3.093,1.124v1.16l-4.419-1.679V52.9l4.419-1.679v1.15Z" transform="translate(-297.87 -48.93)" fill="#fff"/>
              <path id="Trazado_746195" data-name="Trazado 746195" d="M309.972,46.8h1.29L308.2,55.545h-1.29Z" transform="translate(-302.227 -46.8)" fill="#fff"/>
              <path id="Trazado_746196" data-name="Trazado 746196" d="M320.039,52.884v1.207l-4.419,1.679v-1.16l3.093-1.124L315.62,52.35V51.2l4.419,1.679Z" transform="translate(-306.424 -48.921)" fill="#fff"/>
            </g>
            <g id="Grupo_1025335" data-name="Grupo 1025335" transform="translate(0 20.054)">
              <path id="Trazado_746197" data-name="Trazado 746197" d="M297.713,78.7v4.326h-1V81.254H294.75v1.772h-1V78.7h1v1.7h1.963V78.7Z" transform="translate(-293.75 -78.7)" fill="#112e4c"/>
              <path id="Trazado_746198" data-name="Trazado 746198" d="M303.833,79.523H302.45V78.71h3.772v.813h-1.383v3.513h-1V79.523Z" transform="translate(-297.943 -78.705)" fill="#112e4c"/>
              <path id="Trazado_746199" data-name="Trazado 746199" d="M314.707,83.036v-2.6l-1.28,2.14h-.451L311.708,80.5v2.539h-.938V78.71h.829L313.22,81.4l1.6-2.689h.824l.01,4.326h-.938Z" transform="translate(-301.952 -78.705)" fill="#112e4c"/>
              <path id="Trazado_746200" data-name="Trazado 746200" d="M322.17,78.7h1v3.513h2.171v.819H322.17V78.705Z" transform="translate(-307.447 -78.7)" fill="#112e4c"/>
            </g>
          </g>
        </g>
      </g>
      <g id="Grupo_1025386" data-name="Grupo 1025386" transform="translate(78.888 37.265)">
        <g id="Grupo_1025342" data-name="Grupo 1025342" transform="translate(0 0)">
          <rect id="Rectángulo_375323" data-name="Rectángulo 375323" width="17.895" height="17.895" rx="2.27" transform="translate(0 0)" fill="#407bff"/>
          <g id="Grupo_1025338" data-name="Grupo 1025338" transform="translate(0 0)" opacity="0.4">
            <rect id="Rectángulo_375324" data-name="Rectángulo 375324" width="17.895" height="17.895" rx="2.27" fill="#fff"/>
          </g>
          <g id="Grupo_1025339" data-name="Grupo 1025339" transform="translate(4.462 4.566)">
            <path id="Trazado_746205" data-name="Trazado 746205" d="M377.462,69.548c.427.13.625.4.625,1.046v1.494a.616.616,0,0,0,.682.692h.167v1.14h-.541a1.541,1.541,0,0,1-1.765-1.671V70.563a.381.381,0,0,0-.411-.437h-.307v-1.14h.307a.383.383,0,0,0,.411-.437V66.861a1.541,1.541,0,0,1,1.765-1.671h.541v1.14h-.167a.614.614,0,0,0-.682.692v1.494c0,.646-.2.916-.625,1.046Z" transform="translate(-375.91 -65.169)" fill="#fff"/>
            <path id="Trazado_746206" data-name="Trazado 746206" d="M390.345,68.961V70.1h-.307a.383.383,0,0,0-.411.437v1.687a1.541,1.541,0,0,1-1.765,1.671h-.541v-1.14h.167a.614.614,0,0,0,.682-.692V70.57c0-.646.2-.916.625-1.047-.427-.13-.625-.4-.625-1.046V66.983a.616.616,0,0,0-.682-.692h-.167V65.15h.541a1.541,1.541,0,0,1,1.765,1.671v1.687a.381.381,0,0,0,.411.437h.307Z" transform="translate(-381.379 -65.15)" fill="#fff"/>
          </g>
          <g id="Grupo_1025381" data-name="Grupo 1025381" transform="translate(2.932 19.676)">
            <path id="Trazado_746210" data-name="Trazado 746210" d="M372.97,99.259a2.394,2.394,0,0,1,4.15-1.479l-.646.6a1.41,1.41,0,0,0-1.093-.51,1.39,1.39,0,1,0,0,2.78,1.376,1.376,0,0,0,1.093-.515l.646.6a2.391,2.391,0,0,1-4.15-1.473Z" transform="translate(-372.97 -97.01)" fill="#112e4c"/>
            <path id="Trazado_746211" data-name="Trazado 746211" d="M381.52,101l.344-.76a2.561,2.561,0,0,0,1.437.453c.6,0,.838-.2.838-.463,0-.812-2.53-.255-2.53-1.869,0-.739.6-1.354,1.833-1.354a2.92,2.92,0,0,1,1.51.385l-.312.765a2.48,2.48,0,0,0-1.2-.344c-.6,0-.828.224-.828.495,0,.8,2.53.25,2.53,1.843,0,.729-.6,1.348-1.843,1.348a3.076,3.076,0,0,1-1.77-.505Z" transform="translate(-377.068 -97.01)" fill="#112e4c"/>
            <path id="Trazado_746212" data-name="Trazado 746212" d="M389.13,101l.344-.76a2.561,2.561,0,0,0,1.437.453c.6,0,.838-.2.838-.463,0-.34-.444-.44-1.049-.581-.627-.146-1.482-.351-1.482-1.288,0-.739.6-1.354,1.833-1.354a2.92,2.92,0,0,1,1.51.385l-.312.765a2.484,2.484,0,0,0-1.208-.344c-.6,0-.828.224-.828.495,0,.8,2.53.25,2.53,1.843,0,.729-.6,1.348-1.843,1.348a3.076,3.076,0,0,1-1.77-.505Z" transform="translate(-380.716 -97.01)" fill="#112e4c"/>
          </g>
        </g>
      </g>
    </g>
    <rect id="Rectángulo_369692" data-name="Rectángulo 369692" width="12.539" height="1.283" transform="translate(112.635 188.302)" fill="#221b6b"/>
    <rect id="Rectángulo_369693" data-name="Rectángulo 369693" width="12.539" height="1.283" transform="translate(116.052 191.581)" fill="#221b6b"/>
    <rect id="Rectángulo_369694" data-name="Rectángulo 369694" width="35.103" height="1.283" transform="translate(132.119 191.581)" fill="#0098d0"/>
    <rect id="Rectángulo_369695" data-name="Rectángulo 369695" width="51.17" height="1.283" transform="translate(116.052 198.707)" fill="#0098d0"/>
    <rect id="Rectángulo_369696" data-name="Rectángulo 369696" width="16.539" height="1.283" transform="translate(150.682 195.242)" fill="#221b6b"/>
    <rect id="Rectángulo_369697" data-name="Rectángulo 369697" width="31.108" height="1.283" transform="translate(116.052 195.242)" fill="#221b6b"/>
    <rect id="Rectángulo_369698" data-name="Rectángulo 369698" width="12.539" height="1.283" transform="translate(112.635 206.035)" fill="#221b6b"/>
    <rect id="Rectángulo_369699" data-name="Rectángulo 369699" width="12.539" height="1.283" transform="translate(116.052 209.314)" fill="#0098d0"/>
    <rect id="Rectángulo_369700" data-name="Rectángulo 369700" width="18.564" height="1.283" transform="translate(132.119 209.314)" fill="#221b6b"/>
    <rect id="Rectángulo_375335" data-name="Rectángulo 375335" width="13.413" height="1.283" transform="translate(153.809 209.313)" fill="#221b6b"/>
    <rect id="Rectángulo_369701" data-name="Rectángulo 369701" width="34.63" height="1.283" transform="translate(116.052 216.44)" fill="#221b6b"/>
    <rect id="Rectángulo_369702" data-name="Rectángulo 369702" width="1.982" height="1.283" transform="translate(148.701 212.975)" fill="#221b6b"/>
    <rect id="Rectángulo_375336" data-name="Rectángulo 375336" width="1.982" height="1.282" transform="translate(155.498 212.976)" fill="#221b6b"/>
    <rect id="Rectángulo_375338" data-name="Rectángulo 375338" width="1.982" height="1.282" transform="translate(163.498 216.44)" fill="#221b6b"/>
    <rect id="Rectángulo_369703" data-name="Rectángulo 369703" width="31.108" height="1.283" transform="translate(116.052 212.975)" fill="#0098d0"/>
    <rect id="Rectángulo_375337" data-name="Rectángulo 375337" width="5.661" height="1.282" transform="translate(159.021 212.976)" fill="#0098d0"/>
    <rect id="Rectángulo_369704" data-name="Rectángulo 369704" width="12.539" height="1.283" transform="translate(112.635 223.769)" fill="#0098d0"/>
    <rect id="Rectángulo_369705" data-name="Rectángulo 369705" width="12.539" height="1.283" transform="translate(116.052 227.047)" fill="#221b6b"/>
    <rect id="Rectángulo_369706" data-name="Rectángulo 369706" width="35.103" height="1.283" transform="translate(132.119 227.047)" fill="#221b6b"/>
    <rect id="Rectángulo_369707" data-name="Rectángulo 369707" width="51.17" height="1.283" transform="translate(116.052 234.173)" fill="#0098d0"/>
    <rect id="Rectángulo_369708" data-name="Rectángulo 369708" width="16.539" height="1.283" transform="translate(150.682 230.709)" fill="#0098d0"/>
    <rect id="Rectángulo_369709" data-name="Rectángulo 369709" width="31.108" height="1.283" transform="translate(116.052 230.709)" fill="#221b6b"/>
  </g>
</svg>
