<svg xmlns="http://www.w3.org/2000/svg" width="74.223" height="111.557" viewBox="0 0 74.223 111.557">
  <g id="a2" transform="translate(0.195 0)">
    <g id="Grupo_1020295" data-name="Grupo 1020295" transform="translate(8.421 46.034)">
      <path id="Trazado_735519" data-name="Trazado 735519" d="M143.656,319.291V312.1a1.542,1.542,0,0,1,1.534-1.506l7.026-1.255a1.432,1.432,0,0,0,.7-.167,23.761,23.761,0,0,1,1.729-4.824,1.765,1.765,0,0,0-.5-1.534l-4.043-5.883a1.5,1.5,0,0,1,0-2.119h0l5.1-5.075a1.5,1.5,0,0,1,2.119,0l5.855,4.1a1.772,1.772,0,0,0,.613.39,23.414,23.414,0,0,1,4.628-2.2,1.835,1.835,0,0,0,.753-1.45l1.31-7.026a1.5,1.5,0,0,1,1.506-1.506h5.433v22.445c-2.621,0-6.27,1-8.277,2.983a10.341,10.341,0,0,0-.056,14.61c2.035,2.035,5.684,3.067,8.333,3.067v22.417h-3.76a1.517,1.517,0,0,1-1.506-1.506l-1.255-7.026a1.942,1.942,0,0,0-.139-.7,23.169,23.169,0,0,1-4.824-1.729,1.917,1.917,0,0,0-1.561.474l-5.883,4.043a1.5,1.5,0,0,1-2.119,0l-5.075-5.1a1.5,1.5,0,0,1,0-2.119l4.1-5.855a1.773,1.773,0,0,0,.39-.613,23.405,23.405,0,0,1-2.2-4.628,1.835,1.835,0,0,0-1.45-.753l-7.026-1.311a1.5,1.5,0,0,1-1.506-1.506h0Z" transform="translate(-143.6 -282.04)" fill="#e1edf7"/>
      <path id="Trazado_735518" data-name="Trazado 735518" d="M139.117,322.1a10.327,10.327,0,0,0-7.277-17.647V282.07h2.76a1.522,1.522,0,0,1,1.506,1.531l1.255,7.014a1.935,1.935,0,0,0,.139.7,23.2,23.2,0,0,1,4.824,1.726,1.767,1.767,0,0,0,1.534-.5l5.883-4.036a1.5,1.5,0,0,1,2.119,0l5.075,5.094a1.493,1.493,0,0,1,0,2.115l-4.1,5.845a1.769,1.769,0,0,0-.39.612,25.025,25.025,0,0,1,2.2,4.621,1.836,1.836,0,0,0,1.45.751l7.026,1.308a1.5,1.5,0,0,1,1.506,1.5v7.181a1.54,1.54,0,0,1-1.534,1.5l-7.026,1.253a1.628,1.628,0,0,0-.725.167,23.694,23.694,0,0,1-1.729,4.816,1.912,1.912,0,0,0,.474,1.559l4.043,5.873a1.493,1.493,0,0,1,0,2.116l-5.1,5.066a1.5,1.5,0,0,1-2.119,0l-5.855-4.064a1.773,1.773,0,0,0-.613-.39,23.43,23.43,0,0,1-4.628,2.2,1.831,1.831,0,0,0-.753,1.447l-1.31,7.014a1.5,1.5,0,0,1-1.506,1.5H131.84V325.187a10.292,10.292,0,0,0,7.277-3.006Z" transform="translate(-99.023 -282.07)" fill="#fff"/>
    </g>
    <g id="Grupo_1020296" data-name="Grupo 1020296" transform="translate(0)">
      <path id="Trazado_735521" data-name="Trazado 735521" d="M150.184,291.8v-5.07a1.088,1.088,0,0,1,1.092-1.064l4.957-.868a1.1,1.1,0,0,0,.5-.112,16.522,16.522,0,0,1,1.2-3.417,1.3,1.3,0,0,0-.336-1.092l-2.857-4.145a1.065,1.065,0,0,1,0-1.512h0l3.613-3.585a1.032,1.032,0,0,1,1.484,0l4.145,2.885a2.613,2.613,0,0,0,.42.28,16.608,16.608,0,0,1,3.277-1.54,1.258,1.258,0,0,0,.532-1.008l.924-4.957a1.064,1.064,0,0,1,1.064-1.064h3.109v15.853a7.3,7.3,0,0,0-5.21,12.436c1.428,1.428,4.3,2.157,6.182,2.157v15.853H171.33a1.064,1.064,0,0,1-1.064-1.064l-.868-4.957a1.1,1.1,0,0,0-.112-.5,16.523,16.523,0,0,1-3.417-1.2,1.323,1.323,0,0,0-1.092.336l-4.145,2.857a1.065,1.065,0,0,1-1.512,0l-3.585-3.613a1.065,1.065,0,0,1,0-1.512l2.885-4.145a2.614,2.614,0,0,0,.28-.42,18.5,18.5,0,0,1-1.568-3.277,1.259,1.259,0,0,0-1.008-.532l-4.957-.924A1.064,1.064,0,0,1,150.1,291.8h0Z" transform="translate(-150.295 -265.53)" fill="#27d15a"/>
      <path id="Trazado_735520" data-name="Trazado 735520" d="M146.939,293.892a7.3,7.3,0,0,0-5.129-12.5V265.53h1.962a1.065,1.065,0,0,1,1.065,1.065l.869,4.96a1.1,1.1,0,0,0,.112.5,16.531,16.531,0,0,1,3.419,1.205,1.324,1.324,0,0,0,1.093-.336l4.148-2.859a1.066,1.066,0,0,1,1.513,0l3.587,3.615a1.066,1.066,0,0,1,0,1.513l-2.887,4.12a2.612,2.612,0,0,0-.28.42,17.619,17.619,0,0,1,1.569,3.279,1.259,1.259,0,0,0,1.009.532l4.96.925a1.065,1.065,0,0,1,1.065,1.065v5.073a1.089,1.089,0,0,1-1.093,1.065l-4.96.869a1.1,1.1,0,0,0-.5.112,18.342,18.342,0,0,1-1.205,3.419,1.3,1.3,0,0,0,.336,1.093l2.859,4.148a1.066,1.066,0,0,1,0,1.513l-3.615,3.587a1.066,1.066,0,0,1-1.513,0l-4.12-2.887a2.619,2.619,0,0,0-.42-.28,16.612,16.612,0,0,1-3.279,1.541,1.3,1.3,0,0,0-.532,1.009l-.925,4.961a1.065,1.065,0,0,1-1.065,1.065h-3.139V295.966a7.256,7.256,0,0,0,5.129-2.1Z" transform="translate(-118.787 -265.53)" fill="#1da144"/>
    </g>
  </g>
</svg>
