<svg xmlns="http://www.w3.org/2000/svg" xmlns:xlink="http://www.w3.org/1999/xlink" width="103" height="109" viewBox="0 0 103 109">
  <defs>
    <filter id="Rect치ngulo_345292" x="0" y="0" width="103" height="109" filterUnits="userSpaceOnUse">
      <feOffset dy="3" input="SourceAlpha"/>
      <feGaussianBlur stdDeviation="3" result="blur"/>
      <feFlood flood-opacity="0.161"/>
      <feComposite operator="in" in2="blur"/>
      <feComposite in="SourceGraphic"/>
    </filter>
    <filter id="Trazado_724609" x="7.5" y="11" width="87" height="87" filterUnits="userSpaceOnUse">
      <feOffset dy="3" input="SourceAlpha"/>
      <feGaussianBlur stdDeviation="3" result="blur-2"/>
      <feFlood flood-opacity="0.161"/>
      <feComposite operator="in" in2="blur-2"/>
      <feComposite in="SourceGraphic"/>
    </filter>
  </defs>
  <g id="atencion" transform="translate(8.5 6)">
    <g id="Grupo_1005927" data-name="Grupo 1005927">
      <g transform="matrix(1, 0, 0, 1, -8.5, -6)" filter="url(#Rect치ngulo_345292)">
        <rect id="Rect치ngulo_345292-2" data-name="Rect치ngulo 345292" width="85" height="91" rx="5" transform="translate(9 6)" fill="#3f379a"/>
      </g>
      <g id="Grupo_1003705" data-name="Grupo 1003705" transform="translate(8 11)">
        <g transform="matrix(1, 0, 0, 1, -16.5, -17)" filter="url(#Trazado_724609)">
          <path id="Trazado_724609-2" data-name="Trazado 724609" d="M34.5,0A34.5,34.5,0,1,1,0,34.5,34.5,34.5,0,0,1,34.5,0Z" transform="translate(16.5 17)" fill="#544bbb"/>
        </g>
      </g>
    </g>
    <g id="warning" transform="translate(18.887 22.515)">
      <path id="Trazado_724601" data-name="Trazado 724601" d="M46.731,61.193,29.874,32.983a7.009,7.009,0,0,0-12.034,0L.984,61.193a6.989,6.989,0,0,0-.056,7.053A6.9,6.9,0,0,0,7,71.772H40.714a6.9,6.9,0,0,0,6.073-3.526A6.988,6.988,0,0,0,46.731,61.193Z" transform="translate(0 -29.569)" fill="#056522"/>
      <path id="Trazado_724602" data-name="Trazado 724602" d="M278.93,68.246a6.9,6.9,0,0,1-6.073,3.526H256V29.57a6.987,6.987,0,0,1,6.017,3.414l16.857,28.21A6.988,6.988,0,0,1,278.93,68.246Z" transform="translate(-232.143 -29.57)" fill="#034d19"/>
      <path id="Trazado_724603" data-name="Trazado 724603" d="M34.2,96.2a4.091,4.091,0,0,1-3.64-2.113,4.171,4.171,0,0,1,.044-4.261L47.447,61.644a4.213,4.213,0,0,1,7.237.019L71.528,89.852a4.162,4.162,0,0,1,.03,4.239,4.09,4.09,0,0,1-3.64,2.113H34.2Z" transform="translate(-27.203 -56.8)" fill="#1ce057"/>
      <path id="Trazado_724604" data-name="Trazado 724604" d="M272.857,96.2a4.091,4.091,0,0,0,3.64-2.113,4.162,4.162,0,0,0-.03-4.239l-16.844-28.19A4.215,4.215,0,0,0,256,59.6V96.2Z" transform="translate(-232.142 -56.799)" fill="#37f871"/>
      <path id="Trazado_724605" data-name="Trazado 724605" d="M231.566,124.863v11.194a2.8,2.8,0,0,1-5.6,0V124.863a2.8,2.8,0,1,1,5.6,0Z" transform="translate(-204.911 -113.444)" fill="#12263f"/>
      <path id="Trazado_724606" data-name="Trazado 724606" d="M258.8,124.863v11.194a2.807,2.807,0,0,1-2.8,2.8V122.064A2.807,2.807,0,0,1,258.8,124.863Z" transform="translate(-232.143 -113.444)" fill="#1b3555"/>
      <path id="Trazado_724607" data-name="Trazado 724607" d="M215.152,332.278a4.2,4.2,0,1,0,4.2,4.2A4.192,4.192,0,0,0,215.152,332.278Z" transform="translate(-191.295 -304.068)" fill="#12263f"/>
      <path id="Trazado_724608" data-name="Trazado 724608" d="M260.2,336.476a4.192,4.192,0,0,1-4.2,4.2v-8.4A4.192,4.192,0,0,1,260.2,336.476Z" transform="translate(-232.143 -304.068)" fill="#1b3555"/>
    </g>
  </g>
</svg>
